<svg width="43" height="43" viewBox="0 0 43 43" fill="none" xmlns="http://www.w3.org/2000/svg">
<rect width="43" height="43" rx="21.5" fill="white"/>
<g clip-path="url(#clip0_917_478)">
<path d="M24.1166 23.6258C24.1166 23.6258 24.298 23.4445 24.6607 23.0818C25.0234 22.719 25.2048 22.025 25.2048 20.9997C25.2048 19.9744 24.8421 19.0991 24.1166 18.3736C23.3912 17.6482 22.5158 17.2854 21.4905 17.2854C20.4652 17.2854 19.5898 17.6482 18.8644 18.3736C18.139 19.0991 17.7762 19.9744 17.7762 20.9997C17.7762 22.025 18.139 22.9004 18.8644 23.6258C19.5898 24.3513 20.4652 24.714 21.4905 24.714C22.5158 24.714 23.3912 24.3513 24.1166 23.6258ZM25.5385 16.9517C25.5385 16.9517 25.8166 17.2298 26.3728 17.786C26.9289 18.3422 27.207 19.4134 27.207 20.9997C27.207 22.586 26.6509 23.9354 25.5385 25.0477C24.4262 26.1601 23.0768 26.7162 21.4905 26.7162C19.9042 26.7162 18.5549 26.1601 17.4425 25.0477C16.3302 23.9354 15.774 22.586 15.774 20.9997C15.774 19.4134 16.3302 18.0641 17.4425 16.9517C18.5549 15.8394 19.9042 15.2832 21.4905 15.2832C23.0768 15.2832 24.4262 15.8394 25.5385 16.9517ZM28.3823 14.108C28.3823 14.108 28.4475 14.1733 28.5781 14.3039C28.7087 14.4344 28.774 14.6835 28.774 15.0511C28.774 15.4186 28.6434 15.733 28.3823 15.9941C28.1211 16.2553 27.8067 16.3859 27.4392 16.3859C27.0716 16.3859 26.7573 16.2553 26.4961 15.9941C26.2349 15.733 26.1044 15.4186 26.1044 15.0511C26.1044 14.6835 26.2349 14.3691 26.4961 14.108C26.7573 13.8468 27.0716 13.7162 27.4392 13.7162C27.8067 13.7162 28.1211 13.8468 28.3823 14.108ZM22.6004 11.8518C22.6004 11.8518 22.4324 11.8531 22.0963 11.8555C21.7601 11.8579 21.5582 11.8591 21.4905 11.8591C21.4228 11.8591 21.0528 11.8567 20.3806 11.8518C19.7083 11.847 19.1981 11.847 18.8499 11.8518C18.5017 11.8567 18.035 11.8712 17.4498 11.8954C16.8646 11.9195 16.3664 11.9679 15.9554 12.0405C15.5443 12.113 15.1985 12.2025 14.918 12.3089C14.4343 12.5023 14.0087 12.7828 13.6412 13.1504C13.2736 13.518 12.9931 13.9435 12.7997 14.4272C12.6933 14.7077 12.6038 15.0535 12.5312 15.4646C12.4587 15.8757 12.4103 16.3738 12.3862 16.959C12.362 17.5442 12.3475 18.0109 12.3426 18.3591C12.3378 18.7073 12.3378 19.2175 12.3426 19.8898C12.3475 20.562 12.3499 20.932 12.3499 20.9997C12.3499 21.0674 12.3475 21.4374 12.3426 22.1097C12.3378 22.7819 12.3378 23.2921 12.3426 23.6403C12.3475 23.9886 12.362 24.4553 12.3862 25.0405C12.4103 25.6257 12.4587 26.1238 12.5312 26.5349C12.6038 26.946 12.6933 27.2918 12.7997 27.5723C12.9931 28.0559 13.2736 28.4815 13.6412 28.8491C14.0087 29.2166 14.4343 29.4971 14.918 29.6906C15.1985 29.797 15.5443 29.8864 15.9554 29.959C16.3664 30.0315 16.8646 30.0799 17.4498 30.1041C18.035 30.1283 18.5017 30.1428 18.8499 30.1476C19.1981 30.1524 19.7083 30.1524 20.3806 30.1476C21.0528 30.1428 21.4228 30.1403 21.4905 30.1403C21.5582 30.1403 21.9282 30.1428 22.6004 30.1476C23.2727 30.1524 23.7829 30.1524 24.1311 30.1476C24.4794 30.1428 24.9461 30.1283 25.5312 30.1041C26.1164 30.0799 26.6146 30.0315 27.0257 29.959C27.4368 29.8864 27.7826 29.797 28.0631 29.6906C28.5467 29.4971 28.9723 29.2166 29.3398 28.8491C29.7074 28.4815 29.9879 28.0559 30.1814 27.5723C30.2878 27.2918 30.3772 26.946 30.4498 26.5349C30.5223 26.1238 30.5707 25.6257 30.5949 25.0405C30.619 24.4553 30.6336 23.9886 30.6384 23.6403C30.6432 23.2921 30.6432 22.7819 30.6384 22.1097C30.6336 21.4374 30.6311 21.0674 30.6311 20.9997C30.6311 20.932 30.6336 20.562 30.6384 19.8898C30.6432 19.2175 30.6432 18.7073 30.6384 18.3591C30.6336 18.0109 30.619 17.5442 30.5949 16.959C30.5707 16.3738 30.5223 15.8757 30.4498 15.4646C30.3772 15.0535 30.2878 14.7077 30.1814 14.4272C29.9879 13.9435 29.7074 13.518 29.3398 13.1504C28.9723 12.7828 28.5467 12.5023 28.0631 12.3089C27.7826 12.2025 27.4368 12.113 27.0257 12.0405C26.6146 11.9679 26.1164 11.9195 25.5312 11.8954C24.9461 11.8712 24.4794 11.8567 24.1311 11.8518C23.7829 11.847 23.2727 11.847 22.6004 11.8518ZM32.5608 16.4004C32.6092 17.2516 32.6334 18.7847 32.6334 20.9997C32.6334 23.2148 32.6092 24.7479 32.5608 25.5991C32.4641 27.611 31.8644 29.1682 30.7617 30.2709C29.659 31.3736 28.1017 31.9733 26.0898 32.07C25.2387 32.1184 23.7055 32.1426 21.4905 32.1426C19.2755 32.1426 17.7424 32.1184 16.8912 32.07C14.8793 31.9733 13.322 31.3736 12.2193 30.2709C11.1166 29.1682 10.5169 27.611 10.4202 25.5991C10.3718 24.7479 10.3477 23.2148 10.3477 20.9997C10.3477 18.7847 10.3718 17.2516 10.4202 16.4004C10.5169 14.3885 11.1166 12.8312 12.2193 11.7285C13.322 10.6258 14.8793 10.0261 16.8912 9.92941C17.7424 9.88105 19.2755 9.85686 21.4905 9.85686C23.7055 9.85686 25.2387 9.88105 26.0898 9.92941C28.1017 10.0261 29.659 10.6258 30.7617 11.7285C31.8644 12.8312 32.4641 14.3885 32.5608 16.4004Z" fill="black"/>
</g>
<defs>
<clipPath id="clip0_917_478">
<rect width="22.3" height="26" fill="white" transform="matrix(1 0 0 -1 10.3398 34)"/>
</clipPath>
</defs>
</svg>
