<svg width="43" height="43" viewBox="0 0 43 43" fill="none" xmlns="http://www.w3.org/2000/svg">
<rect width="43" height="43" rx="21.5" fill="white"/>
<g clip-path="url(#clip0_917_484)">
<path d="M18.8068 24.3661L25.8291 20.7388L18.8068 17.0681V24.3661ZM21.491 11.8594C23.116 11.8594 24.6853 11.8811 26.1991 11.9247C27.7129 11.9682 28.8228 12.0141 29.5289 12.0625L30.5881 12.1205C30.5977 12.1205 30.6799 12.1278 30.8347 12.1423C30.9895 12.1568 31.1007 12.1713 31.1684 12.1858C31.2361 12.2003 31.3498 12.2221 31.5094 12.2511C31.669 12.2801 31.8068 12.3188 31.9229 12.3672C32.039 12.4156 32.1744 12.4784 32.3291 12.5558C32.4839 12.6332 32.6338 12.7275 32.7789 12.8387C32.924 12.95 33.0642 13.0781 33.1997 13.2232C33.2577 13.2812 33.3327 13.3707 33.4246 13.4916C33.5164 13.6125 33.6567 13.8955 33.8453 14.3404C34.0339 14.7853 34.1621 15.2738 34.2298 15.8058C34.3072 16.4249 34.3676 17.085 34.4112 17.7863C34.4547 18.4875 34.4813 19.0365 34.491 19.433V20.0134V21.9866C34.5006 23.3891 34.4136 24.7917 34.2298 26.1942C34.1621 26.7262 34.0412 27.2074 33.8671 27.6378C33.693 28.0683 33.5382 28.3657 33.4028 28.5301L33.1997 28.7768C33.0642 28.9219 32.924 29.05 32.7789 29.1613C32.6338 29.2725 32.4839 29.3644 32.3291 29.4369C32.1744 29.5095 32.039 29.5699 31.9229 29.6183C31.8068 29.6667 31.669 29.7054 31.5094 29.7344C31.3498 29.7634 31.2337 29.7852 31.1612 29.7997C31.0886 29.8142 30.9774 29.8287 30.8275 29.8432C30.6775 29.8577 30.5977 29.865 30.5881 29.865C28.1602 30.0487 25.1279 30.1406 21.491 30.1406C19.4887 30.1213 17.7501 30.0898 16.275 30.0463C14.7999 30.0028 13.8302 29.9665 13.366 29.9375L12.655 29.8795L12.1327 29.8214C11.7845 29.7731 11.5209 29.7247 11.342 29.6763C11.163 29.628 10.9164 29.5264 10.602 29.3717C10.2876 29.2169 10.0144 29.0186 9.78225 28.7768C9.72422 28.7188 9.64926 28.6293 9.55737 28.5084C9.46548 28.3875 9.32522 28.1045 9.13661 27.6596C8.94799 27.2147 8.81983 26.7262 8.75212 26.1942C8.67474 25.5751 8.61429 24.915 8.57076 24.2137C8.52723 23.5125 8.50063 22.9635 8.49096 22.567V21.9866V20.0134C8.48129 18.6109 8.56834 17.2083 8.75212 15.8058C8.81983 15.2738 8.94074 14.7926 9.11484 14.3622C9.28895 13.9317 9.44371 13.6343 9.57913 13.4699L9.78225 13.2232C9.91767 13.0781 10.0579 12.95 10.203 12.8387C10.3481 12.7275 10.498 12.6332 10.6528 12.5558C10.8076 12.4784 10.943 12.4156 11.059 12.3672C11.1751 12.3188 11.3129 12.2801 11.4725 12.2511C11.6321 12.2221 11.7458 12.2003 11.8135 12.1858C11.8812 12.1713 11.9924 12.1568 12.1472 12.1423C12.302 12.1278 12.3842 12.1205 12.3939 12.1205C14.8217 11.9464 17.8541 11.8594 21.491 11.8594Z" fill="black"/>
</g>
<defs>
<clipPath id="clip0_917_484">
<rect width="26.02" height="26" fill="white" transform="matrix(1 0 0 -1 8.48047 34)"/>
</clipPath>
</defs>
</svg>
