<svg width="85" height="88" viewBox="0 0 85 88" fill="none" xmlns="http://www.w3.org/2000/svg">
<mask id="path-1-outside-1_917_445" maskUnits="userSpaceOnUse" x="-0.126953" y="0" width="85" height="88" fill="black">
<rect fill="white" x="-0.126953" width="85" height="88"/>
<path d="M42.1039 70.4939C40.2962 70.7141 37.7648 69.7969 35.2034 70.4372C33.6592 70.8241 32.2751 71.4445 31.0111 72.385C29.7371 73.3322 28.8366 74.1793 29.9372 76.0237C30.8277 77.5145 30.2407 79.1987 29.05 80.4694C27.4925 82.1303 25.8983 83.7646 24.224 85.3054C22.353 87.0264 19.875 87.0564 18.054 85.2687C12.7411 80.0492 7.46818 74.7896 2.26532 69.4634C0.317588 67.4689 0.457665 65.1277 2.40874 63.0765C3.82618 61.5891 5.30699 60.1583 6.76446 58.7108C8.00181 57.4801 9.4993 56.9765 11.1869 57.4234C12.074 57.6602 12.6544 57.4001 13.2914 56.8631C15.8361 54.7053 18.4976 52.6842 20.9489 50.4296C26.0117 45.7704 31.945 44.6297 38.2984 46.5208C42.394 47.7381 46.4529 48.0183 50.6252 47.9516C52.2361 47.9249 53.847 47.9516 55.4612 47.9516C57.3823 47.9516 59.1232 48.5486 60.4406 49.9226C61.3578 50.8798 61.8814 50.6497 62.7185 49.866C65.6401 47.1345 68.5751 44.4096 71.6167 41.8115C74.495 39.3535 78.5539 39.1968 81.5288 41.2212C84.1936 43.0322 84.5372 45.8771 82.2693 48.1617C76.6729 53.8048 71.0731 59.4445 65.4 65.0109C62.4384 67.9159 58.5062 68.7096 54.6174 69.44C50.7353 70.1704 46.7931 70.3439 42.1139 70.4939H42.1039ZM47.1266 60.1516C43.5146 60.1516 39.9027 60.1616 36.2907 60.1449C35.0833 60.1383 33.4858 60.3384 33.4491 58.6474C33.4091 56.8098 35.08 57.0266 36.3307 57.0232C43.3345 57.0065 50.3351 57.0232 57.3389 57.0032C58.196 57.0032 59.2466 57.2767 59.7369 56.2861C60.2438 55.2622 59.917 54.2183 59.3633 53.2712C58.7497 52.2139 57.8292 51.5369 56.6619 51.18C55.638 50.8665 54.5841 50.8665 53.5268 50.8465C47.9471 50.7498 42.4107 51.09 36.8743 49.3323C31.8049 47.7248 26.9022 48.9221 22.8366 52.7809C20.6254 54.882 18.2074 56.7731 15.8028 58.6574C14.6988 59.5213 14.7955 60.0816 15.7227 60.9987C19.1212 64.3572 22.4698 67.7691 25.7949 71.201C26.5487 71.9814 27.0756 72.0014 27.836 71.221C30.6776 68.2994 34.1562 67.1087 38.2284 67.2588C43.1111 67.4389 48.0038 67.4156 52.8564 66.6352C56.4284 66.0615 60.2071 65.7046 62.932 63.1166C68.7352 57.6102 74.3082 51.8604 79.9647 46.2006C80.9752 45.19 80.675 44.3262 79.5811 43.6059C77.7301 42.3918 75.2421 42.5986 73.4111 44.2295C70.1726 47.1111 66.9875 50.0494 63.7691 52.9543C63.2488 53.4246 62.972 53.8882 63.0154 54.6719C63.2121 58.3406 61.4678 60.1349 57.7892 60.1483C54.2339 60.1616 50.6752 60.1483 47.12 60.1483L47.1266 60.1516ZM27.1823 77.4378C27.199 76.9508 26.9289 76.594 26.612 76.2771C21.5159 71.1743 16.4131 66.0715 11.3136 60.972C10.5065 60.1616 9.66272 60.1082 8.8356 60.9187C7.44817 62.2794 6.07742 63.6535 4.71667 65.0376C3.86287 65.9048 3.8662 66.7852 4.73668 67.6557C9.79946 72.7152 14.8622 77.7779 19.9217 82.8374C20.7421 83.6578 21.5626 83.6645 22.383 82.8441C23.7938 81.43 25.2113 80.0225 26.6154 78.6017C26.9289 78.2849 27.1957 77.9247 27.1823 77.4378Z"/>
<path d="M46.9699 39.5036C43.9716 39.4869 41.827 37.1423 42.1172 34.2674C42.2273 33.1634 42.3307 32.0362 42.6542 30.9856C43.1211 29.4714 42.5975 28.4242 41.5002 27.4603C40.6664 26.7266 39.8593 25.9528 39.1389 25.109C36.6909 22.2441 38.0616 18.1319 41.737 17.2914C42.9777 17.0079 44.245 16.7945 45.5124 16.6744C46.6597 16.5677 47.3201 15.9607 47.787 14.9901C48.3173 13.8895 48.8242 12.7723 49.4346 11.7183C51.3123 8.47323 55.6847 8.39652 57.6824 11.5649C58.066 12.1719 58.4595 12.8123 58.663 13.4893C59.4167 15.994 61.161 16.8912 63.6457 16.9779C66.0504 17.0646 68.1348 17.8951 69.032 20.4165C69.719 22.3542 69.2755 24.2285 67.7446 25.4225C64.8664 27.6671 63.8725 30.2218 65.0098 33.7938C65.5968 35.6415 64.833 37.4425 63.1621 38.6231C61.4545 39.8304 59.5134 39.9772 57.8392 38.8132C54.9342 36.7921 52.2261 36.582 49.3945 38.8566C48.7008 39.4135 47.7736 39.5703 46.9699 39.5036ZM45.1355 34.4708C45.1455 36.025 46.2728 36.8288 47.5969 36.3419C47.8037 36.2652 48.0204 36.1851 48.1972 36.055C51.8292 33.3869 55.4545 33.4002 59.0765 36.0684C59.1199 36.1017 59.1732 36.1217 59.2233 36.1451C60.9409 36.9322 62.0682 36.1884 61.9514 34.2674C61.8814 33.1068 61.7246 31.9428 61.4645 30.8088C61.0276 28.8778 61.6146 27.3102 62.9386 25.9462C63.8291 25.029 64.793 24.1819 65.6368 23.2247C66.7241 21.9873 66.2538 20.5732 64.6462 20.213C63.6757 19.9929 62.6752 19.8895 61.6813 19.7861C59.3367 19.5426 57.6024 18.4854 56.6619 16.2408C56.275 15.3203 55.8214 14.4232 55.3211 13.5594C54.4173 11.9952 52.8564 11.9585 51.9159 13.496C51.3656 14.3931 50.8854 15.3437 50.4818 16.3142C49.568 18.5121 47.8504 19.5093 45.5891 19.7794C44.6519 19.8895 43.7148 20.0029 42.7876 20.1663C41.0366 20.4798 40.473 22.0207 41.6436 23.3581C42.3006 24.1085 43.001 24.8389 43.7748 25.4659C45.7459 27.0701 46.0994 29.1346 45.6658 31.4759C45.4724 32.5131 45.2956 33.5503 45.1322 34.4675L45.1355 34.4708Z"/>
<path d="M74.0948 13.2625C74.1081 14.2931 73.4444 14.7033 72.7607 15.0902C72.0003 15.5204 71.2499 16.1174 70.3127 15.6005C69.649 15.2336 69.4589 14.6099 69.669 13.8962C69.9191 13.0357 72.017 11.8084 72.9208 11.9852C73.6679 12.1319 74.0481 12.6122 74.0948 13.2659V13.2625Z"/>
<path d="M55.1143 3.32707C55.1177 4.4777 55.0677 5.76174 53.5401 5.7017C52.056 5.64167 52.0427 4.30093 52.0393 3.197C52.0393 2.11307 52.2127 0.939089 53.6535 1.00246C55.0843 1.06582 55.1077 2.24647 55.111 3.3304L55.1143 3.32707Z"/>
<path d="M42.4307 3.94074C43.478 3.90405 45.0021 5.68836 45.0088 6.88902C45.0121 7.78618 44.5152 8.33982 43.6114 8.4232C42.7009 8.50658 41.2 6.66557 41.1734 5.45824C41.1533 4.53773 41.6303 4.02745 42.4274 3.94407L42.4307 3.94074Z"/>
<path d="M34.6464 11.9685C35.8638 12.0118 37.7348 13.4826 37.6514 14.3898C37.5714 15.2836 37.0211 15.7772 36.1106 15.7772C34.9066 15.7772 33.0889 14.2898 33.1156 13.3559C33.1389 12.5421 33.806 11.9418 34.6498 11.9718L34.6464 11.9685Z"/>
<path d="M63.6257 8.42987C62.8252 8.34982 62.285 7.90625 62.2583 6.9624C62.2283 5.84178 63.5757 4.0041 64.4795 3.95074C65.4133 3.89404 65.9603 4.37764 66.0503 5.29148C66.1537 6.36874 64.6262 8.38318 63.6257 8.42987Z"/>
<path d="M32.5753 25.8461C31.8682 25.8061 31.0878 25.9862 30.5442 25.3525C29.9972 24.7155 30.0006 24.0251 30.5742 23.4048C31.2012 22.7244 33.8293 22.7177 34.4997 23.3847C35.1034 23.9851 35.1434 24.6588 34.5931 25.3158C34.0561 25.9562 33.2857 25.8161 32.5753 25.8461Z"/>
<path d="M74.6851 25.8428C73.868 25.8194 72.9641 25.9828 72.4639 25.0957C72.0903 24.4287 72.2037 23.7049 72.8441 23.3347C74.0081 22.6644 75.2988 22.6844 76.4727 23.3114C77.1198 23.6549 77.2565 24.372 76.8863 25.0557C76.396 25.9595 75.5089 25.8294 74.6851 25.8428Z"/>
</mask>
<path d="M42.1039 70.4939C40.2962 70.7141 37.7648 69.7969 35.2034 70.4372C33.6592 70.8241 32.2751 71.4445 31.0111 72.385C29.7371 73.3322 28.8366 74.1793 29.9372 76.0237C30.8277 77.5145 30.2407 79.1987 29.05 80.4694C27.4925 82.1303 25.8983 83.7646 24.224 85.3054C22.353 87.0264 19.875 87.0564 18.054 85.2687C12.7411 80.0492 7.46818 74.7896 2.26532 69.4634C0.317588 67.4689 0.457665 65.1277 2.40874 63.0765C3.82618 61.5891 5.30699 60.1583 6.76446 58.7108C8.00181 57.4801 9.4993 56.9765 11.1869 57.4234C12.074 57.6602 12.6544 57.4001 13.2914 56.8631C15.8361 54.7053 18.4976 52.6842 20.9489 50.4296C26.0117 45.7704 31.945 44.6297 38.2984 46.5208C42.394 47.7381 46.4529 48.0183 50.6252 47.9516C52.2361 47.9249 53.847 47.9516 55.4612 47.9516C57.3823 47.9516 59.1232 48.5486 60.4406 49.9226C61.3578 50.8798 61.8814 50.6497 62.7185 49.866C65.6401 47.1345 68.5751 44.4096 71.6167 41.8115C74.495 39.3535 78.5539 39.1968 81.5288 41.2212C84.1936 43.0322 84.5372 45.8771 82.2693 48.1617C76.6729 53.8048 71.0731 59.4445 65.4 65.0109C62.4384 67.9159 58.5062 68.7096 54.6174 69.44C50.7353 70.1704 46.7931 70.3439 42.1139 70.4939H42.1039ZM47.1266 60.1516C43.5146 60.1516 39.9027 60.1616 36.2907 60.1449C35.0833 60.1383 33.4858 60.3384 33.4491 58.6474C33.4091 56.8098 35.08 57.0266 36.3307 57.0232C43.3345 57.0065 50.3351 57.0232 57.3389 57.0032C58.196 57.0032 59.2466 57.2767 59.7369 56.2861C60.2438 55.2622 59.917 54.2183 59.3633 53.2712C58.7497 52.2139 57.8292 51.5369 56.6619 51.18C55.638 50.8665 54.5841 50.8665 53.5268 50.8465C47.9471 50.7498 42.4107 51.09 36.8743 49.3323C31.8049 47.7248 26.9022 48.9221 22.8366 52.7809C20.6254 54.882 18.2074 56.7731 15.8028 58.6574C14.6988 59.5213 14.7955 60.0816 15.7227 60.9987C19.1212 64.3572 22.4698 67.7691 25.7949 71.201C26.5487 71.9814 27.0756 72.0014 27.836 71.221C30.6776 68.2994 34.1562 67.1087 38.2284 67.2588C43.1111 67.4389 48.0038 67.4156 52.8564 66.6352C56.4284 66.0615 60.2071 65.7046 62.932 63.1166C68.7352 57.6102 74.3082 51.8604 79.9647 46.2006C80.9752 45.19 80.675 44.3262 79.5811 43.6059C77.7301 42.3918 75.2421 42.5986 73.4111 44.2295C70.1726 47.1111 66.9875 50.0494 63.7691 52.9543C63.2488 53.4246 62.972 53.8882 63.0154 54.6719C63.2121 58.3406 61.4678 60.1349 57.7892 60.1483C54.2339 60.1616 50.6752 60.1483 47.12 60.1483L47.1266 60.1516ZM27.1823 77.4378C27.199 76.9508 26.9289 76.594 26.612 76.2771C21.5159 71.1743 16.4131 66.0715 11.3136 60.972C10.5065 60.1616 9.66272 60.1082 8.8356 60.9187C7.44817 62.2794 6.07742 63.6535 4.71667 65.0376C3.86287 65.9048 3.8662 66.7852 4.73668 67.6557C9.79946 72.7152 14.8622 77.7779 19.9217 82.8374C20.7421 83.6578 21.5626 83.6645 22.383 82.8441C23.7938 81.43 25.2113 80.0225 26.6154 78.6017C26.9289 78.2849 27.1957 77.9247 27.1823 77.4378Z" fill="#FFCC00"/>
<path d="M46.9699 39.5036C43.9716 39.4869 41.827 37.1423 42.1172 34.2674C42.2273 33.1634 42.3307 32.0362 42.6542 30.9856C43.1211 29.4714 42.5975 28.4242 41.5002 27.4603C40.6664 26.7266 39.8593 25.9528 39.1389 25.109C36.6909 22.2441 38.0616 18.1319 41.737 17.2914C42.9777 17.0079 44.245 16.7945 45.5124 16.6744C46.6597 16.5677 47.3201 15.9607 47.787 14.9901C48.3173 13.8895 48.8242 12.7723 49.4346 11.7183C51.3123 8.47323 55.6847 8.39652 57.6824 11.5649C58.066 12.1719 58.4595 12.8123 58.663 13.4893C59.4167 15.994 61.161 16.8912 63.6457 16.9779C66.0504 17.0646 68.1348 17.8951 69.032 20.4165C69.719 22.3542 69.2755 24.2285 67.7446 25.4225C64.8664 27.6671 63.8725 30.2218 65.0098 33.7938C65.5968 35.6415 64.833 37.4425 63.1621 38.6231C61.4545 39.8304 59.5134 39.9772 57.8392 38.8132C54.9342 36.7921 52.2261 36.582 49.3945 38.8566C48.7008 39.4135 47.7736 39.5703 46.9699 39.5036ZM45.1355 34.4708C45.1455 36.025 46.2728 36.8288 47.5969 36.3419C47.8037 36.2652 48.0204 36.1851 48.1972 36.055C51.8292 33.3869 55.4545 33.4002 59.0765 36.0684C59.1199 36.1017 59.1732 36.1217 59.2233 36.1451C60.9409 36.9322 62.0682 36.1884 61.9514 34.2674C61.8814 33.1068 61.7246 31.9428 61.4645 30.8088C61.0276 28.8778 61.6146 27.3102 62.9386 25.9462C63.8291 25.029 64.793 24.1819 65.6368 23.2247C66.7241 21.9873 66.2538 20.5732 64.6462 20.213C63.6757 19.9929 62.6752 19.8895 61.6813 19.7861C59.3367 19.5426 57.6024 18.4854 56.6619 16.2408C56.275 15.3203 55.8214 14.4232 55.3211 13.5594C54.4173 11.9952 52.8564 11.9585 51.9159 13.496C51.3656 14.3931 50.8854 15.3437 50.4818 16.3142C49.568 18.5121 47.8504 19.5093 45.5891 19.7794C44.6519 19.8895 43.7148 20.0029 42.7876 20.1663C41.0366 20.4798 40.473 22.0207 41.6436 23.3581C42.3006 24.1085 43.001 24.8389 43.7748 25.4659C45.7459 27.0701 46.0994 29.1346 45.6658 31.4759C45.4724 32.5131 45.2956 33.5503 45.1322 34.4675L45.1355 34.4708Z" fill="#FFCC00"/>
<path d="M74.0948 13.2625C74.1081 14.2931 73.4444 14.7033 72.7607 15.0902C72.0003 15.5204 71.2499 16.1174 70.3127 15.6005C69.649 15.2336 69.4589 14.6099 69.669 13.8962C69.9191 13.0357 72.017 11.8084 72.9208 11.9852C73.6679 12.1319 74.0481 12.6122 74.0948 13.2659V13.2625Z" fill="#FFCC00"/>
<path d="M55.1143 3.32707C55.1177 4.4777 55.0677 5.76174 53.5401 5.7017C52.056 5.64167 52.0427 4.30093 52.0393 3.197C52.0393 2.11307 52.2127 0.939089 53.6535 1.00246C55.0843 1.06582 55.1077 2.24647 55.111 3.3304L55.1143 3.32707Z" fill="#FFCC00"/>
<path d="M42.4307 3.94074C43.478 3.90405 45.0021 5.68836 45.0088 6.88902C45.0121 7.78618 44.5152 8.33982 43.6114 8.4232C42.7009 8.50658 41.2 6.66557 41.1734 5.45824C41.1533 4.53773 41.6303 4.02745 42.4274 3.94407L42.4307 3.94074Z" fill="#FFCC00"/>
<path d="M34.6464 11.9685C35.8638 12.0118 37.7348 13.4826 37.6514 14.3898C37.5714 15.2836 37.0211 15.7772 36.1106 15.7772C34.9066 15.7772 33.0889 14.2898 33.1156 13.3559C33.1389 12.5421 33.806 11.9418 34.6498 11.9718L34.6464 11.9685Z" fill="#FFCC00"/>
<path d="M63.6257 8.42987C62.8252 8.34982 62.285 7.90625 62.2583 6.9624C62.2283 5.84178 63.5757 4.0041 64.4795 3.95074C65.4133 3.89404 65.9603 4.37764 66.0503 5.29148C66.1537 6.36874 64.6262 8.38318 63.6257 8.42987Z" fill="#FFCC00"/>
<path d="M32.5753 25.8461C31.8682 25.8061 31.0878 25.9862 30.5442 25.3525C29.9972 24.7155 30.0006 24.0251 30.5742 23.4048C31.2012 22.7244 33.8293 22.7177 34.4997 23.3847C35.1034 23.9851 35.1434 24.6588 34.5931 25.3158C34.0561 25.9562 33.2857 25.8161 32.5753 25.8461Z" fill="#FFCC00"/>
<path d="M74.6851 25.8428C73.868 25.8194 72.9641 25.9828 72.4639 25.0957C72.0903 24.4287 72.2037 23.7049 72.8441 23.3347C74.0081 22.6644 75.2988 22.6844 76.4727 23.3114C77.1198 23.6549 77.2565 24.372 76.8863 25.0557C76.396 25.9595 75.5089 25.8294 74.6851 25.8428Z" fill="#FFCC00"/>
<path d="M42.1039 70.4939C40.2962 70.7141 37.7648 69.7969 35.2034 70.4372C33.6592 70.8241 32.2751 71.4445 31.0111 72.385C29.7371 73.3322 28.8366 74.1793 29.9372 76.0237C30.8277 77.5145 30.2407 79.1987 29.05 80.4694C27.4925 82.1303 25.8983 83.7646 24.224 85.3054C22.353 87.0264 19.875 87.0564 18.054 85.2687C12.7411 80.0492 7.46818 74.7896 2.26532 69.4634C0.317588 67.4689 0.457665 65.1277 2.40874 63.0765C3.82618 61.5891 5.30699 60.1583 6.76446 58.7108C8.00181 57.4801 9.4993 56.9765 11.1869 57.4234C12.074 57.6602 12.6544 57.4001 13.2914 56.8631C15.8361 54.7053 18.4976 52.6842 20.9489 50.4296C26.0117 45.7704 31.945 44.6297 38.2984 46.5208C42.394 47.7381 46.4529 48.0183 50.6252 47.9516C52.2361 47.9249 53.847 47.9516 55.4612 47.9516C57.3823 47.9516 59.1232 48.5486 60.4406 49.9226C61.3578 50.8798 61.8814 50.6497 62.7185 49.866C65.6401 47.1345 68.5751 44.4096 71.6167 41.8115C74.495 39.3535 78.5539 39.1968 81.5288 41.2212C84.1936 43.0322 84.5372 45.8771 82.2693 48.1617C76.6729 53.8048 71.0731 59.4445 65.4 65.0109C62.4384 67.9159 58.5062 68.7096 54.6174 69.44C50.7353 70.1704 46.7931 70.3439 42.1139 70.4939H42.1039ZM47.1266 60.1516C43.5146 60.1516 39.9027 60.1616 36.2907 60.1449C35.0833 60.1383 33.4858 60.3384 33.4491 58.6474C33.4091 56.8098 35.08 57.0266 36.3307 57.0232C43.3345 57.0065 50.3351 57.0232 57.3389 57.0032C58.196 57.0032 59.2466 57.2767 59.7369 56.2861C60.2438 55.2622 59.917 54.2183 59.3633 53.2712C58.7497 52.2139 57.8292 51.5369 56.6619 51.18C55.638 50.8665 54.5841 50.8665 53.5268 50.8465C47.9471 50.7498 42.4107 51.09 36.8743 49.3323C31.8049 47.7248 26.9022 48.9221 22.8366 52.7809C20.6254 54.882 18.2074 56.7731 15.8028 58.6574C14.6988 59.5213 14.7955 60.0816 15.7227 60.9987C19.1212 64.3572 22.4698 67.7691 25.7949 71.201C26.5487 71.9814 27.0756 72.0014 27.836 71.221C30.6776 68.2994 34.1562 67.1087 38.2284 67.2588C43.1111 67.4389 48.0038 67.4156 52.8564 66.6352C56.4284 66.0615 60.2071 65.7046 62.932 63.1166C68.7352 57.6102 74.3082 51.8604 79.9647 46.2006C80.9752 45.19 80.675 44.3262 79.5811 43.6059C77.7301 42.3918 75.2421 42.5986 73.4111 44.2295C70.1726 47.1111 66.9875 50.0494 63.7691 52.9543C63.2488 53.4246 62.972 53.8882 63.0154 54.6719C63.2121 58.3406 61.4678 60.1349 57.7892 60.1483C54.2339 60.1616 50.6752 60.1483 47.12 60.1483L47.1266 60.1516ZM27.1823 77.4378C27.199 76.9508 26.9289 76.594 26.612 76.2771C21.5159 71.1743 16.4131 66.0715 11.3136 60.972C10.5065 60.1616 9.66272 60.1082 8.8356 60.9187C7.44817 62.2794 6.07742 63.6535 4.71667 65.0376C3.86287 65.9048 3.8662 66.7852 4.73668 67.6557C9.79946 72.7152 14.8622 77.7779 19.9217 82.8374C20.7421 83.6578 21.5626 83.6645 22.383 82.8441C23.7938 81.43 25.2113 80.0225 26.6154 78.6017C26.9289 78.2849 27.1957 77.9247 27.1823 77.4378Z" stroke="#FFCC00" stroke-width="1.09891" mask="url(#path-1-outside-1_917_445)"/>
<path d="M46.9699 39.5036C43.9716 39.4869 41.827 37.1423 42.1172 34.2674C42.2273 33.1634 42.3307 32.0362 42.6542 30.9856C43.1211 29.4714 42.5975 28.4242 41.5002 27.4603C40.6664 26.7266 39.8593 25.9528 39.1389 25.109C36.6909 22.2441 38.0616 18.1319 41.737 17.2914C42.9777 17.0079 44.245 16.7945 45.5124 16.6744C46.6597 16.5677 47.3201 15.9607 47.787 14.9901C48.3173 13.8895 48.8242 12.7723 49.4346 11.7183C51.3123 8.47323 55.6847 8.39652 57.6824 11.5649C58.066 12.1719 58.4595 12.8123 58.663 13.4893C59.4167 15.994 61.161 16.8912 63.6457 16.9779C66.0504 17.0646 68.1348 17.8951 69.032 20.4165C69.719 22.3542 69.2755 24.2285 67.7446 25.4225C64.8664 27.6671 63.8725 30.2218 65.0098 33.7938C65.5968 35.6415 64.833 37.4425 63.1621 38.6231C61.4545 39.8304 59.5134 39.9772 57.8392 38.8132C54.9342 36.7921 52.2261 36.582 49.3945 38.8566C48.7008 39.4135 47.7736 39.5703 46.9699 39.5036ZM45.1355 34.4708C45.1455 36.025 46.2728 36.8288 47.5969 36.3419C47.8037 36.2652 48.0204 36.1851 48.1972 36.055C51.8292 33.3869 55.4545 33.4002 59.0765 36.0684C59.1199 36.1017 59.1732 36.1217 59.2233 36.1451C60.9409 36.9322 62.0682 36.1884 61.9514 34.2674C61.8814 33.1068 61.7246 31.9428 61.4645 30.8088C61.0276 28.8778 61.6146 27.3102 62.9386 25.9462C63.8291 25.029 64.793 24.1819 65.6368 23.2247C66.7241 21.9873 66.2538 20.5732 64.6462 20.213C63.6757 19.9929 62.6752 19.8895 61.6813 19.7861C59.3367 19.5426 57.6024 18.4854 56.6619 16.2408C56.275 15.3203 55.8214 14.4232 55.3211 13.5594C54.4173 11.9952 52.8564 11.9585 51.9159 13.496C51.3656 14.3931 50.8854 15.3437 50.4818 16.3142C49.568 18.5121 47.8504 19.5093 45.5891 19.7794C44.6519 19.8895 43.7148 20.0029 42.7876 20.1663C41.0366 20.4798 40.473 22.0207 41.6436 23.3581C42.3006 24.1085 43.001 24.8389 43.7748 25.4659C45.7459 27.0701 46.0994 29.1346 45.6658 31.4759C45.4724 32.5131 45.2956 33.5503 45.1322 34.4675L45.1355 34.4708Z" stroke="#FFCC00" stroke-width="1.09891" mask="url(#path-1-outside-1_917_445)"/>
<path d="M74.0948 13.2625C74.1081 14.2931 73.4444 14.7033 72.7607 15.0902C72.0003 15.5204 71.2499 16.1174 70.3127 15.6005C69.649 15.2336 69.4589 14.6099 69.669 13.8962C69.9191 13.0357 72.017 11.8084 72.9208 11.9852C73.6679 12.1319 74.0481 12.6122 74.0948 13.2659V13.2625Z" stroke="#FFCC00" stroke-width="1.09891" mask="url(#path-1-outside-1_917_445)"/>
<path d="M55.1143 3.32707C55.1177 4.4777 55.0677 5.76174 53.5401 5.7017C52.056 5.64167 52.0427 4.30093 52.0393 3.197C52.0393 2.11307 52.2127 0.939089 53.6535 1.00246C55.0843 1.06582 55.1077 2.24647 55.111 3.3304L55.1143 3.32707Z" stroke="#FFCC00" stroke-width="1.09891" mask="url(#path-1-outside-1_917_445)"/>
<path d="M42.4307 3.94074C43.478 3.90405 45.0021 5.68836 45.0088 6.88902C45.0121 7.78618 44.5152 8.33982 43.6114 8.4232C42.7009 8.50658 41.2 6.66557 41.1734 5.45824C41.1533 4.53773 41.6303 4.02745 42.4274 3.94407L42.4307 3.94074Z" stroke="#FFCC00" stroke-width="1.09891" mask="url(#path-1-outside-1_917_445)"/>
<path d="M34.6464 11.9685C35.8638 12.0118 37.7348 13.4826 37.6514 14.3898C37.5714 15.2836 37.0211 15.7772 36.1106 15.7772C34.9066 15.7772 33.0889 14.2898 33.1156 13.3559C33.1389 12.5421 33.806 11.9418 34.6498 11.9718L34.6464 11.9685Z" stroke="#FFCC00" stroke-width="1.09891" mask="url(#path-1-outside-1_917_445)"/>
<path d="M63.6257 8.42987C62.8252 8.34982 62.285 7.90625 62.2583 6.9624C62.2283 5.84178 63.5757 4.0041 64.4795 3.95074C65.4133 3.89404 65.9603 4.37764 66.0503 5.29148C66.1537 6.36874 64.6262 8.38318 63.6257 8.42987Z" stroke="#FFCC00" stroke-width="1.09891" mask="url(#path-1-outside-1_917_445)"/>
<path d="M32.5753 25.8461C31.8682 25.8061 31.0878 25.9862 30.5442 25.3525C29.9972 24.7155 30.0006 24.0251 30.5742 23.4048C31.2012 22.7244 33.8293 22.7177 34.4997 23.3847C35.1034 23.9851 35.1434 24.6588 34.5931 25.3158C34.0561 25.9562 33.2857 25.8161 32.5753 25.8461Z" stroke="#FFCC00" stroke-width="1.09891" mask="url(#path-1-outside-1_917_445)"/>
<path d="M74.6851 25.8428C73.868 25.8194 72.9641 25.9828 72.4639 25.0957C72.0903 24.4287 72.2037 23.7049 72.8441 23.3347C74.0081 22.6644 75.2988 22.6844 76.4727 23.3114C77.1198 23.6549 77.2565 24.372 76.8863 25.0557C76.396 25.9595 75.5089 25.8294 74.6851 25.8428Z" stroke="#FFCC00" stroke-width="1.09891" mask="url(#path-1-outside-1_917_445)"/>
</svg>
