<svg width="102" height="87" viewBox="0 0 102 87" fill="none" xmlns="http://www.w3.org/2000/svg">
<path d="M83.4789 79.975H100.928V86.0062H1.08095V79.975H25.7463H26.339V79.3823V61.3409V60.7482H25.7463H22.1387C16.5558 60.7417 11.2035 58.521 7.2558 54.5733C3.3082 50.6257 1.08755 45.2735 1.08095 39.6908V29.459H11.3128C15.0798 29.4608 18.7773 30.4731 22.0199 32.3904C25.2625 34.3077 27.9314 37.0597 29.7483 40.3595L30.1204 41.0353L30.6775 40.5016C33.2351 38.0514 36.6385 36.6811 40.1804 36.6755H50.4116V46.907C50.407 50.5765 48.9473 54.0944 46.3526 56.6891C43.7578 59.2839 40.2399 60.7436 36.5704 60.7482H32.9629H32.3702V61.3409V79.3823V79.975H32.9629H76.2623H76.8549V79.3823V32.4746V31.8819H76.2623H72.6547C67.0718 31.8754 61.7195 29.6547 57.7718 25.7071C53.8241 21.7594 51.6035 16.407 51.597 10.8242V0.59267L61.8288 0.59267C61.8289 0.59267 61.829 0.59267 61.8291 0.59267C65.596 0.59456 69.2934 1.60688 72.5359 3.5241C75.7785 5.44137 78.4473 8.19337 80.2643 11.4932L80.6364 12.169L81.1935 11.6353C83.7509 9.18527 87.1541 7.81498 90.6958 7.80924H100.928V18.0407C100.923 21.7102 99.4633 25.2281 96.8686 27.8228C94.2738 30.4176 90.7559 31.8773 87.0864 31.8819H83.4789H82.8862V32.4746V79.3823V79.975H83.4789ZM94.8964 14.4331V13.8405H94.3037H90.6954C88.6243 13.8405 86.638 14.6632 85.1735 16.1277C83.7089 17.5923 82.8862 19.5786 82.8862 21.6497V25.258V25.8507H83.4789H87.0871C89.1583 25.8507 91.1446 25.0279 92.6091 23.5634C94.0736 22.0989 94.8964 20.1126 94.8964 18.0414V14.4331ZM44.3804 43.2994V42.7068H43.7877H40.1794C38.1083 42.7068 36.122 43.5295 34.6575 44.994C33.1929 46.4585 32.3702 48.4449 32.3702 50.516V54.1243V54.717H32.9629H36.5711C38.6423 54.717 40.6286 53.8942 42.0931 52.4297C43.5576 50.9652 44.3804 48.9789 44.3804 46.9077V43.2994ZM25.7463 54.717H26.339V54.1243V50.516V50.5153C26.334 46.5319 24.7494 42.7131 21.9327 39.8964C19.116 37.0797 15.2972 35.4952 11.3139 35.4902H11.3131H7.70485H7.11218V36.0829L7.11218 39.6911L7.11218 39.6919C7.11715 43.6753 8.70174 47.4941 11.5184 50.3107C14.3351 53.1274 18.1539 54.712 22.1373 54.717H22.138H25.7463ZM76.2623 25.8507H76.8549V25.258L76.855 21.6497L76.8549 21.649C76.85 17.6656 75.2654 13.8468 72.4487 11.0301C69.632 8.21346 65.8132 6.62887 61.8299 6.6239H61.8291H58.2209H57.6282V7.21657V10.8249V10.8256C57.6332 14.809 59.2177 18.6278 62.0344 21.4444C64.8511 24.2611 68.6699 25.8457 72.6533 25.8507H72.654H76.2623Z" fill="#FFCC00" stroke="#001427" stroke-width="1.18534"/>
</svg>
