<svg width="89" height="88" viewBox="0 0 89 88" fill="none" xmlns="http://www.w3.org/2000/svg">
<mask id="path-1-outside-1_917_438" maskUnits="userSpaceOnUse" x="0.519531" y="0" width="88" height="88" fill="black">
<rect fill="white" x="0.519531" width="88" height="88"/>
<path d="M41.9406 45.3287C40.3883 43.5501 38.4601 42.5895 36.3057 42.0152C35.5574 41.8169 35.0179 42.064 34.4854 42.6522C32.5538 44.7892 30.1418 46.1187 27.2774 46.4668C26.2402 46.5921 26.3202 47.2046 26.2506 47.9112C25.8817 51.7814 22.892 54.8268 19.0844 55.248C15.047 55.6935 11.5248 53.5147 10.2335 49.7697C9.05712 46.3554 10.15 42.6417 13.1119 40.4734C13.975 39.84 14.1003 39.3701 13.7627 38.3677C11.4099 31.4242 15.1549 24.2823 22.1019 22.3123C28.9828 20.3598 35.9437 24.6025 37.5378 31.7653C38.0111 33.8918 37.9903 36.0706 37.1515 38.0928C36.6085 39.4014 36.974 39.739 38.2061 40.0453C39.901 40.4664 41.328 41.5141 42.7307 42.5373C43.3293 42.245 43.0926 41.7194 43.0996 41.3087C43.1309 39.8017 43.0265 38.2877 43.1309 36.7841C43.3954 33.0217 42.6471 29.9102 40.1412 26.6629C34.2522 19.0302 35.8324 8.08415 42.9882 1.66617C44.0567 0.709039 44.7981 0.827375 45.797 1.73926C53.4958 8.78373 54.3276 20.5129 47.391 28.2987C45.6543 30.2478 45.3515 32.1377 45.7552 34.7097C47.7634 33.1888 49.8726 32.0994 52.2323 31.5007C53.092 31.285 52.3228 30.6028 52.2115 30.2443C50.0675 23.2312 53.8716 16.2284 60.9022 14.3316C67.7831 12.4765 74.6292 16.8445 76.164 24.0665C77.5632 30.655 72.8089 37.4419 66.095 38.5139C61.7549 39.2065 58.0552 37.9605 55.0515 34.8316C54.2336 33.9788 53.4575 33.7874 52.4481 34.0241C49.8761 34.6227 47.7982 36.0288 46.0441 37.9675C45.6577 38.3956 45.5812 38.8793 45.5881 39.4118C45.5916 40.1079 45.6473 40.811 45.5777 41.5001C45.3584 43.6371 45.602 45.0746 48.2124 45.896C51.665 46.9819 53.5445 51.0749 52.8867 54.4997C52.1384 58.4082 49.1278 61.2483 45.5116 61.4641C41.4046 61.7077 37.9241 59.4141 36.7965 55.7248C35.6897 52.1016 37.1515 48.1931 40.3709 46.2022C40.8582 45.8994 41.3733 45.6454 41.951 45.3287H41.9406ZM24.3225 41.3366C24.3851 41.4062 24.4408 41.4792 24.493 41.5593C25.8399 44.4481 26.2715 44.6256 29.1499 43.4527C33.1733 41.8169 35.5922 38.0649 35.2859 33.5368C35.004 29.3985 32.7591 26.5202 28.9445 24.9714C25.2413 23.4713 20.9882 24.4493 18.263 27.3903C15.4577 30.4183 14.7442 33.9336 16.1503 37.8422C16.3243 38.3259 16.4636 38.9072 17.1562 38.8237C19.958 38.4895 22.182 39.7912 24.3225 41.3331V41.3366ZM54.0805 26.4123C54.1013 31.8732 58.6573 36.3873 64.0694 36.3108C69.5163 36.2307 73.9748 31.6887 73.94 26.2522C73.9052 20.7913 69.3806 16.3537 63.9058 16.4129C58.3719 16.4686 54.0596 20.861 54.0805 26.4158V26.4123ZM39.0796 16.6009C39.0483 20.2519 40.6215 23.9377 43.4163 27.1641C43.9836 27.8184 44.3665 28.1456 45.167 27.3172C51.0177 21.2682 51.0873 10.778 45.3062 4.72898C44.5649 3.95284 44.1368 3.89367 43.4093 4.72202C40.5762 7.93797 39.0727 11.6377 39.0796 16.6043V16.6009ZM44.6832 47.4865C41.4116 47.4935 38.7838 50.1108 38.836 53.3198C38.8847 56.4836 41.4533 59.0208 44.6275 59.0452C47.9026 59.0695 50.5408 56.5114 50.5652 53.2885C50.5896 50.069 47.9653 47.4796 44.6832 47.4865ZM17.9845 41.2669C14.7372 41.2948 12.2313 43.8877 12.2696 47.1837C12.3044 50.3927 14.8034 52.8673 18.0193 52.8778C21.291 52.8882 23.8422 50.3405 23.8352 47.0619C23.8282 43.7972 21.2457 41.2391 17.9845 41.2635V41.2669Z"/>
<path d="M70.8285 80.9756C68.4478 81.0487 65.5173 80.7529 62.6424 80.0115C61.7479 79.7818 61.2398 79.747 60.9648 80.9408C60.5159 82.8759 58.9496 83.9758 57.2512 84.832C54.2475 86.3494 50.9828 86.8541 47.6903 87.1082C43.3328 87.4458 38.9996 87.1708 34.8021 85.8413C31.889 84.919 29.0837 83.8157 28.2693 80.3387C28.0605 79.4407 27.3122 79.9001 26.8249 80.015C21.3258 81.3063 15.8092 81.3167 10.2822 80.2447C8.34363 79.8688 6.48158 79.2632 4.76222 78.2539C2.30501 76.8095 1.25043 74.7282 1.5776 71.8603C2.39899 64.6487 7.90857 58.5301 14.7721 57.298C22.2864 55.9476 29.3796 59.3619 32.7487 66.1036C33.3926 67.3948 33.7058 67.3287 34.7569 66.5386C40.8512 61.9618 48.6022 61.9896 54.7383 66.6013C55.7511 67.3635 56.0435 67.2904 56.6177 66.1523C60.0181 59.3897 67.0209 55.9789 74.57 57.291C81.4335 58.4813 86.9396 64.5165 87.8027 71.8011C88.1925 75.0867 86.9465 77.2759 83.6227 78.7968C79.7559 80.5649 75.6211 80.993 70.8285 80.9721V80.9756ZM44.5962 84.7658C44.8294 84.7658 45.0591 84.7728 45.2923 84.7658C49.1869 84.6162 53.0363 84.2716 56.576 82.42C58.0378 81.6543 58.7756 80.5788 58.699 78.8038C58.4102 72.0064 52.556 65.9922 45.7587 65.6372C38.2861 65.2474 31.6732 70.5168 30.7961 77.5543C30.4133 80.6345 30.998 81.7483 33.8763 82.949C37.2976 84.3795 40.9313 84.6962 44.5962 84.7693V84.7658ZM18.3012 78.5428C21.0821 78.6507 24.1067 78.24 27.086 77.436C28.0048 77.1889 28.5408 76.7399 28.7183 75.7097C29.0281 73.9311 29.7485 72.2536 30.817 70.8092C31.5131 69.866 31.4435 69.0794 31.0328 68.1014C28.7218 62.5883 22.7841 58.8851 17.0622 59.4315C10.4667 60.0615 5.47572 64.5582 4.25756 70.9693C3.60671 74.401 4.18447 75.5147 7.45263 76.8443C10.8287 78.2191 14.3822 78.5915 18.3012 78.5428ZM71.2879 78.508C72.2137 78.508 73.1465 78.5671 74.0653 78.4975C77.1908 78.2608 80.2745 77.7875 83.0971 76.3153C84.5659 75.5496 85.53 74.4985 85.4221 72.6225C85.0462 65.9818 80.0169 60.6462 72.962 59.5255C66.9791 58.5753 60.4288 62.5779 58.2257 68.4842C57.9368 69.2638 57.9159 69.852 58.4276 70.562C59.5135 72.076 60.3209 73.771 60.6516 75.6018C60.8639 76.7921 61.4904 77.2097 62.5345 77.4917C65.4059 78.2643 68.3156 78.6263 71.2844 78.5114L71.2879 78.508Z"/>
<path d="M79.5888 47.048C79.6062 51.6666 75.9865 55.3246 71.3888 55.342C66.7877 55.3594 63.1332 51.7188 63.1227 47.1072C63.1123 42.4712 66.7146 38.8376 71.3227 38.8271C75.9552 38.8167 79.5714 42.4155 79.5853 47.048H79.5888ZM77.1316 47.1524C77.1595 43.8564 74.6431 41.2739 71.3888 41.26C68.1973 41.2461 65.6252 43.745 65.5695 46.9088C65.5138 50.2291 67.9606 52.8047 71.2357 52.8673C74.5247 52.9335 77.1073 50.4275 77.1316 47.1489V47.1524Z"/>
<path d="M24.3225 41.3366C24.3921 40.3168 23.5428 40.0314 22.9129 39.565C22.2307 39.0568 21.5764 38.4408 22.1576 37.5463C22.7562 36.624 23.5324 36.979 24.2459 37.5115C24.7297 37.8735 25.2483 38.051 25.8713 37.8804C26.4247 37.7273 26.8423 37.428 26.905 36.8502C26.9676 36.2551 26.5987 35.8583 26.0488 35.7052C25.4919 35.5485 24.9072 35.5033 24.3468 35.3606C22.7945 34.9708 21.8165 33.951 21.4963 32.4161C21.2109 31.0413 21.813 29.9137 22.8885 29.0783C23.5115 28.5946 24.0684 28.1978 24.3921 27.3555C24.7401 26.4506 25.8852 26.2905 26.268 27.2441C26.6857 28.2848 27.4549 28.6746 28.2275 29.2176C28.8888 29.6805 29.3726 30.3522 28.8575 31.1388C28.2867 32.0124 27.5454 31.8523 26.7866 31.2362C26.4455 30.9578 25.9757 30.7559 25.5371 30.7002C24.7819 30.6028 24.0927 30.9021 23.9466 31.7026C23.8073 32.4579 24.3607 32.8407 25.0499 32.9939C25.3318 33.0565 25.6172 33.1122 25.9061 33.1505C27.7124 33.3872 28.9376 34.3826 29.3065 36.1437C29.6511 37.8004 28.8471 39.0464 27.427 39.913C27.0964 40.1149 26.7135 40.2298 26.6126 40.724C26.3411 42.0292 25.471 41.97 24.493 41.5663C24.4443 41.4862 24.3851 41.4131 24.3225 41.3435V41.3366Z"/>
<path d="M63.8049 18.7239C63.9754 18.7344 64.0346 18.7379 64.0903 18.7448C64.4975 18.7936 67.6473 22.2149 67.6439 22.6047C67.6334 23.52 66.6171 24.0734 65.7748 23.5548C65.1797 23.1894 64.6611 22.7265 63.9024 22.7613C63.1889 22.7926 62.625 23.078 62.5102 23.8089C62.4023 24.5015 62.9 24.867 63.4986 25.034C63.9406 25.1559 64.414 25.1628 64.863 25.2603C66.4953 25.6118 67.5638 26.6176 67.8945 28.2326C68.2077 29.7501 67.5081 30.9369 66.2691 31.7931C65.7574 32.1481 65.3572 32.4648 65.0822 33.1192C64.6646 34.1181 63.6344 34.3443 63.0949 33.3141C62.6598 32.4788 62.0159 32.0681 61.3616 31.5564C60.6934 31.0344 60.0669 30.4148 60.763 29.5273C61.3547 28.7755 62.0577 28.9565 62.7294 29.5064C63.1854 29.8823 63.6866 30.1886 64.313 30.0146C64.8978 29.851 65.4512 29.5482 65.472 28.8834C65.4929 28.2395 65.0579 27.8323 64.4209 27.6966C64.139 27.6374 63.8432 27.6444 63.5578 27.5957C61.821 27.2894 60.4915 26.4158 60.0982 24.6268C59.7154 22.8796 60.5646 21.5988 62.0507 20.7357C62.4893 20.4816 62.7538 20.2101 62.813 19.6846C62.8826 19.072 63.4151 18.898 63.8014 18.7239H63.8049Z"/>
</mask>
<path d="M41.9406 45.3287C40.3883 43.5501 38.4601 42.5895 36.3057 42.0152C35.5574 41.8169 35.0179 42.064 34.4854 42.6522C32.5538 44.7892 30.1418 46.1187 27.2774 46.4668C26.2402 46.5921 26.3202 47.2046 26.2506 47.9112C25.8817 51.7814 22.892 54.8268 19.0844 55.248C15.047 55.6935 11.5248 53.5147 10.2335 49.7697C9.05712 46.3554 10.15 42.6417 13.1119 40.4734C13.975 39.84 14.1003 39.3701 13.7627 38.3677C11.4099 31.4242 15.1549 24.2823 22.1019 22.3123C28.9828 20.3598 35.9437 24.6025 37.5378 31.7653C38.0111 33.8918 37.9903 36.0706 37.1515 38.0928C36.6085 39.4014 36.974 39.739 38.2061 40.0453C39.901 40.4664 41.328 41.5141 42.7307 42.5373C43.3293 42.245 43.0926 41.7194 43.0996 41.3087C43.1309 39.8017 43.0265 38.2877 43.1309 36.7841C43.3954 33.0217 42.6471 29.9102 40.1412 26.6629C34.2522 19.0302 35.8324 8.08415 42.9882 1.66617C44.0567 0.709039 44.7981 0.827375 45.797 1.73926C53.4958 8.78373 54.3276 20.5129 47.391 28.2987C45.6543 30.2478 45.3515 32.1377 45.7552 34.7097C47.7634 33.1888 49.8726 32.0994 52.2323 31.5007C53.092 31.285 52.3228 30.6028 52.2115 30.2443C50.0675 23.2312 53.8716 16.2284 60.9022 14.3316C67.7831 12.4765 74.6292 16.8445 76.164 24.0665C77.5632 30.655 72.8089 37.4419 66.095 38.5139C61.7549 39.2065 58.0552 37.9605 55.0515 34.8316C54.2336 33.9788 53.4575 33.7874 52.4481 34.0241C49.8761 34.6227 47.7982 36.0288 46.0441 37.9675C45.6577 38.3956 45.5812 38.8793 45.5881 39.4118C45.5916 40.1079 45.6473 40.811 45.5777 41.5001C45.3584 43.6371 45.602 45.0746 48.2124 45.896C51.665 46.9819 53.5445 51.0749 52.8867 54.4997C52.1384 58.4082 49.1278 61.2483 45.5116 61.4641C41.4046 61.7077 37.9241 59.4141 36.7965 55.7248C35.6897 52.1016 37.1515 48.1931 40.3709 46.2022C40.8582 45.8994 41.3733 45.6454 41.951 45.3287H41.9406ZM24.3225 41.3366C24.3851 41.4062 24.4408 41.4792 24.493 41.5593C25.8399 44.4481 26.2715 44.6256 29.1499 43.4527C33.1733 41.8169 35.5922 38.0649 35.2859 33.5368C35.004 29.3985 32.7591 26.5202 28.9445 24.9714C25.2413 23.4713 20.9882 24.4493 18.263 27.3903C15.4577 30.4183 14.7442 33.9336 16.1503 37.8422C16.3243 38.3259 16.4636 38.9072 17.1562 38.8237C19.958 38.4895 22.182 39.7912 24.3225 41.3331V41.3366ZM54.0805 26.4123C54.1013 31.8732 58.6573 36.3873 64.0694 36.3108C69.5163 36.2307 73.9748 31.6887 73.94 26.2522C73.9052 20.7913 69.3806 16.3537 63.9058 16.4129C58.3719 16.4686 54.0596 20.861 54.0805 26.4158V26.4123ZM39.0796 16.6009C39.0483 20.2519 40.6215 23.9377 43.4163 27.1641C43.9836 27.8184 44.3665 28.1456 45.167 27.3172C51.0177 21.2682 51.0873 10.778 45.3062 4.72898C44.5649 3.95284 44.1368 3.89367 43.4093 4.72202C40.5762 7.93797 39.0727 11.6377 39.0796 16.6043V16.6009ZM44.6832 47.4865C41.4116 47.4935 38.7838 50.1108 38.836 53.3198C38.8847 56.4836 41.4533 59.0208 44.6275 59.0452C47.9026 59.0695 50.5408 56.5114 50.5652 53.2885C50.5896 50.069 47.9653 47.4796 44.6832 47.4865ZM17.9845 41.2669C14.7372 41.2948 12.2313 43.8877 12.2696 47.1837C12.3044 50.3927 14.8034 52.8673 18.0193 52.8778C21.291 52.8882 23.8422 50.3405 23.8352 47.0619C23.8282 43.7972 21.2457 41.2391 17.9845 41.2635V41.2669Z" fill="#FFCC00"/>
<path d="M70.8285 80.9756C68.4478 81.0487 65.5173 80.7529 62.6424 80.0115C61.7479 79.7818 61.2398 79.747 60.9648 80.9408C60.5159 82.8759 58.9496 83.9758 57.2512 84.832C54.2475 86.3494 50.9828 86.8541 47.6903 87.1082C43.3328 87.4458 38.9996 87.1708 34.8021 85.8413C31.889 84.919 29.0837 83.8157 28.2693 80.3387C28.0605 79.4407 27.3122 79.9001 26.8249 80.015C21.3258 81.3063 15.8092 81.3167 10.2822 80.2447C8.34363 79.8688 6.48158 79.2632 4.76222 78.2539C2.30501 76.8095 1.25043 74.7282 1.5776 71.8603C2.39899 64.6487 7.90857 58.5301 14.7721 57.298C22.2864 55.9476 29.3796 59.3619 32.7487 66.1036C33.3926 67.3948 33.7058 67.3287 34.7569 66.5386C40.8512 61.9618 48.6022 61.9896 54.7383 66.6013C55.7511 67.3635 56.0435 67.2904 56.6177 66.1523C60.0181 59.3897 67.0209 55.9789 74.57 57.291C81.4335 58.4813 86.9396 64.5165 87.8027 71.8011C88.1925 75.0867 86.9465 77.2759 83.6227 78.7968C79.7559 80.5649 75.6211 80.993 70.8285 80.9721V80.9756ZM44.5962 84.7658C44.8294 84.7658 45.0591 84.7728 45.2923 84.7658C49.1869 84.6162 53.0363 84.2716 56.576 82.42C58.0378 81.6543 58.7756 80.5788 58.699 78.8038C58.4102 72.0064 52.556 65.9922 45.7587 65.6372C38.2861 65.2474 31.6732 70.5168 30.7961 77.5543C30.4133 80.6345 30.998 81.7483 33.8763 82.949C37.2976 84.3795 40.9313 84.6962 44.5962 84.7693V84.7658ZM18.3012 78.5428C21.0821 78.6507 24.1067 78.24 27.086 77.436C28.0048 77.1889 28.5408 76.7399 28.7183 75.7097C29.0281 73.9311 29.7485 72.2536 30.817 70.8092C31.5131 69.866 31.4435 69.0794 31.0328 68.1014C28.7218 62.5883 22.7841 58.8851 17.0622 59.4315C10.4667 60.0615 5.47572 64.5582 4.25756 70.9693C3.60671 74.401 4.18447 75.5147 7.45263 76.8443C10.8287 78.2191 14.3822 78.5915 18.3012 78.5428ZM71.2879 78.508C72.2137 78.508 73.1465 78.5671 74.0653 78.4975C77.1908 78.2608 80.2745 77.7875 83.0971 76.3153C84.5659 75.5496 85.53 74.4985 85.4221 72.6225C85.0462 65.9818 80.0169 60.6462 72.962 59.5255C66.9791 58.5753 60.4288 62.5779 58.2257 68.4842C57.9368 69.2638 57.9159 69.852 58.4276 70.562C59.5135 72.076 60.3209 73.771 60.6516 75.6018C60.8639 76.7921 61.4904 77.2097 62.5345 77.4917C65.4059 78.2643 68.3156 78.6263 71.2844 78.5114L71.2879 78.508Z" fill="#FFCC00"/>
<path d="M79.5888 47.048C79.6062 51.6666 75.9865 55.3246 71.3888 55.342C66.7877 55.3594 63.1332 51.7188 63.1227 47.1072C63.1123 42.4712 66.7146 38.8376 71.3227 38.8271C75.9552 38.8167 79.5714 42.4155 79.5853 47.048H79.5888ZM77.1316 47.1524C77.1595 43.8564 74.6431 41.2739 71.3888 41.26C68.1973 41.2461 65.6252 43.745 65.5695 46.9088C65.5138 50.2291 67.9606 52.8047 71.2357 52.8673C74.5247 52.9335 77.1073 50.4275 77.1316 47.1489V47.1524Z" fill="#FFCC00"/>
<path d="M24.3225 41.3366C24.3921 40.3168 23.5428 40.0314 22.9129 39.565C22.2307 39.0568 21.5764 38.4408 22.1576 37.5463C22.7562 36.624 23.5324 36.979 24.2459 37.5115C24.7297 37.8735 25.2483 38.051 25.8713 37.8804C26.4247 37.7273 26.8423 37.428 26.905 36.8502C26.9676 36.2551 26.5987 35.8583 26.0488 35.7052C25.4919 35.5485 24.9072 35.5033 24.3468 35.3606C22.7945 34.9708 21.8165 33.951 21.4963 32.4161C21.2109 31.0413 21.813 29.9137 22.8885 29.0783C23.5115 28.5946 24.0684 28.1978 24.3921 27.3555C24.7401 26.4506 25.8852 26.2905 26.268 27.2441C26.6857 28.2848 27.4549 28.6746 28.2275 29.2176C28.8888 29.6805 29.3726 30.3522 28.8575 31.1388C28.2867 32.0124 27.5454 31.8523 26.7866 31.2362C26.4455 30.9578 25.9757 30.7559 25.5371 30.7002C24.7819 30.6028 24.0927 30.9021 23.9466 31.7026C23.8073 32.4579 24.3607 32.8407 25.0499 32.9939C25.3318 33.0565 25.6172 33.1122 25.9061 33.1505C27.7124 33.3872 28.9376 34.3826 29.3065 36.1437C29.6511 37.8004 28.8471 39.0464 27.427 39.913C27.0964 40.1149 26.7135 40.2298 26.6126 40.724C26.3411 42.0292 25.471 41.97 24.493 41.5663C24.4443 41.4862 24.3851 41.4131 24.3225 41.3435V41.3366Z" fill="#FFCC00"/>
<path d="M63.8049 18.7239C63.9754 18.7344 64.0346 18.7379 64.0903 18.7448C64.4975 18.7936 67.6473 22.2149 67.6439 22.6047C67.6334 23.52 66.6171 24.0734 65.7748 23.5548C65.1797 23.1894 64.6611 22.7265 63.9024 22.7613C63.1889 22.7926 62.625 23.078 62.5102 23.8089C62.4023 24.5015 62.9 24.867 63.4986 25.034C63.9406 25.1559 64.414 25.1628 64.863 25.2603C66.4953 25.6118 67.5638 26.6176 67.8945 28.2326C68.2077 29.7501 67.5081 30.9369 66.2691 31.7931C65.7574 32.1481 65.3572 32.4648 65.0822 33.1192C64.6646 34.1181 63.6344 34.3443 63.0949 33.3141C62.6598 32.4788 62.0159 32.0681 61.3616 31.5564C60.6934 31.0344 60.0669 30.4148 60.763 29.5273C61.3547 28.7755 62.0577 28.9565 62.7294 29.5064C63.1854 29.8823 63.6866 30.1886 64.313 30.0146C64.8978 29.851 65.4512 29.5482 65.472 28.8834C65.4929 28.2395 65.0579 27.8323 64.4209 27.6966C64.139 27.6374 63.8432 27.6444 63.5578 27.5957C61.821 27.2894 60.4915 26.4158 60.0982 24.6268C59.7154 22.8796 60.5646 21.5988 62.0507 20.7357C62.4893 20.4816 62.7538 20.2101 62.813 19.6846C62.8826 19.072 63.4151 18.898 63.8014 18.7239H63.8049Z" fill="#FFCC00"/>
<path d="M41.9406 45.3287L41.5266 45.69L41.6909 45.8781H41.9406V45.3287ZM36.3057 42.0152L36.4472 41.4843L36.4465 41.4841L36.3057 42.0152ZM34.4854 42.6522L34.0781 42.2834L34.0778 42.2837L34.4854 42.6522ZM27.2774 46.4668L27.3433 47.0122L27.3437 47.0122L27.2774 46.4668ZM26.2506 47.9112L25.7038 47.8573L25.7037 47.859L26.2506 47.9112ZM19.0844 55.248L19.1446 55.7941L19.1448 55.7941L19.0844 55.248ZM10.2335 49.7697L9.71404 49.9487L9.71408 49.9488L10.2335 49.7697ZM13.1119 40.4734L13.4364 40.9167L13.437 40.9164L13.1119 40.4734ZM13.7627 38.3677L14.2834 38.1923L14.2831 38.1914L13.7627 38.3677ZM22.1019 22.3123L22.2518 22.8409L22.2519 22.8409L22.1019 22.3123ZM37.5378 31.7653L37.0015 31.8846L37.0015 31.8846L37.5378 31.7653ZM37.1515 38.0928L37.659 38.3033L37.659 38.3033L37.1515 38.0928ZM38.2061 40.0453L38.0735 40.5785L38.0736 40.5785L38.2061 40.0453ZM42.7307 42.5373L42.4068 42.9812L42.6743 43.1763L42.9718 43.031L42.7307 42.5373ZM43.0996 41.3087L42.5502 41.2973L42.5502 41.2994L43.0996 41.3087ZM43.1309 36.7841L42.5828 36.7456L42.5828 36.746L43.1309 36.7841ZM40.1412 26.6629L39.7062 26.9985L39.7062 26.9986L40.1412 26.6629ZM42.9882 1.66617L42.6216 1.2569L42.6213 1.25713L42.9882 1.66617ZM45.797 1.73926L46.1679 1.33389L46.1674 1.33346L45.797 1.73926ZM47.391 28.2987L47.8012 28.6643L47.8013 28.6642L47.391 28.2987ZM45.7552 34.7097L45.2124 34.7949L45.3548 35.7022L46.0869 35.1477L45.7552 34.7097ZM52.2323 31.5007L52.0986 30.9678L52.0972 30.9682L52.2323 31.5007ZM52.2115 30.2443L51.686 30.4049L51.6867 30.4073L52.2115 30.2443ZM60.9022 14.3316L60.7592 13.8011L60.7591 13.8011L60.9022 14.3316ZM76.164 24.0665L76.7015 23.9523L76.7015 23.9522L76.164 24.0665ZM66.095 38.5139L66.1816 39.0565L66.1817 39.0565L66.095 38.5139ZM55.0515 34.8316L54.655 35.2119L54.6551 35.2121L55.0515 34.8316ZM52.4481 34.0241L52.5727 34.5592L52.5736 34.559L52.4481 34.0241ZM46.0441 37.9675L45.6366 37.5988L45.6362 37.5993L46.0441 37.9675ZM45.5881 39.4118L46.1376 39.4091L46.1375 39.4047L45.5881 39.4118ZM45.5777 41.5001L46.1243 41.5562L46.1244 41.5554L45.5777 41.5001ZM48.2124 45.896L48.0475 46.4201L48.0475 46.4201L48.2124 45.896ZM52.8867 54.4997L52.3471 54.396L52.347 54.3964L52.8867 54.4997ZM45.5116 61.4641L45.5441 62.0126L45.5443 62.0126L45.5116 61.4641ZM36.7965 55.7248L36.271 55.8853L36.271 55.8854L36.7965 55.7248ZM40.3709 46.2022L40.6599 46.6696L40.6609 46.6689L40.3709 46.2022ZM41.951 45.3287L42.2152 45.8105L41.951 44.7792V45.3287ZM24.493 41.5593L24.991 41.3271L24.9745 41.2918L24.9532 41.2592L24.493 41.5593ZM29.1499 43.4527L28.9429 42.9437L28.9425 42.9438L29.1499 43.4527ZM35.2859 33.5368L35.8341 33.4997L35.8341 33.4995L35.2859 33.5368ZM28.9445 24.9714L29.1512 24.4623L29.1508 24.4621L28.9445 24.9714ZM18.263 27.3903L17.8599 27.0169L17.8599 27.0169L18.263 27.3903ZM16.1503 37.8422L16.6673 37.6562L16.6673 37.6562L16.1503 37.8422ZM17.1562 38.8237L17.0911 38.2781L17.0904 38.2782L17.1562 38.8237ZM24.3225 41.3331H24.8719V41.0517L24.6436 40.8872L24.3225 41.3331ZM54.0805 26.4123L54.6299 26.4102L53.531 26.4123H54.0805ZM64.0694 36.3108L64.0772 36.8602L64.0775 36.8601L64.0694 36.3108ZM73.94 26.2522L73.3906 26.2557V26.2557L73.94 26.2522ZM63.9058 16.4129L63.9114 16.9623L63.9118 16.9623L63.9058 16.4129ZM54.0805 26.4158L53.531 26.4178L54.6299 26.4158H54.0805ZM39.0796 16.6009H39.6291L38.5302 16.5961L39.0796 16.6009ZM43.4163 27.1641L43.001 27.5238L43.0012 27.524L43.4163 27.1641ZM45.167 27.3172L44.772 26.9352L44.7719 26.9354L45.167 27.3172ZM45.3062 4.72898L44.9089 5.10849L44.909 5.1086L45.3062 4.72898ZM43.4093 4.72202L43.8216 5.08523L43.8222 5.08457L43.4093 4.72202ZM39.0796 16.6043L38.5302 16.6051L39.6291 16.6043H39.0796ZM44.6832 47.4865L44.682 46.9371H44.682L44.6832 47.4865ZM38.836 53.3198L39.3854 53.3113L39.3854 53.3109L38.836 53.3198ZM44.6275 59.0452L44.6233 59.5946H44.6234L44.6275 59.0452ZM50.5652 53.2885L50.0158 53.2843V53.2843L50.5652 53.2885ZM17.9845 41.2669L17.9892 41.8164L18.534 41.8117V41.2669H17.9845ZM12.2696 47.1837L12.819 47.1778L12.819 47.1774L12.2696 47.1837ZM18.0193 52.8778L18.0175 53.4272H18.0176L18.0193 52.8778ZM23.8352 47.0619L24.3846 47.0607V47.0607L23.8352 47.0619ZM17.9845 41.2635L17.9804 40.714L17.4351 40.7181V41.2635H17.9845ZM70.8285 80.9756L70.8453 81.5248L71.3779 81.5085V80.9756H70.8285ZM62.6424 80.0115L62.7796 79.4795L62.7791 79.4793L62.6424 80.0115ZM60.9648 80.9408L61.5001 81.065L61.5003 81.0641L60.9648 80.9408ZM57.2512 84.832L57.0038 84.3413L57.0034 84.3416L57.2512 84.832ZM47.6903 87.1082L47.6481 86.5604L47.6479 86.5604L47.6903 87.1082ZM34.8021 85.8413L34.9681 85.3175L34.968 85.3175L34.8021 85.8413ZM28.2693 80.3387L27.7341 80.4631L27.7343 80.464L28.2693 80.3387ZM26.8249 80.015L26.9505 80.5499L26.951 80.5498L26.8249 80.015ZM10.2822 80.2447L10.3869 79.7053L10.3868 79.7053L10.2822 80.2447ZM4.76222 78.2539L4.48379 78.7276L4.48406 78.7277L4.76222 78.2539ZM1.5776 71.8603L2.12351 71.9225L2.12352 71.9224L1.5776 71.8603ZM14.7721 57.298L14.8691 57.8388L14.8692 57.8388L14.7721 57.298ZM32.7487 66.1036L33.2404 65.8584L33.2402 65.8579L32.7487 66.1036ZM34.7569 66.5386L34.4269 66.0993L34.4268 66.0994L34.7569 66.5386ZM54.7383 66.6013L55.0687 66.1622L55.0684 66.162L54.7383 66.6013ZM56.6177 66.1523L57.1083 66.3998L57.1086 66.3991L56.6177 66.1523ZM74.57 57.291L74.4759 57.8324L74.4761 57.8324L74.57 57.291ZM87.8027 71.8011L87.2571 71.8657L87.2571 71.8658L87.8027 71.8011ZM83.6227 78.7968L83.8512 79.2965L83.8513 79.2965L83.6227 78.7968ZM70.8285 80.9721L70.8309 80.4227L70.279 80.4203V80.9721H70.8285ZM44.5962 84.7658V84.2164H44.0467V84.7658H44.5962ZM45.2923 84.7658L45.3087 85.3151L45.3134 85.3149L45.2923 84.7658ZM56.576 82.42L56.8306 82.9069L56.8309 82.9067L56.576 82.42ZM58.699 78.8038L58.1501 78.8271L58.1501 78.8275L58.699 78.8038ZM45.7587 65.6372L45.7873 65.0885H45.7873L45.7587 65.6372ZM30.7961 77.5543L30.2509 77.4864L30.2509 77.4865L30.7961 77.5543ZM33.8763 82.949L34.0883 82.4421L34.0879 82.4419L33.8763 82.949ZM44.5962 84.7693L44.5852 85.3187L45.1456 85.3298V84.7693H44.5962ZM18.3012 78.5428L18.3225 77.9937L18.3085 77.9932L18.2944 77.9933L18.3012 78.5428ZM27.086 77.436L26.9433 76.9054L26.9428 76.9055L27.086 77.436ZM28.7183 75.7097L28.177 75.6154L28.1768 75.6164L28.7183 75.7097ZM30.817 70.8092L31.2587 71.1359L31.2591 71.1354L30.817 70.8092ZM31.0328 68.1014L30.5261 68.3138L30.5262 68.3141L31.0328 68.1014ZM17.0622 59.4315L17.01 58.8845H17.01L17.0622 59.4315ZM4.25756 70.9693L3.71776 70.8667L3.71773 70.8669L4.25756 70.9693ZM7.45263 76.8443L7.65985 76.3354L7.65968 76.3353L7.45263 76.8443ZM71.2879 78.508V77.9585H71.0607L70.8999 78.1189L71.2879 78.508ZM74.0653 78.4975L74.0238 77.9496H74.0238L74.0653 78.4975ZM83.0971 76.3153L82.8431 75.828L82.843 75.8281L83.0971 76.3153ZM85.4221 72.6225L84.8735 72.6535L84.8735 72.654L85.4221 72.6225ZM72.962 59.5255L73.0482 58.9828L73.0482 58.9828L72.962 59.5255ZM58.2257 68.4842L57.7109 68.2922L57.7105 68.2933L58.2257 68.4842ZM58.4276 70.562L58.8741 70.2418L58.8733 70.2408L58.4276 70.562ZM60.6516 75.6018L61.1925 75.5053L61.1923 75.5041L60.6516 75.6018ZM62.5345 77.4917L62.3913 78.0221L62.3918 78.0222L62.5345 77.4917ZM71.2844 78.5114L71.3057 79.0605L71.5204 79.0522L71.6725 78.9004L71.2844 78.5114ZM79.5888 47.048L80.1383 47.0459L80.1362 46.4985H79.5888V47.048ZM71.3888 55.342L71.3909 55.8914L71.3888 55.342ZM63.1227 47.1072L62.5733 47.1084V47.1084L63.1227 47.1072ZM71.3227 38.8271L71.3215 38.2777H71.3215L71.3227 38.8271ZM79.5853 47.048L79.0359 47.0496L79.0375 47.5975H79.5853V47.048ZM77.1316 47.1524H76.5822L77.681 47.1571L77.1316 47.1524ZM71.3888 41.26L71.3864 41.8094H71.3865L71.3888 41.26ZM65.5695 46.9088L65.0201 46.8991L65.0201 46.8996L65.5695 46.9088ZM71.2357 52.8673L71.2467 52.318L71.2462 52.318L71.2357 52.8673ZM77.1316 47.1489H77.6811L76.5822 47.1448L77.1316 47.1489ZM22.9129 39.565L22.5846 40.0056L22.5859 40.0066L22.9129 39.565ZM22.1576 37.5463L22.6183 37.8457L22.6185 37.8455L22.1576 37.5463ZM24.2459 37.5115L24.5751 37.0716L24.5745 37.0712L24.2459 37.5115ZM25.8713 37.8804L26.0163 38.4104L26.0178 38.41L25.8713 37.8804ZM26.905 36.8502L27.4512 36.9095L27.4514 36.9077L26.905 36.8502ZM26.0488 35.7052L25.9 36.2341L25.9014 36.2345L26.0488 35.7052ZM24.3468 35.3606L24.4824 34.8281L24.4806 34.8277L24.3468 35.3606ZM21.4963 32.4161L20.9583 32.5278L20.9584 32.5283L21.4963 32.4161ZM22.8885 29.0783L22.5515 28.6444L22.5515 28.6444L22.8885 29.0783ZM24.3921 27.3555L23.8792 27.1583L23.8792 27.1584L24.3921 27.3555ZM26.268 27.2441L26.778 27.0395L26.7779 27.0394L26.268 27.2441ZM28.2275 29.2176L27.9116 29.6671L27.9125 29.6677L28.2275 29.2176ZM28.8575 31.1388L28.3978 30.8378L28.3975 30.8382L28.8575 31.1388ZM26.7866 31.2362L26.4392 31.6619L26.4403 31.6628L26.7866 31.2362ZM25.5371 30.7002L25.4668 31.2452L25.4679 31.2453L25.5371 30.7002ZM23.9466 31.7026L24.4869 31.8022L24.4871 31.8013L23.9466 31.7026ZM25.0499 32.9939L25.1691 32.4575L25.0499 32.9939ZM25.9061 33.1505L25.8339 33.6952L25.8347 33.6953L25.9061 33.1505ZM29.3065 36.1437L29.8444 36.0318L29.8443 36.031L29.3065 36.1437ZM27.427 39.913L27.1408 39.444L27.1407 39.4441L27.427 39.913ZM26.6126 40.724L27.1506 40.8359L27.1509 40.8339L26.6126 40.724ZM24.493 41.5663L24.0237 41.8519L24.1171 42.0055L24.2833 42.0741L24.493 41.5663ZM24.3225 41.3435H23.773V41.5544L23.9141 41.7111L24.3225 41.3435ZM63.8049 18.7239L63.8385 18.1755L63.8217 18.1745H63.8049V18.7239ZM64.0903 18.7448L64.0221 19.29L64.025 19.2904L64.0903 18.7448ZM67.6439 22.6047L68.1933 22.6109L68.1933 22.6096L67.6439 22.6047ZM65.7748 23.5548L66.0629 23.087L66.0624 23.0866L65.7748 23.5548ZM63.9024 22.7613L63.9265 23.3102L63.9275 23.3102L63.9024 22.7613ZM62.5102 23.8089L61.9674 23.7236L61.9673 23.7243L62.5102 23.8089ZM63.4986 25.034L63.3509 25.5633L63.3526 25.5637L63.4986 25.034ZM64.863 25.2603L64.7464 25.7972L64.7473 25.7974L64.863 25.2603ZM67.8945 28.2326L67.3562 28.3428L67.3563 28.3437L67.8945 28.2326ZM66.2691 31.7931L65.9567 31.3411L65.9558 31.3417L66.2691 31.7931ZM65.0822 33.1192L64.5757 32.9063L64.5753 32.9072L65.0822 33.1192ZM63.0949 33.3141L62.6076 33.5679L62.6081 33.569L63.0949 33.3141ZM61.3616 31.5564L61.7001 31.1236L61.6999 31.1235L61.3616 31.5564ZM60.763 29.5273L60.3312 29.1875L60.3306 29.1882L60.763 29.5273ZM62.7294 29.5064L63.079 29.0825L63.0775 29.0813L62.7294 29.5064ZM64.313 30.0146L64.4601 30.544L64.4611 30.5437L64.313 30.0146ZM65.472 28.8834L64.9229 28.8656L64.9229 28.8662L65.472 28.8834ZM64.4209 27.6966L64.5355 27.1592L64.5338 27.1589L64.4209 27.6966ZM63.5578 27.5957L63.4624 28.1368L63.4653 28.1373L63.5578 27.5957ZM60.0982 24.6268L59.5615 24.7444L59.5616 24.7448L60.0982 24.6268ZM62.0507 20.7357L61.7753 20.2602L61.7748 20.2605L62.0507 20.7357ZM62.813 19.6846L62.267 19.6225L62.267 19.6231L62.813 19.6846ZM63.8014 18.7239V18.1745H63.6834L63.5758 18.223L63.8014 18.7239ZM42.3545 44.9674C40.7104 43.0836 38.6737 42.0778 36.4472 41.4843L36.1642 42.5462C38.2466 43.1012 40.0662 44.0166 41.5266 45.69L42.3545 44.9674ZM36.4465 41.4841C35.9795 41.3603 35.5393 41.3678 35.1219 41.5242C34.7152 41.6766 34.3775 41.9527 34.0781 42.2834L34.8928 43.0209C35.1258 42.7635 35.3242 42.6219 35.5074 42.5533C35.68 42.4886 35.8837 42.4718 36.1649 42.5463L36.4465 41.4841ZM34.0778 42.2837C32.2281 44.33 29.9345 45.5904 27.2111 45.9213L27.3437 47.0122C30.3491 46.647 32.8794 45.2483 34.893 43.0206L34.0778 42.2837ZM27.2115 45.9213C26.9023 45.9586 26.6289 46.0374 26.4005 46.1784C26.1624 46.3254 26.0031 46.5218 25.902 46.7413C25.8068 46.9481 25.7697 47.1625 25.7488 47.3414C25.7318 47.4876 25.7156 47.7376 25.7038 47.8573L26.7974 47.965C26.8205 47.7314 26.8204 47.6399 26.8403 47.4686C26.8565 47.3301 26.8772 47.251 26.9003 47.2007C26.9176 47.1631 26.9371 47.1386 26.9778 47.1135C27.0283 47.0823 27.1338 47.0376 27.3433 47.0122L27.2115 45.9213ZM25.7037 47.859C25.3591 51.4734 22.5696 54.3097 19.024 54.7019L19.1448 55.7941C23.2144 55.344 26.4043 52.0895 26.7976 47.9633L25.7037 47.859ZM19.0241 54.7018C15.2324 55.1202 11.9574 53.0838 10.753 49.5906L9.71408 49.9488C11.0922 53.9456 14.8616 56.2667 19.1446 55.7941L19.0241 54.7018ZM10.753 49.5907C9.65291 46.3979 10.6742 42.9389 13.4364 40.9167L12.7873 40.03C9.62575 42.3446 8.46134 46.3129 9.71404 49.9487L10.753 49.5907ZM13.437 40.9164C13.8974 40.5785 14.2642 40.2135 14.4137 39.7174C14.5619 39.2256 14.4611 38.7197 14.2834 38.1923L13.242 38.5431C13.402 39.0181 13.4073 39.2483 13.3615 39.4004C13.3169 39.5482 13.1895 39.7349 12.7868 40.0304L13.437 40.9164ZM14.2831 38.1914C12.0299 31.5419 15.6109 24.7241 22.2518 22.8409L21.952 21.7837C14.6989 23.8404 10.7899 31.3065 13.2423 38.544L14.2831 38.1914ZM22.2519 22.8409C28.8175 20.9778 35.4734 25.0184 37.0015 31.8846L38.0741 31.6459C36.4141 24.1865 29.1481 19.7417 21.9519 21.7837L22.2519 22.8409ZM37.0015 31.8846C37.4572 33.9322 37.4286 35.9906 36.6439 37.8822L37.659 38.3033C38.5519 36.1506 38.5651 33.8515 38.0741 31.6459L37.0015 31.8846ZM36.644 37.8822C36.3728 38.5357 36.2102 39.1927 36.5462 39.7345C36.7104 39.9993 36.9558 40.1701 37.2081 40.2907C37.4583 40.4104 37.7555 40.4995 38.0735 40.5785L38.3386 39.5121C38.0406 39.438 37.83 39.37 37.6821 39.2993C37.5364 39.2296 37.4934 39.1768 37.4801 39.1554C37.461 39.1246 37.3872 38.9584 37.659 38.3033L36.644 37.8822ZM38.0736 40.5785C39.6459 40.9692 40.9863 41.9449 42.4068 42.9812L43.0545 42.0934C41.6697 41.0832 40.1562 39.9637 38.3385 39.5121L38.0736 40.5785ZM42.9718 43.031C43.1951 42.9219 43.3766 42.7724 43.5023 42.5765C43.6269 42.3823 43.6719 42.1811 43.6849 42.0087C43.6973 41.8438 43.6813 41.6854 43.6696 41.5748C43.6559 41.4459 43.6479 41.3782 43.649 41.318L42.5502 41.2994C42.5478 41.4446 42.5668 41.5966 42.5768 41.6909C42.5888 41.8034 42.5932 41.8717 42.5891 41.9261C42.5873 41.9501 42.5841 41.9645 42.5818 41.9724C42.5797 41.9794 42.5781 41.982 42.5774 41.9831C42.5768 41.984 42.5735 41.9893 42.5625 41.9985C42.551 42.0083 42.5288 42.0244 42.4895 42.0436L42.9718 43.031ZM43.6489 41.3201C43.6648 40.5547 43.6463 39.7843 43.6373 39.0384C43.6281 38.2862 43.6285 37.5504 43.679 36.8222L42.5828 36.746C42.5289 37.5213 42.5293 38.2944 42.5384 39.0517C42.5477 39.8156 42.5657 40.5557 42.5503 41.2973L43.6489 41.3201ZM43.679 36.8226C43.952 32.9404 43.1729 29.6922 40.5762 26.3272L39.7062 26.9986C42.1213 30.1282 42.8389 33.103 42.5828 36.7456L43.679 36.8226ZM40.5762 26.3273C34.8818 18.9467 36.3897 8.32232 43.3551 2.07521L42.6213 1.25713C35.275 7.84598 33.6227 19.1137 39.7062 26.9985L40.5762 26.3273ZM43.3548 2.07543C43.8441 1.63719 44.1579 1.53802 44.3891 1.55049C44.6367 1.56384 44.9517 1.71163 45.4265 2.14505L46.1674 1.33346C45.6433 0.855005 45.0882 0.48768 44.4483 0.453177C43.792 0.417787 43.2009 0.73802 42.6216 1.2569L43.3548 2.07543ZM45.426 2.14462C52.9124 8.99475 53.709 20.3812 46.9808 27.9332L47.8013 28.6642C54.9462 20.6446 54.0791 8.5727 46.1679 1.33389L45.426 2.14462ZM46.9808 27.9332C46.0607 28.9657 45.5015 30.0059 45.2354 31.1456C44.971 32.2777 45.0045 33.4707 45.2124 34.7949L46.298 34.6245C46.1021 33.3767 46.0852 32.3387 46.3055 31.3956C46.524 30.46 46.9846 29.5808 47.8012 28.6643L46.9808 27.9332ZM46.0869 35.1477C48.0464 33.6637 50.0899 32.6111 52.3675 32.0333L52.0972 30.9682C49.6553 31.5877 47.4805 32.7138 45.4235 34.2717L46.0869 35.1477ZM52.3661 32.0337C52.6464 31.9633 52.9543 31.8169 53.1045 31.4979C53.2511 31.1867 53.163 30.8858 53.0949 30.7187C53.0235 30.5436 52.9143 30.3745 52.8472 30.2682C52.8086 30.207 52.7805 30.1621 52.7585 30.1231C52.7352 30.0816 52.733 30.0712 52.7362 30.0813L51.6867 30.4073C51.7177 30.5071 51.7639 30.5964 51.8006 30.6616C51.8387 30.7294 51.8823 30.7983 51.918 30.8549C51.9995 30.984 52.0498 31.0662 52.0772 31.1334C52.1079 31.2086 52.0579 31.1411 52.1103 31.0297C52.1664 30.9105 52.2482 30.9303 52.0986 30.9678L52.3661 32.0337ZM52.7369 30.0837C50.6819 23.3614 54.3208 16.6764 61.0453 14.8621L60.7591 13.8011C53.4225 15.7805 49.4531 23.1009 51.686 30.4049L52.7369 30.0837ZM61.0452 14.8621C67.6027 13.0942 74.153 17.2472 75.6266 24.1807L76.7015 23.9522C75.1053 16.4418 67.9634 11.8588 60.7592 13.8011L61.0452 14.8621ZM75.6266 24.1806C76.9587 30.4534 72.42 36.9476 66.0084 37.9713L66.1817 39.0565C73.1978 37.9362 78.1677 30.8566 76.7015 23.9523L75.6266 24.1806ZM66.0085 37.9713C61.8452 38.6357 58.3262 37.4494 55.4479 34.451L54.6551 35.2121C57.7842 38.4716 61.6646 39.7773 66.1816 39.0565L66.0085 37.9713ZM55.448 34.4512C54.9931 33.9769 54.5158 33.6515 53.9773 33.4924C53.4382 33.333 52.8907 33.356 52.3227 33.4891L52.5736 34.559C53.0149 34.4555 53.3601 34.4558 53.6659 34.5462C53.9723 34.6368 54.2921 34.8335 54.655 35.2119L55.448 34.4512ZM52.3236 33.4889C49.6206 34.118 47.4493 35.5955 45.6366 37.5988L46.4515 38.3361C48.1471 36.4622 50.1315 35.1274 52.5727 34.5592L52.3236 33.4889ZM45.6362 37.5993C45.1147 38.1772 45.031 38.828 45.0387 39.419L46.1375 39.4047C46.1313 38.9307 46.2008 38.6139 46.452 38.3356L45.6362 37.5993ZM45.0387 39.4146C45.0424 40.1667 45.0968 40.7935 45.031 41.4449L46.1244 41.5554C46.1978 40.8285 46.1408 40.0492 46.1376 39.4091L45.0387 39.4146ZM45.0311 41.444C44.9206 42.5214 44.9068 43.5541 45.3412 44.4345C45.7916 45.3473 46.6617 45.984 48.0475 46.4201L48.3773 45.3718C47.1528 44.9865 46.5959 44.4938 46.3267 43.9483C46.0415 43.3704 46.0155 42.6159 46.1243 41.5562L45.0311 41.444ZM48.0475 46.4201C51.1783 47.4048 52.964 51.1839 52.3471 54.396L53.4263 54.6033C54.1249 50.9659 52.1518 46.559 48.3772 45.3718L48.0475 46.4201ZM52.347 54.3964C51.6395 58.0916 48.8116 60.7168 45.4788 60.9156L45.5443 62.0126C49.444 61.7799 52.6372 58.7249 53.4263 54.603L52.347 54.3964ZM45.479 60.9156C41.6017 61.1456 38.3687 58.989 37.3219 55.5642L36.271 55.8854C37.4795 59.8392 41.2075 62.2698 45.5441 62.0126L45.479 60.9156ZM37.3219 55.5643C36.2877 52.1785 37.6539 48.5284 40.6599 46.6696L40.0819 45.7349C36.649 47.8578 35.0917 52.0248 36.271 55.8853L37.3219 55.5643ZM40.6609 46.6689C41.1319 46.3763 41.6092 46.1426 42.2152 45.8105L41.6869 44.8468C41.1373 45.1481 40.5845 45.4226 40.0809 45.7356L40.6609 46.6689ZM41.951 44.7792H41.9406V45.8781H41.951V44.7792ZM23.9141 41.7041C23.9565 41.7513 23.9951 41.8016 24.0328 41.8595L24.9532 41.2592C24.8865 41.1569 24.8137 41.061 24.7309 40.969L23.9141 41.7041ZM23.995 41.7915C24.3316 42.5133 24.6273 43.1026 24.9296 43.5476C25.2342 43.9959 25.5803 44.3509 26.04 44.5381C26.502 44.7261 26.9935 44.71 27.516 44.5944C28.0326 44.4801 28.6379 44.2546 29.3572 43.9615L28.9425 42.9438C28.2227 43.2372 27.6946 43.4294 27.2786 43.5214C26.8686 43.6121 26.6284 43.5911 26.4543 43.5202C26.278 43.4485 26.0837 43.2908 25.8386 42.93C25.5912 42.5659 25.3279 42.0496 24.991 41.3271L23.995 41.7915ZM29.3568 43.9617C33.5993 42.2368 36.1565 38.2651 35.8341 33.4997L34.7377 33.5739C35.028 37.8648 32.7473 41.3969 28.9429 42.9437L29.3568 43.9617ZM35.8341 33.4995C35.5369 29.137 33.1466 26.0845 29.1512 24.4623L28.7378 25.4805C32.3717 26.9559 34.4711 29.6601 34.7378 33.5742L35.8341 33.4995ZM29.1508 24.4621C25.2324 22.8749 20.7377 23.9113 17.8599 27.0169L18.666 27.7638C21.2387 24.9874 25.2502 24.0677 28.7382 25.4806L29.1508 24.4621ZM17.8599 27.0169C16.3996 28.5932 15.4651 30.3177 15.0888 32.1771C14.7126 34.0363 14.9018 35.9948 15.6333 38.0282L16.6673 37.6562C15.9927 35.781 15.8356 34.0275 16.1659 32.395C16.4962 30.7626 17.3211 29.2154 18.666 27.7637L17.8599 27.0169ZM15.6333 38.0281C15.7004 38.2148 15.8116 38.5921 16.0156 38.8704C16.1302 39.0268 16.2886 39.1781 16.5081 39.2757C16.728 39.3734 16.9694 39.3996 17.222 39.3692L17.0904 38.2782C16.9966 38.2895 16.9609 38.2744 16.9545 38.2715C16.9477 38.2685 16.9305 38.2598 16.902 38.2209C16.87 38.1773 16.8349 38.1107 16.7939 38.0078C16.7498 37.8972 16.719 37.7998 16.6673 37.6562L15.6333 38.0281ZM17.2212 39.3692C19.8006 39.0616 21.8737 40.2463 24.0013 41.7789L24.6436 40.8872C22.4903 39.3362 20.1153 37.9174 17.0911 38.2781L17.2212 39.3692ZM23.773 41.3331V41.3366H24.8719V41.3331H23.773ZM53.531 26.4144C53.5531 32.1763 58.3548 36.9411 64.0772 36.8602L64.0616 35.7614C58.9597 35.8335 54.6497 31.57 54.6299 26.4102L53.531 26.4144ZM64.0775 36.8601C69.8249 36.7757 74.5262 31.988 74.4895 26.2487L73.3906 26.2557C73.4234 31.3893 69.2078 35.6857 64.0613 35.7614L64.0775 36.8601ZM74.4895 26.2487C74.4527 20.4822 69.6778 15.801 63.8999 15.8635L63.9118 16.9623C69.0834 16.9064 73.3577 21.1005 73.3906 26.2557L74.4895 26.2487ZM63.9003 15.8635C58.0621 15.9222 53.509 20.5631 53.531 26.4178L54.6299 26.4137C54.6102 21.1588 58.6817 17.015 63.9114 16.9623L63.9003 15.8635ZM54.6299 26.4158V26.4123H53.531V26.4158H54.6299ZM38.5302 16.5961C38.4975 20.4109 40.1405 24.2216 43.001 27.5238L43.8316 26.8043C41.1025 23.6538 39.5992 20.0928 39.6291 16.6056L38.5302 16.5961ZM43.0012 27.524C43.1437 27.6884 43.2972 27.8591 43.4593 27.9979C43.622 28.1372 43.828 28.2752 44.0835 28.3327C44.6477 28.4597 45.133 28.1431 45.5621 27.699L44.7719 26.9354C44.5946 27.1189 44.4728 27.2033 44.3976 27.2395C44.3628 27.2562 44.3433 27.26 44.3364 27.2609C44.3308 27.2617 44.3284 27.2614 44.3249 27.2606C44.3137 27.2581 44.2676 27.2434 44.174 27.1632C44.0797 27.0825 43.9726 26.9669 43.8315 26.8041L43.0012 27.524ZM45.5619 27.6992C51.6154 21.4405 51.6907 10.6142 45.7034 4.34936L44.909 5.1086C50.4839 10.9419 50.4199 21.0958 44.772 26.9352L45.5619 27.6992ZM45.7035 4.34947C45.3373 3.96606 44.9051 3.58985 44.3682 3.57458C43.8074 3.55863 43.3688 3.93548 42.9965 4.35947L43.8222 5.08457C44.1773 4.68021 44.3165 4.67246 44.3369 4.67305C44.3813 4.67431 44.5337 4.71575 44.9089 5.10849L45.7035 4.34947ZM42.9971 4.35881C40.0743 7.67659 38.523 11.5062 38.5302 16.6051L39.6291 16.6036C39.6223 11.7692 41.0782 8.19935 43.8216 5.08523L42.9971 4.35881ZM39.6291 16.6043V16.6009H38.5302V16.6043H39.6291ZM44.682 46.9371C41.1151 46.9447 38.2293 49.8023 38.2866 53.3287L39.3854 53.3109C39.3384 50.4194 41.7081 48.0423 44.6844 48.036L44.682 46.9371ZM38.2866 53.3283C38.34 56.7925 41.1527 59.568 44.6233 59.5946L44.6317 58.4957C41.754 58.4736 39.4295 56.1746 39.3854 53.3113L38.2866 53.3283ZM44.6234 59.5946C48.1937 59.6212 51.0879 56.8272 51.1146 53.2926L50.0158 53.2843C49.9937 56.1956 47.6116 58.5179 44.6316 58.4957L44.6234 59.5946ZM51.1146 53.2926C51.1414 49.7578 48.2597 46.9295 44.682 46.9371L44.6844 48.036C47.6709 48.0297 50.0377 50.3803 50.0158 53.2843L51.1146 53.2926ZM17.9798 40.7175C14.421 40.748 11.6784 43.5975 11.7202 47.1901L12.819 47.1774C12.7842 44.178 15.0535 41.8415 17.9892 41.8164L17.9798 40.7175ZM11.7202 47.1897C11.7582 50.7002 14.5023 53.4158 18.0175 53.4272L18.0211 52.3283C15.1045 52.3189 12.8506 50.0852 12.819 47.1778L11.7202 47.1897ZM18.0176 53.4272C21.5941 53.4386 24.3923 50.6436 24.3846 47.0607L23.2857 47.0631C23.2921 50.0374 20.9878 52.3378 18.0211 52.3283L18.0176 53.4272ZM24.3846 47.0607C24.377 43.4917 21.5465 40.6874 17.9804 40.714L17.9886 41.8129C20.945 41.7908 23.2794 44.1028 23.2857 47.0631L24.3846 47.0607ZM17.4351 41.2635V41.2669H18.534V41.2635H17.4351ZM70.8116 80.4264C68.4844 80.4979 65.6057 80.2082 62.7796 79.4795L62.5052 80.5436C65.4289 81.2975 68.4113 81.5995 70.8453 81.5248L70.8116 80.4264ZM62.7791 79.4793C62.5531 79.4213 62.3177 79.3663 62.0937 79.3449C61.8673 79.3234 61.6126 79.3318 61.3632 79.4338C60.8286 79.6526 60.5759 80.1815 60.4294 80.8175L61.5003 81.0641C61.6288 80.5063 61.7675 80.4557 61.7794 80.4509C61.8032 80.4411 61.8605 80.4266 61.9896 80.4389C62.121 80.4514 62.2845 80.4869 62.5057 80.5437L62.7791 79.4793ZM60.4296 80.8166C60.0401 82.4954 58.6797 83.4965 57.0038 84.3413L57.4985 85.3226C59.2196 84.455 60.9916 83.2565 61.5001 81.065L60.4296 80.8166ZM57.0034 84.3416C54.0972 85.8098 50.9193 86.3079 47.6481 86.5604L47.7326 87.656C51.0464 87.4003 54.3978 86.8891 57.4989 85.3224L57.0034 84.3416ZM47.6479 86.5604C43.3405 86.8941 39.0813 86.6204 34.9681 85.3175L34.6362 86.3651C38.9179 87.7213 43.325 87.9975 47.7328 87.656L47.6479 86.5604ZM34.968 85.3175C32.0432 84.3915 29.5421 83.3634 28.8043 80.2134L27.7343 80.464C28.6254 84.2679 31.7348 85.4465 34.6363 86.3651L34.968 85.3175ZM28.8045 80.2142C28.7347 79.914 28.5996 79.6404 28.3565 79.4557C28.11 79.2684 27.8353 79.2352 27.6176 79.2486C27.408 79.2616 27.2072 79.3205 27.0601 79.3673C26.8854 79.4229 26.7935 79.4579 26.6989 79.4802L26.951 80.5498C27.1 80.5147 27.2843 80.4492 27.3935 80.4144C27.5303 80.3708 27.6209 80.3494 27.6855 80.3454C27.7418 80.3419 27.7238 80.355 27.6916 80.3306C27.6628 80.3087 27.6995 80.3144 27.7341 80.4631L28.8045 80.2142ZM26.6993 79.4801C21.2819 80.7522 15.8441 80.7638 10.3869 79.7053L10.1776 80.7841C15.7743 81.8696 21.3696 81.8604 26.9505 80.5499L26.6993 79.4801ZM10.3868 79.7053C8.49149 79.3378 6.69228 78.7498 5.04039 77.7801L4.48406 78.7277C6.27087 79.7767 8.19577 80.3998 10.1777 80.7841L10.3868 79.7053ZM5.04066 77.7802C3.88314 77.0998 3.09 76.2903 2.61717 75.3451C2.14441 74.3999 1.96934 73.2739 2.12351 71.9225L1.03168 71.798C0.858684 73.3145 1.04733 74.6631 1.63436 75.8367C2.22135 77.0102 3.1841 77.9636 4.48379 78.7276L5.04066 77.7802ZM2.12352 71.9224C2.91933 64.9355 8.26059 59.0251 14.8691 57.8388L14.675 56.7572C7.55655 58.035 1.87864 64.3619 1.03167 71.7981L2.12352 71.9224ZM14.8692 57.8388C22.1538 56.5296 29.0016 59.8347 32.2572 66.3492L33.2402 65.8579C29.7575 58.889 22.419 55.3655 14.6749 56.7572L14.8692 57.8388ZM32.257 66.3488C32.4223 66.6804 32.5857 66.9657 32.7648 67.1799C32.948 67.399 33.1889 67.5926 33.5138 67.6442C33.8277 67.6941 34.112 67.5932 34.3432 67.4733C34.5753 67.3529 34.8244 67.1753 35.087 66.9778L34.4268 66.0994C34.1639 66.297 33.9796 66.4239 33.8372 66.4978C33.694 66.5721 33.6626 66.5552 33.6863 66.5589C33.7211 66.5645 33.6972 66.5819 33.6078 66.4749C33.5142 66.363 33.3969 66.1723 33.2404 65.8584L32.257 66.3488ZM35.0869 66.978C40.9834 62.5497 48.4653 62.5741 54.4082 67.0405L55.0684 66.162C48.7391 61.4052 40.719 61.3739 34.4269 66.0993L35.0869 66.978ZM54.4079 67.0403C54.6673 67.2355 54.9139 67.4034 55.1482 67.5116C55.386 67.6214 55.6683 67.6964 55.9709 67.6236C56.2723 67.5512 56.4901 67.357 56.6533 67.153C56.8146 66.9514 56.9614 66.691 57.1083 66.3998L56.1272 65.9048C55.987 66.1827 55.8819 66.3582 55.7952 66.4665C55.7103 66.5726 55.6841 66.5624 55.714 66.5552C55.7451 66.5477 55.7285 66.5692 55.6088 66.5139C55.4855 66.4569 55.3156 66.3481 55.0687 66.1622L54.4079 67.0403ZM57.1086 66.3991C60.3964 59.8605 67.1569 56.5602 74.4759 57.8324L74.6641 56.7497C66.8848 55.3975 59.6399 58.919 56.1268 65.9055L57.1086 66.3991ZM74.4761 57.8324C81.0832 58.9782 86.4204 64.8049 87.2571 71.8657L88.3484 71.7364C87.4587 64.228 81.7837 57.9844 74.6639 56.7496L74.4761 57.8324ZM87.2571 71.8658C87.4421 73.4253 87.233 74.6644 86.6323 75.6812C86.0291 76.7022 84.9917 77.5661 83.3941 78.2972L83.8513 79.2965C85.5775 78.5066 86.8251 77.5154 87.5784 76.2402C88.3342 74.9608 88.5531 73.4624 88.3484 71.7364L87.2571 71.8658ZM83.3942 78.2971C79.635 80.016 75.5946 80.4434 70.8309 80.4227L70.8261 81.5216C75.6476 81.5426 79.8768 81.1138 83.8512 79.2965L83.3942 78.2971ZM70.279 80.9721V80.9756H71.3779V80.9721H70.279ZM44.5962 85.3153C44.806 85.3153 45.0659 85.3223 45.3087 85.315L45.2759 84.2166C45.0522 84.2233 44.8527 84.2164 44.5962 84.2164V85.3153ZM45.3134 85.3149C49.2146 85.165 53.1732 84.8201 56.8306 82.9069L56.3213 81.9331C52.8994 83.7231 49.1593 84.0674 45.2712 84.2168L45.3134 85.3149ZM56.8309 82.9067C57.6208 82.493 58.2592 81.9724 58.6835 81.2765C59.1098 80.5773 59.2899 79.751 59.248 78.7801L58.1501 78.8275C58.1848 79.6316 58.0342 80.2306 57.7453 80.7043C57.4544 81.1814 56.9929 81.5813 56.321 81.9333L56.8309 82.9067ZM59.248 78.7805C58.9473 71.7053 52.8729 65.4585 45.7873 65.0885L45.73 66.1859C52.2392 66.5258 57.873 72.3076 58.1501 78.8271L59.248 78.7805ZM45.7873 65.0885C38.052 64.685 31.1666 70.1387 30.2509 77.4864L31.3414 77.6223C32.1798 70.8949 38.5202 65.8098 45.73 66.1859L45.7873 65.0885ZM30.2509 77.4865C30.0574 79.043 30.0836 80.2476 30.6345 81.2261C31.1878 82.2087 32.2038 82.8466 33.6648 83.4561L34.0879 82.4419C32.6706 81.8507 31.955 81.3314 31.5921 80.6869C31.2268 80.0382 31.152 79.1458 31.3414 77.6221L30.2509 77.4865ZM33.6644 83.456C37.1843 84.9277 40.9032 85.2452 44.5852 85.3187L44.6071 84.22C40.9593 84.1472 37.411 83.8314 34.0883 82.4421L33.6644 83.456ZM45.1456 84.7693V84.7658H44.0467V84.7693H45.1456ZM18.2799 79.0918C21.1271 79.2023 24.2078 78.7818 27.2291 77.9665L26.9428 76.9055C24.0055 77.6982 21.0372 78.099 18.3225 77.9937L18.2799 79.0918ZM27.2286 77.9666C27.7385 77.8295 28.2044 77.6204 28.5693 77.2544C28.9398 76.8827 29.1571 76.3988 29.2598 75.8029L28.1768 75.6164C28.102 76.0507 27.9626 76.3064 27.791 76.4786C27.6138 76.6563 27.3523 76.7954 26.9433 76.9054L27.2286 77.9666ZM29.2596 75.8039C29.5547 74.1098 30.241 72.5118 31.2587 71.1359L30.3753 70.4824C29.2561 71.9954 28.5014 73.7525 28.177 75.6154L29.2596 75.8039ZM31.2591 71.1354C31.6593 70.5931 31.8652 70.0574 31.8889 69.4913C31.9121 68.9381 31.7584 68.4101 31.5394 67.8886L30.5262 68.3141C30.7179 68.7706 30.8044 69.1249 30.791 69.4453C30.7781 69.7528 30.6708 70.082 30.3749 70.4829L31.2591 71.1354ZM31.5395 67.8889C29.1415 62.1682 22.9863 58.3138 17.01 58.8845L17.1144 59.9785C22.5819 59.4563 28.3021 63.0083 30.5261 68.3138L31.5395 67.8889ZM17.01 58.8845C10.1765 59.5372 4.98252 64.2105 3.71776 70.8667L4.79735 71.0718C5.96892 64.906 10.757 60.5857 17.1144 59.9785L17.01 58.8845ZM3.71773 70.8669C3.39125 72.5883 3.33102 73.8985 3.90196 74.9561C4.47349 76.0148 5.60419 76.6855 7.24558 77.3532L7.65968 76.3353C6.0329 75.6735 5.24064 75.1226 4.86896 74.4341C4.4967 73.7445 4.47302 72.782 4.79739 71.0716L3.71773 70.8669ZM7.2454 77.3532C10.7167 78.7667 14.3525 79.1413 18.3081 79.0922L18.2944 77.9933C14.412 78.0416 10.9407 77.6714 7.65985 76.3354L7.2454 77.3532ZM71.2879 79.0574C72.1651 79.0574 73.162 79.117 74.1068 79.0454L74.0238 77.9496C73.1309 78.0173 72.2623 77.9585 71.2879 77.9585V79.0574ZM74.1068 79.0454C77.253 78.8072 80.4275 78.3274 83.3512 76.8024L82.843 75.8281C80.1215 77.2476 77.1286 77.7145 74.0238 77.9496L74.1068 79.0454ZM83.3511 76.8025C84.1283 76.3973 84.8215 75.8919 85.3024 75.1983C85.7911 74.4934 86.0308 73.6372 85.9706 72.5909L84.8735 72.654C84.9213 73.4838 84.7328 74.0911 84.3993 74.5722C84.058 75.0645 83.5347 75.4675 82.8431 75.828L83.3511 76.8025ZM85.9707 72.5914C85.5789 65.6702 80.3355 60.1405 73.0482 58.9828L72.8758 60.0681C79.6983 61.1519 84.5135 66.2933 84.8735 72.6535L85.9707 72.5914ZM73.0482 58.9828C66.7897 57.9889 59.9991 62.1577 57.7109 68.2922L58.7405 68.6762C60.8586 62.998 67.1685 59.1617 72.8758 60.0681L73.0482 58.9828ZM57.7105 68.2933C57.5538 68.7162 57.4481 69.1423 57.4783 69.5864C57.5092 70.0418 57.6787 70.4626 57.9818 70.8833L58.8733 70.2408C58.6648 69.9514 58.589 69.7232 58.5746 69.512C58.5595 69.2896 58.6087 69.0318 58.7409 68.6751L57.7105 68.2933ZM57.9811 70.8823C59.0298 72.3444 59.7976 73.9648 60.1109 75.6994L61.1923 75.5041C60.8443 73.5773 59.9972 71.8077 58.8741 70.2418L57.9811 70.8823ZM60.1107 75.6982C60.2321 76.3792 60.4854 76.9021 60.9092 77.2918C61.3201 77.6696 61.8397 77.8732 62.3913 78.0221L62.6777 76.9612C62.1852 76.8282 61.8695 76.682 61.653 76.4829C61.4495 76.2957 61.2834 76.0147 61.1925 75.5053L60.1107 75.6982ZM62.3918 78.0222C65.3123 78.8081 68.2773 79.1776 71.3057 79.0605L71.2632 77.9624C68.3539 78.0749 65.4995 77.7205 62.6773 76.9611L62.3918 78.0222ZM71.6725 78.9004L71.6759 78.897L70.8999 78.1189L70.8964 78.1224L71.6725 78.9004ZM79.0394 47.0501C79.0556 51.3671 75.6792 54.7763 71.3868 54.7925L71.3909 55.8914C76.2939 55.8728 80.1568 51.9661 80.1383 47.0459L79.0394 47.0501ZM71.3868 54.7925C67.0905 54.8088 63.6819 51.4149 63.6722 47.1059L62.5733 47.1084C62.5844 52.0227 66.4848 55.91 71.3909 55.8914L71.3868 54.7925ZM63.6722 47.1059C63.6624 42.7709 67.0218 39.3863 71.324 39.3766L71.3215 38.2777C66.4073 38.2888 62.5622 42.1715 62.5733 47.1084L63.6722 47.1059ZM71.3239 39.3766C75.653 39.3668 79.0229 42.7203 79.0359 47.0496L80.1348 47.0463C80.12 42.1107 76.2574 38.2666 71.3215 38.2777L71.3239 39.3766ZM79.5853 47.5975H79.5888V46.4985H79.5853V47.5975ZM77.681 47.1571C77.7114 43.5635 74.9565 40.7258 71.3912 40.7105L71.3865 41.8094C74.3296 41.822 76.6075 44.1493 76.5822 47.1478L77.681 47.1571ZM71.3912 40.7105C67.9029 40.6953 65.0812 43.4309 65.0201 46.8991L66.1189 46.9184C66.1692 44.0591 68.4916 41.7968 71.3864 41.8094L71.3912 40.7105ZM65.0201 46.8996C64.9595 50.5152 67.6396 53.3481 71.2252 53.4167L71.2462 52.318C68.2815 52.2613 66.0681 49.9431 66.1189 46.918L65.0201 46.8996ZM71.2246 53.4167C74.8183 53.4889 77.6544 50.7393 77.6811 47.153L76.5822 47.1448C76.5601 50.1158 74.2312 52.378 71.2467 52.318L71.2246 53.4167ZM76.5822 47.1489V47.1524H77.6811V47.1489H76.5822ZM24.8706 41.374C24.919 40.6656 24.6313 40.1842 24.2499 39.837C24.0732 39.6761 23.8778 39.5444 23.7074 39.434C23.5253 39.316 23.379 39.2265 23.2398 39.1234L22.5859 40.0066C22.7617 40.1367 22.9578 40.2577 23.1099 40.3563C23.2738 40.4624 23.4044 40.5533 23.5101 40.6495C23.6935 40.8165 23.7955 40.9877 23.7743 41.2991L24.8706 41.374ZM23.2411 39.1244C22.8984 38.8691 22.6583 38.6513 22.5459 38.4413C22.4966 38.3492 22.4794 38.271 22.4832 38.1955C22.4871 38.1187 22.515 38.0047 22.6183 37.8457L21.6969 37.2469C21.5096 37.5352 21.4013 37.8336 21.3857 38.1397C21.3701 38.4473 21.4501 38.7226 21.577 38.9597C21.817 39.4084 22.2452 39.7528 22.5846 40.0056L23.2411 39.1244ZM22.6185 37.8455C22.7305 37.6729 22.8264 37.5975 22.8912 37.5636C22.9511 37.5322 23.0144 37.5201 23.0976 37.5294C23.298 37.5518 23.5681 37.6913 23.9172 37.9519L24.5745 37.0712C24.2102 36.7993 23.7355 36.495 23.2197 36.4373C22.945 36.4066 22.6574 36.4454 22.3811 36.5902C22.1096 36.7325 21.8841 36.9585 21.6967 37.2472L22.6185 37.8455ZM23.9167 37.9515C24.4932 38.3828 25.1842 38.6382 26.0163 38.4104L25.7262 37.3505C25.3123 37.4638 24.9661 37.3642 24.5751 37.0716L23.9167 37.9515ZM26.0178 38.41C26.3428 38.3201 26.6754 38.1751 26.9433 37.9297C27.2229 37.6736 27.4055 37.3315 27.4512 36.9095L26.3587 36.791C26.3418 36.9467 26.2842 37.0432 26.201 37.1194C26.106 37.2064 25.9531 37.2877 25.7247 37.3509L26.0178 38.41ZM27.4514 36.9077C27.4968 36.4761 27.385 36.0825 27.1368 35.7701C26.8955 35.4664 26.5551 35.2758 26.1962 35.1758L25.9014 36.2345C26.0923 36.2876 26.2114 36.372 26.2764 36.4538C26.3344 36.5268 26.3757 36.6292 26.3585 36.7927L27.4514 36.9077ZM26.1975 35.1762C25.8877 35.0891 25.5757 35.0345 25.2914 34.986C24.9985 34.9361 24.7365 34.8928 24.4824 34.8281L24.2112 35.893C24.5175 35.971 24.8281 36.0218 25.1068 36.0693C25.3942 36.1183 25.653 36.1646 25.9 36.2341L26.1975 35.1762ZM24.4806 34.8277C23.1302 34.4885 22.3109 33.6304 22.0342 32.3039L20.9584 32.5283C21.3221 34.2716 22.4589 35.453 24.213 35.8935L24.4806 34.8277ZM22.0343 32.3044C21.8027 31.1886 22.2675 30.2564 23.2255 29.5123L22.5515 28.6444C21.3586 29.5709 20.6192 30.894 20.9583 32.5278L22.0343 32.3044ZM23.2255 29.5123C23.8294 29.0434 24.5179 28.5599 24.905 27.5526L23.8792 27.1584C23.6189 27.8357 23.1937 28.1457 22.5515 28.6444L23.2255 29.5123ZM24.9049 27.5528C25.0096 27.2804 25.2131 27.1639 25.3662 27.1501C25.4911 27.1389 25.6528 27.1865 25.7581 27.4488L26.7779 27.0394C26.5004 26.3482 25.8982 25.999 25.2678 26.0556C24.6656 26.1097 24.1225 26.5257 23.8792 27.1583L24.9049 27.5528ZM25.7581 27.4488C26.2516 28.6783 27.205 29.1706 27.9116 29.6671L28.5434 28.768C27.7047 28.1786 27.1198 27.8913 26.778 27.0395L25.7581 27.4488ZM27.9125 29.6677C28.2048 29.8723 28.3973 30.0839 28.4788 30.2736C28.5436 30.4244 28.5569 30.5949 28.3978 30.8378L29.3172 31.4398C29.6732 30.8961 29.7022 30.3374 29.4885 29.8399C29.2916 29.3815 28.9116 29.0257 28.5426 28.7674L27.9125 29.6677ZM28.3975 30.8382C28.1864 31.1613 28.0181 31.1993 27.9048 31.1968C27.7365 31.1931 27.48 31.0915 27.133 30.8097L26.4403 31.6628C26.852 31.9971 27.3456 32.2835 27.8803 32.2954C28.47 32.3086 28.9578 31.9898 29.3175 31.4393L28.3975 30.8382ZM27.1341 30.8106C26.7132 30.467 26.1469 30.2238 25.6064 30.1552L25.4679 31.2453C25.8044 31.288 26.1779 31.4486 26.4392 31.6619L27.1341 30.8106ZM25.6075 30.1553C25.1448 30.0956 24.6558 30.1507 24.241 30.3875C23.8099 30.6337 23.5072 31.0502 23.4061 31.6039L24.4871 31.8013C24.5322 31.5545 24.647 31.4211 24.7859 31.3418C24.941 31.2533 25.1742 31.2074 25.4668 31.2452L25.6075 30.1553ZM23.4062 31.603C23.3054 32.1498 23.4582 32.6181 23.797 32.9605C24.1087 33.2755 24.5356 33.4424 24.9307 33.5302L25.1691 32.4575C24.8751 32.3922 24.6806 32.2911 24.5781 32.1875C24.5028 32.1114 24.4485 32.0107 24.4869 31.8022L23.4062 31.603ZM24.9307 33.5302C25.2213 33.5948 25.5236 33.6541 25.8339 33.6952L25.9783 32.6058C25.7108 32.5704 25.4423 32.5182 25.1691 32.4575L24.9307 33.5302ZM25.8347 33.6953C26.656 33.8029 27.3064 34.0775 27.7865 34.4915C28.263 34.9025 28.606 35.4798 28.7687 36.2564L29.8443 36.031C29.638 35.0465 29.184 34.2455 28.5041 33.6593C27.8279 33.0762 26.9625 32.7348 25.9775 32.6057L25.8347 33.6953ZM28.7685 36.2556C28.916 36.9646 28.8155 37.5581 28.544 38.0654C28.2674 38.5824 27.7935 39.0457 27.1408 39.444L27.7133 40.382C28.4806 39.9137 29.1187 39.3207 29.513 38.5839C29.9124 37.8374 30.0415 36.9795 29.8444 36.0318L28.7685 36.2556ZM27.1407 39.4441C26.9519 39.5593 26.2366 39.8192 26.0743 40.614L27.1509 40.8339C27.1709 40.7364 27.2063 40.6926 27.2698 40.6435C27.3113 40.6115 27.3642 40.5788 27.4423 40.5352C27.5091 40.4979 27.6187 40.4398 27.7134 40.382L27.1407 39.4441ZM26.0747 40.6121C25.9638 41.1451 25.7786 41.2282 25.6785 41.2544C25.4931 41.303 25.1798 41.2554 24.7027 41.0584L24.2833 42.0741C24.7842 42.2809 25.395 42.4647 25.957 42.3175C26.6044 42.1479 26.9899 41.6081 27.1505 40.8359L26.0747 40.6121ZM24.9623 41.2806C24.8889 41.16 24.8052 41.0585 24.7309 40.9759L23.9141 41.7111C23.9651 41.7677 23.9996 41.8125 24.0237 41.8519L24.9623 41.2806ZM24.8719 41.3435V41.3366H23.773V41.3435H24.8719ZM63.7713 19.2724C63.9522 19.2834 63.9884 19.2858 64.0221 19.29L64.1585 18.1996C64.0808 18.1899 63.9987 18.1853 63.8385 18.1755L63.7713 19.2724ZM64.025 19.2904C63.9224 19.2781 63.8703 19.2359 63.9104 19.2605C63.9296 19.2722 63.9651 19.2968 64.0191 19.3396C64.1258 19.424 64.2688 19.5506 64.4401 19.7127C64.7806 20.035 65.2032 20.4697 65.6169 20.919C66.0305 21.3683 66.4276 21.824 66.7184 22.1873C66.8647 22.3701 66.9773 22.5211 67.0506 22.632C67.0877 22.6882 67.1078 22.7236 67.1164 22.7411C67.1377 22.7841 67.0934 22.7172 67.0944 22.5998L68.1933 22.6096C68.1948 22.4434 68.1263 22.3041 68.1016 22.2541C68.0643 22.1787 68.0166 22.1005 67.9672 22.0258C67.8673 21.8748 67.7312 21.6942 67.5763 21.5007C67.2647 21.1113 66.8496 20.6355 66.4253 20.1747C66.001 19.7138 65.5601 19.2597 65.1956 18.9146C65.0143 18.7431 64.8445 18.5913 64.701 18.4778C64.6299 18.4216 64.556 18.3673 64.4843 18.3234C64.4336 18.2923 64.3091 18.2176 64.1556 18.1993L64.025 19.2904ZM67.0944 22.5984C67.0893 23.0522 66.5713 23.4 66.0629 23.087L65.4868 24.0227C66.663 24.7469 68.1776 23.9879 68.1933 22.6109L67.0944 22.5984ZM66.0624 23.0866C65.8285 22.943 65.4683 22.6859 65.1555 22.5216C64.8018 22.3357 64.3843 22.1891 63.8772 22.2124L63.9275 23.3102C64.1792 23.2986 64.4004 23.3661 64.6444 23.4944C64.9293 23.6441 65.1261 23.8012 65.4873 24.0231L66.0624 23.0866ZM63.8783 22.2124C63.4634 22.2306 63.0315 22.324 62.6723 22.5687C62.2948 22.826 62.0469 23.2177 61.9674 23.7236L63.053 23.8942C63.0883 23.6692 63.1797 23.5528 63.2912 23.4768C63.4211 23.3883 63.6278 23.3233 63.9265 23.3102L63.8783 22.2124ZM61.9673 23.7243C61.8877 24.2349 62.0352 24.6696 62.338 24.9937C62.6194 25.2949 63.001 25.4656 63.3509 25.5633L63.6463 24.5048C63.3976 24.4354 63.231 24.3398 63.1409 24.2434C63.0722 24.1699 63.0247 24.0755 63.0531 23.8935L61.9673 23.7243ZM63.3526 25.5637C63.6153 25.6361 63.8789 25.6722 64.109 25.7014C64.3507 25.732 64.5514 25.7549 64.7464 25.7972L64.9795 24.7233C64.7255 24.6682 64.4651 24.6388 64.2473 24.6112C64.018 24.5821 63.824 24.5538 63.6446 24.5043L63.3526 25.5637ZM64.7473 25.7974C65.4814 25.9555 66.0581 26.2535 66.4842 26.667C66.9087 27.0788 67.2104 27.6309 67.3562 28.3428L68.4327 28.1224C68.2479 27.2194 67.85 26.461 67.2495 25.8783C66.6506 25.2972 65.8768 24.9166 64.9786 24.7231L64.7473 25.7974ZM67.3563 28.3437C67.6126 29.585 67.0708 30.5712 65.9567 31.3411L66.5814 32.2451C67.9454 31.3026 68.8028 29.9151 68.4326 28.1215L67.3563 28.3437ZM65.9558 31.3417C65.4212 31.7127 64.913 32.1036 64.5757 32.9063L65.5888 33.332C65.8014 32.826 66.0937 32.5835 66.5823 32.2445L65.9558 31.3417ZM64.5753 32.9072C64.4172 33.2853 64.1884 33.4152 64.0583 33.4334C63.9686 33.4459 63.7735 33.4255 63.5816 33.0592L62.6081 33.569C62.9558 34.2328 63.5455 34.6145 64.2102 34.5217C64.8345 34.4346 65.3296 33.9519 65.5892 33.3311L64.5753 32.9072ZM63.5822 33.0603C63.0785 32.0931 62.3095 31.6001 61.7001 31.1236L61.0232 31.9893C61.7224 32.536 62.2412 32.8644 62.6076 33.5679L63.5822 33.0603ZM61.6999 31.1235C61.3607 30.8585 61.1403 30.6449 61.0494 30.4483C61.0114 30.3663 61.0016 30.2976 61.0122 30.227C61.0236 30.1517 61.0647 30.0329 61.1953 29.8664L60.3306 29.1882C60.1132 29.4655 59.9716 29.757 59.9255 30.0637C59.8787 30.3752 59.9367 30.6605 60.052 30.9096C60.2673 31.3751 60.6943 31.7323 61.0233 31.9894L61.6999 31.1235ZM61.1947 29.8671C61.4023 29.6034 61.5636 29.57 61.6833 29.5772C61.8477 29.5871 62.0815 29.6861 62.3814 29.9316L63.0775 29.0813C62.7057 28.7769 62.252 28.5104 61.7491 28.4803C61.2014 28.4474 60.7153 28.6995 60.3312 29.1875L61.1947 29.8671ZM62.3799 29.9304C62.8545 30.3216 63.5518 30.7963 64.4601 30.544L64.166 29.4852C63.8213 29.5809 63.5163 29.443 63.079 29.0825L62.3799 29.9304ZM64.4611 30.5437C64.7846 30.4532 65.1557 30.3103 65.4567 30.0582C65.7768 29.7902 66.0053 29.407 66.0212 28.9007L64.9229 28.8662C64.9179 29.0247 64.8593 29.1252 64.7512 29.2157C64.6242 29.3221 64.4263 29.4124 64.165 29.4854L64.4611 30.5437ZM66.0212 28.9012C66.0361 28.4411 65.8845 28.0353 65.5951 27.7248C65.314 27.4233 64.9344 27.2442 64.5355 27.1592L64.3064 28.234C64.5445 28.2847 64.7008 28.3771 64.7913 28.4741C64.8734 28.5622 64.9288 28.6819 64.9229 28.8656L66.0212 28.9012ZM64.5338 27.1589C64.355 27.1213 64.1789 27.1062 64.0351 27.0946C63.8808 27.0821 63.7636 27.0734 63.6503 27.054L63.4653 28.1373C63.6374 28.1667 63.8108 28.1789 63.9463 28.1899C64.0922 28.2017 64.205 28.2127 64.3081 28.2343L64.5338 27.1589ZM63.6532 27.0546C62.8452 26.9121 62.1738 26.6445 61.668 26.2387C61.1709 25.8398 60.8056 25.2855 60.6348 24.5088L59.5616 24.7448C59.7841 25.7571 60.2802 26.534 60.9803 27.0958C61.6719 27.6506 62.5336 27.973 63.4624 28.1368L63.6532 27.0546ZM60.6349 24.5092C60.4697 23.7552 60.5736 23.134 60.8567 22.6114C61.1453 22.0786 61.6428 21.608 62.3267 21.2108L61.7748 20.2605C60.9725 20.7265 60.3023 21.3278 59.8905 22.088C59.4731 22.8585 59.3439 23.7513 59.5615 24.7444L60.6349 24.5092ZM62.3262 21.2111C62.5729 21.0681 62.8175 20.8944 63.0081 20.6488C63.2061 20.3938 63.3196 20.0959 63.359 19.746L62.267 19.6231C62.2472 19.7987 62.1988 19.8994 62.1401 19.975C62.074 20.0601 61.9671 20.1491 61.7753 20.2602L62.3262 21.2111ZM63.3589 19.7466C63.3734 19.6193 63.4236 19.5498 63.517 19.4802C63.6443 19.3852 63.7897 19.3318 64.0271 19.2249L63.5758 18.223C63.4268 18.2901 63.1128 18.4107 62.8599 18.5994C62.573 18.8134 62.3222 19.1373 62.267 19.6225L63.3589 19.7466ZM63.8014 19.2734H63.8049V18.1745H63.8014V19.2734Z" fill="#FFCC00" mask="url(#path-1-outside-1_917_438)"/>
</svg>
