<svg width="88" height="89" viewBox="0 0 88 89" fill="none" xmlns="http://www.w3.org/2000/svg">
<mask id="path-1-outside-1_917_442" maskUnits="userSpaceOnUse" x="0" y="0" width="88" height="89" fill="black">
<rect fill="white" width="88" height="89"/>
<path d="M36.0892 8.78298C36.0892 10.8018 36.0892 12.8206 36.0892 14.8361C36.0892 15.5831 36.0892 16.4343 35.2648 16.6901C34.0501 17.0669 34.0501 17.9216 34.0199 18.9242C33.9694 20.5157 34.3799 22.1409 33.4243 23.6786C32.9633 24.4222 33.7675 25.1456 34.1612 25.7782C34.6356 26.542 35.2783 25.9632 35.7964 25.7512C39.2722 24.3347 42.7244 22.8576 46.2102 21.4646C47.3845 20.9969 47.7142 20.7008 46.6342 19.6039C44.5009 17.4438 43.8078 14.7991 44.8946 11.8718C45.968 8.9815 48.0877 7.35971 51.1496 6.96604C55.2209 6.44114 58.8279 9.51313 59.2653 13.8839C59.4672 15.9195 59.4672 15.9128 61.3952 15.0986C64.4941 13.793 67.6132 12.538 70.6852 11.1753C71.8325 10.6672 72.4651 10.7446 72.99 12.0198C77.3137 22.4807 81.7113 32.9114 86.0417 43.3655C87.0276 45.741 86.3782 47.595 84.1339 48.951C83.2827 49.4658 83.0539 49.9974 83.4475 50.8621C84.0633 52.2215 83.9287 53.5674 83.4711 54.9502C82.3002 58.5034 81.8964 62.2954 80.1838 65.6904C80.066 65.9192 79.9886 66.2826 80.0862 66.4879C80.7558 67.8809 80.4832 69.3546 80.5101 70.7981C80.5337 71.932 80.3554 73.0356 81.957 73.3384C82.6905 73.4764 82.7847 74.331 82.7914 75.0208C82.8251 78.6648 82.8419 82.3088 82.8688 85.9527C82.8755 86.7199 82.6602 87.265 81.7517 87.2751C80.8399 87.2852 80.6784 86.7401 80.5976 85.9797C80.2948 83.1297 80.3688 80.2664 80.3688 77.4097C80.3688 76.084 80.0155 75.5154 78.5653 75.5288C71.1091 75.6062 63.6529 75.6197 56.2001 75.586C54.6523 75.5793 54.124 76.1581 54.1812 77.6755C54.2855 80.3639 54.2418 83.0557 54.2653 85.7475C54.2721 86.5247 54.2115 87.228 53.1685 87.2751C52.0648 87.3255 51.8495 86.6156 51.8394 85.7576C51.7923 82.1708 51.762 78.584 51.7317 74.9972C51.725 74.2671 51.9538 73.5874 52.7243 73.436C53.7068 73.2408 53.7371 72.6049 53.7775 71.8277C53.8717 70.0141 53.6429 68.2375 54.3158 66.3802C54.7431 65.2059 53.5016 63.712 52.8724 62.4334C52.6705 62.0229 52.048 62.4603 51.6947 62.7026C47.7681 65.3775 43.1921 66.6897 38.9963 68.7994C38.3603 69.1191 37.6975 69.1897 37.112 68.6682C36.4795 68.1063 36.4761 67.393 36.7083 66.6561C37.0616 65.5256 37.3307 64.4219 36.9404 63.2106C36.2675 61.1178 34.5885 59.6609 32.4418 59.4657C30.4768 59.2907 28.3873 60.502 27.5024 62.3392C26.5737 64.2604 26.8766 66.323 28.4008 67.9313C29.0535 68.6177 29.8442 69.1695 30.5273 69.8324C31.53 70.8048 31.5064 72.0295 30.2783 72.6116C25.9244 74.6742 21.5132 76.6123 17.1122 78.5739C16.0893 79.0282 15.8773 78.1432 15.5879 77.5039C13.6297 73.1635 11.6815 68.8162 9.73334 64.469C7.05503 58.4832 4.36662 52.5041 1.71859 46.5082C0.406349 43.5338 0.833668 42.0331 3.47833 40.196C4.06716 39.7855 4.41709 39.3514 4.15464 38.6751C3.7105 37.5378 3.97968 36.4544 4.31615 35.3844C5.45342 31.7573 5.91439 27.9249 7.64049 24.476C7.75489 24.2506 7.82555 23.8872 7.72124 23.6887C7.0382 22.3562 7.35449 20.9363 7.28719 19.5501C7.22999 18.3792 7.65731 17.0299 5.74952 16.7977C5.12032 16.7203 5.01937 15.8623 5.01264 15.2331C4.979 10.9162 4.96217 6.59928 4.93189 2.28572C4.92516 1.49837 5.17079 1.01049 6.08262 1.01386C7.03147 1.01386 7.12569 1.58922 7.19298 2.32946C7.51599 5.96672 7.41842 9.6107 7.44197 13.2513C7.45206 14.4357 7.89284 14.8327 9.04694 14.7654C16.4964 14.3482 23.9526 14.5938 31.4055 14.4828C33.6026 14.4492 33.606 14.4626 33.5925 12.1982C33.5757 9.00169 33.5522 5.80858 33.5353 2.6121C33.532 1.79783 33.5185 1.02058 34.6995 1.0004C35.857 0.980208 35.9546 1.7339 35.9613 2.5549C35.9815 4.62756 35.968 6.70359 35.968 8.77625C36.005 8.77625 36.0454 8.77625 36.0824 8.77625L36.0892 8.78298ZM15.9076 47.2215C15.9412 49.2302 15.5442 50.5694 14.7771 51.7672C13.8753 53.177 12.4453 53.712 10.8639 53.5976C9.35313 53.49 8.53214 52.4503 8.09472 51.0371C7.32084 48.5203 6.50658 46.0169 5.68222 43.5203C5.52072 43.0358 5.59138 42.2081 4.84104 42.2787C4.06043 42.3528 3.60619 42.992 3.47833 43.7861C3.37403 44.4221 3.59273 45.0075 3.84509 45.5728C8.16538 55.2362 12.5025 64.8963 16.7992 74.5699C17.24 75.5591 17.7178 75.7913 18.7205 75.3169C21.3551 74.0719 23.9997 72.8438 26.6949 71.7469C28.0172 71.2086 28.0845 70.7981 27.0347 69.8728C25.2009 68.2577 24.2824 66.1884 24.6424 63.7254C25.248 59.5734 28.4546 56.996 32.6403 57.1979C36.4155 57.3829 39.2755 60.4213 39.4505 64.5767C39.501 65.788 39.8543 65.8788 40.8435 65.4111C43.2762 64.2638 45.719 63.1366 48.2021 62.107C49.6961 61.4879 49.9585 60.6232 49.299 59.2133C47.9431 56.3231 46.651 53.4025 45.3489 50.4886C44.1039 47.7026 44.7836 46.7538 47.8118 47.0028C50.7963 47.2484 53.1718 45.7848 53.6866 43.3824C54.2418 40.7949 52.9935 38.4093 50.6247 37.5277C48.2627 36.6496 45.5104 37.7061 44.3159 39.984C43.8751 40.8218 43.6194 41.8716 42.4283 41.8581C41.1497 41.8447 40.8906 40.7074 40.4902 39.809C39.0568 36.5856 37.61 33.3656 36.2574 30.1086C35.7157 28.8064 35.0192 28.581 33.7911 29.1765C31.8261 30.1287 29.7534 30.869 27.8254 31.8851C23.7642 34.0284 18.993 34.8427 15.7293 38.5203C15.0496 39.2841 14.7299 39.8494 14.8982 40.8151C15.2986 43.13 15.6351 45.455 15.9143 47.2215H15.9076ZM56.7788 15.3879C56.8595 13.0831 56.6745 12.2554 55.877 11.2291C54.6388 9.63426 52.5493 8.93103 50.618 9.46266C48.6295 10.0111 47.1355 11.6565 46.8832 13.5777C46.5837 15.8489 47.5696 17.8273 49.5884 18.904C50.4262 19.3516 51.4794 19.6207 51.4255 20.8152C51.3683 22.0669 50.2512 22.3327 49.3293 22.7163C45.9141 24.1328 42.4956 25.5393 39.0737 26.939C38.2863 27.262 37.6605 27.5345 38.1719 28.6281C39.4505 31.367 40.6551 34.1462 41.8563 36.9187C42.2836 37.9046 42.6167 37.9012 43.3334 37.0903C45.4363 34.7148 48.1281 34.0655 51.1227 34.9033C54.6321 35.8858 56.6812 39.2538 56.2707 43.13C55.8939 46.7033 52.9699 49.5196 49.2822 49.6273C47.832 49.671 47.6873 50.0176 48.2728 51.2491C49.4269 53.6784 50.4834 56.1514 51.5231 58.6312C51.9 59.5296 52.3407 59.9267 53.2829 59.3849C53.6193 59.1898 54.0029 59.0754 54.3629 58.924C59.945 56.5922 65.5035 54.2033 71.1259 51.9725C72.7646 51.3231 73.2222 50.4247 72.852 48.7995C72.4954 47.2181 72.2699 45.6064 72.0041 44.0048C71.7148 42.2484 71.8325 40.5324 72.6905 38.9376C73.5755 37.2922 75.0189 36.5419 76.8493 36.6294C78.5956 36.7135 79.2988 37.9551 79.7632 39.4389C80.4327 41.5755 81.1292 43.7054 81.8426 45.8285C82.0041 46.3164 82.0142 47.0869 82.8284 46.8985C83.461 46.7538 83.858 46.2491 83.9758 45.5795C84.1171 44.7552 83.7604 44.0519 83.4576 43.3252C79.5882 34.0756 75.6919 24.836 71.8998 15.5562C71.2706 14.0151 70.6919 13.6416 69.1239 14.3785C66.1361 15.7816 63.0506 16.9862 59.9921 18.2345C57.6267 19.2001 56.7149 18.5642 56.7687 16.0575C56.7721 15.8321 56.7687 15.61 56.7687 15.3846L56.7788 15.3879ZM68.8076 55.455C64.3931 57.3022 60.2646 59.0283 56.1361 60.7577C55.7593 60.9159 55.4699 61.1312 55.4161 61.5922C55.1705 63.611 57.2196 65.9461 59.2754 65.9495C64.3763 65.9562 69.4772 65.9495 74.5781 65.9495C77.418 65.9495 78.1245 65.4414 78.922 62.6487C79.7363 59.7954 80.4866 56.922 81.2537 54.0552C81.4422 53.3486 81.5431 52.6454 81.3042 51.9085C80.0189 47.9685 78.7807 44.0116 77.4752 40.0782C77.031 38.7424 76.0149 38.5674 75.1098 39.6744C74.2989 40.667 74.06 41.8615 74.2753 43.1536C74.7094 45.7477 75.0761 48.3554 75.5304 50.9462C75.6784 51.7941 75.4866 52.319 74.6858 52.6959C73.0977 53.4429 72.0782 54.7618 71.2605 56.2759C70.9712 56.8109 70.8736 57.6824 69.9012 57.4502C68.9927 57.2349 68.4005 56.7571 68.8043 55.4583L68.8076 55.455ZM6.3047 37.3662C6.41573 37.7868 6.50994 38.2242 6.64453 38.6482C7.79863 42.2754 8.95273 45.9025 10.1203 49.5263C10.3524 50.2497 10.45 51.1616 11.5267 51.1246C12.5126 51.0909 13.0207 50.418 13.2831 49.5633C13.5321 48.7659 13.7273 47.9685 13.5624 47.0903C13.1687 45.0008 12.9029 42.8877 12.489 40.805C12.1559 39.1294 11.9776 37.6556 14.0301 36.8784C14.6526 36.6428 15.1505 35.9564 15.5879 35.3844C16.1162 34.6913 16.7488 34.2169 17.5428 33.8669C21.8463 31.9659 26.133 30.0312 30.4297 28.1166C32.2164 27.3192 32.2938 26.9457 31.1834 25.3172C30.6148 24.4861 29.8543 24.4222 28.9862 24.4255C23.6094 24.4491 18.2292 24.4491 12.8524 24.4659C10.3424 24.476 9.58529 25.0144 8.90226 27.4336C8.06781 30.3946 7.30738 33.3791 6.52004 36.3568C6.43592 36.6798 6.37872 37.0129 6.3047 37.3662ZM20.6821 17.003V17.0467C18.1081 17.0467 15.5341 17.0602 12.9635 17.0467C8.7643 17.0232 9.59539 16.9862 9.70306 20.435C9.7468 21.8414 10.2582 22.2553 11.6142 22.225C17.203 22.0938 22.7952 22.0366 28.3873 21.9693C31.7083 21.9289 31.6612 21.9458 31.5905 18.645C31.5636 17.4202 31.1464 16.9626 29.9115 16.9862C26.8362 17.0467 23.7575 17.0063 20.6821 17.0063V17.003ZM67.2733 73.2745C67.2733 73.1971 67.2733 73.1197 67.2733 73.039C70.4126 73.039 73.5519 73.0423 76.6912 73.0356C77.1824 73.0356 77.8722 73.1803 78.0673 72.6587C78.4913 71.5316 78.3601 70.3304 78.0303 69.1931C77.7309 68.1668 76.7854 68.4091 76.0384 68.4057C70.5438 68.3923 65.0526 68.4057 59.558 68.4057C55.9915 68.4057 55.9814 68.4428 56.2404 71.9488C56.3145 72.9481 56.6846 73.3081 57.694 73.2913C60.8871 73.2408 64.0802 73.2745 67.2733 73.2745Z"/>
<path d="M66.6273 9.19684C65.9813 9.27087 65.766 8.84355 65.5573 8.45661C65.0796 7.57169 64.6556 6.65985 64.1744 5.77829C63.7404 4.98758 64.0533 4.54681 64.77 4.18678C65.4598 3.84022 65.9275 3.97481 66.2673 4.6713C66.7316 5.62352 67.2296 6.56227 67.7007 7.51449C68.3198 8.75607 67.2868 8.88393 66.6273 9.19684Z"/>
<path d="M82.2463 5.60669C81.6777 6.61947 81.0384 7.91489 80.2443 9.10936C79.9011 9.62416 79.3291 9.18675 78.8951 8.96804C78.3735 8.7056 78.1414 8.31529 78.4375 7.74665C79.0027 6.66321 79.568 5.58314 80.1535 4.50979C80.463 3.94116 80.9307 3.96471 81.4287 4.25071C81.8493 4.49297 82.3876 4.64775 82.243 5.60669H82.2463Z"/>
<path d="M25.6989 82.975C25.8066 83.9406 25.2817 84.1055 24.8443 84.3276C24.417 84.5429 23.9627 84.664 23.6835 84.1425C23.0744 83.012 22.489 81.8713 21.9203 80.7206C21.6781 80.226 21.9271 79.8525 22.3678 79.617C22.7952 79.3882 23.3604 78.9137 23.7104 79.4454C24.5011 80.6499 25.137 81.9555 25.6989 82.975Z"/>
<path d="M15.4029 84.6304C15.4029 84.0719 15.3928 83.5133 15.4029 82.9548C15.4163 82.265 15.7999 81.9386 16.4729 81.9622C17.129 81.9824 17.7784 82.1405 17.7716 82.9413C17.7616 84.1661 17.6572 85.3908 17.5496 86.6089C17.489 87.2751 16.9608 87.3289 16.4291 87.3188C15.8605 87.3087 15.4332 87.1035 15.4063 86.4709C15.3793 85.8585 15.3995 85.2428 15.3995 84.6304H15.4029Z"/>
<path d="M8.73065 84.5496C8.10482 84.2266 7.02138 84.1459 7.63039 82.8875C8.09472 81.9353 8.59943 80.9999 9.0604 80.0477C9.44398 79.257 9.97223 79.2098 10.6956 79.5968C11.3821 79.9635 11.5402 80.4211 11.1768 81.0941C10.6788 82.0295 10.201 82.975 9.69296 83.9036C9.5079 84.2435 9.29593 84.5968 8.72729 84.5463L8.73065 84.5496Z"/>
<path d="M71.92 3.89742C71.92 3.33887 71.9133 2.77697 71.92 2.21842C71.9301 1.43781 72.381 1.12826 73.1111 1.14171C73.8312 1.15517 74.3191 1.48155 74.2989 2.24534C74.2652 3.41626 74.1777 4.59055 74.0869 5.7581C74.0364 6.40749 73.5687 6.55218 73.0135 6.54545C72.4584 6.53872 71.9873 6.37721 71.9436 5.73792C71.9032 5.12554 71.9335 4.50979 71.9335 3.89405H71.92V3.89742Z"/>
</mask>
<path d="M36.0892 8.78298C36.0892 10.8018 36.0892 12.8206 36.0892 14.8361C36.0892 15.5831 36.0892 16.4343 35.2648 16.6901C34.0501 17.0669 34.0501 17.9216 34.0199 18.9242C33.9694 20.5157 34.3799 22.1409 33.4243 23.6786C32.9633 24.4222 33.7675 25.1456 34.1612 25.7782C34.6356 26.542 35.2783 25.9632 35.7964 25.7512C39.2722 24.3347 42.7244 22.8576 46.2102 21.4646C47.3845 20.9969 47.7142 20.7008 46.6342 19.6039C44.5009 17.4438 43.8078 14.7991 44.8946 11.8718C45.968 8.9815 48.0877 7.35971 51.1496 6.96604C55.2209 6.44114 58.8279 9.51313 59.2653 13.8839C59.4672 15.9195 59.4672 15.9128 61.3952 15.0986C64.4941 13.793 67.6132 12.538 70.6852 11.1753C71.8325 10.6672 72.4651 10.7446 72.99 12.0198C77.3137 22.4807 81.7113 32.9114 86.0417 43.3655C87.0276 45.741 86.3782 47.595 84.1339 48.951C83.2827 49.4658 83.0539 49.9974 83.4475 50.8621C84.0633 52.2215 83.9287 53.5674 83.4711 54.9502C82.3002 58.5034 81.8964 62.2954 80.1838 65.6904C80.066 65.9192 79.9886 66.2826 80.0862 66.4879C80.7558 67.8809 80.4832 69.3546 80.5101 70.7981C80.5337 71.932 80.3554 73.0356 81.957 73.3384C82.6905 73.4764 82.7847 74.331 82.7914 75.0208C82.8251 78.6648 82.8419 82.3088 82.8688 85.9527C82.8755 86.7199 82.6602 87.265 81.7517 87.2751C80.8399 87.2852 80.6784 86.7401 80.5976 85.9797C80.2948 83.1297 80.3688 80.2664 80.3688 77.4097C80.3688 76.084 80.0155 75.5154 78.5653 75.5288C71.1091 75.6062 63.6529 75.6197 56.2001 75.586C54.6523 75.5793 54.124 76.1581 54.1812 77.6755C54.2855 80.3639 54.2418 83.0557 54.2653 85.7475C54.2721 86.5247 54.2115 87.228 53.1685 87.2751C52.0648 87.3255 51.8495 86.6156 51.8394 85.7576C51.7923 82.1708 51.762 78.584 51.7317 74.9972C51.725 74.2671 51.9538 73.5874 52.7243 73.436C53.7068 73.2408 53.7371 72.6049 53.7775 71.8277C53.8717 70.0141 53.6429 68.2375 54.3158 66.3802C54.7431 65.2059 53.5016 63.712 52.8724 62.4334C52.6705 62.0229 52.048 62.4603 51.6947 62.7026C47.7681 65.3775 43.1921 66.6897 38.9963 68.7994C38.3603 69.1191 37.6975 69.1897 37.112 68.6682C36.4795 68.1063 36.4761 67.393 36.7083 66.6561C37.0616 65.5256 37.3307 64.4219 36.9404 63.2106C36.2675 61.1178 34.5885 59.6609 32.4418 59.4657C30.4768 59.2907 28.3873 60.502 27.5024 62.3392C26.5737 64.2604 26.8766 66.323 28.4008 67.9313C29.0535 68.6177 29.8442 69.1695 30.5273 69.8324C31.53 70.8048 31.5064 72.0295 30.2783 72.6116C25.9244 74.6742 21.5132 76.6123 17.1122 78.5739C16.0893 79.0282 15.8773 78.1432 15.5879 77.5039C13.6297 73.1635 11.6815 68.8162 9.73334 64.469C7.05503 58.4832 4.36662 52.5041 1.71859 46.5082C0.406349 43.5338 0.833668 42.0331 3.47833 40.196C4.06716 39.7855 4.41709 39.3514 4.15464 38.6751C3.7105 37.5378 3.97968 36.4544 4.31615 35.3844C5.45342 31.7573 5.91439 27.9249 7.64049 24.476C7.75489 24.2506 7.82555 23.8872 7.72124 23.6887C7.0382 22.3562 7.35449 20.9363 7.28719 19.5501C7.22999 18.3792 7.65731 17.0299 5.74952 16.7977C5.12032 16.7203 5.01937 15.8623 5.01264 15.2331C4.979 10.9162 4.96217 6.59928 4.93189 2.28572C4.92516 1.49837 5.17079 1.01049 6.08262 1.01386C7.03147 1.01386 7.12569 1.58922 7.19298 2.32946C7.51599 5.96672 7.41842 9.6107 7.44197 13.2513C7.45206 14.4357 7.89284 14.8327 9.04694 14.7654C16.4964 14.3482 23.9526 14.5938 31.4055 14.4828C33.6026 14.4492 33.606 14.4626 33.5925 12.1982C33.5757 9.00169 33.5522 5.80858 33.5353 2.6121C33.532 1.79783 33.5185 1.02058 34.6995 1.0004C35.857 0.980208 35.9546 1.7339 35.9613 2.5549C35.9815 4.62756 35.968 6.70359 35.968 8.77625C36.005 8.77625 36.0454 8.77625 36.0824 8.77625L36.0892 8.78298ZM15.9076 47.2215C15.9412 49.2302 15.5442 50.5694 14.7771 51.7672C13.8753 53.177 12.4453 53.712 10.8639 53.5976C9.35313 53.49 8.53214 52.4503 8.09472 51.0371C7.32084 48.5203 6.50658 46.0169 5.68222 43.5203C5.52072 43.0358 5.59138 42.2081 4.84104 42.2787C4.06043 42.3528 3.60619 42.992 3.47833 43.7861C3.37403 44.4221 3.59273 45.0075 3.84509 45.5728C8.16538 55.2362 12.5025 64.8963 16.7992 74.5699C17.24 75.5591 17.7178 75.7913 18.7205 75.3169C21.3551 74.0719 23.9997 72.8438 26.6949 71.7469C28.0172 71.2086 28.0845 70.7981 27.0347 69.8728C25.2009 68.2577 24.2824 66.1884 24.6424 63.7254C25.248 59.5734 28.4546 56.996 32.6403 57.1979C36.4155 57.3829 39.2755 60.4213 39.4505 64.5767C39.501 65.788 39.8543 65.8788 40.8435 65.4111C43.2762 64.2638 45.719 63.1366 48.2021 62.107C49.6961 61.4879 49.9585 60.6232 49.299 59.2133C47.9431 56.3231 46.651 53.4025 45.3489 50.4886C44.1039 47.7026 44.7836 46.7538 47.8118 47.0028C50.7963 47.2484 53.1718 45.7848 53.6866 43.3824C54.2418 40.7949 52.9935 38.4093 50.6247 37.5277C48.2627 36.6496 45.5104 37.7061 44.3159 39.984C43.8751 40.8218 43.6194 41.8716 42.4283 41.8581C41.1497 41.8447 40.8906 40.7074 40.4902 39.809C39.0568 36.5856 37.61 33.3656 36.2574 30.1086C35.7157 28.8064 35.0192 28.581 33.7911 29.1765C31.8261 30.1287 29.7534 30.869 27.8254 31.8851C23.7642 34.0284 18.993 34.8427 15.7293 38.5203C15.0496 39.2841 14.7299 39.8494 14.8982 40.8151C15.2986 43.13 15.6351 45.455 15.9143 47.2215H15.9076ZM56.7788 15.3879C56.8595 13.0831 56.6745 12.2554 55.877 11.2291C54.6388 9.63426 52.5493 8.93103 50.618 9.46266C48.6295 10.0111 47.1355 11.6565 46.8832 13.5777C46.5837 15.8489 47.5696 17.8273 49.5884 18.904C50.4262 19.3516 51.4794 19.6207 51.4255 20.8152C51.3683 22.0669 50.2512 22.3327 49.3293 22.7163C45.9141 24.1328 42.4956 25.5393 39.0737 26.939C38.2863 27.262 37.6605 27.5345 38.1719 28.6281C39.4505 31.367 40.6551 34.1462 41.8563 36.9187C42.2836 37.9046 42.6167 37.9012 43.3334 37.0903C45.4363 34.7148 48.1281 34.0655 51.1227 34.9033C54.6321 35.8858 56.6812 39.2538 56.2707 43.13C55.8939 46.7033 52.9699 49.5196 49.2822 49.6273C47.832 49.671 47.6873 50.0176 48.2728 51.2491C49.4269 53.6784 50.4834 56.1514 51.5231 58.6312C51.9 59.5296 52.3407 59.9267 53.2829 59.3849C53.6193 59.1898 54.0029 59.0754 54.3629 58.924C59.945 56.5922 65.5035 54.2033 71.1259 51.9725C72.7646 51.3231 73.2222 50.4247 72.852 48.7995C72.4954 47.2181 72.2699 45.6064 72.0041 44.0048C71.7148 42.2484 71.8325 40.5324 72.6905 38.9376C73.5755 37.2922 75.0189 36.5419 76.8493 36.6294C78.5956 36.7135 79.2988 37.9551 79.7632 39.4389C80.4327 41.5755 81.1292 43.7054 81.8426 45.8285C82.0041 46.3164 82.0142 47.0869 82.8284 46.8985C83.461 46.7538 83.858 46.2491 83.9758 45.5795C84.1171 44.7552 83.7604 44.0519 83.4576 43.3252C79.5882 34.0756 75.6919 24.836 71.8998 15.5562C71.2706 14.0151 70.6919 13.6416 69.1239 14.3785C66.1361 15.7816 63.0506 16.9862 59.9921 18.2345C57.6267 19.2001 56.7149 18.5642 56.7687 16.0575C56.7721 15.8321 56.7687 15.61 56.7687 15.3846L56.7788 15.3879ZM68.8076 55.455C64.3931 57.3022 60.2646 59.0283 56.1361 60.7577C55.7593 60.9159 55.4699 61.1312 55.4161 61.5922C55.1705 63.611 57.2196 65.9461 59.2754 65.9495C64.3763 65.9562 69.4772 65.9495 74.5781 65.9495C77.418 65.9495 78.1245 65.4414 78.922 62.6487C79.7363 59.7954 80.4866 56.922 81.2537 54.0552C81.4422 53.3486 81.5431 52.6454 81.3042 51.9085C80.0189 47.9685 78.7807 44.0116 77.4752 40.0782C77.031 38.7424 76.0149 38.5674 75.1098 39.6744C74.2989 40.667 74.06 41.8615 74.2753 43.1536C74.7094 45.7477 75.0761 48.3554 75.5304 50.9462C75.6784 51.7941 75.4866 52.319 74.6858 52.6959C73.0977 53.4429 72.0782 54.7618 71.2605 56.2759C70.9712 56.8109 70.8736 57.6824 69.9012 57.4502C68.9927 57.2349 68.4005 56.7571 68.8043 55.4583L68.8076 55.455ZM6.3047 37.3662C6.41573 37.7868 6.50994 38.2242 6.64453 38.6482C7.79863 42.2754 8.95273 45.9025 10.1203 49.5263C10.3524 50.2497 10.45 51.1616 11.5267 51.1246C12.5126 51.0909 13.0207 50.418 13.2831 49.5633C13.5321 48.7659 13.7273 47.9685 13.5624 47.0903C13.1687 45.0008 12.9029 42.8877 12.489 40.805C12.1559 39.1294 11.9776 37.6556 14.0301 36.8784C14.6526 36.6428 15.1505 35.9564 15.5879 35.3844C16.1162 34.6913 16.7488 34.2169 17.5428 33.8669C21.8463 31.9659 26.133 30.0312 30.4297 28.1166C32.2164 27.3192 32.2938 26.9457 31.1834 25.3172C30.6148 24.4861 29.8543 24.4222 28.9862 24.4255C23.6094 24.4491 18.2292 24.4491 12.8524 24.4659C10.3424 24.476 9.58529 25.0144 8.90226 27.4336C8.06781 30.3946 7.30738 33.3791 6.52004 36.3568C6.43592 36.6798 6.37872 37.0129 6.3047 37.3662ZM20.6821 17.003V17.0467C18.1081 17.0467 15.5341 17.0602 12.9635 17.0467C8.7643 17.0232 9.59539 16.9862 9.70306 20.435C9.7468 21.8414 10.2582 22.2553 11.6142 22.225C17.203 22.0938 22.7952 22.0366 28.3873 21.9693C31.7083 21.9289 31.6612 21.9458 31.5905 18.645C31.5636 17.4202 31.1464 16.9626 29.9115 16.9862C26.8362 17.0467 23.7575 17.0063 20.6821 17.0063V17.003ZM67.2733 73.2745C67.2733 73.1971 67.2733 73.1197 67.2733 73.039C70.4126 73.039 73.5519 73.0423 76.6912 73.0356C77.1824 73.0356 77.8722 73.1803 78.0673 72.6587C78.4913 71.5316 78.3601 70.3304 78.0303 69.1931C77.7309 68.1668 76.7854 68.4091 76.0384 68.4057C70.5438 68.3923 65.0526 68.4057 59.558 68.4057C55.9915 68.4057 55.9814 68.4428 56.2404 71.9488C56.3145 72.9481 56.6846 73.3081 57.694 73.2913C60.8871 73.2408 64.0802 73.2745 67.2733 73.2745Z" fill="#FFCC00"/>
<path d="M66.6273 9.19684C65.9813 9.27087 65.766 8.84355 65.5573 8.45661C65.0796 7.57169 64.6556 6.65985 64.1744 5.77829C63.7404 4.98758 64.0533 4.54681 64.77 4.18678C65.4598 3.84022 65.9275 3.97481 66.2673 4.6713C66.7316 5.62352 67.2296 6.56227 67.7007 7.51449C68.3198 8.75607 67.2868 8.88393 66.6273 9.19684Z" fill="#FFCC00"/>
<path d="M82.2463 5.60669C81.6777 6.61947 81.0384 7.91489 80.2443 9.10936C79.9011 9.62416 79.3291 9.18675 78.8951 8.96804C78.3735 8.7056 78.1414 8.31529 78.4375 7.74665C79.0027 6.66321 79.568 5.58314 80.1535 4.50979C80.463 3.94116 80.9307 3.96471 81.4287 4.25071C81.8493 4.49297 82.3876 4.64775 82.243 5.60669H82.2463Z" fill="#FFCC00"/>
<path d="M25.6989 82.975C25.8066 83.9406 25.2817 84.1055 24.8443 84.3276C24.417 84.5429 23.9627 84.664 23.6835 84.1425C23.0744 83.012 22.489 81.8713 21.9203 80.7206C21.6781 80.226 21.9271 79.8525 22.3678 79.617C22.7952 79.3882 23.3604 78.9137 23.7104 79.4454C24.5011 80.6499 25.137 81.9555 25.6989 82.975Z" fill="#FFCC00"/>
<path d="M15.4029 84.6304C15.4029 84.0719 15.3928 83.5133 15.4029 82.9548C15.4163 82.265 15.7999 81.9386 16.4729 81.9622C17.129 81.9824 17.7784 82.1405 17.7716 82.9413C17.7616 84.1661 17.6572 85.3908 17.5496 86.6089C17.489 87.2751 16.9608 87.3289 16.4291 87.3188C15.8605 87.3087 15.4332 87.1035 15.4063 86.4709C15.3793 85.8585 15.3995 85.2428 15.3995 84.6304H15.4029Z" fill="#FFCC00"/>
<path d="M8.73065 84.5496C8.10482 84.2266 7.02138 84.1459 7.63039 82.8875C8.09472 81.9353 8.59943 80.9999 9.0604 80.0477C9.44398 79.257 9.97223 79.2098 10.6956 79.5968C11.3821 79.9635 11.5402 80.4211 11.1768 81.0941C10.6788 82.0295 10.201 82.975 9.69296 83.9036C9.5079 84.2435 9.29593 84.5968 8.72729 84.5463L8.73065 84.5496Z" fill="#FFCC00"/>
<path d="M71.92 3.89742C71.92 3.33887 71.9133 2.77697 71.92 2.21842C71.9301 1.43781 72.381 1.12826 73.1111 1.14171C73.8312 1.15517 74.3191 1.48155 74.2989 2.24534C74.2652 3.41626 74.1777 4.59055 74.0869 5.7581C74.0364 6.40749 73.5687 6.55218 73.0135 6.54545C72.4584 6.53872 71.9873 6.37721 71.9436 5.73792C71.9032 5.12554 71.9335 4.50979 71.9335 3.89405H71.92V3.89742Z" fill="#FFCC00"/>
<path d="M36.0892 8.78298C36.0892 10.8018 36.0892 12.8206 36.0892 14.8361C36.0892 15.5831 36.0892 16.4343 35.2648 16.6901C34.0501 17.0669 34.0501 17.9216 34.0199 18.9242C33.9694 20.5157 34.3799 22.1409 33.4243 23.6786C32.9633 24.4222 33.7675 25.1456 34.1612 25.7782C34.6356 26.542 35.2783 25.9632 35.7964 25.7512C39.2722 24.3347 42.7244 22.8576 46.2102 21.4646C47.3845 20.9969 47.7142 20.7008 46.6342 19.6039C44.5009 17.4438 43.8078 14.7991 44.8946 11.8718C45.968 8.9815 48.0877 7.35971 51.1496 6.96604C55.2209 6.44114 58.8279 9.51313 59.2653 13.8839C59.4672 15.9195 59.4672 15.9128 61.3952 15.0986C64.4941 13.793 67.6132 12.538 70.6852 11.1753C71.8325 10.6672 72.4651 10.7446 72.99 12.0198C77.3137 22.4807 81.7113 32.9114 86.0417 43.3655C87.0276 45.741 86.3782 47.595 84.1339 48.951C83.2827 49.4658 83.0539 49.9974 83.4475 50.8621C84.0633 52.2215 83.9287 53.5674 83.4711 54.9502C82.3002 58.5034 81.8964 62.2954 80.1838 65.6904C80.066 65.9192 79.9886 66.2826 80.0862 66.4879C80.7558 67.8809 80.4832 69.3546 80.5101 70.7981C80.5337 71.932 80.3554 73.0356 81.957 73.3384C82.6905 73.4764 82.7847 74.331 82.7914 75.0208C82.8251 78.6648 82.8419 82.3088 82.8688 85.9527C82.8755 86.7199 82.6602 87.265 81.7517 87.2751C80.8399 87.2852 80.6784 86.7401 80.5976 85.9797C80.2948 83.1297 80.3688 80.2664 80.3688 77.4097C80.3688 76.084 80.0155 75.5154 78.5653 75.5288C71.1091 75.6062 63.6529 75.6197 56.2001 75.586C54.6523 75.5793 54.124 76.1581 54.1812 77.6755C54.2855 80.3639 54.2418 83.0557 54.2653 85.7475C54.2721 86.5247 54.2115 87.228 53.1685 87.2751C52.0648 87.3255 51.8495 86.6156 51.8394 85.7576C51.7923 82.1708 51.762 78.584 51.7317 74.9972C51.725 74.2671 51.9538 73.5874 52.7243 73.436C53.7068 73.2408 53.7371 72.6049 53.7775 71.8277C53.8717 70.0141 53.6429 68.2375 54.3158 66.3802C54.7431 65.2059 53.5016 63.712 52.8724 62.4334C52.6705 62.0229 52.048 62.4603 51.6947 62.7026C47.7681 65.3775 43.1921 66.6897 38.9963 68.7994C38.3603 69.1191 37.6975 69.1897 37.112 68.6682C36.4795 68.1063 36.4761 67.393 36.7083 66.6561C37.0616 65.5256 37.3307 64.4219 36.9404 63.2106C36.2675 61.1178 34.5885 59.6609 32.4418 59.4657C30.4768 59.2907 28.3873 60.502 27.5024 62.3392C26.5737 64.2604 26.8766 66.323 28.4008 67.9313C29.0535 68.6177 29.8442 69.1695 30.5273 69.8324C31.53 70.8048 31.5064 72.0295 30.2783 72.6116C25.9244 74.6742 21.5132 76.6123 17.1122 78.5739C16.0893 79.0282 15.8773 78.1432 15.5879 77.5039C13.6297 73.1635 11.6815 68.8162 9.73334 64.469C7.05503 58.4832 4.36662 52.5041 1.71859 46.5082C0.406349 43.5338 0.833668 42.0331 3.47833 40.196C4.06716 39.7855 4.41709 39.3514 4.15464 38.6751C3.7105 37.5378 3.97968 36.4544 4.31615 35.3844C5.45342 31.7573 5.91439 27.9249 7.64049 24.476C7.75489 24.2506 7.82555 23.8872 7.72124 23.6887C7.0382 22.3562 7.35449 20.9363 7.28719 19.5501C7.22999 18.3792 7.65731 17.0299 5.74952 16.7977C5.12032 16.7203 5.01937 15.8623 5.01264 15.2331C4.979 10.9162 4.96217 6.59928 4.93189 2.28572C4.92516 1.49837 5.17079 1.01049 6.08262 1.01386C7.03147 1.01386 7.12569 1.58922 7.19298 2.32946C7.51599 5.96672 7.41842 9.6107 7.44197 13.2513C7.45206 14.4357 7.89284 14.8327 9.04694 14.7654C16.4964 14.3482 23.9526 14.5938 31.4055 14.4828C33.6026 14.4492 33.606 14.4626 33.5925 12.1982C33.5757 9.00169 33.5522 5.80858 33.5353 2.6121C33.532 1.79783 33.5185 1.02058 34.6995 1.0004C35.857 0.980208 35.9546 1.7339 35.9613 2.5549C35.9815 4.62756 35.968 6.70359 35.968 8.77625C36.005 8.77625 36.0454 8.77625 36.0824 8.77625L36.0892 8.78298ZM15.9076 47.2215C15.9412 49.2302 15.5442 50.5694 14.7771 51.7672C13.8753 53.177 12.4453 53.712 10.8639 53.5976C9.35313 53.49 8.53214 52.4503 8.09472 51.0371C7.32084 48.5203 6.50658 46.0169 5.68222 43.5203C5.52072 43.0358 5.59138 42.2081 4.84104 42.2787C4.06043 42.3528 3.60619 42.992 3.47833 43.7861C3.37403 44.4221 3.59273 45.0075 3.84509 45.5728C8.16538 55.2362 12.5025 64.8963 16.7992 74.5699C17.24 75.5591 17.7178 75.7913 18.7205 75.3169C21.3551 74.0719 23.9997 72.8438 26.6949 71.7469C28.0172 71.2086 28.0845 70.7981 27.0347 69.8728C25.2009 68.2577 24.2824 66.1884 24.6424 63.7254C25.248 59.5734 28.4546 56.996 32.6403 57.1979C36.4155 57.3829 39.2755 60.4213 39.4505 64.5767C39.501 65.788 39.8543 65.8788 40.8435 65.4111C43.2762 64.2638 45.719 63.1366 48.2021 62.107C49.6961 61.4879 49.9585 60.6232 49.299 59.2133C47.9431 56.3231 46.651 53.4025 45.3489 50.4886C44.1039 47.7026 44.7836 46.7538 47.8118 47.0028C50.7963 47.2484 53.1718 45.7848 53.6866 43.3824C54.2418 40.7949 52.9935 38.4093 50.6247 37.5277C48.2627 36.6496 45.5104 37.7061 44.3159 39.984C43.8751 40.8218 43.6194 41.8716 42.4283 41.8581C41.1497 41.8447 40.8906 40.7074 40.4902 39.809C39.0568 36.5856 37.61 33.3656 36.2574 30.1086C35.7157 28.8064 35.0192 28.581 33.7911 29.1765C31.8261 30.1287 29.7534 30.869 27.8254 31.8851C23.7642 34.0284 18.993 34.8427 15.7293 38.5203C15.0496 39.2841 14.7299 39.8494 14.8982 40.8151C15.2986 43.13 15.6351 45.455 15.9143 47.2215H15.9076ZM56.7788 15.3879C56.8595 13.0831 56.6745 12.2554 55.877 11.2291C54.6388 9.63426 52.5493 8.93103 50.618 9.46266C48.6295 10.0111 47.1355 11.6565 46.8832 13.5777C46.5837 15.8489 47.5696 17.8273 49.5884 18.904C50.4262 19.3516 51.4794 19.6207 51.4255 20.8152C51.3683 22.0669 50.2512 22.3327 49.3293 22.7163C45.9141 24.1328 42.4956 25.5393 39.0737 26.939C38.2863 27.262 37.6605 27.5345 38.1719 28.6281C39.4505 31.367 40.6551 34.1462 41.8563 36.9187C42.2836 37.9046 42.6167 37.9012 43.3334 37.0903C45.4363 34.7148 48.1281 34.0655 51.1227 34.9033C54.6321 35.8858 56.6812 39.2538 56.2707 43.13C55.8939 46.7033 52.9699 49.5196 49.2822 49.6273C47.832 49.671 47.6873 50.0176 48.2728 51.2491C49.4269 53.6784 50.4834 56.1514 51.5231 58.6312C51.9 59.5296 52.3407 59.9267 53.2829 59.3849C53.6193 59.1898 54.0029 59.0754 54.3629 58.924C59.945 56.5922 65.5035 54.2033 71.1259 51.9725C72.7646 51.3231 73.2222 50.4247 72.852 48.7995C72.4954 47.2181 72.2699 45.6064 72.0041 44.0048C71.7148 42.2484 71.8325 40.5324 72.6905 38.9376C73.5755 37.2922 75.0189 36.5419 76.8493 36.6294C78.5956 36.7135 79.2988 37.9551 79.7632 39.4389C80.4327 41.5755 81.1292 43.7054 81.8426 45.8285C82.0041 46.3164 82.0142 47.0869 82.8284 46.8985C83.461 46.7538 83.858 46.2491 83.9758 45.5795C84.1171 44.7552 83.7604 44.0519 83.4576 43.3252C79.5882 34.0756 75.6919 24.836 71.8998 15.5562C71.2706 14.0151 70.6919 13.6416 69.1239 14.3785C66.1361 15.7816 63.0506 16.9862 59.9921 18.2345C57.6267 19.2001 56.7149 18.5642 56.7687 16.0575C56.7721 15.8321 56.7687 15.61 56.7687 15.3846L56.7788 15.3879ZM68.8076 55.455C64.3931 57.3022 60.2646 59.0283 56.1361 60.7577C55.7593 60.9159 55.4699 61.1312 55.4161 61.5922C55.1705 63.611 57.2196 65.9461 59.2754 65.9495C64.3763 65.9562 69.4772 65.9495 74.5781 65.9495C77.418 65.9495 78.1245 65.4414 78.922 62.6487C79.7363 59.7954 80.4866 56.922 81.2537 54.0552C81.4422 53.3486 81.5431 52.6454 81.3042 51.9085C80.0189 47.9685 78.7807 44.0116 77.4752 40.0782C77.031 38.7424 76.0149 38.5674 75.1098 39.6744C74.2989 40.667 74.06 41.8615 74.2753 43.1536C74.7094 45.7477 75.0761 48.3554 75.5304 50.9462C75.6784 51.7941 75.4866 52.319 74.6858 52.6959C73.0977 53.4429 72.0782 54.7618 71.2605 56.2759C70.9712 56.8109 70.8736 57.6824 69.9012 57.4502C68.9927 57.2349 68.4005 56.7571 68.8043 55.4583L68.8076 55.455ZM6.3047 37.3662C6.41573 37.7868 6.50994 38.2242 6.64453 38.6482C7.79863 42.2754 8.95273 45.9025 10.1203 49.5263C10.3524 50.2497 10.45 51.1616 11.5267 51.1246C12.5126 51.0909 13.0207 50.418 13.2831 49.5633C13.5321 48.7659 13.7273 47.9685 13.5624 47.0903C13.1687 45.0008 12.9029 42.8877 12.489 40.805C12.1559 39.1294 11.9776 37.6556 14.0301 36.8784C14.6526 36.6428 15.1505 35.9564 15.5879 35.3844C16.1162 34.6913 16.7488 34.2169 17.5428 33.8669C21.8463 31.9659 26.133 30.0312 30.4297 28.1166C32.2164 27.3192 32.2938 26.9457 31.1834 25.3172C30.6148 24.4861 29.8543 24.4222 28.9862 24.4255C23.6094 24.4491 18.2292 24.4491 12.8524 24.4659C10.3424 24.476 9.58529 25.0144 8.90226 27.4336C8.06781 30.3946 7.30738 33.3791 6.52004 36.3568C6.43592 36.6798 6.37872 37.0129 6.3047 37.3662ZM20.6821 17.003V17.0467C18.1081 17.0467 15.5341 17.0602 12.9635 17.0467C8.7643 17.0232 9.59539 16.9862 9.70306 20.435C9.7468 21.8414 10.2582 22.2553 11.6142 22.225C17.203 22.0938 22.7952 22.0366 28.3873 21.9693C31.7083 21.9289 31.6612 21.9458 31.5905 18.645C31.5636 17.4202 31.1464 16.9626 29.9115 16.9862C26.8362 17.0467 23.7575 17.0063 20.6821 17.0063V17.003ZM67.2733 73.2745C67.2733 73.1971 67.2733 73.1197 67.2733 73.039C70.4126 73.039 73.5519 73.0423 76.6912 73.0356C77.1824 73.0356 77.8722 73.1803 78.0673 72.6587C78.4913 71.5316 78.3601 70.3304 78.0303 69.1931C77.7309 68.1668 76.7854 68.4091 76.0384 68.4057C70.5438 68.3923 65.0526 68.4057 59.558 68.4057C55.9915 68.4057 55.9814 68.4428 56.2404 71.9488C56.3145 72.9481 56.6846 73.3081 57.694 73.2913C60.8871 73.2408 64.0802 73.2745 67.2733 73.2745Z" stroke="#FFCC00" stroke-width="1.83151" mask="url(#path-1-outside-1_917_442)"/>
<path d="M66.6273 9.19684C65.9813 9.27087 65.766 8.84355 65.5573 8.45661C65.0796 7.57169 64.6556 6.65985 64.1744 5.77829C63.7404 4.98758 64.0533 4.54681 64.77 4.18678C65.4598 3.84022 65.9275 3.97481 66.2673 4.6713C66.7316 5.62352 67.2296 6.56227 67.7007 7.51449C68.3198 8.75607 67.2868 8.88393 66.6273 9.19684Z" stroke="#FFCC00" stroke-width="1.83151" mask="url(#path-1-outside-1_917_442)"/>
<path d="M82.2463 5.60669C81.6777 6.61947 81.0384 7.91489 80.2443 9.10936C79.9011 9.62416 79.3291 9.18675 78.8951 8.96804C78.3735 8.7056 78.1414 8.31529 78.4375 7.74665C79.0027 6.66321 79.568 5.58314 80.1535 4.50979C80.463 3.94116 80.9307 3.96471 81.4287 4.25071C81.8493 4.49297 82.3876 4.64775 82.243 5.60669H82.2463Z" stroke="#FFCC00" stroke-width="1.83151" mask="url(#path-1-outside-1_917_442)"/>
<path d="M25.6989 82.975C25.8066 83.9406 25.2817 84.1055 24.8443 84.3276C24.417 84.5429 23.9627 84.664 23.6835 84.1425C23.0744 83.012 22.489 81.8713 21.9203 80.7206C21.6781 80.226 21.9271 79.8525 22.3678 79.617C22.7952 79.3882 23.3604 78.9137 23.7104 79.4454C24.5011 80.6499 25.137 81.9555 25.6989 82.975Z" stroke="#FFCC00" stroke-width="1.83151" mask="url(#path-1-outside-1_917_442)"/>
<path d="M15.4029 84.6304C15.4029 84.0719 15.3928 83.5133 15.4029 82.9548C15.4163 82.265 15.7999 81.9386 16.4729 81.9622C17.129 81.9824 17.7784 82.1405 17.7716 82.9413C17.7616 84.1661 17.6572 85.3908 17.5496 86.6089C17.489 87.2751 16.9608 87.3289 16.4291 87.3188C15.8605 87.3087 15.4332 87.1035 15.4063 86.4709C15.3793 85.8585 15.3995 85.2428 15.3995 84.6304H15.4029Z" stroke="#FFCC00" stroke-width="1.83151" mask="url(#path-1-outside-1_917_442)"/>
<path d="M8.73065 84.5496C8.10482 84.2266 7.02138 84.1459 7.63039 82.8875C8.09472 81.9353 8.59943 80.9999 9.0604 80.0477C9.44398 79.257 9.97223 79.2098 10.6956 79.5968C11.3821 79.9635 11.5402 80.4211 11.1768 81.0941C10.6788 82.0295 10.201 82.975 9.69296 83.9036C9.5079 84.2435 9.29593 84.5968 8.72729 84.5463L8.73065 84.5496Z" stroke="#FFCC00" stroke-width="1.83151" mask="url(#path-1-outside-1_917_442)"/>
<path d="M71.92 3.89742C71.92 3.33887 71.9133 2.77697 71.92 2.21842C71.9301 1.43781 72.381 1.12826 73.1111 1.14171C73.8312 1.15517 74.3191 1.48155 74.2989 2.24534C74.2652 3.41626 74.1777 4.59055 74.0869 5.7581C74.0364 6.40749 73.5687 6.55218 73.0135 6.54545C72.4584 6.53872 71.9873 6.37721 71.9436 5.73792C71.9032 5.12554 71.9335 4.50979 71.9335 3.89405H71.92V3.89742Z" stroke="#FFCC00" stroke-width="1.83151" mask="url(#path-1-outside-1_917_442)"/>
</svg>
