<svg width="85" height="85" viewBox="0 0 85 85" fill="none" xmlns="http://www.w3.org/2000/svg">
<path d="M18.5312 21.2969H20.375V23.1406H18.5312V21.2969Z" fill="#FFCC00"/>
<path d="M18.5312 21.2969H20.375V23.1406H18.5312V21.2969Z" stroke="#FFCC00"/>
<path d="M24.9844 21.2969H26.8281V23.1406H24.9844V21.2969Z" fill="#FFCC00"/>
<path d="M24.9844 21.2969H26.8281V23.1406H24.9844V21.2969Z" stroke="#FFCC00"/>
<path d="M56.3281 24.0625H58.1719V25.9062H56.3281V24.0625Z" fill="#FFCC00"/>
<path d="M56.3281 24.0625H58.1719V25.9062H56.3281V24.0625Z" stroke="#FFCC00"/>
<path d="M62.7812 24.0625H64.625V25.9062H62.7812V24.0625Z" fill="#FFCC00"/>
<path d="M62.7812 24.0625H64.625V25.9062H62.7812V24.0625Z" stroke="#FFCC00"/>
<path d="M27.75 57.25H32.3594V59.0938H27.75V57.25Z" fill="#FFCC00"/>
<path d="M27.75 57.25H32.3594V59.0938H27.75V57.25Z" stroke="#FFCC00"/>
<path d="M16.6875 57.25H22.2188V59.0938H16.6875V57.25Z" fill="#FFCC00"/>
<path d="M16.6875 57.25H22.2188V59.0938H16.6875V57.25Z" stroke="#FFCC00"/>
<path d="M24.0625 63.7031H25.9062V65.5469H24.0625V63.7031Z" fill="#FFCC00"/>
<path d="M24.0625 63.7031H25.9062V65.5469H24.0625V63.7031Z" stroke="#FFCC00"/>
<path d="M59.0938 60.0156H57.25V58.1719C57.25 57.6628 56.8372 57.25 56.3281 57.25C55.819 57.25 55.4062 57.6628 55.4062 58.1719V60.0156H53.5625V58.1719C53.5625 56.6446 54.8008 55.4062 56.3281 55.4062C57.8554 55.4062 59.0938 56.6446 59.0938 58.1719V60.0156Z" fill="#FFCC00"/>
<path d="M59.0938 60.0156H57.25V58.1719C57.25 57.6628 56.8372 57.25 56.3281 57.25C55.819 57.25 55.4062 57.6628 55.4062 58.1719V60.0156H53.5625V58.1719C53.5625 56.6446 54.8008 55.4062 56.3281 55.4062C57.8554 55.4062 59.0938 56.6446 59.0938 58.1719V60.0156Z" stroke="#FFCC00"/>
<path d="M67.3906 60.0156H65.5469V58.1719C65.5469 57.6628 65.1341 57.25 64.625 57.25C64.1159 57.25 63.7031 57.6628 63.7031 58.1719V60.0156H61.8594V58.1719C61.8594 56.6446 63.0977 55.4062 64.625 55.4062C66.1523 55.4062 67.3906 56.6446 67.3906 58.1719V60.0156Z" fill="#FFCC00"/>
<path d="M67.3906 60.0156H65.5469V58.1719C65.5469 57.6628 65.1341 57.25 64.625 57.25C64.1159 57.25 63.7031 57.6628 63.7031 58.1719V60.0156H61.8594V58.1719C61.8594 56.6446 63.0977 55.4062 64.625 55.4062C66.1523 55.4062 67.3906 56.6446 67.3906 58.1719V60.0156Z" stroke="#FFCC00"/>
<path d="M22.2188 24.9844C20.6914 24.9844 19.4531 26.2227 19.4531 27.75V30.5156C19.4531 32.0429 20.6914 33.2812 22.2188 33.2812C23.7461 33.2812 24.9844 32.0429 24.9844 30.5156V27.75C24.9844 26.2227 23.7461 24.9844 22.2188 24.9844ZM23.1406 30.5156C23.1406 31.0247 22.7279 31.4375 22.2188 31.4375C21.7096 31.4375 21.2969 31.0247 21.2969 30.5156V27.75C21.2969 27.2409 21.7096 26.8281 22.2188 26.8281C22.7279 26.8281 23.1406 27.2409 23.1406 27.75V30.5156Z" fill="#FFCC00"/>
<path d="M22.2188 24.9844C20.6914 24.9844 19.4531 26.2227 19.4531 27.75V30.5156C19.4531 32.0429 20.6914 33.2812 22.2188 33.2812C23.7461 33.2812 24.9844 32.0429 24.9844 30.5156V27.75C24.9844 26.2227 23.7461 24.9844 22.2188 24.9844ZM23.1406 30.5156C23.1406 31.0247 22.7279 31.4375 22.2188 31.4375C21.7096 31.4375 21.2969 31.0247 21.2969 30.5156V27.75C21.2969 27.2409 21.7096 26.8281 22.2188 26.8281C22.7279 26.8281 23.1406 27.2409 23.1406 27.75V30.5156Z" stroke="#FFCC00"/>
<path d="M53.0098 22.4029L56.6977 19.6377L57.8028 21.1123L54.1148 23.8771L53.0098 22.4029Z" fill="#FFCC00"/>
<path d="M53.0098 22.4029L56.6977 19.6377L57.8028 21.1123L54.1148 23.8771L53.0098 22.4029Z" stroke="#FFCC00"/>
<path d="M63.1504 21.1128L64.2564 19.6382L67.9439 22.4038L66.8379 23.8784L63.1504 21.1128Z" fill="#FFCC00"/>
<path d="M63.1504 21.1128L64.2564 19.6382L67.9439 22.4038L66.8379 23.8784L63.1504 21.1128Z" stroke="#FFCC00"/>
<path d="M57.25 32.3594H59.0938V31.8984C59.0938 31.1346 59.7127 30.5156 60.4766 30.5156C61.2404 30.5156 61.8594 31.1346 61.8594 31.8984V32.3594H63.7031V31.8984C63.7031 30.1164 62.2586 28.6719 60.4766 28.6719C58.6945 28.6719 57.25 30.1164 57.25 31.8984V32.3594Z" fill="#FFCC00"/>
<path d="M57.25 32.3594H59.0938V31.8984C59.0938 31.1346 59.7127 30.5156 60.4766 30.5156C61.2404 30.5156 61.8594 31.1346 61.8594 31.8984V32.3594H63.7031V31.8984C63.7031 30.1164 62.2586 28.6719 60.4766 28.6719C58.6945 28.6719 57.25 30.1164 57.25 31.8984V32.3594Z" stroke="#FFCC00"/>
<path d="M18.3066 53.5905L21.9937 52.6677L22.4411 54.4552L18.7541 55.378L18.3066 53.5905Z" fill="#FFCC00"/>
<path d="M18.3066 53.5905L21.9937 52.6677L22.4411 54.4552L18.7541 55.378L18.3066 53.5905Z" stroke="#FFCC00"/>
<path d="M60.0156 65.5469C58.4883 65.5469 57.25 64.3086 57.25 62.7812H55.4062C55.4062 65.3268 57.4701 67.3906 60.0156 67.3906C62.5611 67.3906 64.625 65.3268 64.625 62.7812H62.7812C62.7812 64.3086 61.5429 65.5469 60.0156 65.5469Z" fill="#FFCC00"/>
<path d="M60.0156 65.5469C58.4883 65.5469 57.25 64.3086 57.25 62.7812H55.4062C55.4062 65.3268 57.4701 67.3906 60.0156 67.3906C62.5611 67.3906 64.625 65.3268 64.625 62.7812H62.7812C62.7812 64.3086 61.5429 65.5469 60.0156 65.5469Z" stroke="#FFCC00"/>
<path d="M59.0938 46.1875C59.0019 46.1875 58.9054 46.1924 58.8094 46.1973C58.7601 46.1998 58.7109 46.2023 58.6625 46.2042C59.2378 43.768 59.2378 41.232 58.6625 38.7958C58.7109 38.7977 58.7601 38.8002 58.8094 38.8027C58.9054 38.8076 59.0019 38.8125 59.0938 38.8125C66.2216 38.8125 72 33.0341 72 25.9062C72 18.7784 66.2216 13 59.0938 13C51.9659 13 46.1875 18.7784 46.1875 25.9062C46.1875 25.9982 46.1924 26.0946 46.1973 26.1906C46.1998 26.2399 46.2023 26.2891 46.2042 26.3375C43.768 25.7622 41.232 25.7622 38.7958 26.3375C38.7977 26.2891 38.8002 26.2399 38.8027 26.1906C38.8076 26.0946 38.8125 25.9982 38.8125 25.9062C38.8125 18.7784 33.0341 13 25.9062 13C18.7784 13 13 18.7784 13 25.9062C13 33.0341 18.7784 38.8125 25.9062 38.8125C25.9988 38.8125 26.095 38.8076 26.1908 38.8027C26.24 38.8002 26.2891 38.7977 26.3375 38.7958C25.7622 41.232 25.7622 43.768 26.3375 46.2042C26.2891 46.2023 26.24 46.1998 26.1908 46.1973C26.095 46.1924 25.9988 46.1875 25.9062 46.1875C18.7784 46.1875 13 51.9659 13 59.0938C13 66.2216 18.7784 72 25.9062 72C33.0341 72 38.8125 66.2216 38.8125 59.0938C38.8125 59.0019 38.8076 58.9054 38.8027 58.8094C38.8002 58.7601 38.7977 58.7109 38.7958 58.6625C41.232 59.2378 43.768 59.2378 46.2042 58.6625C46.2023 58.7109 46.1998 58.7601 46.1973 58.8094C46.1924 58.9054 46.1875 59.0019 46.1875 59.0938C46.1875 66.2216 51.9659 72 59.0938 72C66.2216 72 72 66.2216 72 59.0938C72 51.9659 66.2216 46.1875 59.0938 46.1875ZM59.0938 14.8438C65.2034 14.8438 70.1562 19.7966 70.1562 25.9062C70.1562 32.0159 65.2034 36.9688 59.0938 36.9688C58.7868 36.9688 58.455 36.9449 58.1035 36.9098C56.4227 32.2482 52.7518 28.5773 48.0902 26.8965C48.0551 26.545 48.0312 26.2132 48.0312 25.9062C48.038 19.7993 52.9868 14.8505 59.0938 14.8438ZM25.9062 36.9688C19.7966 36.9688 14.8438 32.0159 14.8438 25.9062C14.8438 19.7966 19.7966 14.8438 25.9062 14.8438C32.0159 14.8438 36.9688 19.7966 36.9688 25.9062C36.9688 26.2132 36.9449 26.545 36.9098 26.8965C32.2482 28.5773 28.5773 32.2482 26.8965 36.9098C26.545 36.9449 26.2132 36.9688 25.9062 36.9688ZM33.2812 67.3159V60.9375H31.4375V68.66C30.8505 68.9999 30.2334 69.2848 29.5938 69.5108V60.9375H27.75V69.9893C25.8963 70.3214 23.9878 70.1562 22.2188 69.5108V60.9375H20.375V68.6591C19.716 68.276 19.098 67.8259 18.5312 67.3159V60.9375H16.6875V65.1958C14.4346 61.8013 14.2316 57.4431 16.159 53.8542C18.087 50.2653 21.8325 48.0276 25.9062 48.0312C26.2132 48.0312 26.545 48.0551 26.8965 48.0902C28.5773 52.7518 32.2482 56.4227 36.9098 58.1035C36.9449 58.455 36.9688 58.7868 36.9688 59.0938C36.9665 62.2348 35.6255 65.2255 33.2812 67.3159ZM42.5 57.25C34.3539 57.25 27.75 50.6461 27.75 42.5C27.75 34.3539 34.3539 27.75 42.5 27.75C50.6461 27.75 57.25 34.3539 57.25 42.5C57.2405 50.642 50.642 57.2405 42.5 57.25ZM59.0938 70.1562C52.9868 70.1495 48.038 65.2007 48.0312 59.0938C48.0312 58.7868 48.0551 58.455 48.0902 58.1035C52.7518 56.4227 56.4227 52.7518 58.1035 48.0902C58.455 48.0551 58.7868 48.0312 59.0938 48.0312C65.2034 48.0312 70.1562 52.9841 70.1562 59.0938C70.1562 65.2034 65.2034 70.1562 59.0938 70.1562Z" fill="#FFCC00"/>
<path d="M59.0938 46.1875C59.0019 46.1875 58.9054 46.1924 58.8094 46.1973C58.7601 46.1998 58.7109 46.2023 58.6625 46.2042C59.2378 43.768 59.2378 41.232 58.6625 38.7958C58.7109 38.7977 58.7601 38.8002 58.8094 38.8027C58.9054 38.8076 59.0019 38.8125 59.0938 38.8125C66.2216 38.8125 72 33.0341 72 25.9062C72 18.7784 66.2216 13 59.0938 13C51.9659 13 46.1875 18.7784 46.1875 25.9062C46.1875 25.9982 46.1924 26.0946 46.1973 26.1906C46.1998 26.2399 46.2023 26.2891 46.2042 26.3375C43.768 25.7622 41.232 25.7622 38.7958 26.3375C38.7977 26.2891 38.8002 26.2399 38.8027 26.1906C38.8076 26.0946 38.8125 25.9982 38.8125 25.9062C38.8125 18.7784 33.0341 13 25.9062 13C18.7784 13 13 18.7784 13 25.9062C13 33.0341 18.7784 38.8125 25.9062 38.8125C25.9988 38.8125 26.095 38.8076 26.1908 38.8027C26.24 38.8002 26.2891 38.7977 26.3375 38.7958C25.7622 41.232 25.7622 43.768 26.3375 46.2042C26.2891 46.2023 26.24 46.1998 26.1908 46.1973C26.095 46.1924 25.9988 46.1875 25.9062 46.1875C18.7784 46.1875 13 51.9659 13 59.0938C13 66.2216 18.7784 72 25.9062 72C33.0341 72 38.8125 66.2216 38.8125 59.0938C38.8125 59.0019 38.8076 58.9054 38.8027 58.8094C38.8002 58.7601 38.7977 58.7109 38.7958 58.6625C41.232 59.2378 43.768 59.2378 46.2042 58.6625C46.2023 58.7109 46.1998 58.7601 46.1973 58.8094C46.1924 58.9054 46.1875 59.0019 46.1875 59.0938C46.1875 66.2216 51.9659 72 59.0938 72C66.2216 72 72 66.2216 72 59.0938C72 51.9659 66.2216 46.1875 59.0938 46.1875ZM59.0938 14.8438C65.2034 14.8438 70.1562 19.7966 70.1562 25.9062C70.1562 32.0159 65.2034 36.9688 59.0938 36.9688C58.7868 36.9688 58.455 36.9449 58.1035 36.9098C56.4227 32.2482 52.7518 28.5773 48.0902 26.8965C48.0551 26.545 48.0312 26.2132 48.0312 25.9062C48.038 19.7993 52.9868 14.8505 59.0938 14.8438ZM25.9062 36.9688C19.7966 36.9688 14.8438 32.0159 14.8438 25.9062C14.8438 19.7966 19.7966 14.8438 25.9062 14.8438C32.0159 14.8438 36.9688 19.7966 36.9688 25.9062C36.9688 26.2132 36.9449 26.545 36.9098 26.8965C32.2482 28.5773 28.5773 32.2482 26.8965 36.9098C26.545 36.9449 26.2132 36.9688 25.9062 36.9688ZM33.2812 67.3159V60.9375H31.4375V68.66C30.8505 68.9999 30.2334 69.2848 29.5938 69.5108V60.9375H27.75V69.9893C25.8963 70.3214 23.9878 70.1562 22.2188 69.5108V60.9375H20.375V68.6591C19.716 68.276 19.098 67.8259 18.5312 67.3159V60.9375H16.6875V65.1958C14.4346 61.8013 14.2316 57.4431 16.159 53.8542C18.087 50.2653 21.8325 48.0276 25.9062 48.0312C26.2132 48.0312 26.545 48.0551 26.8965 48.0902C28.5773 52.7518 32.2482 56.4227 36.9098 58.1035C36.9449 58.455 36.9688 58.7868 36.9688 59.0938C36.9665 62.2348 35.6255 65.2255 33.2812 67.3159ZM42.5 57.25C34.3539 57.25 27.75 50.6461 27.75 42.5C27.75 34.3539 34.3539 27.75 42.5 27.75C50.6461 27.75 57.25 34.3539 57.25 42.5C57.2405 50.642 50.642 57.2405 42.5 57.25ZM59.0938 70.1562C52.9868 70.1495 48.038 65.2007 48.0312 59.0938C48.0312 58.7868 48.0551 58.455 48.0902 58.1035C52.7518 56.4227 56.4227 52.7518 58.1035 48.0902C58.455 48.0551 58.7868 48.0312 59.0938 48.0312C65.2034 48.0312 70.1562 52.9841 70.1562 59.0938C70.1562 65.2034 65.2034 70.1562 59.0938 70.1562Z" stroke="#FFCC00"/>
<path d="M36.0469 48.9531C36.0469 52.5173 38.9358 55.4062 42.5 55.4062C46.0642 55.4062 48.9531 52.5173 48.9531 48.9531V46.1875H36.0469V48.9531ZM42.5 53.5625C41.2815 53.563 40.1125 53.0791 39.2505 52.2175C41.3652 51.549 43.6348 51.549 45.7495 52.2175C44.8875 53.0791 43.7185 53.563 42.5 53.5625ZM37.8906 48.0312H47.1094V48.9531C47.1071 49.5275 46.9964 50.096 46.783 50.629C44.012 49.6463 40.988 49.6463 38.217 50.629C38.0036 50.096 37.8929 49.5275 37.8906 48.9531V48.0312Z" fill="#FFCC00"/>
<path d="M36.0469 48.9531C36.0469 52.5173 38.9358 55.4062 42.5 55.4062C46.0642 55.4062 48.9531 52.5173 48.9531 48.9531V46.1875H36.0469V48.9531ZM42.5 53.5625C41.2815 53.563 40.1125 53.0791 39.2505 52.2175C41.3652 51.549 43.6348 51.549 45.7495 52.2175C44.8875 53.0791 43.7185 53.563 42.5 53.5625ZM37.8906 48.0312H47.1094V48.9531C47.1071 49.5275 46.9964 50.096 46.783 50.629C44.012 49.6463 40.988 49.6463 38.217 50.629C38.0036 50.096 37.8929 49.5275 37.8906 48.9531V48.0312Z" stroke="#FFCC00"/>
<path d="M35.7012 34.4053L34.5488 35.8448L38.2584 38.8125L34.5488 41.7803L35.7012 43.2198L41.2104 38.8125L35.7012 34.4053Z" fill="#FFCC00"/>
<path d="M35.7012 34.4053L34.5488 35.8448L38.2584 38.8125L34.5488 41.7803L35.7012 43.2198L41.2104 38.8125L35.7012 34.4053Z" stroke="#FFCC00"/>
<path d="M49.2983 34.4053L43.7891 38.8125L49.2983 43.2198L50.4506 41.7803L46.741 38.8125L50.4506 35.8448L49.2983 34.4053Z" fill="#FFCC00"/>
<path d="M49.2983 34.4053L43.7891 38.8125L49.2983 43.2198L50.4506 41.7803L46.741 38.8125L50.4506 35.8448L49.2983 34.4053Z" stroke="#FFCC00"/>
<path d="M41.5781 13H43.4219V20.375H41.5781V13Z" fill="#FFCC00"/>
<path d="M41.5781 13H43.4219V20.375H41.5781V13Z" stroke="#FFCC00"/>
<path d="M45.2656 13H47.1094V16.6875H45.2656V13Z" fill="#FFCC00"/>
<path d="M45.2656 13H47.1094V16.6875H45.2656V13Z" stroke="#FFCC00"/>
<path d="M37.8906 13H39.7344V16.6875H37.8906V13Z" fill="#FFCC00"/>
<path d="M37.8906 13H39.7344V16.6875H37.8906V13Z" stroke="#FFCC00"/>
<path d="M41.5781 64.625H43.4219V72H41.5781V64.625Z" fill="#FFCC00"/>
<path d="M41.5781 64.625H43.4219V72H41.5781V64.625Z" stroke="#FFCC00"/>
<path d="M45.2656 68.3125H47.1094V72H45.2656V68.3125Z" fill="#FFCC00"/>
<path d="M45.2656 68.3125H47.1094V72H45.2656V68.3125Z" stroke="#FFCC00"/>
<path d="M37.8906 68.3125H39.7344V72H37.8906V68.3125Z" fill="#FFCC00"/>
<path d="M37.8906 68.3125H39.7344V72H37.8906V68.3125Z" stroke="#FFCC00"/>
<circle cx="42.5" cy="42.5" r="41" stroke="#FFCC00" stroke-width="3"/>
</svg>
