<svg width="85" height="85" viewBox="0 0 85 85" fill="none" xmlns="http://www.w3.org/2000/svg">
<path d="M33.2089 66.0298L34.0625 66.8834V65.6763V57.9375V57.4375H33.5625H25.8237H24.6166L25.4702 58.2911L33.2089 66.0298ZM60.5625 68.5625H61.0625V68.0625V21.9375V21.4375H60.5625H23.4375H22.9375V21.9375V54.5625V55.0625H23.4375H35.25C35.9055 55.0625 36.4375 55.5945 36.4375 56.25V68.0625V68.5625H36.9375H60.5625ZM21.75 19.0625H62.25C62.9055 19.0625 63.4375 19.5945 63.4375 20.25V69.75C63.4375 70.4055 62.9055 70.9375 62.25 70.9375H35.25C34.9339 70.9375 34.6306 70.8119 34.4082 70.5896L20.9082 57.0896C20.6866 56.8679 20.5625 56.567 20.5625 56.25V20.25C20.5625 19.5945 21.0945 19.0625 21.75 19.0625Z" fill="#FFCC00" stroke="#FFCC00"/>
<path d="M44.25 30.4375H30.75C30.0945 30.4375 29.5625 29.9055 29.5625 29.25C29.5625 28.5945 30.0945 28.0625 30.75 28.0625H44.25C44.9055 28.0625 45.4375 28.5945 45.4375 29.25C45.4375 29.9055 44.9055 30.4375 44.25 30.4375Z" fill="#FFCC00" stroke="#FFCC00"/>
<path d="M44.25 39.4375H30.75C30.0945 39.4375 29.5625 38.9055 29.5625 38.25C29.5625 37.5945 30.0945 37.0625 30.75 37.0625H44.25C44.9055 37.0625 45.4375 37.5945 45.4375 38.25C45.4375 38.9055 44.9055 39.4375 44.25 39.4375Z" fill="#FFCC00" stroke="#FFCC00"/>
<path d="M44.25 48.4375H30.75C30.0945 48.4375 29.5625 47.9055 29.5625 47.25C29.5625 46.5945 30.0945 46.0625 30.75 46.0625H44.25C44.9055 46.0625 45.4375 46.5945 45.4375 47.25C45.4375 47.9055 44.9055 48.4375 44.25 48.4375Z" fill="#FFCC00" stroke="#FFCC00"/>
<path d="M44.25 59.5625H53.25C53.9055 59.5625 54.4375 60.0945 54.4375 60.75C54.4375 61.4055 53.9055 61.9375 53.25 61.9375H44.25C43.5945 61.9375 43.0625 61.4055 43.0625 60.75C43.0625 60.0945 43.5945 59.5625 44.25 59.5625Z" fill="#FFCC00" stroke="#FFCC00"/>
<path d="M54.4375 29.25C54.4375 29.9058 53.9058 30.4375 53.25 30.4375C52.5942 30.4375 52.0625 29.9058 52.0625 29.25C52.0625 28.5942 52.5942 28.0625 53.25 28.0625C53.9058 28.0625 54.4375 28.5942 54.4375 29.25Z" fill="#FFCC00" stroke="#FFCC00"/>
<path d="M54.4375 38.25C54.4375 38.9058 53.9058 39.4375 53.25 39.4375C52.5942 39.4375 52.0625 38.9058 52.0625 38.25C52.0625 37.5942 52.5942 37.0625 53.25 37.0625C53.9058 37.0625 54.4375 37.5942 54.4375 38.25Z" fill="#FFCC00" stroke="#FFCC00"/>
<path d="M54.4375 47.25C54.4375 47.9058 53.9058 48.4375 53.25 48.4375C52.5942 48.4375 52.0625 47.9058 52.0625 47.25C52.0625 46.5942 52.5942 46.0625 53.25 46.0625C53.9058 46.0625 54.4375 46.5942 54.4375 47.25Z" fill="#FFCC00" stroke="#FFCC00"/>
<circle cx="42.5" cy="42.5" r="41" stroke="#FFCC00" stroke-width="3"/>
</svg>
