<svg width="85" height="85" viewBox="0 0 85 85" fill="none" xmlns="http://www.w3.org/2000/svg">
<circle cx="42.5" cy="42.5" r="41" stroke="#FFCC00" stroke-width="3"/>
<mask id="path-2-inside-1_286_475" fill="white">
<path d="M65.2795 17H19.7205C19.3632 16.9999 19.0094 17.0702 18.6793 17.2069C18.3492 17.3436 18.0492 17.5439 17.7966 17.7966C17.544 18.0492 17.3436 18.3492 17.2069 18.6793C17.0702 19.0094 16.9999 19.3632 17 19.7205V39.244C16.9998 39.6014 17.07 39.9553 17.2066 40.2856C17.3433 40.6158 17.5436 40.9159 17.7963 41.1687C18.0489 41.4215 18.3489 41.622 18.6791 41.7589C19.0092 41.8957 19.3631 41.9661 19.7205 41.9661H33.1559C33.2265 41.9668 33.2961 41.9827 33.3599 42.0128C33.4238 42.0429 33.4804 42.0865 33.5258 42.1406C33.5712 42.1946 33.6044 42.2579 33.6231 42.326C33.6418 42.3941 33.6455 42.4654 33.634 42.5351C32.6275 48.3586 30.1373 51.8202 26.3362 52.606C26.2585 52.6221 26.1782 52.6207 26.1011 52.6018C26.024 52.5829 25.9522 52.547 25.8907 52.4968C25.6517 52.3032 25.7059 51.9462 25.6939 51.8593C25.6954 51.2489 25.4553 50.6626 25.0261 50.2286C24.5968 49.7946 24.0133 49.548 23.4029 49.5428H19.291C18.6806 49.548 18.0971 49.7946 17.6678 50.2286C17.2386 50.6626 16.9985 51.2489 17 51.8593V65.6891C16.9985 66.299 17.2388 66.8846 17.6682 67.3177C18.0976 67.7509 18.6811 67.9962 19.291 68H23.4037C24.0136 67.9962 24.5971 67.7509 25.0265 67.3177C25.4559 66.8846 25.6962 66.299 25.6947 65.6891V55.4094C25.6956 55.2791 25.7438 55.1535 25.8302 55.0561C25.9167 54.9586 26.0356 54.8959 26.1649 54.8795C30.2704 54.2969 35.3401 51.1549 36.2055 39.4998C36.3115 36.3457 35.9067 35.8437 37.4733 35.509C39.0934 35.1632 39.9181 36.8573 39.9604 38.4965C39.9899 39.5484 40.762 48.7156 40.7947 49.1069C40.8191 49.3792 40.9442 49.6326 41.1455 49.8175C41.3468 50.0025 41.6099 50.1057 41.8832 50.107H50.1269C50.4982 50.107 50.5731 50.3181 51.1023 51.2696C51.4768 51.9406 50.4791 52.6984 50.1883 53.2618C49.5261 54.5527 50.9748 55.1655 50.8082 55.8118C50.5692 56.7378 49.0878 57.0549 48.7037 58.2128C48.6216 58.515 48.6093 58.832 48.6677 59.1397C48.7261 59.4474 48.8537 59.7378 49.0408 59.989C49.0843 60.0866 49.1077 60.1921 49.1093 60.299C49.111 60.4058 49.0909 60.512 49.0504 60.6109C49.0099 60.7098 48.9497 60.7995 48.8736 60.8745C48.7974 60.9495 48.7068 61.0083 48.6073 61.0473C47.2183 61.562 46.9832 62.7088 47.5928 63.8921C47.7171 64.1262 47.7641 64.3936 47.7274 64.656C47.6906 64.9185 47.5718 65.1626 47.388 65.3536C46.7566 65.6516 46.0678 65.8088 45.3696 65.8142H29.7141C29.4294 65.8219 29.1589 65.9404 28.9602 66.1445C28.7615 66.3486 28.6503 66.6222 28.6503 66.9071C28.6503 67.1919 28.7615 67.4655 28.9602 67.6697C29.1589 67.8738 29.4294 67.9923 29.7141 68H45.3743C46.3306 68 48.3881 67.6948 49.3053 66.5656C49.7838 65.7561 49.9913 64.815 49.8974 63.8794C49.8472 63.4809 49.5563 63.0769 49.9938 62.7908C50.559 62.4052 50.9748 61.8374 51.1718 61.1821C51.3687 60.5269 51.3349 59.8239 51.076 59.1905C50.6999 58.3769 53.6443 57.5004 52.9024 54.9862C52.7072 54.3264 52.3032 54.0826 52.6243 53.673C53.1993 52.9116 53.4541 51.9556 53.3343 51.009C53.3088 50.7429 53.2985 50.6329 51.9988 48.4511C51.9017 48.2875 51.7639 48.152 51.5988 48.0576C51.4337 47.9632 51.247 47.9131 51.0569 47.9124H43.3766C43.2427 47.9126 43.1137 47.8626 43.015 47.7721C42.9164 47.6816 42.8555 47.5573 42.8443 47.4239C42.7646 46.4676 42.5932 44.3958 42.4402 42.4833C42.4346 42.4171 42.4428 42.3506 42.4643 42.2878C42.4858 42.225 42.5201 42.1674 42.5651 42.1186C42.61 42.0698 42.6647 42.0309 42.7255 42.0044C42.7863 41.9778 42.852 41.9643 42.9184 41.9645H50.04C50.1651 41.9646 50.2863 42.0082 50.3827 42.088L59.6966 49.848C59.8563 49.9807 60.0505 50.0653 60.2566 50.0918C60.4626 50.1182 60.6718 50.0856 60.86 49.9976C61.0481 49.9096 61.2074 49.77 61.3191 49.5949C61.4309 49.4198 61.4905 49.2166 61.4911 49.0089V42.5C61.4911 42.4298 61.505 42.3603 61.5318 42.2955C61.5587 42.2307 61.5981 42.1718 61.6478 42.1222C61.6975 42.0726 61.7564 42.0333 61.8213 42.0065C61.8861 41.9797 61.9557 41.966 62.0258 41.9661H65.2795C66.001 41.9661 66.693 41.6795 67.2032 41.1693C67.7134 40.6591 68 39.9671 68 39.2456V19.7205C68.0001 19.3632 67.9298 19.0094 67.7931 18.6793C67.6564 18.3492 67.4561 18.0492 67.2034 17.7966C66.9508 17.5439 66.6508 17.3436 66.3207 17.2069C65.9906 17.0702 65.6368 16.9999 65.2795 17ZM23.5089 65.2795C23.509 65.3497 23.4952 65.4193 23.4684 65.4842C23.4416 65.5491 23.4022 65.6081 23.3525 65.6578C23.3028 65.7075 23.2438 65.7468 23.1789 65.7737C23.114 65.8005 23.0444 65.8143 22.9742 65.8142H19.7205C19.6503 65.8143 19.5807 65.8005 19.5158 65.7737C19.4509 65.7468 19.3919 65.7075 19.3422 65.6578C19.2925 65.6081 19.2532 65.5491 19.2263 65.4842C19.1995 65.4193 19.1857 65.3497 19.1858 65.2795V52.2625C19.186 52.1208 19.2425 51.985 19.3427 51.8849C19.443 51.7848 19.5789 51.7286 19.7205 51.7286H22.9766C23.1182 51.7286 23.2541 51.7848 23.3544 51.8849C23.4546 51.985 23.5111 52.1208 23.5113 52.2625L23.5089 65.2795ZM65.8142 39.2456C65.814 39.3872 65.7575 39.523 65.6573 39.6231C65.557 39.7232 65.4211 39.7795 65.2795 39.7795H60.3986C60.1087 39.7795 59.8306 39.8947 59.6255 40.0997C59.4205 40.3047 59.3053 40.5828 59.3053 40.8728V45.5353C59.305 45.6367 59.2759 45.736 59.2213 45.8215C59.1667 45.907 59.0889 45.9752 58.997 46.0182C58.9051 46.0611 58.8028 46.077 58.7022 46.0641C58.6016 46.0511 58.5067 46.0098 58.4287 45.9449C50.9859 39.8576 51.3453 39.7795 50.6345 39.7795H42.6849C41.7286 39.7795 42.5853 38.165 41.6226 35.9545C40.6927 33.8236 38.9388 32.9638 37.051 33.3559C34.4476 33.8738 33.8539 35.2986 34.0356 37.8184C34.089 38.522 34.242 39.7747 33.5407 39.7747H19.7205C19.6504 39.7748 19.5808 39.7611 19.516 39.7343C19.4511 39.7075 19.3922 39.6682 19.3425 39.6186C19.2928 39.569 19.2534 39.5101 19.2266 39.4453C19.1997 39.3805 19.1858 39.311 19.1858 39.2408V19.7205C19.1857 19.6503 19.1995 19.5807 19.2263 19.5158C19.2532 19.4509 19.2925 19.3919 19.3422 19.3422C19.3919 19.2925 19.4509 19.2532 19.5158 19.2263C19.5807 19.1995 19.6503 19.1857 19.7205 19.1858H65.2795C65.4213 19.1858 65.5573 19.2422 65.6576 19.3424C65.7578 19.4427 65.8142 19.5787 65.8142 19.7205V39.2456Z"/>
</mask>
<path d="M65.2795 17H19.7205C19.3632 16.9999 19.0094 17.0702 18.6793 17.2069C18.3492 17.3436 18.0492 17.5439 17.7966 17.7966C17.544 18.0492 17.3436 18.3492 17.2069 18.6793C17.0702 19.0094 16.9999 19.3632 17 19.7205V39.244C16.9998 39.6014 17.07 39.9553 17.2066 40.2856C17.3433 40.6158 17.5436 40.9159 17.7963 41.1687C18.0489 41.4215 18.3489 41.622 18.6791 41.7589C19.0092 41.8957 19.3631 41.9661 19.7205 41.9661H33.1559C33.2265 41.9668 33.2961 41.9827 33.3599 42.0128C33.4238 42.0429 33.4804 42.0865 33.5258 42.1406C33.5712 42.1946 33.6044 42.2579 33.6231 42.326C33.6418 42.3941 33.6455 42.4654 33.634 42.5351C32.6275 48.3586 30.1373 51.8202 26.3362 52.606C26.2585 52.6221 26.1782 52.6207 26.1011 52.6018C26.024 52.5829 25.9522 52.547 25.8907 52.4968C25.6517 52.3032 25.7059 51.9462 25.6939 51.8593C25.6954 51.2489 25.4553 50.6626 25.0261 50.2286C24.5968 49.7946 24.0133 49.548 23.4029 49.5428H19.291C18.6806 49.548 18.0971 49.7946 17.6678 50.2286C17.2386 50.6626 16.9985 51.2489 17 51.8593V65.6891C16.9985 66.299 17.2388 66.8846 17.6682 67.3177C18.0976 67.7509 18.6811 67.9962 19.291 68H23.4037C24.0136 67.9962 24.5971 67.7509 25.0265 67.3177C25.4559 66.8846 25.6962 66.299 25.6947 65.6891V55.4094C25.6956 55.2791 25.7438 55.1535 25.8302 55.0561C25.9167 54.9586 26.0356 54.8959 26.1649 54.8795C30.2704 54.2969 35.3401 51.1549 36.2055 39.4998C36.3115 36.3457 35.9067 35.8437 37.4733 35.509C39.0934 35.1632 39.9181 36.8573 39.9604 38.4965C39.9899 39.5484 40.762 48.7156 40.7947 49.1069C40.8191 49.3792 40.9442 49.6326 41.1455 49.8175C41.3468 50.0025 41.6099 50.1057 41.8832 50.107H50.1269C50.4982 50.107 50.5731 50.3181 51.1023 51.2696C51.4768 51.9406 50.4791 52.6984 50.1883 53.2618C49.5261 54.5527 50.9748 55.1655 50.8082 55.8118C50.5692 56.7378 49.0878 57.0549 48.7037 58.2128C48.6216 58.515 48.6093 58.832 48.6677 59.1397C48.7261 59.4474 48.8537 59.7378 49.0408 59.989C49.0843 60.0866 49.1077 60.1921 49.1093 60.299C49.111 60.4058 49.0909 60.512 49.0504 60.6109C49.0099 60.7098 48.9497 60.7995 48.8736 60.8745C48.7974 60.9495 48.7068 61.0083 48.6073 61.0473C47.2183 61.562 46.9832 62.7088 47.5928 63.8921C47.7171 64.1262 47.7641 64.3936 47.7274 64.656C47.6906 64.9185 47.5718 65.1626 47.388 65.3536C46.7566 65.6516 46.0678 65.8088 45.3696 65.8142H29.7141C29.4294 65.8219 29.1589 65.9404 28.9602 66.1445C28.7615 66.3486 28.6503 66.6222 28.6503 66.9071C28.6503 67.1919 28.7615 67.4655 28.9602 67.6697C29.1589 67.8738 29.4294 67.9923 29.7141 68H45.3743C46.3306 68 48.3881 67.6948 49.3053 66.5656C49.7838 65.7561 49.9913 64.815 49.8974 63.8794C49.8472 63.4809 49.5563 63.0769 49.9938 62.7908C50.559 62.4052 50.9748 61.8374 51.1718 61.1821C51.3687 60.5269 51.3349 59.8239 51.076 59.1905C50.6999 58.3769 53.6443 57.5004 52.9024 54.9862C52.7072 54.3264 52.3032 54.0826 52.6243 53.673C53.1993 52.9116 53.4541 51.9556 53.3343 51.009C53.3088 50.7429 53.2985 50.6329 51.9988 48.4511C51.9017 48.2875 51.7639 48.152 51.5988 48.0576C51.4337 47.9632 51.247 47.9131 51.0569 47.9124H43.3766C43.2427 47.9126 43.1137 47.8626 43.015 47.7721C42.9164 47.6816 42.8555 47.5573 42.8443 47.4239C42.7646 46.4676 42.5932 44.3958 42.4402 42.4833C42.4346 42.4171 42.4428 42.3506 42.4643 42.2878C42.4858 42.225 42.5201 42.1674 42.5651 42.1186C42.61 42.0698 42.6647 42.0309 42.7255 42.0044C42.7863 41.9778 42.852 41.9643 42.9184 41.9645H50.04C50.1651 41.9646 50.2863 42.0082 50.3827 42.088L59.6966 49.848C59.8563 49.9807 60.0505 50.0653 60.2566 50.0918C60.4626 50.1182 60.6718 50.0856 60.86 49.9976C61.0481 49.9096 61.2074 49.77 61.3191 49.5949C61.4309 49.4198 61.4905 49.2166 61.4911 49.0089V42.5C61.4911 42.4298 61.505 42.3603 61.5318 42.2955C61.5587 42.2307 61.5981 42.1718 61.6478 42.1222C61.6975 42.0726 61.7564 42.0333 61.8213 42.0065C61.8861 41.9797 61.9557 41.966 62.0258 41.9661H65.2795C66.001 41.9661 66.693 41.6795 67.2032 41.1693C67.7134 40.6591 68 39.9671 68 39.2456V19.7205C68.0001 19.3632 67.9298 19.0094 67.7931 18.6793C67.6564 18.3492 67.4561 18.0492 67.2034 17.7966C66.9508 17.5439 66.6508 17.3436 66.3207 17.2069C65.9906 17.0702 65.6368 16.9999 65.2795 17ZM23.5089 65.2795C23.509 65.3497 23.4952 65.4193 23.4684 65.4842C23.4416 65.5491 23.4022 65.6081 23.3525 65.6578C23.3028 65.7075 23.2438 65.7468 23.1789 65.7737C23.114 65.8005 23.0444 65.8143 22.9742 65.8142H19.7205C19.6503 65.8143 19.5807 65.8005 19.5158 65.7737C19.4509 65.7468 19.3919 65.7075 19.3422 65.6578C19.2925 65.6081 19.2532 65.5491 19.2263 65.4842C19.1995 65.4193 19.1857 65.3497 19.1858 65.2795V52.2625C19.186 52.1208 19.2425 51.985 19.3427 51.8849C19.443 51.7848 19.5789 51.7286 19.7205 51.7286H22.9766C23.1182 51.7286 23.2541 51.7848 23.3544 51.8849C23.4546 51.985 23.5111 52.1208 23.5113 52.2625L23.5089 65.2795ZM65.8142 39.2456C65.814 39.3872 65.7575 39.523 65.6573 39.6231C65.557 39.7232 65.4211 39.7795 65.2795 39.7795H60.3986C60.1087 39.7795 59.8306 39.8947 59.6255 40.0997C59.4205 40.3047 59.3053 40.5828 59.3053 40.8728V45.5353C59.305 45.6367 59.2759 45.736 59.2213 45.8215C59.1667 45.907 59.0889 45.9752 58.997 46.0182C58.9051 46.0611 58.8028 46.077 58.7022 46.0641C58.6016 46.0511 58.5067 46.0098 58.4287 45.9449C50.9859 39.8576 51.3453 39.7795 50.6345 39.7795H42.6849C41.7286 39.7795 42.5853 38.165 41.6226 35.9545C40.6927 33.8236 38.9388 32.9638 37.051 33.3559C34.4476 33.8738 33.8539 35.2986 34.0356 37.8184C34.089 38.522 34.242 39.7747 33.5407 39.7747H19.7205C19.6504 39.7748 19.5808 39.7611 19.516 39.7343C19.4511 39.7075 19.3922 39.6682 19.3425 39.6186C19.2928 39.569 19.2534 39.5101 19.2266 39.4453C19.1997 39.3805 19.1858 39.311 19.1858 39.2408V19.7205C19.1857 19.6503 19.1995 19.5807 19.2263 19.5158C19.2532 19.4509 19.2925 19.3919 19.3422 19.3422C19.3919 19.2925 19.4509 19.2532 19.5158 19.2263C19.5807 19.1995 19.6503 19.1857 19.7205 19.1858H65.2795C65.4213 19.1858 65.5573 19.2422 65.6576 19.3424C65.7578 19.4427 65.8142 19.5787 65.8142 19.7205V39.2456Z" fill="#FFCC00" stroke="#FFCC00" stroke-width="16" mask="url(#path-2-inside-1_286_475)"/>
<mask id="path-3-inside-2_286_475" fill="white">
<path d="M58.7709 25.1353H26.2281C25.9381 25.1353 25.66 25.2504 25.455 25.4555C25.25 25.6605 25.1348 25.9386 25.1348 26.2286C25.1348 26.5185 25.25 26.7966 25.455 27.0017C25.66 27.2067 25.9381 27.3219 26.2281 27.3219H58.7709C59.0608 27.3219 59.3389 27.2067 59.5439 27.0017C59.749 26.7966 59.8642 26.5185 59.8642 26.2286C59.8642 25.9386 59.749 25.6605 59.5439 25.4555C59.3389 25.2504 59.0608 25.1353 58.7709 25.1353Z"/>
</mask>
<path d="M58.7709 25.1353H26.2281C25.9381 25.1353 25.66 25.2504 25.455 25.4555C25.25 25.6605 25.1348 25.9386 25.1348 26.2286C25.1348 26.5185 25.25 26.7966 25.455 27.0017C25.66 27.2067 25.9381 27.3219 26.2281 27.3219H58.7709C59.0608 27.3219 59.3389 27.2067 59.5439 27.0017C59.749 26.7966 59.8642 26.5185 59.8642 26.2286C59.8642 25.9386 59.749 25.6605 59.5439 25.4555C59.3389 25.2504 59.0608 25.1353 58.7709 25.1353Z" fill="#FFCC00"/>
<path d="M58.7709 25.1353V17.1353V25.1353ZM26.2281 25.1353V17.1353H26.2281L26.2281 25.1353ZM25.1348 26.2286H17.1348H25.1348ZM26.2281 27.3219L26.2281 35.3219H26.2281V27.3219ZM58.7709 27.3219V35.3219V27.3219ZM58.7709 17.1353H26.2281V33.1353H58.7709V17.1353ZM26.2281 17.1353C23.8164 17.1353 21.5035 18.0933 19.7981 19.7986L31.1118 31.1123C29.8166 32.4076 28.0598 33.1353 26.2281 33.1353L26.2281 17.1353ZM19.7981 19.7986C18.0928 21.5039 17.1348 23.8169 17.1348 26.2286H33.1348C33.1348 28.0603 32.4071 29.8171 31.1118 31.1123L19.7981 19.7986ZM17.1348 26.2286C17.1348 28.6403 18.0928 30.9532 19.7981 32.6585L31.1118 21.3448C32.4071 22.6401 33.1348 24.3968 33.1348 26.2286H17.1348ZM19.7981 32.6585C21.5035 34.3638 23.8164 35.3219 26.2281 35.3219L26.2281 19.3219C28.0598 19.3219 29.8166 20.0495 31.1118 21.3448L19.7981 32.6585ZM26.2281 35.3219H58.7709V19.3219H26.2281V35.3219ZM58.7709 35.3219C61.1826 35.3219 63.4955 34.3638 65.2008 32.6585L53.8871 21.3448C55.1823 20.0496 56.9391 19.3219 58.7709 19.3219V35.3219ZM65.2008 32.6585C66.9061 30.9532 67.8642 28.6403 67.8642 26.2286H51.8642C51.8642 24.3968 52.5919 22.64 53.8871 21.3448L65.2008 32.6585ZM67.8642 26.2286C67.8642 23.8168 66.9061 21.5039 65.2008 19.7986L53.8871 31.1123C52.5919 29.8171 51.8642 28.0604 51.8642 26.2286H67.8642ZM65.2008 19.7986C63.4955 18.0933 61.1826 17.1353 58.7709 17.1353V33.1353C56.9391 33.1353 55.1823 32.4076 53.8871 31.1123L65.2008 19.7986Z" fill="#FFCC00" mask="url(#path-3-inside-2_286_475)"/>
<mask id="path-5-inside-3_286_475" fill="white">
<path d="M58.7719 31.6443H47.3822C47.0974 31.652 46.8269 31.7705 46.6282 31.9746C46.4295 32.1787 46.3184 32.4523 46.3184 32.7372C46.3184 33.0221 46.4295 33.2957 46.6282 33.4998C46.8269 33.7039 47.0974 33.8224 47.3822 33.8301H58.7719C59.0566 33.8224 59.3271 33.7039 59.5258 33.4998C59.7245 33.2957 59.8357 33.0221 59.8357 32.7372C59.8357 32.4523 59.7245 32.1787 59.5258 31.9746C59.3271 31.7705 59.0566 31.652 58.7719 31.6443Z"/>
</mask>
<path d="M58.7719 31.6443H47.3822C47.0974 31.652 46.8269 31.7705 46.6282 31.9746C46.4295 32.1787 46.3184 32.4523 46.3184 32.7372C46.3184 33.0221 46.4295 33.2957 46.6282 33.4998C46.8269 33.7039 47.0974 33.8224 47.3822 33.8301H58.7719C59.0566 33.8224 59.3271 33.7039 59.5258 33.4998C59.7245 33.2957 59.8357 33.0221 59.8357 32.7372C59.8357 32.4523 59.7245 32.1787 59.5258 31.9746C59.3271 31.7705 59.0566 31.652 58.7719 31.6443Z" fill="#FFCC00"/>
<path d="M58.7719 31.6443L58.9878 23.6472L58.8799 23.6443H58.7719V31.6443ZM47.3822 31.6443V23.6443H47.2742L47.1662 23.6472L47.3822 31.6443ZM47.3822 33.8301L47.1662 41.8272L47.2742 41.8301H47.3822V33.8301ZM58.7719 33.8301V41.8301H58.8799L58.9878 41.8272L58.7719 33.8301ZM58.7719 23.6443H47.3822V39.6443H58.7719V23.6443ZM47.1662 23.6472C44.7979 23.7112 42.548 24.6969 40.8955 26.3946L52.3609 37.5546C51.1058 38.8441 49.3969 39.5928 47.5981 39.6414L47.1662 23.6472ZM40.8955 26.3946C39.243 28.0924 38.3184 30.368 38.3184 32.7372H54.3184C54.3184 34.5366 53.6161 36.2651 52.3609 37.5546L40.8955 26.3946ZM38.3184 32.7372C38.3184 35.1064 39.243 37.382 40.8955 39.0798L52.3609 27.9198C53.6161 29.2093 54.3184 30.9378 54.3184 32.7372H38.3184ZM40.8955 39.0798C42.548 40.7775 44.7979 41.7632 47.1662 41.8272L47.5981 25.833C49.3969 25.8816 51.1058 26.6303 52.3609 27.9198L40.8955 39.0798ZM47.3822 41.8301H58.7719V25.8301H47.3822V41.8301ZM58.9878 41.8272C61.3562 41.7632 63.606 40.7775 65.2585 39.0798L53.7931 27.9198C55.0483 26.6303 56.7571 25.8816 58.5559 25.833L58.9878 41.8272ZM65.2585 39.0798C66.911 37.382 67.8357 35.1064 67.8357 32.7372H51.8357C51.8357 30.9377 52.538 29.2093 53.7931 27.9198L65.2585 39.0798ZM67.8357 32.7372C67.8357 30.368 66.911 28.0924 65.2585 26.3946L53.7931 37.5546C52.538 36.2651 51.8357 34.5367 51.8357 32.7372H67.8357ZM65.2585 26.3946C63.606 24.6969 61.3562 23.7112 58.9878 23.6472L58.5559 39.6414C56.7571 39.5928 55.0483 38.8441 53.7931 37.5546L65.2585 26.3946Z" fill="#FFCC00" mask="url(#path-5-inside-3_286_475)"/>
<path d="M28.9508 33.8301H28.33H27.3802H26.7594C26.6564 33.5764 26.5893 33.308 26.5612 33.0329C26.5512 32.9351 26.5461 32.8364 26.5461 32.7372C26.5461 32.638 26.5512 32.5393 26.5612 32.4415M28.9508 33.8301L27.3802 31.6443M28.9508 33.8301C29.0537 33.5763 29.1209 33.308 29.149 33.0329C29.159 32.9351 29.1641 32.8364 29.1641 32.7372C29.1641 32.638 29.159 32.5393 29.149 32.4415M28.9508 33.8301L29.149 32.4415M26.5612 32.4415L27.3802 31.6443M26.5612 32.4415C26.5893 32.1664 26.6564 31.8981 26.7594 31.6443H27.3802M26.5612 32.4415L29.4528 32.7372L29.149 32.4415M27.3802 31.6443H28.33L28.9508 31.6443C29.0537 31.8981 29.1209 32.1664 29.149 32.4415" fill="#FFCC00" stroke="#FFCC00" stroke-width="8"/>
</svg>
