<svg width="212" height="40" viewBox="0 0 212 40" fill="none" xmlns="http://www.w3.org/2000/svg">
<path d="M98.6063 23.8881V7.71253L109.064 23.8881H112.769V0H108.579V16.2097L98.1215 0H94.3818V23.8881H98.6063ZM117.928 23.8881H122.292V0H117.928V23.8881ZM133.58 23.8881H137.943V14.8106L146.392 0H141.891L135.762 10.9543L129.702 0H125.2L133.58 14.8106V23.8881ZM155.395 23.8881H159.758V14.8106L168.207 0H163.706L157.577 10.9543L151.517 0H147.016L155.395 14.8106V23.8881ZM171.289 23.8881L172.778 19.52H183.063L184.551 23.8881H189.053L180.154 0H175.652L166.788 23.8881H171.289H171.289ZM177.903 4.53862L181.92 16.2097H173.886L177.903 4.53862H177.903ZM196.29 23.8881V13.4797H206.436V23.8881H210.764V0H206.436V10.1695H196.29V0H191.927V23.8881H196.29Z" fill="#FEFEFE"/>
<path d="M98.8958 39.3956H95.0267V36.5618H98.5576V36.0304H95.0267V33.1655H98.8958V32.634H94.3818V39.9268H98.8958V39.3955V39.3956ZM104.527 39.927V33.7384L108.787 39.927H109.379V32.6342H108.745V38.8435L104.474 32.6342H103.892V39.927H104.527ZM119.883 32.6342H114.016V33.1656H116.617V39.927H117.272V33.1656H119.883V32.6342ZM125.165 36.8432H127.12L129.203 39.927H129.901L127.744 36.7702C128.886 36.5411 129.573 35.843 129.573 34.9157V34.5615C129.573 33.4259 128.548 32.6342 126.93 32.6342H124.52V39.927H125.165V36.8432H125.165ZM126.93 33.1656C128.156 33.1656 128.918 33.7282 128.918 34.5409V34.9262C128.918 35.7493 128.157 36.312 126.93 36.312H125.165V33.1656H126.93ZM139.422 39.3957H135.553V36.5619H139.084V36.0305H135.553V33.1656H139.422V32.6342H134.908V39.927H139.422V39.3956V39.3957ZM146.913 36.8432C148.531 36.8432 149.556 36.0409 149.556 34.9158V34.5616C149.556 33.4261 148.531 32.6343 146.913 32.6343H144.418V39.9271H145.063V36.8433H146.913L146.913 36.8432ZM146.913 33.1656C148.14 33.1656 148.901 33.7282 148.901 34.5409V34.9262C148.901 35.7493 148.14 36.312 146.913 36.312H145.063V33.1656H146.913ZM155.271 36.8432H157.227L159.31 39.927H160.007L157.851 36.7702C158.993 36.5411 159.68 35.843 159.68 34.9157V34.5615C159.68 33.4259 158.654 32.6342 157.037 32.6342H154.627V39.927H155.271V36.8432H155.271ZM157.037 33.1656C158.263 33.1656 159.024 33.7282 159.024 34.5409V34.9262C159.024 35.7493 158.263 36.312 157.037 36.312H155.271V33.1656H157.037ZM169.528 39.3957H165.659V36.5619H169.19V36.0305H165.659V33.1656H169.528V32.6342H165.014V39.927H169.528V39.3956V39.3957ZM175.159 39.9271V33.7386L179.42 39.9271H180.012V32.6343H179.377V38.8436L175.106 32.6343H174.525V39.9271H175.159ZM189.987 39.3957H186.118V36.5619H189.649V36.0305H186.118V33.1656H189.987V32.6342H185.473V39.927H189.987V39.3956V39.3957ZM199.709 32.6343V38.083C199.709 38.9061 198.842 39.4686 197.616 39.4686C196.389 39.4686 195.533 38.9061 195.533 38.0935V32.6343H194.878V38.0726C194.878 39.2082 196.009 40 197.616 40C199.233 40 200.364 39.2081 200.364 38.0726V32.6343H199.709H199.709ZM206.376 36.8433H208.331L210.414 39.9271H211.112L208.955 36.7703C210.097 36.5412 210.784 35.8431 210.784 34.9158V34.5616C210.784 33.4261 209.758 32.6343 208.141 32.6343H205.731V39.9271H206.376V36.8433H206.376ZM208.141 33.1657C209.367 33.1657 210.129 33.7283 210.129 34.541V34.9264C210.129 35.7494 209.367 36.3121 208.141 36.3121H206.376V33.1657H208.141Z" fill="#FEFEFE"/>
<path fill-rule="evenodd" clip-rule="evenodd" d="M0 0H40.5138V39.9271H0V0ZM15.8098 34.5721V18.6701L25.5928 34.5721H31.6913V5.35563H24.7458V21.3414L14.9203 5.35563H8.82182V34.5721H15.8098Z" fill="#FEFEFE"/>
<path fill-rule="evenodd" clip-rule="evenodd" d="M44.9648 0H85.4786V39.9271H44.9648V0ZM75.047 29.2296H62.6382V22.3428H73.6071V17.0004H62.6382V10.6981H75.047V5.35551H55.396V34.572H75.047V29.2296Z" fill="#FEFEFE"/>
</svg>
