<svg width="318" height="318" viewBox="0 0 318 318" fill="none" xmlns="http://www.w3.org/2000/svg">
<g filter="url(#filter0_d_64_379)">
<circle cx="159" cy="159" r="95" fill="#180033"/>
<circle cx="159" cy="159" r="93.5" stroke="url(#paint0_linear_64_379)" stroke-width="3"/>
</g>
<path d="M91.5014 86C91.5014 83.0545 89.1136 80.6667 86.168 80.6667C83.2225 80.6667 80.8347 83.0545 80.8347 86C80.8347 88.9455 83.2225 91.3333 86.168 91.3333C89.1136 91.3333 91.5014 88.9455 91.5014 86ZM57.9792 138.788L58.96 138.983L57.9792 138.788ZM63.8404 198.356L62.9164 198.738L63.8404 198.356ZM101.776 244.625L101.22 245.456L101.776 244.625ZM216.224 244.625L215.668 243.794L216.224 244.625ZM254.16 198.356L253.236 197.973L254.16 198.356ZM260.021 138.788L261.002 138.593H261.002L260.021 138.788ZM237.165 86C237.165 83.0545 234.778 80.6667 231.832 80.6667C228.886 80.6667 226.499 83.0545 226.499 86C226.499 88.9455 228.886 91.3333 231.832 91.3333C234.778 91.3333 237.165 88.9455 237.165 86ZM85.4606 85.2932C70.916 99.8517 61.0111 118.4 56.9983 138.593L58.96 138.983C62.8957 119.178 72.6105 100.985 86.8755 86.7068L85.4606 85.2932ZM56.9983 138.593C52.9856 158.786 55.0451 179.717 62.9164 198.738L64.7645 197.973C57.0442 179.317 55.0242 158.788 58.96 138.983L56.9983 138.593ZM62.9164 198.738C70.7878 217.759 84.1176 234.017 101.22 245.456L102.332 243.794C85.5584 232.575 72.4847 216.629 64.7645 197.973L62.9164 198.738ZM101.22 245.456C118.323 256.895 138.431 263 159 263L159 261C138.827 261 119.106 255.012 102.332 243.794L101.22 245.456ZM159 263C179.569 263 199.677 256.895 216.78 245.456L215.668 243.794C198.894 255.012 179.173 261 159 261L159 263ZM216.78 245.456C233.882 234.017 247.212 217.759 255.084 198.738L253.236 197.973C245.515 216.629 232.442 232.575 215.668 243.794L216.78 245.456ZM255.084 198.738C262.955 179.717 265.014 158.786 261.002 138.593L259.04 138.983C262.976 158.788 260.956 179.317 253.236 197.973L255.084 198.738ZM261.002 138.593C256.989 118.4 247.084 99.8517 232.539 85.2932L231.125 86.7068C245.39 100.985 255.104 119.178 259.04 138.983L261.002 138.593Z" fill="url(#paint1_linear_64_379)"/>
<g clip-path="url(#clip0_64_379)">
<path d="M107.017 186.192V170.322L116.961 186.192H120.485V162.755H116.5V178.659L106.556 162.755H103V186.192H107.017H107.017ZM125.391 186.192H129.54V162.755H125.391V186.192ZM140.274 186.192H144.423V177.286L152.457 162.755H148.177L142.349 173.502L136.586 162.755H132.306L140.274 177.286V186.192ZM161.019 186.192H165.168V177.286L173.202 162.755H168.921L163.093 173.502L157.331 162.755H153.05L161.019 177.286V186.192ZM176.133 186.192L177.548 181.907H187.328L188.744 186.192H193.024L184.562 162.755H180.282L171.852 186.192H176.133H176.133ZM182.422 167.208L186.241 178.659H178.602L182.422 167.208ZM199.906 186.192V175.98H209.554V186.192H213.67V162.755H209.554V172.732H199.906V162.755H195.757V186.192H199.906Z" fill="#FEFEFE"/>
<path d="M107.292 201.407H103.613V198.627H106.971V198.105H103.613V195.294H107.292V194.773H103V201.928H107.292V201.407ZM112.647 201.928V195.857L116.698 201.928H117.261V194.773H116.658V200.865L112.596 194.773H112.044V201.928H112.647ZM127.249 194.773H121.67V195.294H124.143V201.928H124.766V195.294H127.249V194.773ZM132.272 198.903H134.132L136.112 201.928H136.776L134.725 198.831C135.81 198.606 136.464 197.921 136.464 197.012V196.664C136.464 195.55 135.489 194.773 133.951 194.773H131.659V201.928H132.272V198.903L132.272 198.903ZM133.951 195.294C135.117 195.294 135.841 195.846 135.841 196.644V197.022C135.841 197.829 135.117 198.381 133.951 198.381H132.272V195.294H133.951ZM145.829 201.407H142.15V198.627H145.507V198.105H142.15V195.294H145.829V194.773H141.537V201.928H145.829V201.407ZM152.953 198.903C154.491 198.903 155.466 198.116 155.466 197.012V196.664C155.466 195.55 154.491 194.773 152.953 194.773H150.58V201.928H151.194V198.903H152.953ZM152.953 195.294C154.119 195.294 154.843 195.846 154.843 196.644V197.022C154.843 197.829 154.119 198.381 152.953 198.381H151.194V195.294H152.953ZM160.901 198.903H162.76L164.741 201.928H165.404L163.354 198.831C164.439 198.606 165.093 197.921 165.093 197.012V196.664C165.093 195.55 164.118 194.773 162.58 194.773H160.288V201.928H160.901V198.903L160.901 198.903ZM162.579 195.294C163.746 195.294 164.469 195.846 164.469 196.644V197.022C164.469 197.829 163.746 198.381 162.579 198.381H160.901V195.294H162.579ZM174.458 201.407H170.779V198.627H174.136V198.105H170.779V195.294H174.458V194.773H170.165V201.928H174.458V201.407ZM179.812 201.928V195.857L183.863 201.928H184.426V194.773H183.823V200.865L179.762 194.773H179.209V201.928H179.812ZM193.912 201.407H190.233V198.627H193.59V198.105H190.233V195.294H193.912V194.773H189.62V201.928H193.912V201.407ZM203.157 194.773V200.119C203.157 200.927 202.332 201.478 201.166 201.478C200 201.478 199.186 200.927 199.186 200.129V194.773H198.563V200.109C198.563 201.223 199.638 202 201.166 202C202.704 202 203.78 201.223 203.78 200.109V194.773H203.157H203.157ZM209.496 198.903H211.356L213.337 201.928H214L211.949 198.831C213.035 198.606 213.688 197.921 213.688 197.012V196.664C213.688 195.55 212.713 194.773 211.175 194.773H208.883V201.928H209.497V198.903L209.496 198.903ZM211.175 195.294C212.341 195.294 213.065 195.846 213.065 196.644V197.022C213.065 197.829 212.341 198.381 211.175 198.381H209.496V195.294H211.175Z" fill="#FEFEFE"/>
<path fill-rule="evenodd" clip-rule="evenodd" d="M117.859 115H156.385V154.174H117.859V115ZM132.893 148.92V133.318L142.196 148.92H147.995V120.255H141.391V135.939L132.047 120.255H126.248V148.92H132.893Z" fill="#FEFEFE"/>
<path fill-rule="evenodd" clip-rule="evenodd" d="M160.617 115H199.142V154.174H160.617V115ZM189.223 143.678H177.423V136.921H187.854V131.68H177.423V125.496H189.223V120.255H170.536V148.92H189.223V143.678Z" fill="#FEFEFE"/>
</g>
<defs>
<filter id="filter0_d_64_379" x="0.400002" y="0.400002" width="317.2" height="317.2" filterUnits="userSpaceOnUse" color-interpolation-filters="sRGB">
<feFlood flood-opacity="0" result="BackgroundImageFix"/>
<feColorMatrix in="SourceAlpha" type="matrix" values="0 0 0 0 0 0 0 0 0 0 0 0 0 0 0 0 0 0 127 0" result="hardAlpha"/>
<feMorphology radius="15" operator="dilate" in="SourceAlpha" result="effect1_dropShadow_64_379"/>
<feOffset/>
<feGaussianBlur stdDeviation="24.3"/>
<feComposite in2="hardAlpha" operator="out"/>
<feColorMatrix type="matrix" values="0 0 0 0 0.631373 0 0 0 0 0.560784 0 0 0 0 0.968627 0 0 0 1 0"/>
<feBlend mode="normal" in2="BackgroundImageFix" result="effect1_dropShadow_64_379"/>
<feBlend mode="normal" in="SourceGraphic" in2="effect1_dropShadow_64_379" result="shape"/>
</filter>
<linearGradient id="paint0_linear_64_379" x1="159" y1="64" x2="159" y2="254" gradientUnits="userSpaceOnUse">
<stop stop-color="#0F63C3"/>
<stop offset="0.495" stop-color="#A18FF7"/>
<stop offset="1" stop-color="#7C23DD"/>
</linearGradient>
<linearGradient id="paint1_linear_64_379" x1="159" y1="262" x2="159" y2="86" gradientUnits="userSpaceOnUse">
<stop stop-color="#0F63C3"/>
<stop offset="0.495" stop-color="#A18FF7"/>
<stop offset="1" stop-color="#7C23DD"/>
</linearGradient>
<clipPath id="clip0_64_379">
<rect width="111" height="87" fill="white" transform="translate(103 115)"/>
</clipPath>
</defs>
</svg>
