<svg width="208" height="207" viewBox="0 0 208 207" fill="none" xmlns="http://www.w3.org/2000/svg">
<circle cx="104" cy="104" r="93.5" fill="#180033" stroke="url(#paint0_linear_64_377)" stroke-width="3"/>
<path d="M171.499 177C171.499 179.946 173.886 182.333 176.832 182.333C179.777 182.333 182.165 179.946 182.165 177C182.165 174.054 179.777 171.667 176.832 171.667C173.886 171.667 171.499 174.054 171.499 177ZM205.021 124.212L204.04 124.017L205.021 124.212ZM199.16 64.6444L200.084 64.262L199.16 64.6444ZM161.224 18.3752L161.78 17.544L161.224 18.3752ZM46.7763 18.3752L47.3322 19.2064L46.7763 18.3752ZM8.84045 64.6444L9.76446 65.0267L8.84045 64.6444ZM2.97916 124.212L1.99834 124.407H1.99834L2.97916 124.212ZM25.8347 177C25.8347 179.946 28.2225 182.333 31.168 182.333C34.1135 182.333 36.5014 179.946 36.5014 177C36.5014 174.054 34.1135 171.667 31.168 171.667C28.2225 171.667 25.8347 174.054 25.8347 177ZM177.539 177.707C192.084 163.148 201.989 144.6 206.002 124.407L204.04 124.017C200.104 143.822 190.39 162.015 176.125 176.293L177.539 177.707ZM206.002 124.407C210.014 104.214 207.955 83.2834 200.084 64.262L198.236 65.0267C205.956 83.6829 207.976 104.212 204.04 124.017L206.002 124.407ZM200.084 64.262C192.212 45.2406 178.882 28.9826 161.78 17.544L160.668 19.2064C177.442 30.425 190.515 46.3706 198.236 65.0267L200.084 64.262ZM161.78 17.544C144.677 6.10539 124.569 0 104 0V2C124.173 2 143.894 7.98785 160.668 19.2064L161.78 17.544ZM104 0C83.4305 0 63.3231 6.10539 46.2204 17.544L47.3322 19.2064C64.106 7.98784 83.8265 2 104 2V0ZM46.2204 17.544C29.1176 28.9826 15.7878 45.2406 7.91644 64.262L9.76446 65.0267C17.4847 46.3706 30.5584 30.425 47.3322 19.2064L46.2204 17.544ZM7.91644 64.262C0.0450539 83.2834 -2.01445 104.214 1.99834 124.407L3.95998 124.017C0.0242175 104.212 2.0442 83.6829 9.76446 65.0267L7.91644 64.262ZM1.99834 124.407C6.01113 144.6 15.916 163.148 30.4606 177.707L31.8755 176.293C17.6105 162.015 7.89574 143.822 3.95998 124.017L1.99834 124.407Z" fill="url(#paint1_linear_64_377)"/>
<g clip-path="url(#clip0_64_377)">
<path d="M57.5829 128.009V113.963L66.452 128.009H69.5945V107.266H66.0407V121.342L57.1717 107.266H54V128.009H57.5828H57.5829ZM73.9703 128.009H77.6707V107.266H73.9703V128.009ZM87.2445 128.009H90.9449V120.127L98.1106 107.266H94.2928L89.0948 116.778L83.9554 107.266H80.1376L87.2445 120.127V128.009ZM105.746 128.009H109.447V120.127L116.613 107.266H112.795L107.597 116.778L102.457 107.266H98.6394L105.746 120.127V128.009ZM119.226 128.009L120.489 124.216H129.211L130.474 128.009H134.292L126.744 107.266H122.927L115.409 128.009H119.226H119.226ZM124.836 111.207L128.242 121.341H121.429L124.836 111.207ZM140.43 128.009V118.971H149.035V128.009H152.706V107.266H149.035V116.097H140.43V107.266H136.73V128.009H140.43Z" fill="#FEFEFE"/>
<path d="M57.8283 141.475H54.5468V139.014H57.5414V138.553H54.5468V136.065H57.8283V135.604H54V141.937H57.8283V141.475ZM62.6039 141.937V136.563L66.217 141.937H66.7192V135.604H66.1811V140.996L62.559 135.604H62.0659V141.937H62.6039ZM75.6277 135.604H70.6519V136.065H72.8574V141.937H73.4132V136.065H75.6277V135.604ZM80.1073 139.259H81.766L83.5323 141.937H84.1242L82.295 139.195C83.2633 138.996 83.8461 138.39 83.8461 137.585V137.277C83.8461 136.291 82.9765 135.604 81.6048 135.604H79.5605V141.936H80.1074V139.259L80.1073 139.259ZM81.6047 136.065C82.6447 136.065 83.2902 136.554 83.2902 137.259V137.594C83.2902 138.309 82.6446 138.797 81.6047 138.797H80.1073V136.065H81.6047ZM92.1989 141.475H88.9174V139.014H91.912V138.553H88.9174V136.065H92.1989V135.604H88.3706V141.937H92.1989V141.475ZM98.5525 139.259C99.9242 139.259 100.794 138.562 100.794 137.585V137.278C100.794 136.292 99.9241 135.604 98.5525 135.604H96.4366V141.937H96.9834V139.259H98.5525ZM98.5525 136.065C99.5925 136.065 100.238 136.554 100.238 137.259V137.594C100.238 138.309 99.5924 138.797 98.5525 138.797H96.9834V136.065H98.5525ZM105.641 139.259H107.3L109.066 141.937H109.658L107.829 139.195C108.797 138.996 109.38 138.39 109.38 137.585V137.277C109.38 136.291 108.51 135.604 107.139 135.604H105.094V141.936H105.641V139.259L105.641 139.259ZM107.138 136.065C108.179 136.065 108.824 136.554 108.824 137.259V137.594C108.824 138.309 108.178 138.797 107.138 138.797H105.641V136.065H107.138ZM117.733 141.475H114.451V139.014H117.446V138.553H114.451V136.065H117.733V135.604H113.904V141.937H117.733V141.475ZM122.508 141.937V136.563L126.121 141.937H126.623V135.604H126.085V140.996L122.463 135.604H121.97V141.937H122.508ZM135.084 141.475H131.802V139.014H134.797V138.553H131.802V136.065H135.084V135.604H131.256V141.937H135.084V141.475ZM143.329 135.604V140.335C143.329 141.05 142.594 141.538 141.554 141.538C140.514 141.538 139.788 141.05 139.788 140.344V135.604H139.232V140.326C139.232 141.312 140.191 142 141.554 142C142.925 142 143.885 141.312 143.885 140.326V135.604H143.329H143.329ZM148.983 139.259H150.642L152.408 141.937H153L151.171 139.195C152.139 138.996 152.722 138.39 152.722 137.585V137.277C152.722 136.291 151.852 135.604 150.481 135.604H148.436V141.936H148.983V139.259L148.983 139.259ZM150.481 136.065C151.521 136.065 152.166 136.554 152.166 137.259V137.594C152.166 138.309 151.52 138.797 150.481 138.797H148.983V136.065H150.481Z" fill="#FEFEFE"/>
<path fill-rule="evenodd" clip-rule="evenodd" d="M67.252 65H101.612V99.6711H67.252V65ZM80.6605 95.021V81.2123L88.9576 95.021H94.1298V69.6506H88.2392V83.532L79.906 69.6506H74.7339V95.021H80.6605Z" fill="#FEFEFE"/>
<path fill-rule="evenodd" clip-rule="evenodd" d="M105.387 65H139.747V99.6711H105.387V65ZM130.9 90.3819H120.376V84.4017H129.679V79.7626H120.376V74.2899H130.9V69.6506H114.234V95.021H130.9V90.3819Z" fill="#FEFEFE"/>
</g>
<defs>
<linearGradient id="paint0_linear_64_377" x1="104" y1="9" x2="104" y2="199" gradientUnits="userSpaceOnUse">
<stop stop-color="#0F63C3"/>
<stop offset="0.495" stop-color="#A18FF7"/>
<stop offset="1" stop-color="#7C23DD"/>
</linearGradient>
<linearGradient id="paint1_linear_64_377" x1="104" y1="1" x2="104" y2="177" gradientUnits="userSpaceOnUse">
<stop stop-color="#0F63C3"/>
<stop offset="0.495" stop-color="#A18FF7"/>
<stop offset="1" stop-color="#7C23DD"/>
</linearGradient>
<clipPath id="clip0_64_377">
<rect width="99" height="77" fill="white" transform="translate(54 65)"/>
</clipPath>
</defs>
</svg>
