<svg width="143" height="142" viewBox="0 0 143 142" fill="none" xmlns="http://www.w3.org/2000/svg">
<circle cx="71.5008" cy="71.5" r="63.2449" fill="#180033" stroke="#7C23DD" stroke-width="3"/>
<path d="M121.351 121.857C131.211 111.956 137.925 99.3414 140.645 85.6082C143.366 71.875 141.969 57.6402 136.633 44.7038C131.298 31.7675 122.261 20.7106 110.668 12.9314C99.074 5.15214 85.4436 1 71.5 1C57.5564 1 43.926 5.15214 32.3323 12.9314C20.7387 20.7106 11.7025 31.7675 6.36652 44.7038C1.03055 57.6402 -0.365588 71.875 2.35467 85.6082C5.07492 99.3413 11.7894 111.956 21.649 121.857" stroke="#7C23DD" stroke-width="2" stroke-linecap="round"/>
<path d="M26.3681 89V77.8H28.7521V89H26.3681ZM32.9169 82.68V89H30.7089V80.52H32.9169V81.08C33.4929 80.664 34.2129 80.36 35.2209 80.36C36.8209 80.36 37.9569 81.192 37.9569 82.696V89H35.7489V82.696C35.7489 82.264 35.1729 81.992 34.3409 81.992C33.5089 81.992 32.9169 82.264 32.9169 82.68ZM41.995 82.68V89H39.787V80.52H41.995V81.08C42.571 80.664 43.291 80.36 44.299 80.36C45.899 80.36 47.035 81.192 47.035 82.696V89H44.827V82.696C44.827 82.264 44.251 81.992 43.419 81.992C42.587 81.992 41.995 82.264 41.995 82.68ZM56.0331 86.504C56.0331 88.072 54.5131 89.16 52.3851 89.16C50.2731 89.16 48.7531 88.072 48.7531 86.504V83.016C48.7531 81.448 50.2731 80.36 52.3851 80.36C54.5131 80.36 56.0331 81.448 56.0331 83.016V86.504ZM53.8251 86.568V82.952C53.8251 82.376 53.2171 81.992 52.3851 81.992C51.5531 81.992 50.9451 82.376 50.9451 82.952V86.568C50.9451 87.144 51.5531 87.528 52.3851 87.528C53.2171 87.528 53.8251 87.144 53.8251 86.568ZM59.7603 89L56.7203 80.52H58.9763L60.8163 86.456L62.6723 80.52H64.9283L61.8883 89H59.7603ZM67.7401 83.24H65.5481V83.016C65.5481 81.448 67.0521 80.36 69.1481 80.36C71.2441 80.36 72.7641 81.448 72.7641 83.016V89H70.5561V88.44C69.9801 88.856 69.2601 89.16 68.2521 89.16C66.6681 89.16 65.5161 88.328 65.5161 86.824V86.44C65.5161 84.856 67.0521 83.832 69.1481 83.768L70.5561 83.72V82.952C70.5561 82.376 69.9481 81.992 69.1481 81.992C68.3321 81.992 67.7401 82.376 67.7401 82.952V83.24ZM69.1641 87.528C69.9161 87.528 70.5241 87.272 70.5561 86.872V85.352L69.1801 85.4C68.3001 85.432 67.7081 85.816 67.7081 86.376V86.824C67.7081 87.256 68.2841 87.528 69.1641 87.528ZM79.6191 87.368V89H78.7711C76.7871 89 75.3791 87.96 75.3791 86.472V82.152H73.5551V80.52H75.3791V78.76H77.5871V80.52H79.6191V82.152H77.5871V86.472C77.5871 87.016 78.0831 87.368 78.7711 87.368H79.6191ZM81.0214 89V80.52H83.2294V89H81.0214ZM81.0214 79.416V77.464H83.2294V79.416H81.0214ZM92.205 86.504C92.205 88.072 90.685 89.16 88.557 89.16C86.445 89.16 84.925 88.072 84.925 86.504V83.016C84.925 81.448 86.445 80.36 88.557 80.36C90.685 80.36 92.205 81.448 92.205 83.016V86.504ZM89.997 86.568V82.952C89.997 82.376 89.389 81.992 88.557 81.992C87.725 81.992 87.117 82.376 87.117 82.952V86.568C87.117 87.144 87.725 87.528 88.557 87.528C89.389 87.528 89.997 87.144 89.997 86.568ZM96.12 82.68V89H93.912V80.52H96.12V81.08C96.696 80.664 97.416 80.36 98.424 80.36C100.024 80.36 101.16 81.192 101.16 82.696V89H98.952V82.696C98.952 82.264 98.376 81.992 97.544 81.992C96.712 81.992 96.12 82.264 96.12 82.68ZM113.073 80.984V80.408C113.073 79.784 112.369 79.352 111.409 79.352C110.529 79.352 109.809 79.736 109.809 80.472C109.809 80.936 110.177 81.32 110.593 81.704L114.305 85.08C114.657 84.6 115.041 84.04 115.489 83.368L117.249 84.328C116.737 85.16 116.273 85.864 115.825 86.456L117.377 87.848L115.697 89.16L114.401 88.008C113.441 88.808 112.417 89.16 111.025 89.16C108.337 89.16 106.625 87.848 106.625 86.152V85.688C106.625 84.68 107.361 83.72 108.593 82.76C107.905 82.056 107.505 81.288 107.505 80.472C107.505 78.76 109.153 77.64 111.473 77.64C113.793 77.64 115.457 78.776 115.457 80.408V80.984H113.073ZM111.057 87.448C111.697 87.448 112.257 87.272 112.929 86.68L110.001 84.04C109.281 84.6 108.929 85.128 108.929 85.688V86.152C108.929 86.888 109.857 87.448 111.057 87.448ZM31.4697 103.696H29.8537V108H27.4697V96.8H31.4697C33.9497 96.8 35.7577 98.096 35.7577 99.936V100.56C35.7577 102.4 33.9497 103.696 31.4697 103.696ZM31.4537 98.608H29.8537V101.904H31.4537C32.5417 101.904 33.3737 101.376 33.3737 100.624V99.872C33.3737 99.12 32.5417 98.608 31.4537 98.608ZM39.4559 102.24V108H37.2479V99.52H39.4559V100.432C40.1439 99.84 41.0239 99.36 42.2079 99.36V101.168C40.6079 101.168 39.4559 101.632 39.4559 102.24ZM50.4628 105.504C50.4628 107.072 48.9428 108.16 46.8148 108.16C44.7028 108.16 43.1828 107.072 43.1828 105.504V102.016C43.1828 100.448 44.7028 99.36 46.8148 99.36C48.9428 99.36 50.4628 100.448 50.4628 102.016V105.504ZM48.2548 105.568V101.952C48.2548 101.376 47.6468 100.992 46.8148 100.992C45.9828 100.992 45.3748 101.376 45.3748 101.952V105.568C45.3748 106.144 45.9828 106.528 46.8148 106.528C47.6468 106.528 48.2548 106.144 48.2548 105.568ZM59.3058 108H57.0978V107.44C56.5218 107.856 55.8178 108.16 54.8418 108.16C53.1778 108.16 52.0578 107.168 52.0578 105.664V101.856C52.0578 100.352 53.1778 99.36 54.8418 99.36C55.7858 99.36 56.5378 99.68 57.0978 100.096V96.8H59.3058V108ZM55.6898 106.528C56.4578 106.528 57.0658 106.192 57.0978 105.872V101.68C57.0978 101.344 56.4898 100.992 55.6898 100.992C54.8258 100.992 54.2498 101.44 54.2498 101.856V105.664C54.2498 106.08 54.8258 106.528 55.6898 106.528ZM68.3709 99.52V108H66.1629V107.44C65.5869 107.856 64.8509 108.16 63.8589 108.16C62.2749 108.16 61.1229 107.328 61.1229 105.824V99.52H63.3309V105.824C63.3309 106.256 63.9069 106.528 64.7389 106.528C65.5389 106.528 66.1309 106.272 66.1629 105.872V99.52H68.3709ZM75.1611 102.4V101.952C75.1611 101.376 74.5691 100.992 73.7211 100.992C72.8891 100.992 72.2811 101.376 72.2811 101.952V105.568C72.2811 106.144 72.8891 106.528 73.7211 106.528C74.5691 106.528 75.1611 106.144 75.1611 105.568V105.12H77.3691V105.504C77.3691 107.072 75.8491 108.16 73.7211 108.16C71.6091 108.16 70.0891 107.072 70.0891 105.504V102.016C70.0891 100.448 71.6091 99.36 73.7211 99.36C75.8491 99.36 77.3691 100.448 77.3691 102.016V102.4H75.1611ZM84.4394 106.368V108H83.5914C81.6074 108 80.1994 106.96 80.1994 105.472V101.152H78.3754V99.52H80.1994V97.76H82.4074V99.52H84.4394V101.152H82.4074V105.472C82.4074 106.016 82.9034 106.368 83.5914 106.368H84.4394ZM85.8417 108V99.52H88.0497V108H85.8417ZM85.8417 98.416V96.464H88.0497V98.416H85.8417ZM92.0493 108L89.0093 99.52H91.2653L93.1053 105.456L94.9613 99.52H97.2173L94.1773 108H92.0493ZM98.2011 108V99.52H100.409V108H98.2011ZM98.2011 98.416V96.464H100.409V98.416H98.2011ZM107.721 106.368V108H106.873C104.889 108 103.481 106.96 103.481 105.472V101.152H101.657V99.52H103.481V97.76H105.689V99.52H107.721V101.152H105.689V105.472C105.689 106.016 106.185 106.368 106.873 106.368H107.721ZM116.483 99.52L112.259 111.2H110.243L111.315 108.128L108.275 99.52H110.435L112.371 105.12L114.323 99.52H116.483Z" fill="white"/>
<path d="M71.9994 24.9962C69.5981 24.9962 67.6445 26.9498 67.6445 29.351C67.6445 31.7523 69.5981 33.7059 71.9994 33.7059C74.4006 33.7059 76.3542 31.7523 76.3542 29.351C76.3542 26.9498 74.4006 24.9962 71.9994 24.9962ZM71.9994 31.964C70.5587 31.964 69.3865 30.7917 69.3865 29.3511C69.3865 27.9106 70.5588 26.7383 71.9994 26.7383C73.44 26.7383 74.6122 27.9106 74.6122 29.3511C74.6122 30.7917 73.44 31.964 71.9994 31.964Z" fill="white"/>
<path d="M90.2898 34.577C90.2898 26.2549 83.4859 19.2654 74.4138 18.1827C74.1038 17.87 73.7867 17.5635 73.4522 17.2717L71.9994 16L70.5466 17.2716C70.213 17.5634 69.8952 17.8699 69.585 18.1826C60.513 19.2653 53.709 26.2557 53.709 34.577C53.709 40.3037 57.0326 45.6549 62.4187 48.6598V59.8353C62.4187 60.796 63.2 61.5772 64.1607 61.5772H64.5779L69.9152 69.2018C70.3907 69.881 71.1694 70.2869 71.9994 70.2869C72.8294 70.2869 73.6081 69.881 74.0836 69.2017L79.4209 61.5771H79.8381C80.7989 61.5771 81.5801 60.7959 81.5801 59.8352V48.6597C86.9663 45.6548 90.2898 40.3037 90.2898 34.577ZM71.6937 18.5824L71.9994 18.315L72.3051 18.5824C73.3076 19.4595 74.1899 20.4463 74.9485 21.5123H69.0503C69.809 20.4463 70.6904 19.4604 71.6937 18.5824ZM74.5104 38.9319H76.4039L75.7506 40.6738H74.2926L74.5104 38.9319ZM78.6475 37.9102C78.7434 37.6541 78.8156 37.391 78.9001 37.1323C79.5071 38.282 79.8381 39.5685 79.8381 40.8853V41.5412C79.1396 41.1484 78.374 40.8923 77.5762 40.7669L78.6475 37.9102ZM77.0519 37.1899H74.479C74.1524 36.1831 73.2161 35.448 72.1012 35.448H71.8974C70.7825 35.448 69.8471 36.1831 69.5196 37.1899H66.9467C66.2569 35.3121 65.9024 33.3463 65.9024 31.3439C65.9024 28.4853 66.628 25.7113 67.9623 23.2543H76.0353C77.3705 25.7113 78.096 28.4853 78.096 31.3439C78.0962 33.3462 77.7417 35.3121 77.0519 37.1899ZM72.8703 37.9589C72.8703 37.9903 72.8686 38.0216 72.8642 38.0538L72.1142 44.0566C72.0994 44.1724 71.8991 44.1724 71.8843 44.0566L71.1343 38.053C71.13 38.0216 71.1283 37.9903 71.1283 37.9589C71.1283 37.5348 71.4732 37.1899 71.8973 37.1899H72.1011C72.5255 37.1899 72.8703 37.5348 72.8703 37.9589ZM65.3513 37.9102L66.4226 40.7669C65.6248 40.8923 64.8592 41.1484 64.1607 41.5412V40.8853C64.1607 39.5685 64.4916 38.2829 65.0987 37.1323C65.1832 37.391 65.2546 37.6532 65.3513 37.9102ZM68.2481 40.6738L67.5949 38.9319H69.4883L69.7061 40.6738H68.2481ZM64.1607 54.6093H79.8381V56.3513H64.1607V54.6093ZM71.3427 68.2035L70.3629 66.8038H73.636L72.6562 68.2035C72.3565 68.632 71.6423 68.632 71.3427 68.2035ZM74.8553 65.061H69.1434L66.7046 61.5771H77.2948L74.8553 65.061ZM64.1607 59.8352V58.0932H79.8381V59.8352H64.1607ZM80.3068 47.3681L79.8382 47.6119V52.8674H72.8704V47.6415H71.1285V52.8674H64.1607V47.6119L63.6921 47.3681C58.6083 44.7176 55.451 39.8168 55.451 34.5769C55.451 27.7589 60.622 21.9426 67.7971 20.2668C65.4558 23.4502 64.1608 27.3235 64.1608 31.3439C64.1608 32.5319 64.2801 33.7068 64.5014 34.8635C63.1609 36.5811 62.4188 38.6984 62.4188 40.8854V43.2867C62.4188 43.6386 62.6313 43.9565 62.9562 44.0914C63.0642 44.1359 63.1774 44.1576 63.2898 44.1576C63.5162 44.1576 63.7392 44.0687 63.9056 43.9024C64.8645 42.9435 66.1388 42.4156 67.4957 42.4156H69.9249L70.1565 44.2725C70.2724 45.2001 71.065 45.8995 71.9995 45.8995C72.9341 45.8995 73.7266 45.2002 73.8425 44.2725L74.0742 42.4156H76.5033C77.8594 42.4156 79.1345 42.9435 80.0935 43.9024C80.2598 44.0687 80.4828 44.1576 80.7093 44.1576C80.8217 44.1576 80.9349 44.1359 81.0428 44.0914C81.3677 43.9565 81.5802 43.6385 81.5802 43.2867V40.8854C81.5802 38.6993 80.8381 36.5811 79.4977 34.8635C79.7189 33.7068 79.8382 32.5319 79.8382 31.3439C79.8382 27.3235 78.5431 23.4502 76.202 20.2668C83.3771 21.9426 88.548 27.7589 88.548 34.5769C88.5479 39.8168 85.3907 44.7178 80.3068 47.3681Z" fill="white"/>
<path d="M74.6133 44.1575H76.3552V51.1253H74.6133V44.1575Z" fill="white"/>
<path d="M67.6445 44.1575H69.3865V51.1253H67.6445V44.1575Z" fill="white"/>
<path d="M50.2259 48.5125C50.2259 47.0719 49.0535 45.8997 47.613 45.8997C46.1725 45.8997 45 47.0719 45 48.5125C45 49.9531 46.1724 51.1254 47.6129 51.1254C49.0534 51.1254 50.2259 49.9531 50.2259 48.5125ZM46.742 48.5125C46.742 48.0318 47.133 47.6416 47.6129 47.6416C48.0928 47.6416 48.4838 48.0318 48.4838 48.5125C48.4838 48.9933 48.0928 49.3835 47.6129 49.3835C47.133 49.3835 46.742 48.9934 46.742 48.5125Z" fill="white"/>
<path d="M51.968 57.2221C51.968 55.7815 50.7957 54.6093 49.3552 54.6093C47.9147 54.6093 46.7422 55.7815 46.7422 57.2221C46.7422 58.6627 47.9146 59.835 49.3551 59.835C50.7956 59.835 51.968 58.6627 51.968 57.2221ZM48.4841 57.2221C48.4841 56.7414 48.8752 56.3512 49.3551 56.3512C49.8349 56.3512 50.226 56.7414 50.226 57.2221C50.226 57.7029 49.8349 58.093 49.3551 58.093C48.8752 58.093 48.4841 57.7029 48.4841 57.2221Z" fill="white"/>
<path d="M51.0953 63.319C49.6547 63.319 48.4824 64.4913 48.4824 65.9318C48.4824 67.3724 49.6548 68.5447 51.0953 68.5447C52.5358 68.5447 53.7082 67.3724 53.7082 65.9318C53.7082 64.4913 52.5358 63.319 51.0953 63.319ZM51.0953 66.8029C50.6154 66.8029 50.2244 66.4127 50.2244 65.932C50.2244 65.4512 50.6154 65.061 51.0953 65.061C51.5752 65.061 51.9662 65.4512 51.9662 65.932C51.9662 66.4127 51.5752 66.8029 51.0953 66.8029Z" fill="white"/>
<path d="M57.1926 47.6415H51.9668V49.3834H55.4507V54.6092H60.6766V52.8672H57.1926V47.6415Z" fill="white"/>
<path d="M53.709 56.3512H60.6768V58.0931H53.709V56.3512Z" fill="white"/>
<path d="M57.1931 65.0608H55.4512V66.8028H58.9351V61.5769H60.677V59.835H57.1931V65.0608Z" fill="white"/>
<path d="M96.3863 45.8997C94.9457 45.8997 93.7734 47.072 93.7734 48.5125C93.7734 49.953 94.9458 51.1254 96.3863 51.1254C97.8268 51.1254 98.9992 49.953 98.9992 48.5125C98.9992 47.072 97.8269 45.8997 96.3863 45.8997ZM96.3863 49.3836C95.9064 49.3836 95.5154 48.9934 95.5154 48.5126C95.5154 48.0319 95.9064 47.6417 96.3863 47.6417C96.8662 47.6417 97.2572 48.0319 97.2572 48.5126C97.2573 48.9933 96.8662 49.3836 96.3863 49.3836Z" fill="white"/>
<path d="M94.6461 54.6093C93.2055 54.6093 92.0332 55.7816 92.0332 57.2221C92.0332 58.6626 93.2056 59.835 94.6461 59.835C96.0866 59.835 97.2589 58.6626 97.2589 57.2221C97.2589 55.7816 96.0867 54.6093 94.6461 54.6093ZM94.6461 58.0932C94.1662 58.0932 93.7752 57.703 93.7752 57.2222C93.7752 56.7415 94.1662 56.3513 94.6461 56.3513C95.126 56.3513 95.517 56.7415 95.517 57.2222C95.5171 57.703 95.1261 58.0932 94.6461 58.0932Z" fill="white"/>
<path d="M92.9039 63.319C91.4633 63.319 90.291 64.4913 90.291 65.9318C90.291 67.3724 91.4634 68.5447 92.9039 68.5447C94.3445 68.5447 95.5168 67.3724 95.5168 65.9318C95.5168 64.4913 94.3445 63.319 92.9039 63.319ZM92.9039 66.8029C92.424 66.8029 92.033 66.4127 92.033 65.932C92.033 65.4512 92.424 65.061 92.9039 65.061C93.3838 65.061 93.7748 65.4512 93.7748 65.932C93.7749 66.4127 93.3839 66.8029 92.9039 66.8029Z" fill="white"/>
<path d="M92.032 47.6415H86.8062V52.8672H83.3223V54.6092H88.5481V49.3834H92.032V47.6415Z" fill="white"/>
<path d="M83.3223 56.3512H90.2901V58.0931H83.3223V56.3512Z" fill="white"/>
<path d="M86.8062 59.835H83.3223V61.5769H85.0642V66.8028H88.5481V65.0608H86.8062V59.835Z" fill="white"/>
</svg>
