<svg width="143" height="142" viewBox="0 0 143 142" fill="none" xmlns="http://www.w3.org/2000/svg">
<circle cx="71.4993" cy="70.5" r="63.2449" transform="rotate(-180 71.4993 70.5)" fill="white" stroke="#7C23DD" stroke-width="3"/>
<path d="M21.649 20.1429C11.7894 30.0439 5.07493 42.6586 2.35467 56.3918C-0.365581 70.125 1.03056 84.3598 6.36653 97.2962C11.7025 110.233 20.7387 121.289 32.3323 129.069C43.926 136.848 57.5564 141 71.5 141C85.4436 141 99.074 136.848 110.668 129.069C122.261 121.289 131.298 110.233 136.633 97.2962C141.969 84.3598 143.366 70.125 140.645 56.3918C137.925 42.6587 131.211 30.0439 121.351 20.1429" stroke="#7C23DD" stroke-width="2" stroke-linecap="round"/>
<path d="M26.3681 88V76.8H28.7521V88H26.3681ZM32.9169 81.68V88H30.7089V79.52H32.9169V80.08C33.4929 79.664 34.2129 79.36 35.2209 79.36C36.8209 79.36 37.9569 80.192 37.9569 81.696V88H35.7489V81.696C35.7489 81.264 35.1729 80.992 34.3409 80.992C33.5089 80.992 32.9169 81.264 32.9169 81.68ZM41.995 81.68V88H39.787V79.52H41.995V80.08C42.571 79.664 43.291 79.36 44.299 79.36C45.899 79.36 47.035 80.192 47.035 81.696V88H44.827V81.696C44.827 81.264 44.251 80.992 43.419 80.992C42.587 80.992 41.995 81.264 41.995 81.68ZM56.0331 85.504C56.0331 87.072 54.5131 88.16 52.3851 88.16C50.2731 88.16 48.7531 87.072 48.7531 85.504V82.016C48.7531 80.448 50.2731 79.36 52.3851 79.36C54.5131 79.36 56.0331 80.448 56.0331 82.016V85.504ZM53.8251 85.568V81.952C53.8251 81.376 53.2171 80.992 52.3851 80.992C51.5531 80.992 50.9451 81.376 50.9451 81.952V85.568C50.9451 86.144 51.5531 86.528 52.3851 86.528C53.2171 86.528 53.8251 86.144 53.8251 85.568ZM59.7603 88L56.7203 79.52H58.9763L60.8163 85.456L62.6723 79.52H64.9283L61.8883 88H59.7603ZM67.7401 82.24H65.5481V82.016C65.5481 80.448 67.0521 79.36 69.1481 79.36C71.2441 79.36 72.7641 80.448 72.7641 82.016V88H70.5561V87.44C69.9801 87.856 69.2601 88.16 68.2521 88.16C66.6681 88.16 65.5161 87.328 65.5161 85.824V85.44C65.5161 83.856 67.0521 82.832 69.1481 82.768L70.5561 82.72V81.952C70.5561 81.376 69.9481 80.992 69.1481 80.992C68.3321 80.992 67.7401 81.376 67.7401 81.952V82.24ZM69.1641 86.528C69.9161 86.528 70.5241 86.272 70.5561 85.872V84.352L69.1801 84.4C68.3001 84.432 67.7081 84.816 67.7081 85.376V85.824C67.7081 86.256 68.2841 86.528 69.1641 86.528ZM79.6191 86.368V88H78.7711C76.7871 88 75.3791 86.96 75.3791 85.472V81.152H73.5551V79.52H75.3791V77.76H77.5871V79.52H79.6191V81.152H77.5871V85.472C77.5871 86.016 78.0831 86.368 78.7711 86.368H79.6191ZM81.0214 88V79.52H83.2294V88H81.0214ZM81.0214 78.416V76.464H83.2294V78.416H81.0214ZM92.205 85.504C92.205 87.072 90.685 88.16 88.557 88.16C86.445 88.16 84.925 87.072 84.925 85.504V82.016C84.925 80.448 86.445 79.36 88.557 79.36C90.685 79.36 92.205 80.448 92.205 82.016V85.504ZM89.997 85.568V81.952C89.997 81.376 89.389 80.992 88.557 80.992C87.725 80.992 87.117 81.376 87.117 81.952V85.568C87.117 86.144 87.725 86.528 88.557 86.528C89.389 86.528 89.997 86.144 89.997 85.568ZM96.12 81.68V88H93.912V79.52H96.12V80.08C96.696 79.664 97.416 79.36 98.424 79.36C100.024 79.36 101.16 80.192 101.16 81.696V88H98.952V81.696C98.952 81.264 98.376 80.992 97.544 80.992C96.712 80.992 96.12 81.264 96.12 81.68ZM113.073 79.984V79.408C113.073 78.784 112.369 78.352 111.409 78.352C110.529 78.352 109.809 78.736 109.809 79.472C109.809 79.936 110.177 80.32 110.593 80.704L114.305 84.08C114.657 83.6 115.041 83.04 115.489 82.368L117.249 83.328C116.737 84.16 116.273 84.864 115.825 85.456L117.377 86.848L115.697 88.16L114.401 87.008C113.441 87.808 112.417 88.16 111.025 88.16C108.337 88.16 106.625 86.848 106.625 85.152V84.688C106.625 83.68 107.361 82.72 108.593 81.76C107.905 81.056 107.505 80.288 107.505 79.472C107.505 77.76 109.153 76.64 111.473 76.64C113.793 76.64 115.457 77.776 115.457 79.408V79.984H113.073ZM111.057 86.448C111.697 86.448 112.257 86.272 112.929 85.68L110.001 83.04C109.281 83.6 108.929 84.128 108.929 84.688V85.152C108.929 85.888 109.857 86.448 111.057 86.448ZM31.4697 102.696H29.8537V107H27.4697V95.8H31.4697C33.9497 95.8 35.7577 97.096 35.7577 98.936V99.56C35.7577 101.4 33.9497 102.696 31.4697 102.696ZM31.4537 97.608H29.8537V100.904H31.4537C32.5417 100.904 33.3737 100.376 33.3737 99.624V98.872C33.3737 98.12 32.5417 97.608 31.4537 97.608ZM39.4559 101.24V107H37.2479V98.52H39.4559V99.432C40.1439 98.84 41.0239 98.36 42.2079 98.36V100.168C40.6079 100.168 39.4559 100.632 39.4559 101.24ZM50.4628 104.504C50.4628 106.072 48.9428 107.16 46.8148 107.16C44.7028 107.16 43.1828 106.072 43.1828 104.504V101.016C43.1828 99.448 44.7028 98.36 46.8148 98.36C48.9428 98.36 50.4628 99.448 50.4628 101.016V104.504ZM48.2548 104.568V100.952C48.2548 100.376 47.6468 99.992 46.8148 99.992C45.9828 99.992 45.3748 100.376 45.3748 100.952V104.568C45.3748 105.144 45.9828 105.528 46.8148 105.528C47.6468 105.528 48.2548 105.144 48.2548 104.568ZM59.3058 107H57.0978V106.44C56.5218 106.856 55.8178 107.16 54.8418 107.16C53.1778 107.16 52.0578 106.168 52.0578 104.664V100.856C52.0578 99.352 53.1778 98.36 54.8418 98.36C55.7858 98.36 56.5378 98.68 57.0978 99.096V95.8H59.3058V107ZM55.6898 105.528C56.4578 105.528 57.0658 105.192 57.0978 104.872V100.68C57.0978 100.344 56.4898 99.992 55.6898 99.992C54.8258 99.992 54.2498 100.44 54.2498 100.856V104.664C54.2498 105.08 54.8258 105.528 55.6898 105.528ZM68.3709 98.52V107H66.1629V106.44C65.5869 106.856 64.8509 107.16 63.8589 107.16C62.2749 107.16 61.1229 106.328 61.1229 104.824V98.52H63.3309V104.824C63.3309 105.256 63.9069 105.528 64.7389 105.528C65.5389 105.528 66.1309 105.272 66.1629 104.872V98.52H68.3709ZM75.1611 101.4V100.952C75.1611 100.376 74.5691 99.992 73.7211 99.992C72.8891 99.992 72.2811 100.376 72.2811 100.952V104.568C72.2811 105.144 72.8891 105.528 73.7211 105.528C74.5691 105.528 75.1611 105.144 75.1611 104.568V104.12H77.3691V104.504C77.3691 106.072 75.8491 107.16 73.7211 107.16C71.6091 107.16 70.0891 106.072 70.0891 104.504V101.016C70.0891 99.448 71.6091 98.36 73.7211 98.36C75.8491 98.36 77.3691 99.448 77.3691 101.016V101.4H75.1611ZM84.4394 105.368V107H83.5914C81.6074 107 80.1994 105.96 80.1994 104.472V100.152H78.3754V98.52H80.1994V96.76H82.4074V98.52H84.4394V100.152H82.4074V104.472C82.4074 105.016 82.9034 105.368 83.5914 105.368H84.4394ZM85.8417 107V98.52H88.0497V107H85.8417ZM85.8417 97.416V95.464H88.0497V97.416H85.8417ZM92.0493 107L89.0093 98.52H91.2653L93.1053 104.456L94.9613 98.52H97.2173L94.1773 107H92.0493ZM98.2011 107V98.52H100.409V107H98.2011ZM98.2011 97.416V95.464H100.409V97.416H98.2011ZM107.721 105.368V107H106.873C104.889 107 103.481 105.96 103.481 104.472V100.152H101.657V98.52H103.481V96.76H105.689V98.52H107.721V100.152H105.689V104.472C105.689 105.016 106.185 105.368 106.873 105.368H107.721ZM116.483 98.52L112.259 110.2H110.243L111.315 107.128L108.275 98.52H110.435L112.371 104.12L114.323 98.52H116.483Z" fill="#7C23DD"/>
<path d="M71.9994 23.9962C69.5981 23.9962 67.6445 25.9498 67.6445 28.351C67.6445 30.7523 69.5981 32.7059 71.9994 32.7059C74.4006 32.7059 76.3542 30.7523 76.3542 28.351C76.3542 25.9498 74.4006 23.9962 71.9994 23.9962ZM71.9994 30.964C70.5587 30.964 69.3865 29.7917 69.3865 28.3511C69.3865 26.9106 70.5588 25.7383 71.9994 25.7383C73.44 25.7383 74.6122 26.9106 74.6122 28.3511C74.6122 29.7917 73.44 30.964 71.9994 30.964Z" fill="#7C23DD"/>
<path d="M90.2898 33.577C90.2898 25.2549 83.4859 18.2654 74.4138 17.1827C74.1038 16.87 73.7867 16.5635 73.4522 16.2717L71.9994 15L70.5466 16.2716C70.213 16.5634 69.8952 16.8699 69.585 17.1826C60.513 18.2653 53.709 25.2557 53.709 33.577C53.709 39.3037 57.0326 44.6549 62.4187 47.6598V58.8353C62.4187 59.796 63.2 60.5772 64.1607 60.5772H64.5779L69.9152 68.2018C70.3907 68.881 71.1694 69.2869 71.9994 69.2869C72.8294 69.2869 73.6081 68.881 74.0836 68.2017L79.4209 60.5771H79.8381C80.7989 60.5771 81.5801 59.7959 81.5801 58.8352V47.6597C86.9663 44.6548 90.2898 39.3037 90.2898 33.577ZM71.6937 17.5824L71.9994 17.315L72.3051 17.5824C73.3076 18.4595 74.1899 19.4463 74.9485 20.5123H69.0503C69.809 19.4463 70.6904 18.4604 71.6937 17.5824ZM74.5104 37.9319H76.4039L75.7506 39.6738H74.2926L74.5104 37.9319ZM78.6475 36.9102C78.7434 36.6541 78.8156 36.391 78.9001 36.1323C79.5071 37.282 79.8381 38.5685 79.8381 39.8853V40.5412C79.1396 40.1484 78.374 39.8923 77.5762 39.7669L78.6475 36.9102ZM77.0519 36.1899H74.479C74.1524 35.1831 73.2161 34.448 72.1012 34.448H71.8974C70.7825 34.448 69.8471 35.1831 69.5196 36.1899H66.9467C66.2569 34.3121 65.9024 32.3463 65.9024 30.3439C65.9024 27.4853 66.628 24.7113 67.9623 22.2543H76.0353C77.3705 24.7113 78.096 27.4853 78.096 30.3439C78.0962 32.3462 77.7417 34.3121 77.0519 36.1899ZM72.8703 36.9589C72.8703 36.9903 72.8686 37.0216 72.8642 37.0538L72.1142 43.0566C72.0994 43.1724 71.8991 43.1724 71.8843 43.0566L71.1343 37.053C71.13 37.0216 71.1283 36.9903 71.1283 36.9589C71.1283 36.5348 71.4732 36.1899 71.8973 36.1899H72.1011C72.5255 36.1899 72.8703 36.5348 72.8703 36.9589ZM65.3513 36.9102L66.4226 39.7669C65.6248 39.8923 64.8592 40.1484 64.1607 40.5412V39.8853C64.1607 38.5685 64.4916 37.2829 65.0987 36.1323C65.1832 36.391 65.2546 36.6532 65.3513 36.9102ZM68.2481 39.6738L67.5949 37.9319H69.4883L69.7061 39.6738H68.2481ZM64.1607 53.6093H79.8381V55.3513H64.1607V53.6093ZM71.3427 67.2035L70.3629 65.8038H73.636L72.6562 67.2035C72.3565 67.632 71.6423 67.632 71.3427 67.2035ZM74.8553 64.061H69.1434L66.7046 60.5771H77.2948L74.8553 64.061ZM64.1607 58.8352V57.0932H79.8381V58.8352H64.1607ZM80.3068 46.3681L79.8382 46.6119V51.8674H72.8704V46.6415H71.1285V51.8674H64.1607V46.6119L63.6921 46.3681C58.6083 43.7176 55.451 38.8168 55.451 33.5769C55.451 26.7589 60.622 20.9426 67.7971 19.2668C65.4558 22.4502 64.1608 26.3235 64.1608 30.3439C64.1608 31.5319 64.2801 32.7068 64.5014 33.8635C63.1609 35.5811 62.4188 37.6984 62.4188 39.8854V42.2867C62.4188 42.6386 62.6313 42.9565 62.9562 43.0914C63.0642 43.1359 63.1774 43.1576 63.2898 43.1576C63.5162 43.1576 63.7392 43.0687 63.9056 42.9024C64.8645 41.9435 66.1388 41.4156 67.4957 41.4156H69.9249L70.1565 43.2725C70.2724 44.2001 71.065 44.8995 71.9995 44.8995C72.9341 44.8995 73.7266 44.2002 73.8425 43.2725L74.0742 41.4156H76.5033C77.8594 41.4156 79.1345 41.9435 80.0935 42.9024C80.2598 43.0687 80.4828 43.1576 80.7093 43.1576C80.8217 43.1576 80.9349 43.1359 81.0428 43.0914C81.3677 42.9565 81.5802 42.6385 81.5802 42.2867V39.8854C81.5802 37.6993 80.8381 35.5811 79.4977 33.8635C79.7189 32.7068 79.8382 31.5319 79.8382 30.3439C79.8382 26.3235 78.5431 22.4502 76.202 19.2668C83.3771 20.9426 88.548 26.7589 88.548 33.5769C88.5479 38.8168 85.3907 43.7178 80.3068 46.3681Z" fill="#7C23DD"/>
<path d="M74.6133 43.1575H76.3552V50.1253H74.6133V43.1575Z" fill="#7C23DD"/>
<path d="M67.6445 43.1575H69.3865V50.1253H67.6445V43.1575Z" fill="#7C23DD"/>
<path d="M50.2259 47.5125C50.2259 46.0719 49.0535 44.8996 47.613 44.8996C46.1725 44.8996 45 46.0719 45 47.5125C45 48.9531 46.1724 50.1253 47.6129 50.1253C49.0534 50.1253 50.2259 48.9531 50.2259 47.5125ZM46.742 47.5125C46.742 47.0317 47.133 46.6415 47.6129 46.6415C48.0928 46.6415 48.4838 47.0317 48.4838 47.5125C48.4838 47.9932 48.0928 48.3834 47.6129 48.3834C47.133 48.3834 46.742 47.9933 46.742 47.5125Z" fill="#7C23DD"/>
<path d="M51.968 56.2222C51.968 54.7816 50.7957 53.6093 49.3552 53.6093C47.9147 53.6093 46.7422 54.7816 46.7422 56.2222C46.7422 57.6628 47.9146 58.8351 49.3551 58.8351C50.7956 58.8351 51.968 57.6628 51.968 56.2222ZM48.4841 56.2222C48.4841 55.7414 48.8752 55.3513 49.3551 55.3513C49.8349 55.3513 50.226 55.7414 50.226 56.2222C50.226 56.7029 49.8349 57.0931 49.3551 57.0931C48.8752 57.0931 48.4841 56.7029 48.4841 56.2222Z" fill="#7C23DD"/>
<path d="M51.0953 62.319C49.6547 62.319 48.4824 63.4913 48.4824 64.9318C48.4824 66.3724 49.6548 67.5447 51.0953 67.5447C52.5358 67.5447 53.7082 66.3724 53.7082 64.9318C53.7082 63.4913 52.5358 62.319 51.0953 62.319ZM51.0953 65.8029C50.6154 65.8029 50.2244 65.4127 50.2244 64.932C50.2244 64.4512 50.6154 64.061 51.0953 64.061C51.5752 64.061 51.9662 64.4512 51.9662 64.932C51.9662 65.4127 51.5752 65.8029 51.0953 65.8029Z" fill="#7C23DD"/>
<path d="M57.1926 46.6415H51.9668V48.3834H55.4507V53.6092H60.6766V51.8672H57.1926V46.6415Z" fill="#7C23DD"/>
<path d="M53.709 55.3512H60.6768V57.0931H53.709V55.3512Z" fill="#7C23DD"/>
<path d="M57.1931 64.0608H55.4512V65.8028H58.9351V60.5769H60.677V58.835H57.1931V64.0608Z" fill="#7C23DD"/>
<path d="M96.3863 44.8996C94.9457 44.8996 93.7734 46.072 93.7734 47.5125C93.7734 48.953 94.9458 50.1253 96.3863 50.1253C97.8268 50.1253 98.9992 48.953 98.9992 47.5125C98.9992 46.072 97.8269 44.8996 96.3863 44.8996ZM96.3863 48.3835C95.9064 48.3835 95.5154 47.9933 95.5154 47.5126C95.5154 47.0318 95.9064 46.6417 96.3863 46.6417C96.8662 46.6417 97.2572 47.0318 97.2572 47.5126C97.2573 47.9932 96.8662 48.3835 96.3863 48.3835Z" fill="#7C23DD"/>
<path d="M94.6461 53.6093C93.2055 53.6093 92.0332 54.7817 92.0332 56.2222C92.0332 57.6627 93.2056 58.8351 94.6461 58.8351C96.0866 58.8351 97.2589 57.6627 97.2589 56.2222C97.2589 54.7817 96.0867 53.6093 94.6461 53.6093ZM94.6461 57.0932C94.1662 57.0932 93.7752 56.703 93.7752 56.2223C93.7752 55.7416 94.1662 55.3514 94.6461 55.3514C95.126 55.3514 95.517 55.7416 95.517 56.2223C95.5171 56.703 95.1261 57.0932 94.6461 57.0932Z" fill="#7C23DD"/>
<path d="M92.9039 62.319C91.4633 62.319 90.291 63.4913 90.291 64.9318C90.291 66.3724 91.4634 67.5447 92.9039 67.5447C94.3445 67.5447 95.5168 66.3724 95.5168 64.9318C95.5168 63.4913 94.3445 62.319 92.9039 62.319ZM92.9039 65.8029C92.424 65.8029 92.033 65.4127 92.033 64.932C92.033 64.4512 92.424 64.061 92.9039 64.061C93.3838 64.061 93.7748 64.4512 93.7748 64.932C93.7749 65.4127 93.3839 65.8029 92.9039 65.8029Z" fill="#7C23DD"/>
<path d="M92.032 46.6415H86.8062V51.8672H83.3223V53.6092H88.5481V48.3834H92.032V46.6415Z" fill="#7C23DD"/>
<path d="M83.3223 55.3512H90.2901V57.0931H83.3223V55.3512Z" fill="#7C23DD"/>
<path d="M86.8062 58.835H83.3223V60.5769H85.0642V65.8028H88.5481V64.0608H86.8062V58.835Z" fill="#7C23DD"/>
</svg>
