<svg width="143" height="142" viewBox="0 0 143 142" fill="none" xmlns="http://www.w3.org/2000/svg">
<circle cx="71.5008" cy="71.5" r="63.2449" fill="#180033" stroke="#0F63C3" stroke-width="3"/>
<path d="M121.351 121.857C131.211 111.956 137.925 99.3414 140.645 85.6082C143.366 71.875 141.969 57.6402 136.633 44.7038C131.298 31.7675 122.261 20.7106 110.668 12.9314C99.074 5.15214 85.4436 1 71.5 1C57.5564 1 43.926 5.15214 32.3323 12.9314C20.7387 20.7106 11.7025 31.7675 6.36652 44.7038C1.03055 57.6402 -0.365588 71.875 2.35467 85.6082C5.07492 99.3413 11.7894 111.956 21.649 121.857" stroke="#0F63C3" stroke-width="2" stroke-linecap="round"/>
<path d="M30.6174 89L26.6974 83.592V89H24.3134V77.8H26.6974V82.792L30.2974 77.8H32.9374L29.0654 83.208L33.2574 89H30.6174ZM36.5497 82.68V89H34.3417V80.52H36.5497V81.08C37.1257 80.664 37.8457 80.36 38.8537 80.36C40.4537 80.36 41.5897 81.192 41.5897 82.696V89H39.3817V82.696C39.3817 82.264 38.8057 81.992 37.9737 81.992C37.1417 81.992 36.5497 82.264 36.5497 82.68ZM50.5878 86.504C50.5878 88.072 49.0678 89.16 46.9398 89.16C44.8278 89.16 43.3078 88.072 43.3078 86.504V83.016C43.3078 81.448 44.8278 80.36 46.9398 80.36C49.0678 80.36 50.5878 81.448 50.5878 83.016V86.504ZM48.3798 86.568V82.952C48.3798 82.376 47.7718 81.992 46.9398 81.992C46.1078 81.992 45.4998 82.376 45.4998 82.952V86.568C45.4998 87.144 46.1078 87.528 46.9398 87.528C47.7718 87.528 48.3798 87.144 48.3798 86.568ZM59.4189 89L57.6749 83.912L55.9629 89H54.2029L51.2749 80.52H53.5309L55.1629 85.816L56.8269 80.52H58.5549L60.2029 85.816L61.8509 80.52H64.0909L61.1949 89H59.4189ZM68.5961 87.368V89H68.2281C66.2281 89 65.0761 88.024 65.0761 86.648V77.8H67.2841V86.648C67.2841 87.08 67.5241 87.368 68.2281 87.368H68.5961ZM69.5266 86.504V83.016C69.5266 81.448 71.0466 80.36 73.1586 80.36C75.2866 80.36 76.8066 81.448 76.8066 83.016V85.496H71.7186V86.568C71.7186 87.144 72.3266 87.528 73.1586 87.528C74.0066 87.528 74.5986 87.144 74.5986 86.568V86.36H76.8066V86.504C76.8066 88.072 75.2866 89.16 73.1586 89.16C71.0466 89.16 69.5266 88.072 69.5266 86.504ZM73.1586 81.992C72.3266 81.992 71.7186 82.376 71.7186 82.952V83.864H74.5986V82.952C74.5986 82.376 74.0066 81.992 73.1586 81.992ZM85.5246 89H83.3166V88.44C82.7406 88.856 82.0366 89.16 81.0606 89.16C79.3966 89.16 78.2766 88.168 78.2766 86.664V82.856C78.2766 81.352 79.3966 80.36 81.0606 80.36C82.0046 80.36 82.7566 80.68 83.3166 81.096V77.8H85.5246V89ZM81.9086 87.528C82.6766 87.528 83.2846 87.192 83.3166 86.872V82.68C83.3166 82.344 82.7086 81.992 81.9086 81.992C81.0446 81.992 80.4686 82.44 80.4686 82.856V86.664C80.4686 87.08 81.0446 87.528 81.9086 87.528ZM90.8137 90.728C91.7097 90.728 92.2697 90.312 92.2697 89.736V88.44C91.6937 88.856 90.9897 89.16 90.0137 89.16C88.3497 89.16 87.2297 88.168 87.2297 86.664V82.856C87.2297 81.352 88.3497 80.36 90.0137 80.36C90.9577 80.36 91.7097 80.68 92.2697 81.096V80.52H94.4777V89.672C94.4777 91.24 92.9737 92.36 90.8297 92.36C88.8937 92.36 87.2297 91.416 87.2297 89.992V89.88H89.4217V89.992C89.4217 90.408 90.0457 90.728 90.8137 90.728ZM90.8937 87.528C91.6297 87.528 92.2697 87.256 92.2697 86.84V82.648C92.2377 82.248 91.6137 81.992 90.8937 81.992C89.9657 81.992 89.4217 82.44 89.4217 82.856V86.664C89.4217 87.08 89.9657 87.528 90.8937 87.528ZM96.1828 86.504V83.016C96.1828 81.448 97.7028 80.36 99.8148 80.36C101.943 80.36 103.463 81.448 103.463 83.016V85.496H98.3748V86.568C98.3748 87.144 98.9828 87.528 99.8148 87.528C100.663 87.528 101.255 87.144 101.255 86.568V86.36H103.463V86.504C103.463 88.072 101.943 89.16 99.8148 89.16C97.7028 89.16 96.1828 88.072 96.1828 86.504ZM99.8148 81.992C98.9828 81.992 98.3748 82.376 98.3748 82.952V83.864H101.255V82.952C101.255 82.376 100.663 81.992 99.8148 81.992ZM115.127 80.984V80.408C115.127 79.784 114.423 79.352 113.463 79.352C112.583 79.352 111.863 79.736 111.863 80.472C111.863 80.936 112.231 81.32 112.647 81.704L116.359 85.08C116.711 84.6 117.095 84.04 117.543 83.368L119.303 84.328C118.791 85.16 118.327 85.864 117.879 86.456L119.431 87.848L117.751 89.16L116.455 88.008C115.495 88.808 114.471 89.16 113.079 89.16C110.391 89.16 108.679 87.848 108.679 86.152V85.688C108.679 84.68 109.415 83.72 110.647 82.76C109.959 82.056 109.559 81.288 109.559 80.472C109.559 78.76 111.207 77.64 113.527 77.64C115.847 77.64 117.511 78.776 117.511 80.408V80.984H115.127ZM113.111 87.448C113.751 87.448 114.311 87.272 114.983 86.68L112.055 84.04C111.335 84.6 110.983 85.128 110.983 85.688V86.152C110.983 86.888 111.911 87.448 113.111 87.448ZM49.7406 101.728H53.9486V105.024C53.9486 106.864 52.1726 108.16 49.6766 108.16C47.1806 108.16 45.3886 106.864 45.3886 105.024V99.776C45.3886 97.936 47.1806 96.64 49.6766 96.64C52.1726 96.64 53.9486 97.936 53.9486 99.776V100.336H51.5806V99.712C51.5806 98.96 50.7486 98.448 49.6766 98.448C48.5566 98.448 47.7726 98.96 47.7726 99.712V105.104C47.7726 105.872 48.5566 106.352 49.6766 106.352C50.7486 106.352 51.5806 105.856 51.5806 105.088V103.52H49.7406V101.728ZM57.9559 102.24V108H55.7479V99.52H57.9559V100.432C58.6439 99.84 59.5239 99.36 60.7079 99.36V101.168C59.1079 101.168 57.9559 101.632 57.9559 102.24ZM68.9628 105.504C68.9628 107.072 67.4428 108.16 65.3148 108.16C63.2028 108.16 61.6828 107.072 61.6828 105.504V102.016C61.6828 100.448 63.2028 99.36 65.3148 99.36C67.4428 99.36 68.9628 100.448 68.9628 102.016V105.504ZM66.7548 105.568V101.952C66.7548 101.376 66.1468 100.992 65.3148 100.992C64.4828 100.992 63.8748 101.376 63.8748 101.952V105.568C63.8748 106.144 64.4828 106.528 65.3148 106.528C66.1468 106.528 66.7548 106.144 66.7548 105.568ZM77.7939 108L76.0499 102.912L74.3379 108H72.5779L69.6499 99.52H71.9059L73.5379 104.816L75.2019 99.52H76.9299L78.5779 104.816L80.2259 99.52H82.4659L79.5699 108H77.7939ZM88.9551 106.368V108H88.1071C86.1231 108 84.7151 106.96 84.7151 105.472V101.152H82.8911V99.52H84.7151V97.76H86.9231V99.52H88.9551V101.152H86.9231V105.472C86.9231 106.016 87.4191 106.368 88.1071 106.368H88.9551ZM90.3573 108V96.8H92.5653V100.08C93.1413 99.664 93.8613 99.36 94.8693 99.36C96.4693 99.36 97.6053 100.192 97.6053 101.696V108H95.3973V101.696C95.3973 101.264 94.8213 100.992 93.9893 100.992C93.1733 100.992 92.5973 101.248 92.5653 101.648V108H90.3573Z" fill="white"/>
<path d="M72.0273 15C71.5614 15 71.1836 15.3778 71.1836 15.8438V20.7208C71.1836 21.1868 71.5614 21.5646 72.0273 21.5646C72.4933 21.5646 72.8711 21.1868 72.8711 20.7208V15.8438C72.8711 15.3778 72.4933 15 72.0273 15Z" fill="white"/>
<path d="M52.4937 23.1145C52.1666 22.7828 51.6326 22.7787 51.3006 23.1056C50.9685 23.4327 50.9644 23.9669 51.2915 24.2989L54.6896 27.7479C54.8548 27.9153 55.0727 27.9994 55.2907 27.9994C55.5045 27.9994 55.7183 27.9186 55.8827 27.7567C56.2148 27.4296 56.2189 26.8955 55.8918 26.5634L52.4937 23.1145Z" fill="white"/>
<path d="M91.1369 23.1146L87.7388 26.5632C87.4117 26.895 87.4158 27.4294 87.7478 27.7565C87.9122 27.9184 88.126 27.9991 88.3399 27.9991C88.5578 27.9991 88.7758 27.9151 88.941 27.7476L92.339 24.2991C92.6661 23.9672 92.662 23.4329 92.33 23.1058C91.9979 22.7786 91.4644 22.7827 91.1369 23.1146Z" fill="white"/>
<path d="M91.2706 35.2974C91.4082 35.6163 91.7189 35.8068 92.0456 35.8068C92.1572 35.8068 92.2705 35.7846 92.3797 35.7374L96.8024 33.8274C97.23 33.6426 97.4274 33.1462 97.2423 32.7183C97.0578 32.2905 96.5614 32.0928 96.1333 32.2784L91.7106 34.1883C91.283 34.3731 91.0856 34.8695 91.2706 35.2974Z" fill="white"/>
<path d="M46.7405 32.8599C46.5782 33.2968 46.8011 33.7824 47.2382 33.9445L51.7524 35.6192C51.8492 35.6552 51.9481 35.6722 52.0457 35.6722C52.3885 35.6722 52.7106 35.4619 52.8367 35.1218C52.9991 34.6848 52.7761 34.1993 52.339 34.0372L47.8249 32.3625C47.3882 32.1993 46.9024 32.4228 46.7405 32.8599Z" fill="white"/>
<path d="M63.0654 22.9805C63.1729 22.9805 63.2825 22.9597 63.3884 22.9158C63.8189 22.7372 64.0229 22.2435 63.8445 21.8132L61.979 17.3184C61.8002 16.8883 61.3083 16.6841 60.8761 16.8625C60.4456 17.0411 60.2416 17.5349 60.42 17.9652L62.2855 22.46C62.4206 22.7846 62.7346 22.9805 63.0654 22.9805Z" fill="white"/>
<path d="M81.3045 23.1199C81.6307 23.1199 81.9414 22.9296 82.079 22.6113L84.0129 18.1462C84.1983 17.7185 84.0017 17.2217 83.5741 17.0365C83.1465 16.8519 82.6496 17.0478 82.4646 17.4755L80.5308 21.9406C80.3454 22.3682 80.5419 22.8651 80.9695 23.0503C81.0787 23.0974 81.1924 23.1199 81.3045 23.1199Z" fill="white"/>
<path d="M66.0938 64.3594C66.0938 64.8253 66.4715 65.2031 66.9375 65.2031H76.2188C76.6847 65.2031 77.0625 64.8253 77.0625 64.3594C77.0625 63.8934 76.6847 63.5156 76.2188 63.5156H66.9375C66.4715 63.5156 66.0938 63.8934 66.0938 64.3594Z" fill="white"/>
<path d="M74.5312 69C74.9972 69 75.375 68.6222 75.375 68.1562C75.375 67.6903 74.9972 67.3125 74.5312 67.3125H68.625C68.159 67.3125 67.7812 67.6903 67.7812 68.1562C67.7812 68.6222 68.159 69 68.625 69H74.5312Z" fill="white"/>
<path d="M72.9496 23.0156L72.8339 23.0185C72.3716 23.024 72 23.4002 72 23.8622V52.3268C72 52.7928 72.3778 53.1706 72.8438 53.1706C73.3097 53.1706 73.6875 52.7928 73.6875 52.3268V24.7183C82.1122 25.085 88.8598 31.9436 88.875 40.3337C88.8857 46.8635 84.7168 52.7755 78.502 55.0443C78.1691 55.1659 77.9475 55.4827 77.9475 55.837V60.1406H73.6875V55.4683C73.6875 55.0023 73.3097 54.6245 72.8438 54.6245C72.3778 54.6245 72 55.0023 72 55.4683V60.9844C72 61.4503 72.3778 61.8281 72.8438 61.8281H77.9944C78.8991 61.8281 79.6349 61.0973 79.6349 60.1987V56.4167C86.207 53.7626 90.574 47.3719 90.5625 40.3308C90.5452 30.7766 82.6602 23.0156 72.9801 23.0156C72.9702 23.0156 72.9595 23.0156 72.9496 23.0156Z" fill="white"/>
<path d="M56.6473 32.7251C55.3392 33.4165 54.4469 34.7684 54.4469 36.3294C54.4469 37.6856 55.1209 38.8833 56.1542 39.629C55.0364 40.2482 54.2812 41.4236 54.2812 42.7717C54.2812 43.8601 54.774 44.8336 55.5497 45.4945C55.3248 45.9481 55.1946 46.4548 55.1946 46.9916C55.1946 48.8019 56.6259 50.2797 58.4358 50.4058C58.4514 52.3512 60.0618 53.9237 62.0476 53.9237C62.1004 53.9237 62.1514 53.9196 62.2029 53.9175C62.5486 55.0147 63.3586 55.9099 64.4062 56.3882V60.1567C64.4062 61.0783 65.1791 61.8281 66.1288 61.8281H69.4688C69.9347 61.8281 70.3125 61.4503 70.3125 60.9844C70.3125 60.5184 69.9347 60.1406 69.4688 60.1406H66.1288C66.1098 60.1406 66.097 60.1357 66.0938 60.1381V56.764C66.1086 56.764 66.1234 56.7656 66.1382 56.7656C68.4132 56.7656 70.2577 54.9537 70.2577 52.7216L70.3125 26.2571C70.3125 24.4667 68.8347 23.0156 67.0108 23.0156C65.8433 23.0156 64.8228 23.6155 64.2357 24.5138C64.1854 24.5169 64.1376 24.5212 64.0931 24.5272C64.0371 24.5346 63.9831 24.5478 63.9321 24.5653C62.0163 24.568 60.419 25.9045 60.0511 27.6785C59.9563 27.6711 59.8608 27.6637 59.7631 27.6637C58.0204 27.6637 56.6069 29.0521 56.6069 30.763C56.6069 31.3658 56.7878 31.9251 57.0906 32.4009C56.9027 32.4577 56.7519 32.576 56.6473 32.7251ZM57.7354 34.0808L58.2359 33.895C58.3521 33.8834 58.4683 33.8698 58.587 33.8698C60.3778 33.8698 61.8346 35.2119 61.8346 36.8613C61.8346 37.3272 62.2124 37.705 62.6784 37.705C63.1443 37.705 63.5221 37.3272 63.5221 36.8613C63.5221 34.4108 61.524 32.398 58.9919 32.2017L58.5379 31.5423C58.3789 31.3106 58.2944 31.0411 58.2944 30.763C58.2944 29.9846 58.9532 29.3512 59.7631 29.3512C59.8163 29.3512 59.8678 29.357 59.9193 29.3608L60.1731 29.3806C60.2044 29.4739 60.2501 29.5638 60.3156 29.6445C61.1001 30.6094 62.2899 31.1626 63.5807 31.1626C64.0466 31.1626 64.4244 30.7849 64.4244 30.3189C64.4244 29.8529 64.0466 29.4751 63.5807 29.4751C62.8003 29.4751 62.0876 29.1489 61.6249 28.58C61.6154 28.5684 61.6039 28.5599 61.594 28.549L61.7036 28.0212C61.9162 26.9964 62.8555 26.2526 63.9358 26.2526C63.9617 26.253 63.9872 26.2553 64.0132 26.2569L64.1001 26.2621L64.9282 26.3066C65.2026 26.41 65.5244 26.6086 65.814 27.0043C65.9792 27.23 66.2359 27.3497 66.4958 27.3497C66.6685 27.3497 66.8432 27.2968 66.9931 27.187C67.3692 26.9118 67.4512 26.3838 67.176 26.0077C66.8411 25.5497 66.4592 25.2247 66.0739 24.995C66.3426 24.8082 66.6664 24.7031 67.0108 24.7031C67.9007 24.7031 68.625 25.4002 68.625 26.2536L68.5702 52.7216C68.5702 54.0209 67.4793 55.0781 66.1382 55.0781C65.173 55.0781 64.2995 54.5063 63.9164 53.6634C65.5903 53.0668 66.7183 51.2734 66.535 49.2748C66.493 48.8109 66.0913 48.4694 65.6179 48.5118C65.154 48.5543 64.8121 48.9651 64.8549 49.429C64.9834 50.8339 64.1006 52.0677 62.886 52.1802C62.8391 52.1847 62.7941 52.195 62.75 52.2066L62.1354 52.2313L62.0616 52.235L62.0476 52.2362C60.9946 52.2362 60.1315 51.4089 60.1233 50.3922L60.1133 49.1871C60.129 49.1397 60.1409 49.0911 60.1483 49.04C60.2081 48.6186 60.5406 48.2775 60.9418 48.2288C61.1965 48.1979 61.4424 48.2882 61.615 48.4797C61.9281 48.825 62.4608 48.853 62.8069 48.5403C63.1525 48.228 63.1798 47.6941 62.8675 47.3484C62.3282 46.7519 61.531 46.454 60.7359 46.5541C59.6045 46.6909 58.6998 47.5742 58.4975 48.7133C57.5879 48.6215 56.8821 47.8782 56.8821 46.9916C56.8821 46.7358 56.9427 46.4845 57.0617 46.2443L57.6467 45.0639L56.644 44.2099C56.2147 43.8445 55.9688 43.32 55.9688 42.7717C55.9688 42.0865 56.3531 41.4479 56.9719 41.1052L57.5083 40.8079C58.0707 40.9558 58.5639 41.3225 58.8625 41.8374C59.0586 42.1774 59.1625 42.5652 59.1625 42.9591C59.1625 43.425 59.5402 43.8028 60.0062 43.8028C60.4722 43.8028 60.85 43.425 60.85 42.9591C60.85 42.2696 60.6683 41.59 60.323 40.9925C60.0548 40.53 59.6968 40.137 59.2803 39.8264L59.2976 39.8167L57.1417 38.2606C56.5014 37.7985 56.1344 37.0947 56.1344 36.3294C56.1344 35.34 56.7779 34.4363 57.7354 34.0808Z" fill="white"/>
<path d="M82.5469 39.0469C83.0129 39.0469 83.3906 38.6691 83.3906 38.2031C83.3906 37.7371 83.0129 37.3594 82.5469 37.3594C82.0809 37.3594 81.7031 37.7371 81.7031 38.2031C81.7031 38.6691 82.0809 39.0469 82.5469 39.0469Z" fill="white"/>
<path d="M97.654 59.4147C97.9635 58.6047 97.7813 57.6386 97.1148 56.9724L96.6838 56.5415C96.2455 56.1039 95.6464 55.8535 95.0396 55.8535C94.761 55.8535 94.4912 55.9037 94.2403 56.0001C93.8868 55.2104 93.0748 54.6562 92.1322 54.6562H91.5236C90.5807 54.6562 89.769 55.2104 89.4151 56.0005C89.1642 55.9037 88.8948 55.8535 88.6167 55.8535C88.009 55.8535 87.4096 56.1039 86.9724 56.5415L86.5415 56.9724C86.1345 57.3778 85.8906 57.9151 85.8572 58.4828C85.8382 58.8046 85.8889 59.1222 86.0014 59.4147C85.2108 59.7682 84.6562 60.5806 84.6562 61.5236V62.1326C84.6562 63.076 85.2108 63.8881 86.0018 64.2415C85.8889 64.5344 85.8382 64.8517 85.8572 65.1735C85.8906 65.7412 86.1345 66.2784 86.5435 66.6858L86.9724 67.1148C87.4096 67.5523 88.009 67.8028 88.6167 67.8028C88.8948 67.8028 89.1646 67.7525 89.4156 67.6561C89.769 68.4463 90.581 69 91.5236 69H92.1322C93.0748 69 93.8868 68.4459 94.2407 67.6561C94.4912 67.7525 94.761 67.8028 95.0391 67.8028C95.6464 67.8028 96.2455 67.5523 96.683 67.116L97.1148 66.6838C97.7813 66.0172 97.9638 65.0507 97.6544 64.2415C98.4454 63.8881 99 63.076 99 62.1326V61.5236C99 60.5802 98.4451 59.7678 97.654 59.4147ZM97.3125 62.1326C97.3125 62.4684 97.0694 62.7423 96.7703 62.7423H95.9946C95.885 63.2429 95.6876 63.7097 95.4194 64.1274L95.9694 64.6766C96.1812 64.8888 96.1593 65.253 95.9216 65.4907L95.4907 65.9216C95.3622 66.0497 95.1973 66.1153 95.0391 66.1153C94.904 66.1153 94.7742 66.0674 94.6766 65.9698L94.1274 65.4194C93.7097 65.688 93.2429 65.885 92.7419 65.9941V66.7707C92.7419 67.0698 92.4688 67.3125 92.1322 67.3125H91.5236C91.1871 67.3125 90.9139 67.0698 90.9139 66.7707V65.9941C90.4134 65.885 89.9462 65.688 89.5284 65.4194L88.9796 65.9698C88.882 66.0674 88.7518 66.1153 88.6167 66.1153C88.4585 66.1153 88.2937 66.0497 88.1656 65.9216L87.7346 65.4907C87.4961 65.253 87.4747 64.8888 87.6864 64.6766L88.2364 64.1274C87.9682 63.7097 87.7709 63.2429 87.6617 62.7423H86.8855C86.5864 62.7423 86.3438 62.4684 86.3438 62.1326V61.5236C86.3438 61.1871 86.5864 60.9139 86.8855 60.9139H87.6617C87.7709 60.4134 87.9682 59.9466 88.2364 59.5288L87.6864 58.9796C87.4747 58.7674 87.4961 58.4032 87.7346 58.1656L88.1656 57.7346C88.2937 57.6065 88.4585 57.541 88.6167 57.541C88.7518 57.541 88.882 57.5888 88.9796 57.6864L89.5284 58.2368C89.9462 57.969 90.4134 57.7713 90.9139 57.6621V56.8855C90.9139 56.5864 91.1871 56.3438 91.5236 56.3438H92.1322C92.4688 56.3438 92.7419 56.5864 92.7419 56.8855V57.6621C93.2429 57.7713 93.7097 57.969 94.1274 58.2368L94.6766 57.6864C94.7742 57.5888 94.904 57.541 95.0391 57.541C95.1973 57.541 95.3622 57.6065 95.4907 57.7346L95.9216 58.1656C96.1593 58.4032 96.1812 58.7674 95.9694 58.9796L95.4194 59.5288C95.6876 59.9466 95.885 60.4134 95.9946 60.9139H96.7703C97.0694 60.9139 97.3125 61.1871 97.3125 61.5236V62.1326Z" fill="white"/>
<path d="M91.8281 59.0859C90.314 59.0859 89.0859 60.314 89.0859 61.8281C89.0859 63.3422 90.314 64.5703 91.8281 64.5703C93.3422 64.5703 94.5703 63.3422 94.5703 61.8281C94.5703 60.314 93.3422 59.0859 91.8281 59.0859ZM91.8281 62.8828C91.2464 62.8828 90.7734 62.4099 90.7734 61.8281C90.7734 61.2464 91.2464 60.7734 91.8281 60.7734C92.4099 60.7734 92.8828 61.2464 92.8828 61.8281C92.8828 62.4099 92.4099 62.8828 91.8281 62.8828Z" fill="white"/>
<path d="M46.3456 64.2415C46.2327 64.5344 46.182 64.8517 46.2009 65.1735C46.2343 65.7412 46.4782 66.2784 46.8873 66.6858L47.3162 67.1148C47.7533 67.5523 48.3528 67.8028 48.9604 67.8028C49.2385 67.8028 49.5084 67.7525 49.7593 67.6561C50.1127 68.4463 50.9248 69 51.8674 69H52.4759C53.4185 69 54.2306 68.4459 54.5845 67.6561C54.835 67.7525 55.1048 67.8028 55.3829 67.8028C55.9902 67.8028 56.5892 67.5523 57.0267 67.116L57.4585 66.6838C58.1251 66.0172 58.3076 65.0507 57.9982 64.2415C58.7892 63.8881 59.3438 63.076 59.3438 62.1326V61.5236C59.3438 60.5802 58.7888 59.7678 57.9978 59.4147C58.3072 58.6047 58.1251 57.6386 57.4585 56.9724L57.0276 56.5415C56.5892 56.1039 55.9906 55.8535 55.3833 55.8535C55.1048 55.8535 54.835 55.9037 54.5841 56.0001C54.2306 55.2104 53.4185 54.6562 52.4759 54.6562H51.8674C50.9244 54.6562 50.1127 55.2104 49.7589 56.0005C49.5079 55.9037 49.2385 55.8535 48.9604 55.8535C48.3528 55.8535 47.7533 56.1039 47.3162 56.5415L46.8853 56.9724C46.4782 57.3778 46.2343 57.9151 46.2009 58.4828C46.182 58.8046 46.2327 59.1222 46.3451 59.4147C45.5546 59.7682 45 60.5806 45 61.5236V62.1326C45 63.076 45.5546 63.8881 46.3456 64.2415ZM46.6875 61.5236C46.6875 61.1871 46.9302 60.9139 47.2293 60.9139H48.0054C48.1146 60.4134 48.312 59.9466 48.5801 59.5288L48.0302 58.9796C47.8184 58.7674 47.8398 58.4032 48.0784 58.1656L48.5093 57.7346C48.6374 57.6065 48.8022 57.541 48.9604 57.541C49.0956 57.541 49.2258 57.5888 49.3234 57.6864L49.8721 58.2368C50.2899 57.969 50.7571 57.7713 51.2577 57.6621V56.8855C51.2577 56.5864 51.5308 56.3438 51.8674 56.3438H52.4759C52.8125 56.3438 53.0857 56.5864 53.0857 56.8855V57.6621C53.5866 57.7713 54.0534 57.969 54.4712 58.2368L55.0204 57.6864C55.118 57.5888 55.2478 57.541 55.3829 57.541C55.5411 57.541 55.7059 57.6065 55.8344 57.7346L56.2654 58.1656C56.5031 58.4032 56.5249 58.7674 56.3132 58.9796L55.7632 59.5288C56.0313 59.9466 56.2287 60.4134 56.3383 60.9139H57.114C57.4132 60.9139 57.6562 61.1871 57.6562 61.5236V62.1326C57.6562 62.4684 57.4132 62.7423 57.114 62.7423H56.3383C56.2287 63.2429 56.0313 63.7097 55.7632 64.1274L56.3132 64.6766C56.5249 64.8888 56.5031 65.253 56.2654 65.4907L55.8344 65.9216C55.7059 66.0497 55.5411 66.1153 55.3829 66.1153C55.2478 66.1153 55.118 66.0674 55.0204 65.9698L54.4712 65.4194C54.0534 65.688 53.5866 65.885 53.0857 65.9941V66.7707C53.0857 67.0698 52.8125 67.3125 52.4759 67.3125H51.8674C51.5308 67.3125 51.2577 67.0698 51.2577 66.7707V65.9941C50.7571 65.885 50.2899 65.688 49.8721 65.4194L49.3234 65.9698C49.2258 66.0674 49.0956 66.1153 48.9604 66.1153C48.8022 66.1153 48.6374 66.0497 48.5093 65.9216L48.0784 65.4907C47.8398 65.253 47.8184 64.8888 48.0302 64.6766L48.5801 64.1274C48.312 63.7097 48.1146 63.2429 48.0054 62.7423H47.2293C46.9302 62.7423 46.6875 62.4684 46.6875 62.1326V61.5236Z" fill="white"/>
<path d="M52.1719 64.5703C53.6859 64.5703 54.9141 63.3422 54.9141 61.8281C54.9141 60.314 53.6859 59.0859 52.1719 59.0859C50.6578 59.0859 49.4297 60.314 49.4297 61.8281C49.4297 63.3422 50.6578 64.5703 52.1719 64.5703ZM52.1719 60.7734C52.7536 60.7734 53.2266 61.2464 53.2266 61.8281C53.2266 62.4099 52.7536 62.8828 52.1719 62.8828C51.5901 62.8828 51.1172 62.4099 51.1172 61.8281C51.1172 61.2464 51.5901 60.7734 52.1719 60.7734Z" fill="white"/>
<path d="M64.4336 42.0771C63.9676 42.0771 63.5898 42.4549 63.5898 42.9208C63.5898 43.3868 63.9676 43.7646 64.4336 43.7646C65.7404 43.7646 66.8038 42.698 66.8038 41.387C66.8038 40.0759 65.7404 39.009 64.4336 39.009C63.9676 39.009 63.5898 39.3868 63.5898 39.8528C63.5898 40.3187 63.9676 40.6965 64.4336 40.6965C64.8102 40.6965 65.1163 41.0063 65.1163 41.387C65.1163 41.7675 64.8102 42.0771 64.4336 42.0771Z" fill="white"/>
<path d="M77.6493 28.938C77.1933 28.8492 76.7512 29.1434 76.6594 29.5991C76.5675 30.0547 76.8624 30.4993 77.3181 30.5928C77.4734 30.6247 81.1306 31.4153 81.7148 34.9652C81.7828 35.3786 82.1408 35.6722 82.5466 35.6722C82.5919 35.6722 82.6381 35.6685 82.6846 35.6608C83.1444 35.585 83.4559 35.151 83.38 34.6912C82.6035 29.974 77.8512 28.9782 77.6493 28.938Z" fill="white"/>
</svg>
