<svg width="143" height="142" viewBox="0 0 143 142" fill="none" xmlns="http://www.w3.org/2000/svg">
<circle cx="71.4993" cy="70.5" r="63.2449" transform="rotate(-180 71.4993 70.5)" fill="white" stroke="#0F63C3" stroke-width="3"/>
<path d="M21.649 20.1429C11.7894 30.0439 5.07493 42.6586 2.35467 56.3918C-0.365581 70.125 1.03056 84.3598 6.36653 97.2962C11.7025 110.233 20.7387 121.289 32.3323 129.069C43.926 136.848 57.5564 141 71.5 141C85.4436 141 99.074 136.848 110.668 129.069C122.261 121.289 131.298 110.233 136.633 97.2962C141.969 84.3598 143.366 70.125 140.645 56.3918C137.925 42.6587 131.211 30.0439 121.351 20.1429" stroke="#0F63C3" stroke-width="2" stroke-linecap="round"/>
<path d="M30.6174 88L26.6974 82.592V88H24.3134V76.8H26.6974V81.792L30.2974 76.8H32.9374L29.0654 82.208L33.2574 88H30.6174ZM36.5497 81.68V88H34.3417V79.52H36.5497V80.08C37.1257 79.664 37.8457 79.36 38.8537 79.36C40.4537 79.36 41.5897 80.192 41.5897 81.696V88H39.3817V81.696C39.3817 81.264 38.8057 80.992 37.9737 80.992C37.1417 80.992 36.5497 81.264 36.5497 81.68ZM50.5878 85.504C50.5878 87.072 49.0678 88.16 46.9398 88.16C44.8278 88.16 43.3078 87.072 43.3078 85.504V82.016C43.3078 80.448 44.8278 79.36 46.9398 79.36C49.0678 79.36 50.5878 80.448 50.5878 82.016V85.504ZM48.3798 85.568V81.952C48.3798 81.376 47.7718 80.992 46.9398 80.992C46.1078 80.992 45.4998 81.376 45.4998 81.952V85.568C45.4998 86.144 46.1078 86.528 46.9398 86.528C47.7718 86.528 48.3798 86.144 48.3798 85.568ZM59.4189 88L57.6749 82.912L55.9629 88H54.2029L51.2749 79.52H53.5309L55.1629 84.816L56.8269 79.52H58.5549L60.2029 84.816L61.8509 79.52H64.0909L61.1949 88H59.4189ZM68.5961 86.368V88H68.2281C66.2281 88 65.0761 87.024 65.0761 85.648V76.8H67.2841V85.648C67.2841 86.08 67.5241 86.368 68.2281 86.368H68.5961ZM69.5266 85.504V82.016C69.5266 80.448 71.0466 79.36 73.1586 79.36C75.2866 79.36 76.8066 80.448 76.8066 82.016V84.496H71.7186V85.568C71.7186 86.144 72.3266 86.528 73.1586 86.528C74.0066 86.528 74.5986 86.144 74.5986 85.568V85.36H76.8066V85.504C76.8066 87.072 75.2866 88.16 73.1586 88.16C71.0466 88.16 69.5266 87.072 69.5266 85.504ZM73.1586 80.992C72.3266 80.992 71.7186 81.376 71.7186 81.952V82.864H74.5986V81.952C74.5986 81.376 74.0066 80.992 73.1586 80.992ZM85.5246 88H83.3166V87.44C82.7406 87.856 82.0366 88.16 81.0606 88.16C79.3966 88.16 78.2766 87.168 78.2766 85.664V81.856C78.2766 80.352 79.3966 79.36 81.0606 79.36C82.0046 79.36 82.7566 79.68 83.3166 80.096V76.8H85.5246V88ZM81.9086 86.528C82.6766 86.528 83.2846 86.192 83.3166 85.872V81.68C83.3166 81.344 82.7086 80.992 81.9086 80.992C81.0446 80.992 80.4686 81.44 80.4686 81.856V85.664C80.4686 86.08 81.0446 86.528 81.9086 86.528ZM90.8137 89.728C91.7097 89.728 92.2697 89.312 92.2697 88.736V87.44C91.6937 87.856 90.9897 88.16 90.0137 88.16C88.3497 88.16 87.2297 87.168 87.2297 85.664V81.856C87.2297 80.352 88.3497 79.36 90.0137 79.36C90.9577 79.36 91.7097 79.68 92.2697 80.096V79.52H94.4777V88.672C94.4777 90.24 92.9737 91.36 90.8297 91.36C88.8937 91.36 87.2297 90.416 87.2297 88.992V88.88H89.4217V88.992C89.4217 89.408 90.0457 89.728 90.8137 89.728ZM90.8937 86.528C91.6297 86.528 92.2697 86.256 92.2697 85.84V81.648C92.2377 81.248 91.6137 80.992 90.8937 80.992C89.9657 80.992 89.4217 81.44 89.4217 81.856V85.664C89.4217 86.08 89.9657 86.528 90.8937 86.528ZM96.1828 85.504V82.016C96.1828 80.448 97.7028 79.36 99.8148 79.36C101.943 79.36 103.463 80.448 103.463 82.016V84.496H98.3748V85.568C98.3748 86.144 98.9828 86.528 99.8148 86.528C100.663 86.528 101.255 86.144 101.255 85.568V85.36H103.463V85.504C103.463 87.072 101.943 88.16 99.8148 88.16C97.7028 88.16 96.1828 87.072 96.1828 85.504ZM99.8148 80.992C98.9828 80.992 98.3748 81.376 98.3748 81.952V82.864H101.255V81.952C101.255 81.376 100.663 80.992 99.8148 80.992ZM115.127 79.984V79.408C115.127 78.784 114.423 78.352 113.463 78.352C112.583 78.352 111.863 78.736 111.863 79.472C111.863 79.936 112.231 80.32 112.647 80.704L116.359 84.08C116.711 83.6 117.095 83.04 117.543 82.368L119.303 83.328C118.791 84.16 118.327 84.864 117.879 85.456L119.431 86.848L117.751 88.16L116.455 87.008C115.495 87.808 114.471 88.16 113.079 88.16C110.391 88.16 108.679 86.848 108.679 85.152V84.688C108.679 83.68 109.415 82.72 110.647 81.76C109.959 81.056 109.559 80.288 109.559 79.472C109.559 77.76 111.207 76.64 113.527 76.64C115.847 76.64 117.511 77.776 117.511 79.408V79.984H115.127ZM113.111 86.448C113.751 86.448 114.311 86.272 114.983 85.68L112.055 83.04C111.335 83.6 110.983 84.128 110.983 84.688V85.152C110.983 85.888 111.911 86.448 113.111 86.448ZM49.7406 100.728H53.9486V104.024C53.9486 105.864 52.1726 107.16 49.6766 107.16C47.1806 107.16 45.3886 105.864 45.3886 104.024V98.776C45.3886 96.936 47.1806 95.64 49.6766 95.64C52.1726 95.64 53.9486 96.936 53.9486 98.776V99.336H51.5806V98.712C51.5806 97.96 50.7486 97.448 49.6766 97.448C48.5566 97.448 47.7726 97.96 47.7726 98.712V104.104C47.7726 104.872 48.5566 105.352 49.6766 105.352C50.7486 105.352 51.5806 104.856 51.5806 104.088V102.52H49.7406V100.728ZM57.9559 101.24V107H55.7479V98.52H57.9559V99.432C58.6439 98.84 59.5239 98.36 60.7079 98.36V100.168C59.1079 100.168 57.9559 100.632 57.9559 101.24ZM68.9628 104.504C68.9628 106.072 67.4428 107.16 65.3148 107.16C63.2028 107.16 61.6828 106.072 61.6828 104.504V101.016C61.6828 99.448 63.2028 98.36 65.3148 98.36C67.4428 98.36 68.9628 99.448 68.9628 101.016V104.504ZM66.7548 104.568V100.952C66.7548 100.376 66.1468 99.992 65.3148 99.992C64.4828 99.992 63.8748 100.376 63.8748 100.952V104.568C63.8748 105.144 64.4828 105.528 65.3148 105.528C66.1468 105.528 66.7548 105.144 66.7548 104.568ZM77.7939 107L76.0499 101.912L74.3379 107H72.5779L69.6499 98.52H71.9059L73.5379 103.816L75.2019 98.52H76.9299L78.5779 103.816L80.2259 98.52H82.4659L79.5699 107H77.7939ZM88.9551 105.368V107H88.1071C86.1231 107 84.7151 105.96 84.7151 104.472V100.152H82.8911V98.52H84.7151V96.76H86.9231V98.52H88.9551V100.152H86.9231V104.472C86.9231 105.016 87.4191 105.368 88.1071 105.368H88.9551ZM90.3573 107V95.8H92.5653V99.08C93.1413 98.664 93.8613 98.36 94.8693 98.36C96.4693 98.36 97.6053 99.192 97.6053 100.696V107H95.3973V100.696C95.3973 100.264 94.8213 99.992 93.9893 99.992C93.1733 99.992 92.5973 100.248 92.5653 100.648V107H90.3573Z" fill="#0F63C3"/>
<path d="M72.0273 14C71.5614 14 71.1836 14.3778 71.1836 14.8438V19.7208C71.1836 20.1868 71.5614 20.5646 72.0273 20.5646C72.4933 20.5646 72.8711 20.1868 72.8711 19.7208V14.8438C72.8711 14.3778 72.4933 14 72.0273 14Z" fill="#0F63C3"/>
<path d="M52.4937 22.1145C52.1666 21.7828 51.6326 21.7787 51.3006 22.1056C50.9685 22.4327 50.9644 22.9669 51.2915 23.2989L54.6896 26.7479C54.8548 26.9153 55.0727 26.9994 55.2907 26.9994C55.5045 26.9994 55.7183 26.9186 55.8827 26.7567C56.2148 26.4296 56.2189 25.8955 55.8918 25.5634L52.4937 22.1145Z" fill="#0F63C3"/>
<path d="M91.1369 22.1146L87.7388 25.5632C87.4117 25.895 87.4158 26.4294 87.7478 26.7565C87.9122 26.9184 88.126 26.9991 88.3399 26.9991C88.5578 26.9991 88.7758 26.9151 88.941 26.7476L92.339 23.2991C92.6661 22.9672 92.662 22.4329 92.33 22.1058C91.9979 21.7786 91.4644 21.7827 91.1369 22.1146Z" fill="#0F63C3"/>
<path d="M91.2706 34.2974C91.4082 34.6163 91.7189 34.8068 92.0456 34.8068C92.1572 34.8068 92.2705 34.7846 92.3797 34.7374L96.8024 32.8274C97.23 32.6426 97.4274 32.1462 97.2423 31.7183C97.0578 31.2905 96.5614 31.0928 96.1333 31.2784L91.7106 33.1883C91.283 33.3731 91.0856 33.8695 91.2706 34.2974Z" fill="#0F63C3"/>
<path d="M46.7405 31.8599C46.5782 32.2968 46.8011 32.7824 47.2382 32.9445L51.7524 34.6192C51.8492 34.6552 51.9481 34.6722 52.0457 34.6722C52.3885 34.6722 52.7106 34.4619 52.8367 34.1218C52.9991 33.6848 52.7761 33.1993 52.339 33.0372L47.8249 31.3625C47.3882 31.1993 46.9024 31.4228 46.7405 31.8599Z" fill="#0F63C3"/>
<path d="M63.0654 21.9805C63.1729 21.9805 63.2825 21.9597 63.3884 21.9158C63.8189 21.7372 64.0229 21.2435 63.8445 20.8132L61.979 16.3184C61.8002 15.8883 61.3083 15.6841 60.8761 15.8625C60.4456 16.0411 60.2416 16.5349 60.42 16.9652L62.2855 21.46C62.4206 21.7846 62.7346 21.9805 63.0654 21.9805Z" fill="#0F63C3"/>
<path d="M81.3045 22.1199C81.6307 22.1199 81.9414 21.9296 82.079 21.6113L84.0129 17.1462C84.1983 16.7185 84.0017 16.2217 83.5741 16.0365C83.1465 15.8519 82.6496 16.0478 82.4646 16.4755L80.5308 20.9406C80.3454 21.3682 80.5419 21.8651 80.9695 22.0503C81.0787 22.0974 81.1924 22.1199 81.3045 22.1199Z" fill="#0F63C3"/>
<path d="M66.0938 63.3594C66.0938 63.8253 66.4715 64.2031 66.9375 64.2031H76.2188C76.6847 64.2031 77.0625 63.8253 77.0625 63.3594C77.0625 62.8934 76.6847 62.5156 76.2188 62.5156H66.9375C66.4715 62.5156 66.0938 62.8934 66.0938 63.3594Z" fill="#0F63C3"/>
<path d="M74.5312 68C74.9972 68 75.375 67.6222 75.375 67.1562C75.375 66.6903 74.9972 66.3125 74.5312 66.3125H68.625C68.159 66.3125 67.7812 66.6903 67.7812 67.1562C67.7812 67.6222 68.159 68 68.625 68H74.5312Z" fill="#0F63C3"/>
<path d="M72.9496 22.0156L72.8339 22.0185C72.3716 22.024 72 22.4002 72 22.8622V51.3268C72 51.7928 72.3778 52.1706 72.8438 52.1706C73.3097 52.1706 73.6875 51.7928 73.6875 51.3268V23.7183C82.1122 24.085 88.8598 30.9436 88.875 39.3337C88.8857 45.8635 84.7168 51.7755 78.502 54.0443C78.1691 54.1659 77.9475 54.4827 77.9475 54.837V59.1406H73.6875V54.4683C73.6875 54.0023 73.3097 53.6245 72.8438 53.6245C72.3778 53.6245 72 54.0023 72 54.4683V59.9844C72 60.4503 72.3778 60.8281 72.8438 60.8281H77.9944C78.8991 60.8281 79.6349 60.0973 79.6349 59.1987V55.4167C86.207 52.7626 90.574 46.3719 90.5625 39.3308C90.5452 29.7766 82.6602 22.0156 72.9801 22.0156C72.9702 22.0156 72.9595 22.0156 72.9496 22.0156Z" fill="#0F63C3"/>
<path d="M56.6473 31.7251C55.3392 32.4165 54.4469 33.7684 54.4469 35.3294C54.4469 36.6856 55.1209 37.8833 56.1542 38.629C55.0364 39.2482 54.2812 40.4236 54.2812 41.7717C54.2812 42.8601 54.774 43.8336 55.5497 44.4945C55.3248 44.9481 55.1946 45.4548 55.1946 45.9916C55.1946 47.8019 56.6259 49.2797 58.4358 49.4058C58.4514 51.3512 60.0618 52.9237 62.0476 52.9237C62.1004 52.9237 62.1514 52.9196 62.2029 52.9175C62.5486 54.0147 63.3586 54.9099 64.4062 55.3882V59.1567C64.4062 60.0783 65.1791 60.8281 66.1288 60.8281H69.4688C69.9347 60.8281 70.3125 60.4503 70.3125 59.9844C70.3125 59.5184 69.9347 59.1406 69.4688 59.1406H66.1288C66.1098 59.1406 66.097 59.1357 66.0938 59.1381V55.764C66.1086 55.764 66.1234 55.7656 66.1382 55.7656C68.4132 55.7656 70.2577 53.9537 70.2577 51.7216L70.3125 25.2571C70.3125 23.4667 68.8347 22.0156 67.0108 22.0156C65.8433 22.0156 64.8228 22.6155 64.2357 23.5138C64.1854 23.5169 64.1376 23.5212 64.0931 23.5272C64.0371 23.5346 63.9831 23.5478 63.9321 23.5653C62.0163 23.568 60.419 24.9045 60.0511 26.6785C59.9563 26.6711 59.8608 26.6637 59.7631 26.6637C58.0204 26.6637 56.6069 28.0521 56.6069 29.763C56.6069 30.3658 56.7878 30.9251 57.0906 31.4009C56.9027 31.4577 56.7519 31.576 56.6473 31.7251ZM57.7354 33.0808L58.2359 32.895C58.3521 32.8834 58.4683 32.8698 58.587 32.8698C60.3778 32.8698 61.8346 34.2119 61.8346 35.8613C61.8346 36.3272 62.2124 36.705 62.6784 36.705C63.1443 36.705 63.5221 36.3272 63.5221 35.8613C63.5221 33.4108 61.524 31.398 58.9919 31.2017L58.5379 30.5423C58.3789 30.3106 58.2944 30.0411 58.2944 29.763C58.2944 28.9846 58.9532 28.3512 59.7631 28.3512C59.8163 28.3512 59.8678 28.357 59.9193 28.3608L60.1731 28.3806C60.2044 28.4739 60.2501 28.5638 60.3156 28.6445C61.1001 29.6094 62.2899 30.1626 63.5807 30.1626C64.0466 30.1626 64.4244 29.7849 64.4244 29.3189C64.4244 28.8529 64.0466 28.4751 63.5807 28.4751C62.8003 28.4751 62.0876 28.1489 61.6249 27.58C61.6154 27.5684 61.6039 27.5599 61.594 27.549L61.7036 27.0212C61.9162 25.9964 62.8555 25.2526 63.9358 25.2526C63.9617 25.253 63.9872 25.2553 64.0132 25.2569L64.1001 25.2621L64.9282 25.3066C65.2026 25.41 65.5244 25.6086 65.814 26.0043C65.9792 26.23 66.2359 26.3497 66.4958 26.3497C66.6685 26.3497 66.8432 26.2968 66.9931 26.187C67.3692 25.9118 67.4512 25.3838 67.176 25.0077C66.8411 24.5497 66.4592 24.2247 66.0739 23.995C66.3426 23.8082 66.6664 23.7031 67.0108 23.7031C67.9007 23.7031 68.625 24.4002 68.625 25.2536L68.5702 51.7216C68.5702 53.0209 67.4793 54.0781 66.1382 54.0781C65.173 54.0781 64.2995 53.5063 63.9164 52.6634C65.5903 52.0668 66.7183 50.2734 66.535 48.2748C66.493 47.8109 66.0913 47.4694 65.6179 47.5118C65.154 47.5543 64.8121 47.9651 64.8549 48.429C64.9834 49.8339 64.1006 51.0677 62.886 51.1802C62.8391 51.1847 62.7941 51.195 62.75 51.2066L62.1354 51.2313L62.0616 51.235L62.0476 51.2362C60.9946 51.2362 60.1315 50.4089 60.1233 49.3922L60.1133 48.1871C60.129 48.1397 60.1409 48.0911 60.1483 48.04C60.2081 47.6186 60.5406 47.2775 60.9418 47.2288C61.1965 47.1979 61.4424 47.2882 61.615 47.4797C61.9281 47.825 62.4608 47.853 62.8069 47.5403C63.1525 47.228 63.1798 46.6941 62.8675 46.3484C62.3282 45.7519 61.531 45.454 60.7359 45.5541C59.6045 45.6909 58.6998 46.5742 58.4975 47.7133C57.5879 47.6215 56.8821 46.8782 56.8821 45.9916C56.8821 45.7358 56.9427 45.4845 57.0617 45.2443L57.6467 44.0639L56.644 43.2099C56.2147 42.8445 55.9688 42.32 55.9688 41.7717C55.9688 41.0865 56.3531 40.4479 56.9719 40.1052L57.5083 39.8079C58.0707 39.9558 58.5639 40.3225 58.8625 40.8374C59.0586 41.1774 59.1625 41.5652 59.1625 41.9591C59.1625 42.425 59.5402 42.8028 60.0062 42.8028C60.4722 42.8028 60.85 42.425 60.85 41.9591C60.85 41.2696 60.6683 40.59 60.323 39.9925C60.0548 39.53 59.6968 39.137 59.2803 38.8264L59.2976 38.8167L57.1417 37.2606C56.5014 36.7985 56.1344 36.0947 56.1344 35.3294C56.1344 34.34 56.7779 33.4363 57.7354 33.0808Z" fill="#0F63C3"/>
<path d="M82.5469 38.0469C83.0129 38.0469 83.3906 37.6691 83.3906 37.2031C83.3906 36.7371 83.0129 36.3594 82.5469 36.3594C82.0809 36.3594 81.7031 36.7371 81.7031 37.2031C81.7031 37.6691 82.0809 38.0469 82.5469 38.0469Z" fill="#0F63C3"/>
<path d="M97.654 58.4147C97.9635 57.6047 97.7813 56.6386 97.1148 55.9724L96.6838 55.5415C96.2455 55.1039 95.6464 54.8535 95.0396 54.8535C94.761 54.8535 94.4912 54.9037 94.2403 55.0001C93.8868 54.2104 93.0748 53.6562 92.1322 53.6562H91.5236C90.5807 53.6562 89.769 54.2104 89.4151 55.0005C89.1642 54.9037 88.8948 54.8535 88.6167 54.8535C88.009 54.8535 87.4096 55.1039 86.9724 55.5415L86.5415 55.9724C86.1345 56.3778 85.8906 56.9151 85.8572 57.4828C85.8382 57.8046 85.8889 58.1222 86.0014 58.4147C85.2108 58.7682 84.6562 59.5806 84.6562 60.5236V61.1326C84.6562 62.076 85.2108 62.8881 86.0018 63.2415C85.8889 63.5344 85.8382 63.8517 85.8572 64.1735C85.8906 64.7412 86.1345 65.2784 86.5435 65.6858L86.9724 66.1148C87.4096 66.5523 88.009 66.8028 88.6167 66.8028C88.8948 66.8028 89.1646 66.7525 89.4156 66.6561C89.769 67.4463 90.581 68 91.5236 68H92.1322C93.0748 68 93.8868 67.4459 94.2407 66.6561C94.4912 66.7525 94.761 66.8028 95.0391 66.8028C95.6464 66.8028 96.2455 66.5523 96.683 66.116L97.1148 65.6838C97.7813 65.0172 97.9638 64.0507 97.6544 63.2415C98.4454 62.8881 99 62.076 99 61.1326V60.5236C99 59.5802 98.4451 58.7678 97.654 58.4147ZM97.3125 61.1326C97.3125 61.4684 97.0694 61.7423 96.7703 61.7423H95.9946C95.885 62.2429 95.6876 62.7097 95.4194 63.1274L95.9694 63.6766C96.1812 63.8888 96.1593 64.253 95.9216 64.4907L95.4907 64.9216C95.3622 65.0497 95.1973 65.1153 95.0391 65.1153C94.904 65.1153 94.7742 65.0674 94.6766 64.9698L94.1274 64.4194C93.7097 64.688 93.2429 64.885 92.7419 64.9941V65.7707C92.7419 66.0698 92.4688 66.3125 92.1322 66.3125H91.5236C91.1871 66.3125 90.9139 66.0698 90.9139 65.7707V64.9941C90.4134 64.885 89.9462 64.688 89.5284 64.4194L88.9796 64.9698C88.882 65.0674 88.7518 65.1153 88.6167 65.1153C88.4585 65.1153 88.2937 65.0497 88.1656 64.9216L87.7346 64.4907C87.4961 64.253 87.4747 63.8888 87.6864 63.6766L88.2364 63.1274C87.9682 62.7097 87.7709 62.2429 87.6617 61.7423H86.8855C86.5864 61.7423 86.3438 61.4684 86.3438 61.1326V60.5236C86.3438 60.1871 86.5864 59.9139 86.8855 59.9139H87.6617C87.7709 59.4134 87.9682 58.9466 88.2364 58.5288L87.6864 57.9796C87.4747 57.7674 87.4961 57.4032 87.7346 57.1656L88.1656 56.7346C88.2937 56.6065 88.4585 56.541 88.6167 56.541C88.7518 56.541 88.882 56.5888 88.9796 56.6864L89.5284 57.2368C89.9462 56.969 90.4134 56.7713 90.9139 56.6621V55.8855C90.9139 55.5864 91.1871 55.3438 91.5236 55.3438H92.1322C92.4688 55.3438 92.7419 55.5864 92.7419 55.8855V56.6621C93.2429 56.7713 93.7097 56.969 94.1274 57.2368L94.6766 56.6864C94.7742 56.5888 94.904 56.541 95.0391 56.541C95.1973 56.541 95.3622 56.6065 95.4907 56.7346L95.9216 57.1656C96.1593 57.4032 96.1812 57.7674 95.9694 57.9796L95.4194 58.5288C95.6876 58.9466 95.885 59.4134 95.9946 59.9139H96.7703C97.0694 59.9139 97.3125 60.1871 97.3125 60.5236V61.1326Z" fill="#0F63C3"/>
<path d="M91.8281 58.0859C90.314 58.0859 89.0859 59.314 89.0859 60.8281C89.0859 62.3422 90.314 63.5703 91.8281 63.5703C93.3422 63.5703 94.5703 62.3422 94.5703 60.8281C94.5703 59.314 93.3422 58.0859 91.8281 58.0859ZM91.8281 61.8828C91.2464 61.8828 90.7734 61.4099 90.7734 60.8281C90.7734 60.2464 91.2464 59.7734 91.8281 59.7734C92.4099 59.7734 92.8828 60.2464 92.8828 60.8281C92.8828 61.4099 92.4099 61.8828 91.8281 61.8828Z" fill="#0F63C3"/>
<path d="M46.3456 63.2415C46.2327 63.5344 46.182 63.8517 46.2009 64.1735C46.2343 64.7412 46.4782 65.2784 46.8873 65.6858L47.3162 66.1148C47.7533 66.5523 48.3528 66.8028 48.9604 66.8028C49.2385 66.8028 49.5084 66.7525 49.7593 66.6561C50.1127 67.4463 50.9248 68 51.8674 68H52.4759C53.4185 68 54.2306 67.4459 54.5845 66.6561C54.835 66.7525 55.1048 66.8028 55.3829 66.8028C55.9902 66.8028 56.5892 66.5523 57.0267 66.116L57.4585 65.6838C58.1251 65.0172 58.3076 64.0507 57.9982 63.2415C58.7892 62.8881 59.3438 62.076 59.3438 61.1326V60.5236C59.3438 59.5802 58.7888 58.7678 57.9978 58.4147C58.3072 57.6047 58.1251 56.6386 57.4585 55.9724L57.0276 55.5415C56.5892 55.1039 55.9906 54.8535 55.3833 54.8535C55.1048 54.8535 54.835 54.9037 54.5841 55.0001C54.2306 54.2104 53.4185 53.6562 52.4759 53.6562H51.8674C50.9244 53.6562 50.1127 54.2104 49.7589 55.0005C49.5079 54.9037 49.2385 54.8535 48.9604 54.8535C48.3528 54.8535 47.7533 55.1039 47.3162 55.5415L46.8853 55.9724C46.4782 56.3778 46.2343 56.9151 46.2009 57.4828C46.182 57.8046 46.2327 58.1222 46.3451 58.4147C45.5546 58.7682 45 59.5806 45 60.5236V61.1326C45 62.076 45.5546 62.8881 46.3456 63.2415ZM46.6875 60.5236C46.6875 60.1871 46.9302 59.9139 47.2293 59.9139H48.0054C48.1146 59.4134 48.312 58.9466 48.5801 58.5288L48.0302 57.9796C47.8184 57.7674 47.8398 57.4032 48.0784 57.1656L48.5093 56.7346C48.6374 56.6065 48.8022 56.541 48.9604 56.541C49.0956 56.541 49.2258 56.5888 49.3234 56.6864L49.8721 57.2368C50.2899 56.969 50.7571 56.7713 51.2577 56.6621V55.8855C51.2577 55.5864 51.5308 55.3438 51.8674 55.3438H52.4759C52.8125 55.3438 53.0857 55.5864 53.0857 55.8855V56.6621C53.5866 56.7713 54.0534 56.969 54.4712 57.2368L55.0204 56.6864C55.118 56.5888 55.2478 56.541 55.3829 56.541C55.5411 56.541 55.7059 56.6065 55.8344 56.7346L56.2654 57.1656C56.5031 57.4032 56.5249 57.7674 56.3132 57.9796L55.7632 58.5288C56.0313 58.9466 56.2287 59.4134 56.3383 59.9139H57.114C57.4132 59.9139 57.6562 60.1871 57.6562 60.5236V61.1326C57.6562 61.4684 57.4132 61.7423 57.114 61.7423H56.3383C56.2287 62.2429 56.0313 62.7097 55.7632 63.1274L56.3132 63.6766C56.5249 63.8888 56.5031 64.253 56.2654 64.4907L55.8344 64.9216C55.7059 65.0497 55.5411 65.1153 55.3829 65.1153C55.2478 65.1153 55.118 65.0674 55.0204 64.9698L54.4712 64.4194C54.0534 64.688 53.5866 64.885 53.0857 64.9941V65.7707C53.0857 66.0698 52.8125 66.3125 52.4759 66.3125H51.8674C51.5308 66.3125 51.2577 66.0698 51.2577 65.7707V64.9941C50.7571 64.885 50.2899 64.688 49.8721 64.4194L49.3234 64.9698C49.2258 65.0674 49.0956 65.1153 48.9604 65.1153C48.8022 65.1153 48.6374 65.0497 48.5093 64.9216L48.0784 64.4907C47.8398 64.253 47.8184 63.8888 48.0302 63.6766L48.5801 63.1274C48.312 62.7097 48.1146 62.2429 48.0054 61.7423H47.2293C46.9302 61.7423 46.6875 61.4684 46.6875 61.1326V60.5236Z" fill="#0F63C3"/>
<path d="M52.1719 63.5703C53.6859 63.5703 54.9141 62.3422 54.9141 60.8281C54.9141 59.314 53.6859 58.0859 52.1719 58.0859C50.6578 58.0859 49.4297 59.314 49.4297 60.8281C49.4297 62.3422 50.6578 63.5703 52.1719 63.5703ZM52.1719 59.7734C52.7536 59.7734 53.2266 60.2464 53.2266 60.8281C53.2266 61.4099 52.7536 61.8828 52.1719 61.8828C51.5901 61.8828 51.1172 61.4099 51.1172 60.8281C51.1172 60.2464 51.5901 59.7734 52.1719 59.7734Z" fill="#0F63C3"/>
<path d="M64.4336 41.077C63.9676 41.077 63.5898 41.4548 63.5898 41.9208C63.5898 42.3867 63.9676 42.7645 64.4336 42.7645C65.7404 42.7645 66.8038 41.6979 66.8038 40.387C66.8038 39.0758 65.7404 38.009 64.4336 38.009C63.9676 38.009 63.5898 38.3868 63.5898 38.8527C63.5898 39.3187 63.9676 39.6965 64.4336 39.6965C64.8102 39.6965 65.1163 40.0063 65.1163 40.387C65.1163 40.7674 64.8102 41.077 64.4336 41.077Z" fill="#0F63C3"/>
<path d="M77.6493 27.938C77.1933 27.8492 76.7512 28.1434 76.6594 28.5991C76.5675 29.0547 76.8624 29.4993 77.3181 29.5928C77.4734 29.6247 81.1306 30.4153 81.7148 33.9652C81.7828 34.3786 82.1408 34.6722 82.5466 34.6722C82.5919 34.6722 82.6381 34.6685 82.6846 34.6608C83.1444 34.585 83.4559 34.151 83.38 33.6912C82.6035 28.974 77.8512 27.9782 77.6493 27.938Z" fill="#0F63C3"/>
</svg>
