<svg width="143" height="142" viewBox="0 0 143 142" fill="none" xmlns="http://www.w3.org/2000/svg">
<circle cx="71.5008" cy="71.5" r="63.2449" fill="#180033" stroke="#1FE4C6" stroke-width="3"/>
<path d="M121.351 121.857C131.211 111.956 137.925 99.3414 140.645 85.6082C143.366 71.875 141.969 57.6402 136.633 44.7038C131.298 31.7675 122.261 20.7106 110.668 12.9314C99.074 5.15214 85.4436 1 71.5 1C57.5564 1 43.926 5.15214 32.3323 12.9314C20.7387 20.7106 11.7025 31.7675 6.36652 44.7038C1.03055 57.6402 -0.365588 71.875 2.35467 85.6082C5.07492 99.3413 11.7894 111.956 21.649 121.857" stroke="#1FE4C6" stroke-width="2" stroke-linecap="round"/>
<path d="M50.4723 82.408V84.216H46.7443V89H44.3603V77.8H51.1763V79.608H46.7443V82.408H50.4723ZM54.3573 83.24H52.1653V83.016C52.1653 81.448 53.6693 80.36 55.7653 80.36C57.8613 80.36 59.3813 81.448 59.3813 83.016V89H57.1733V88.44C56.5973 88.856 55.8773 89.16 54.8693 89.16C53.2853 89.16 52.1333 88.328 52.1333 86.824V86.44C52.1333 84.856 53.6693 83.832 55.7653 83.768L57.1733 83.72V82.952C57.1733 82.376 56.5653 81.992 55.7653 81.992C54.9493 81.992 54.3573 82.376 54.3573 82.952V83.24ZM55.7813 87.528C56.5333 87.528 57.1413 87.272 57.1733 86.872V85.352L55.7973 85.4C54.9173 85.432 54.3253 85.816 54.3253 86.376V86.824C54.3253 87.256 54.9013 87.528 55.7813 87.528ZM61.1073 89V80.52H63.3153V89H61.1073ZM61.1073 79.416V77.464H63.3153V79.416H61.1073ZM70.6269 87.368V89H69.7789C67.7949 89 66.3869 87.96 66.3869 86.472V82.152H64.5629V80.52H66.3869V78.76H68.5949V80.52H70.6269V82.152H68.5949V86.472C68.5949 87.016 69.0909 87.368 69.7789 87.368H70.6269ZM72.0292 89V77.8H74.2372V81.08C74.8132 80.664 75.5332 80.36 76.5412 80.36C78.1412 80.36 79.2772 81.192 79.2772 82.696V89H77.0692V82.696C77.0692 82.264 76.4932 81.992 75.6612 81.992C74.8452 81.992 74.2692 82.248 74.2372 82.648V89H72.0292ZM91.1899 80.984V80.408C91.1899 79.784 90.4859 79.352 89.5259 79.352C88.6459 79.352 87.9259 79.736 87.9259 80.472C87.9259 80.936 88.2939 81.32 88.7099 81.704L92.4219 85.08C92.7739 84.6 93.1579 84.04 93.6059 83.368L95.3659 84.328C94.8539 85.16 94.3899 85.864 93.9419 86.456L95.4939 87.848L93.8139 89.16L92.5179 88.008C91.5579 88.808 90.5339 89.16 89.1419 89.16C86.4539 89.16 84.7419 87.848 84.7419 86.152V85.688C84.7419 84.68 85.4779 83.72 86.7099 82.76C86.0219 82.056 85.6219 81.288 85.6219 80.472C85.6219 78.76 87.2699 77.64 89.5899 77.64C91.9099 77.64 93.5739 78.776 93.5739 80.408V80.984H91.1899ZM89.1739 87.448C89.8139 87.448 90.3739 87.272 91.0459 86.68L88.1179 84.04C87.3979 84.6 87.0459 85.128 87.0459 85.688V86.152C87.0459 86.888 87.9739 87.448 89.1739 87.448ZM46.3838 103.696H44.7678V108H42.3838V96.8H46.3838C48.8638 96.8 50.6718 98.096 50.6718 99.936V100.56C50.6718 102.4 48.8638 103.696 46.3838 103.696ZM46.3678 98.608H44.7678V101.904H46.3678C47.4558 101.904 48.2878 101.376 48.2878 100.624V99.872C48.2878 99.12 47.4558 98.608 46.3678 98.608ZM59.41 99.52V108H57.202V107.44C56.626 107.856 55.89 108.16 54.898 108.16C53.314 108.16 52.162 107.328 52.162 105.824V99.52H54.37V105.824C54.37 106.256 54.946 106.528 55.778 106.528C56.578 106.528 57.17 106.272 57.202 105.872V99.52H59.41ZM63.4481 102.24V108H61.2401V99.52H63.4481V100.432C64.1361 99.84 65.0161 99.36 66.2001 99.36V101.168C64.6001 101.168 63.4481 101.632 63.4481 102.24ZM67.4901 111.2V99.52H69.6981V100.096C70.2581 99.664 70.9781 99.36 71.9541 99.36C73.6181 99.36 74.7381 100.352 74.7381 101.856V105.664C74.7381 107.168 73.6181 108.16 71.9541 108.16C70.9941 108.16 70.2581 107.84 69.6981 107.44V111.2H67.4901ZM71.0741 106.528C71.9861 106.528 72.5301 106.08 72.5301 105.664V101.856C72.5301 101.44 71.9861 100.992 71.0741 100.992C70.3541 100.992 69.7301 101.248 69.6981 101.648V105.84C69.6981 106.256 70.3381 106.528 71.0741 106.528ZM83.6112 105.504C83.6112 107.072 82.0913 108.16 79.9633 108.16C77.8513 108.16 76.3313 107.072 76.3313 105.504V102.016C76.3313 100.448 77.8513 99.36 79.9633 99.36C82.0913 99.36 83.6112 100.448 83.6112 102.016V105.504ZM81.4033 105.568V101.952C81.4033 101.376 80.7953 100.992 79.9633 100.992C79.1313 100.992 78.5233 101.376 78.5233 101.952V105.568C78.5233 106.144 79.1313 106.528 79.9633 106.528C80.7953 106.528 81.4033 106.144 81.4033 105.568ZM88.6302 99.36C90.6783 99.36 92.1183 100.4 92.1183 101.888V102.24H89.9263V101.776C89.9263 101.312 89.3663 100.992 88.5823 100.992C87.8463 100.992 87.2703 101.28 87.2703 101.76C87.2703 102.128 87.5743 102.368 87.9583 102.496L90.4383 103.312C91.5743 103.712 92.2783 104.592 92.2783 105.632C92.2783 107.12 90.7743 108.16 88.6783 108.16C86.5663 108.16 85.0623 107.12 85.0623 105.632V105.28H87.2543V105.744C87.2543 106.208 87.8623 106.528 88.7263 106.528C89.5423 106.528 90.1503 106.224 90.1503 105.776C90.1503 105.424 89.8463 105.168 89.3983 105.024L86.9343 104.192C85.7983 103.808 85.1583 102.944 85.1583 101.936C85.1583 100.4 86.6143 99.36 88.6302 99.36ZM93.7063 105.504V102.016C93.7063 100.448 95.2263 99.36 97.3383 99.36C99.4663 99.36 100.986 100.448 100.986 102.016V104.496H95.8983V105.568C95.8983 106.144 96.5063 106.528 97.3383 106.528C98.1863 106.528 98.7783 106.144 98.7783 105.568V105.36H100.986V105.504C100.986 107.072 99.4663 108.16 97.3383 108.16C95.2263 108.16 93.7063 107.072 93.7063 105.504ZM97.3383 100.992C96.5063 100.992 95.8983 101.376 95.8983 101.952V102.864H98.7783V101.952C98.7783 101.376 98.1863 100.992 97.3383 100.992Z" fill="white"/>
<path d="M90.1124 40.7958C90.3485 40.5598 90.4844 40.2325 90.4844 39.8987C90.4844 39.5645 90.3485 39.2372 90.1124 39.0011C89.8764 38.7651 89.5486 38.6292 89.2148 38.6292C88.8811 38.6292 88.5533 38.7651 88.3172 39.0011C88.0812 39.2372 87.9453 39.5645 87.9453 39.8987C87.9453 40.2325 88.0812 40.5598 88.3172 40.7958C88.5533 41.0324 88.8811 41.1683 89.2148 41.1683C89.5486 41.1678 89.8764 41.0324 90.1124 40.7958Z" fill="white"/>
<path d="M103.247 39.0398C102.59 38.0813 101.597 37.442 100.453 37.2402C98.8818 36.9625 97.3411 37.5883 96.3854 38.7542V28.7081C96.3854 26.3784 94.4896 24.483 92.1598 24.483C91.5647 24.483 90.9984 24.6075 90.4842 24.8306V24.2251C90.4842 21.8954 88.5883 20 86.2585 20C83.9288 20 82.0334 21.8954 82.0334 24.2251V24.8306C81.5192 24.6075 80.9523 24.483 80.3573 24.483C78.0275 24.483 76.1316 26.3784 76.1316 28.7081V31.5804C75.6179 31.3578 75.051 31.2333 74.456 31.2333C73.306 31.2333 72.2626 31.6955 71.4999 32.4433C70.7377 31.6955 69.6938 31.2333 68.5443 31.2333C67.9487 31.2333 67.3823 31.3573 66.8681 31.5804V28.7086C66.8681 26.3784 64.9727 24.483 62.643 24.483C62.0474 24.483 61.4811 24.6075 60.9668 24.8306V24.2256C60.9668 21.8954 59.0714 20 56.7417 20C54.4114 20 52.5161 21.8959 52.5161 24.2256V24.8306C52.0018 24.6075 51.4355 24.483 50.8399 24.483C48.5101 24.483 46.6148 26.3788 46.6148 28.7086V38.7542C45.6592 37.5883 44.1184 36.963 42.5468 37.2402C41.4023 37.442 40.41 38.0813 39.7529 39.0398C39.0958 39.9989 38.8578 41.1549 39.0824 42.2955L40.6302 50.1442C41.2386 53.2287 42.7368 56.0321 44.9624 58.2518L46.0926 59.3785C47.1841 60.467 47.7851 61.9145 47.7851 63.4558V66.4868C47.7851 67.188 48.3534 67.7563 49.0546 67.7563C49.7558 67.7563 50.3241 67.188 50.3241 66.4868V63.4558C50.3241 61.2351 49.4583 59.1489 47.8858 57.5808L46.7551 56.4536C44.888 54.592 43.6314 52.2404 43.1211 49.6532L41.5739 41.8045C41.4816 41.3389 41.5788 40.8668 41.8471 40.4755C42.1154 40.0842 42.5206 39.8229 42.9877 39.7406C43.8937 39.5814 44.774 40.1556 44.9932 41.0483L45.7926 44.3103C45.9046 44.7676 46.1833 45.134 46.5513 45.3597C46.5538 45.3617 46.5558 45.3631 46.5582 45.3646L46.583 45.3795C46.5905 45.384 46.5974 45.3889 46.6053 45.3934L49.6467 47.2521C51.0561 48.113 51.9314 49.6741 51.9314 51.3249C51.9314 52.0262 52.4997 52.5945 53.2009 52.5945C53.9021 52.5945 54.4704 52.0262 54.4704 51.3249C54.4704 48.7958 53.1295 46.4051 50.9708 45.0854L49.1508 43.9731C49.1518 43.9503 49.1538 43.9275 49.1538 43.9042V28.7081C49.1538 27.7783 49.9101 27.022 50.8399 27.022C51.7082 27.022 52.4243 27.6811 52.5161 28.5251V39.8988C52.5161 40.6 53.0844 41.1683 53.7856 41.1683C54.4868 41.1683 55.0551 40.6 55.0551 39.8988V24.2251C55.0551 23.2953 55.8114 22.539 56.7417 22.539C57.6715 22.539 58.4278 23.2953 58.4278 24.2251V39.8988C58.4278 40.6 58.9961 41.1683 59.6973 41.1683C60.3985 41.1683 60.9668 40.6 60.9668 39.8988V28.5251C61.0585 27.6811 61.7746 27.022 62.643 27.022C63.5728 27.022 64.329 27.7783 64.329 28.7081L64.3186 39.8988C64.3186 40.5995 64.8869 41.1683 65.5882 41.1683C66.2894 41.1683 66.8577 40.5995 66.8577 39.8988L66.8681 35.2749C66.9598 34.4309 67.6764 33.7718 68.5443 33.7718C69.4741 33.7718 70.2303 34.5286 70.2303 35.4584V48.223C70.2303 51.7599 68.8512 55.0829 66.3469 57.5803C64.7744 59.1484 63.9085 61.2351 63.9085 63.4553V66.4868C63.9085 67.1875 64.4768 67.7558 65.178 67.7558C65.8788 67.7558 66.4476 67.1875 66.4476 66.4868V63.4553C66.4476 61.9145 67.0481 60.4665 68.1396 59.3785C69.5867 57.9354 70.7178 56.2607 71.4999 54.4382C72.2824 56.2607 73.4136 57.9354 74.8606 59.3785C75.9516 60.4665 76.5527 61.9145 76.5527 63.4553V66.4868C76.5527 67.1875 77.121 67.7558 77.8222 67.7558C78.5234 67.7558 79.0917 67.1875 79.0917 66.4868V63.4553C79.0917 61.2346 78.2258 59.1484 76.6533 57.5803C74.149 55.0829 72.7694 51.7599 72.7694 48.223V35.4584C72.7694 34.5286 73.5261 33.7718 74.456 33.7718C75.3238 33.7718 76.0404 34.4314 76.1316 35.2754L76.142 39.8988C76.142 40.5995 76.7108 41.1683 77.4116 41.1683C78.1128 41.1683 78.6811 40.5995 78.6811 39.8988L78.6707 28.7081C78.6707 27.7783 79.4274 27.022 80.3573 27.022C81.2251 27.022 81.9417 27.6811 82.0334 28.5251V39.8988C82.0334 40.6 82.6017 41.1683 83.3024 41.1683C84.0037 41.1683 84.572 40.6 84.572 39.8988V24.2251C84.572 23.2953 85.3287 22.539 86.2585 22.539C87.1884 22.539 87.9451 23.2953 87.9451 24.2251V35.2576C87.9451 35.9583 88.5134 36.5266 89.2146 36.5266C89.9154 36.5266 90.4842 35.9583 90.4842 35.2576V28.5251C90.5754 27.6811 91.292 27.022 92.1598 27.022C93.0897 27.022 93.8464 27.7783 93.8464 28.7081V43.9042C93.8464 43.9275 93.8484 43.9498 93.8494 43.9731L92.0289 45.0854C89.8707 46.4046 88.5298 48.7953 88.5298 51.3249C88.5298 52.0257 89.0981 52.5945 89.7993 52.5945C90.5005 52.5945 91.0688 52.0257 91.0688 51.3249C91.0688 49.6736 91.9441 48.113 93.353 47.2521L96.442 45.3646C96.4489 45.3602 96.4549 45.3552 96.4618 45.3508C96.8233 45.1241 97.0966 44.7616 97.2072 44.3103L98.0071 41.0483C98.2258 40.1551 99.107 39.5814 100.012 39.7406C100.48 39.8229 100.884 40.0837 101.153 40.4755C101.421 40.8668 101.518 41.3389 101.426 41.8045L99.8786 49.6527C99.3683 52.2399 98.1117 54.5915 96.2446 56.4536L95.1144 57.5808C93.5419 59.1489 92.6761 61.2351 92.6761 63.4558V66.4868C92.6761 67.1875 93.2444 67.7563 93.9456 67.7563C94.6468 67.7563 95.2151 67.1875 95.2151 66.4868V63.4558C95.2151 61.9145 95.8162 60.4665 96.9071 59.3785L98.0373 58.2513C100.263 56.0316 101.762 53.2282 102.37 50.1442L103.917 42.2955C104.142 41.1549 103.904 39.9989 103.247 39.0398Z" fill="white"/>
</svg>
