<svg width="143" height="142" viewBox="0 0 143 142" fill="none" xmlns="http://www.w3.org/2000/svg">
<circle cx="71.4993" cy="70.5" r="63.2449" transform="rotate(-180 71.4993 70.5)" fill="white" stroke="#1FE4C6" stroke-width="3"/>
<path d="M21.649 20.1429C11.7894 30.0439 5.07493 42.6586 2.35467 56.3918C-0.365581 70.125 1.03056 84.3598 6.36653 97.2962C11.7025 110.233 20.7387 121.289 32.3323 129.069C43.926 136.848 57.5564 141 71.5 141C85.4436 141 99.074 136.848 110.668 129.069C122.261 121.289 131.298 110.233 136.633 97.2962C141.969 84.3598 143.366 70.125 140.645 56.3918C137.925 42.6587 131.211 30.0439 121.351 20.1429" stroke="#1FE4C6" stroke-width="2" stroke-linecap="round"/>
<path d="M50.4723 81.408V83.216H46.7443V88H44.3603V76.8H51.1763V78.608H46.7443V81.408H50.4723ZM54.3573 82.24H52.1653V82.016C52.1653 80.448 53.6693 79.36 55.7653 79.36C57.8613 79.36 59.3813 80.448 59.3813 82.016V88H57.1733V87.44C56.5973 87.856 55.8773 88.16 54.8693 88.16C53.2853 88.16 52.1333 87.328 52.1333 85.824V85.44C52.1333 83.856 53.6693 82.832 55.7653 82.768L57.1733 82.72V81.952C57.1733 81.376 56.5653 80.992 55.7653 80.992C54.9493 80.992 54.3573 81.376 54.3573 81.952V82.24ZM55.7813 86.528C56.5333 86.528 57.1413 86.272 57.1733 85.872V84.352L55.7973 84.4C54.9173 84.432 54.3253 84.816 54.3253 85.376V85.824C54.3253 86.256 54.9013 86.528 55.7813 86.528ZM61.1073 88V79.52H63.3153V88H61.1073ZM61.1073 78.416V76.464H63.3153V78.416H61.1073ZM70.6269 86.368V88H69.7789C67.7949 88 66.3869 86.96 66.3869 85.472V81.152H64.5629V79.52H66.3869V77.76H68.5949V79.52H70.6269V81.152H68.5949V85.472C68.5949 86.016 69.0909 86.368 69.7789 86.368H70.6269ZM72.0292 88V76.8H74.2372V80.08C74.8132 79.664 75.5332 79.36 76.5412 79.36C78.1412 79.36 79.2772 80.192 79.2772 81.696V88H77.0692V81.696C77.0692 81.264 76.4932 80.992 75.6612 80.992C74.8452 80.992 74.2692 81.248 74.2372 81.648V88H72.0292ZM91.1899 79.984V79.408C91.1899 78.784 90.4859 78.352 89.5259 78.352C88.6459 78.352 87.9259 78.736 87.9259 79.472C87.9259 79.936 88.2939 80.32 88.7099 80.704L92.4219 84.08C92.7739 83.6 93.1579 83.04 93.6059 82.368L95.3659 83.328C94.8539 84.16 94.3899 84.864 93.9419 85.456L95.4939 86.848L93.8139 88.16L92.5179 87.008C91.5579 87.808 90.5339 88.16 89.1419 88.16C86.4539 88.16 84.7419 86.848 84.7419 85.152V84.688C84.7419 83.68 85.4779 82.72 86.7099 81.76C86.0219 81.056 85.6219 80.288 85.6219 79.472C85.6219 77.76 87.2699 76.64 89.5899 76.64C91.9099 76.64 93.5739 77.776 93.5739 79.408V79.984H91.1899ZM89.1739 86.448C89.8139 86.448 90.3739 86.272 91.0459 85.68L88.1179 83.04C87.3979 83.6 87.0459 84.128 87.0459 84.688V85.152C87.0459 85.888 87.9739 86.448 89.1739 86.448ZM46.3838 102.696H44.7678V107H42.3838V95.8H46.3838C48.8638 95.8 50.6718 97.096 50.6718 98.936V99.56C50.6718 101.4 48.8638 102.696 46.3838 102.696ZM46.3678 97.608H44.7678V100.904H46.3678C47.4558 100.904 48.2878 100.376 48.2878 99.624V98.872C48.2878 98.12 47.4558 97.608 46.3678 97.608ZM59.41 98.52V107H57.202V106.44C56.626 106.856 55.89 107.16 54.898 107.16C53.314 107.16 52.162 106.328 52.162 104.824V98.52H54.37V104.824C54.37 105.256 54.946 105.528 55.778 105.528C56.578 105.528 57.17 105.272 57.202 104.872V98.52H59.41ZM63.4481 101.24V107H61.2401V98.52H63.4481V99.432C64.1361 98.84 65.0161 98.36 66.2001 98.36V100.168C64.6001 100.168 63.4481 100.632 63.4481 101.24ZM67.4901 110.2V98.52H69.6981V99.096C70.2581 98.664 70.9781 98.36 71.9541 98.36C73.6181 98.36 74.7381 99.352 74.7381 100.856V104.664C74.7381 106.168 73.6181 107.16 71.9541 107.16C70.9941 107.16 70.2581 106.84 69.6981 106.44V110.2H67.4901ZM71.0741 105.528C71.9861 105.528 72.5301 105.08 72.5301 104.664V100.856C72.5301 100.44 71.9861 99.992 71.0741 99.992C70.3541 99.992 69.7301 100.248 69.6981 100.648V104.84C69.6981 105.256 70.3381 105.528 71.0741 105.528ZM83.6112 104.504C83.6112 106.072 82.0913 107.16 79.9633 107.16C77.8513 107.16 76.3313 106.072 76.3313 104.504V101.016C76.3313 99.448 77.8513 98.36 79.9633 98.36C82.0913 98.36 83.6112 99.448 83.6112 101.016V104.504ZM81.4033 104.568V100.952C81.4033 100.376 80.7953 99.992 79.9633 99.992C79.1313 99.992 78.5233 100.376 78.5233 100.952V104.568C78.5233 105.144 79.1313 105.528 79.9633 105.528C80.7953 105.528 81.4033 105.144 81.4033 104.568ZM88.6302 98.36C90.6783 98.36 92.1183 99.4 92.1183 100.888V101.24H89.9263V100.776C89.9263 100.312 89.3663 99.992 88.5823 99.992C87.8463 99.992 87.2703 100.28 87.2703 100.76C87.2703 101.128 87.5743 101.368 87.9583 101.496L90.4383 102.312C91.5743 102.712 92.2783 103.592 92.2783 104.632C92.2783 106.12 90.7743 107.16 88.6783 107.16C86.5663 107.16 85.0623 106.12 85.0623 104.632V104.28H87.2543V104.744C87.2543 105.208 87.8623 105.528 88.7263 105.528C89.5423 105.528 90.1503 105.224 90.1503 104.776C90.1503 104.424 89.8463 104.168 89.3983 104.024L86.9343 103.192C85.7983 102.808 85.1583 101.944 85.1583 100.936C85.1583 99.4 86.6143 98.36 88.6302 98.36ZM93.7063 104.504V101.016C93.7063 99.448 95.2263 98.36 97.3383 98.36C99.4663 98.36 100.986 99.448 100.986 101.016V103.496H95.8983V104.568C95.8983 105.144 96.5063 105.528 97.3383 105.528C98.1863 105.528 98.7783 105.144 98.7783 104.568V104.36H100.986V104.504C100.986 106.072 99.4663 107.16 97.3383 107.16C95.2263 107.16 93.7063 106.072 93.7063 104.504ZM97.3383 99.992C96.5063 99.992 95.8983 100.376 95.8983 100.952V101.864H98.7783V100.952C98.7783 100.376 98.1863 99.992 97.3383 99.992Z" fill="#1FE4C6"/>
<path d="M90.1124 39.7958C90.3485 39.5598 90.4844 39.2325 90.4844 38.8987C90.4844 38.5645 90.3485 38.2372 90.1124 38.0011C89.8764 37.7651 89.5486 37.6292 89.2148 37.6292C88.8811 37.6292 88.5533 37.7651 88.3172 38.0011C88.0812 38.2372 87.9453 38.5645 87.9453 38.8987C87.9453 39.2325 88.0812 39.5598 88.3172 39.7958C88.5533 40.0324 88.8811 40.1683 89.2148 40.1683C89.5486 40.1678 89.8764 40.0324 90.1124 39.7958Z" fill="#1FE4C6"/>
<path d="M103.247 38.0398C102.59 37.0813 101.597 36.442 100.453 36.2402C98.8818 35.9625 97.3411 36.5883 96.3854 37.7542V27.7081C96.3854 25.3784 94.4896 23.483 92.1598 23.483C91.5647 23.483 90.9984 23.6075 90.4842 23.8306V23.2251C90.4842 20.8954 88.5883 19 86.2585 19C83.9288 19 82.0334 20.8954 82.0334 23.2251V23.8306C81.5192 23.6075 80.9523 23.483 80.3573 23.483C78.0275 23.483 76.1316 25.3784 76.1316 27.7081V30.5804C75.6179 30.3578 75.051 30.2333 74.456 30.2333C73.306 30.2333 72.2626 30.6955 71.4999 31.4433C70.7377 30.6955 69.6938 30.2333 68.5443 30.2333C67.9487 30.2333 67.3823 30.3573 66.8681 30.5804V27.7086C66.8681 25.3784 64.9727 23.483 62.643 23.483C62.0474 23.483 61.4811 23.6075 60.9668 23.8306V23.2256C60.9668 20.8954 59.0714 19 56.7417 19C54.4114 19 52.5161 20.8959 52.5161 23.2256V23.8306C52.0018 23.6075 51.4355 23.483 50.8399 23.483C48.5101 23.483 46.6148 25.3788 46.6148 27.7086V37.7542C45.6592 36.5883 44.1184 35.963 42.5468 36.2402C41.4023 36.442 40.41 37.0813 39.7529 38.0398C39.0958 38.9989 38.8578 40.1549 39.0824 41.2955L40.6302 49.1442C41.2386 52.2287 42.7368 55.0321 44.9624 57.2518L46.0926 58.3785C47.1841 59.467 47.7851 60.9145 47.7851 62.4558V65.4868C47.7851 66.188 48.3534 66.7563 49.0546 66.7563C49.7558 66.7563 50.3241 66.188 50.3241 65.4868V62.4558C50.3241 60.2351 49.4583 58.1489 47.8858 56.5808L46.7551 55.4536C44.888 53.592 43.6314 51.2404 43.1211 48.6532L41.5739 40.8045C41.4816 40.3389 41.5788 39.8668 41.8471 39.4755C42.1154 39.0842 42.5206 38.8229 42.9877 38.7406C43.8937 38.5814 44.774 39.1556 44.9932 40.0483L45.7926 43.3103C45.9046 43.7676 46.1833 44.134 46.5513 44.3597C46.5538 44.3617 46.5558 44.3631 46.5582 44.3646L46.583 44.3795C46.5905 44.384 46.5974 44.3889 46.6053 44.3934L49.6467 46.2521C51.0561 47.113 51.9314 48.6741 51.9314 50.3249C51.9314 51.0262 52.4997 51.5945 53.2009 51.5945C53.9021 51.5945 54.4704 51.0262 54.4704 50.3249C54.4704 47.7958 53.1295 45.4051 50.9708 44.0854L49.1508 42.9731C49.1518 42.9503 49.1538 42.9275 49.1538 42.9042V27.7081C49.1538 26.7783 49.9101 26.022 50.8399 26.022C51.7082 26.022 52.4243 26.6811 52.5161 27.5251V38.8988C52.5161 39.6 53.0844 40.1683 53.7856 40.1683C54.4868 40.1683 55.0551 39.6 55.0551 38.8988V23.2251C55.0551 22.2953 55.8114 21.539 56.7417 21.539C57.6715 21.539 58.4278 22.2953 58.4278 23.2251V38.8988C58.4278 39.6 58.9961 40.1683 59.6973 40.1683C60.3985 40.1683 60.9668 39.6 60.9668 38.8988V27.5251C61.0585 26.6811 61.7746 26.022 62.643 26.022C63.5728 26.022 64.329 26.7783 64.329 27.7081L64.3186 38.8988C64.3186 39.5995 64.8869 40.1683 65.5882 40.1683C66.2894 40.1683 66.8577 39.5995 66.8577 38.8988L66.8681 34.2749C66.9598 33.4309 67.6764 32.7718 68.5443 32.7718C69.4741 32.7718 70.2303 33.5286 70.2303 34.4584V47.223C70.2303 50.7599 68.8512 54.0829 66.3469 56.5803C64.7744 58.1484 63.9085 60.2351 63.9085 62.4553V65.4868C63.9085 66.1875 64.4768 66.7558 65.178 66.7558C65.8788 66.7558 66.4476 66.1875 66.4476 65.4868V62.4553C66.4476 60.9145 67.0481 59.4665 68.1396 58.3785C69.5867 56.9354 70.7178 55.2607 71.4999 53.4382C72.2824 55.2607 73.4136 56.9354 74.8606 58.3785C75.9516 59.4665 76.5527 60.9145 76.5527 62.4553V65.4868C76.5527 66.1875 77.121 66.7558 77.8222 66.7558C78.5234 66.7558 79.0917 66.1875 79.0917 65.4868V62.4553C79.0917 60.2346 78.2258 58.1484 76.6533 56.5803C74.149 54.0829 72.7694 50.7599 72.7694 47.223V34.4584C72.7694 33.5286 73.5261 32.7718 74.456 32.7718C75.3238 32.7718 76.0404 33.4314 76.1316 34.2754L76.142 38.8988C76.142 39.5995 76.7108 40.1683 77.4116 40.1683C78.1128 40.1683 78.6811 39.5995 78.6811 38.8988L78.6707 27.7081C78.6707 26.7783 79.4274 26.022 80.3573 26.022C81.2251 26.022 81.9417 26.6811 82.0334 27.5251V38.8988C82.0334 39.6 82.6017 40.1683 83.3024 40.1683C84.0037 40.1683 84.572 39.6 84.572 38.8988V23.2251C84.572 22.2953 85.3287 21.539 86.2585 21.539C87.1884 21.539 87.9451 22.2953 87.9451 23.2251V34.2576C87.9451 34.9583 88.5134 35.5266 89.2146 35.5266C89.9154 35.5266 90.4842 34.9583 90.4842 34.2576V27.5251C90.5754 26.6811 91.292 26.022 92.1598 26.022C93.0897 26.022 93.8464 26.7783 93.8464 27.7081V42.9042C93.8464 42.9275 93.8484 42.9498 93.8494 42.9731L92.0289 44.0854C89.8707 45.4046 88.5298 47.7953 88.5298 50.3249C88.5298 51.0257 89.0981 51.5945 89.7993 51.5945C90.5005 51.5945 91.0688 51.0257 91.0688 50.3249C91.0688 48.6736 91.9441 47.113 93.353 46.2521L96.442 44.3646C96.4489 44.3602 96.4549 44.3552 96.4618 44.3508C96.8233 44.1241 97.0966 43.7616 97.2072 43.3103L98.0071 40.0483C98.2258 39.1551 99.107 38.5814 100.012 38.7406C100.48 38.8229 100.884 39.0837 101.153 39.4755C101.421 39.8668 101.518 40.3389 101.426 40.8045L99.8786 48.6527C99.3683 51.2399 98.1117 53.5915 96.2446 55.4536L95.1144 56.5808C93.5419 58.1489 92.6761 60.2351 92.6761 62.4558V65.4868C92.6761 66.1875 93.2444 66.7563 93.9456 66.7563C94.6468 66.7563 95.2151 66.1875 95.2151 65.4868V62.4558C95.2151 60.9145 95.8162 59.4665 96.9071 58.3785L98.0373 57.2513C100.263 55.0316 101.762 52.2282 102.37 49.1442L103.917 41.2955C104.142 40.1549 103.904 38.9989 103.247 38.0398Z" fill="#1FE4C6"/>
</svg>
