<svg width="143" height="142" viewBox="0 0 143 142" fill="none" xmlns="http://www.w3.org/2000/svg">
<circle cx="71.4993" cy="70.5" r="63.2449" transform="rotate(-180 71.4993 70.5)" fill="white" stroke="#FFCC00" stroke-width="3"/>
<path d="M21.649 20.1429C11.7894 30.0439 5.07493 42.6586 2.35467 56.3918C-0.365581 70.125 1.03056 84.3598 6.36653 97.2962C11.7025 110.233 20.7387 121.289 32.3323 129.069C43.926 136.848 57.5564 141 71.5 141C85.4436 141 99.074 136.848 110.668 129.069C122.261 121.289 131.298 110.233 136.633 97.2962C141.969 84.3598 143.366 70.125 140.645 56.3918C137.925 42.6587 131.211 30.0439 121.351 20.1429" stroke="#FFCC00" stroke-width="2" stroke-linecap="round"/>
<path d="M35.9456 88H33.6416V76.8H35.6576L39.9136 83.664V76.8H42.2176V88H40.1856L35.9456 81.152V88ZM44.0578 85.504V82.016C44.0578 80.448 45.5778 79.36 47.6898 79.36C49.8178 79.36 51.3378 80.448 51.3378 82.016V84.496H46.2498V85.568C46.2498 86.144 46.8578 86.528 47.6898 86.528C48.5378 86.528 49.1298 86.144 49.1298 85.568V85.36H51.3378V85.504C51.3378 87.072 49.8178 88.16 47.6898 88.16C45.5778 88.16 44.0578 87.072 44.0578 85.504ZM47.6898 80.992C46.8578 80.992 46.2498 81.376 46.2498 81.952V82.864H49.1298V81.952C49.1298 81.376 48.5378 80.992 47.6898 80.992ZM58.0801 86.368V88H57.2321C55.2481 88 53.8401 86.96 53.8401 85.472V81.152H52.0161V79.52H53.8401V77.76H56.0481V79.52H58.0801V81.152H56.0481V85.472C56.0481 86.016 56.5441 86.368 57.2321 86.368H58.0801ZM66.7783 88L65.0343 82.912L63.3223 88H61.5623L58.6343 79.52H60.8903L62.5223 84.816L64.1863 79.52H65.9143L67.5623 84.816L69.2103 79.52H71.4503L68.5543 88H66.7783ZM79.4159 85.504C79.4159 87.072 77.8959 88.16 75.7679 88.16C73.6559 88.16 72.1359 87.072 72.1359 85.504V82.016C72.1359 80.448 73.6559 79.36 75.7679 79.36C77.8959 79.36 79.4159 80.448 79.4159 82.016V85.504ZM77.2079 85.568V81.952C77.2079 81.376 76.5999 80.992 75.7679 80.992C74.9359 80.992 74.3279 81.376 74.3279 81.952V85.568C74.3279 86.144 74.9359 86.528 75.7679 86.528C76.5999 86.528 77.2079 86.144 77.2079 85.568ZM83.3309 82.24V88H81.1229V79.52H83.3309V80.432C84.0189 79.84 84.8989 79.36 86.0829 79.36V81.168C84.4829 81.168 83.3309 81.632 83.3309 82.24ZM87.3729 88V76.8H89.5809V83.04L91.9489 79.52H94.3649L91.5649 83.632L94.7169 88H92.3009L89.5809 84.192V88H87.3729ZM105.799 79.984V79.408C105.799 78.784 105.095 78.352 104.135 78.352C103.255 78.352 102.535 78.736 102.535 79.472C102.535 79.936 102.903 80.32 103.319 80.704L107.031 84.08C107.383 83.6 107.767 83.04 108.215 82.368L109.975 83.328C109.463 84.16 108.999 84.864 108.551 85.456L110.103 86.848L108.423 88.16L107.127 87.008C106.167 87.808 105.143 88.16 103.751 88.16C101.063 88.16 99.3513 86.848 99.3513 85.152V84.688C99.3513 83.68 100.087 82.72 101.319 81.76C100.631 81.056 100.231 80.288 100.231 79.472C100.231 77.76 101.879 76.64 104.199 76.64C106.519 76.64 108.183 77.776 108.183 79.408V79.984H105.799ZM103.783 86.448C104.423 86.448 104.983 86.272 105.655 85.68L102.727 83.04C102.007 83.6 101.655 84.128 101.655 84.688V85.152C101.655 85.888 102.583 86.448 103.783 86.448ZM42.711 105.192V107H35.415V95.8H42.711V97.608H37.799V100.408H42.167V102.216H37.799V105.192H42.711ZM49.084 107L47.468 104.232L45.868 107H43.564L46.22 102.632L43.756 98.52H46.044L47.468 101.048L48.892 98.52H51.196L48.716 102.632L51.372 107H49.084ZM52.3495 110.2V98.52H54.5575V99.096C55.1175 98.664 55.8375 98.36 56.8135 98.36C58.4775 98.36 59.5975 99.352 59.5975 100.856V104.664C59.5975 106.168 58.4775 107.16 56.8135 107.16C55.8535 107.16 55.1175 106.84 54.5575 106.44V110.2H52.3495ZM55.9335 105.528C56.8455 105.528 57.3895 105.08 57.3895 104.664V100.856C57.3895 100.44 56.8455 99.992 55.9335 99.992C55.2135 99.992 54.5895 100.248 54.5575 100.648V104.84C54.5575 105.256 55.1975 105.528 55.9335 105.528ZM63.2401 101.24H61.0481V101.016C61.0481 99.448 62.5521 98.36 64.6481 98.36C66.7441 98.36 68.2641 99.448 68.2641 101.016V107H66.0561V106.44C65.4801 106.856 64.7601 107.16 63.7521 107.16C62.1681 107.16 61.0161 106.328 61.0161 104.824V104.44C61.0161 102.856 62.5521 101.832 64.6481 101.768L66.0561 101.72V100.952C66.0561 100.376 65.4481 99.992 64.6481 99.992C63.8321 99.992 63.2401 100.376 63.2401 100.952V101.24ZM64.6641 105.528C65.4161 105.528 66.0241 105.272 66.0561 104.872V103.352L64.6801 103.4C63.8001 103.432 63.2081 103.816 63.2081 104.376V104.824C63.2081 105.256 63.7841 105.528 64.6641 105.528ZM72.1981 100.68V107H69.9901V98.52H72.1981V99.08C72.7741 98.664 73.4941 98.36 74.5021 98.36C76.1021 98.36 77.2381 99.192 77.2381 100.696V107H75.0301V100.696C75.0301 100.264 74.4541 99.992 73.6221 99.992C72.7901 99.992 72.1981 100.264 72.1981 100.68ZM82.3802 98.36C84.4283 98.36 85.8683 99.4 85.8683 100.888V101.24H83.6763V100.776C83.6763 100.312 83.1163 99.992 82.3323 99.992C81.5963 99.992 81.0203 100.28 81.0203 100.76C81.0203 101.128 81.3243 101.368 81.7083 101.496L84.1883 102.312C85.3243 102.712 86.0283 103.592 86.0283 104.632C86.0283 106.12 84.5243 107.16 82.4283 107.16C80.3163 107.16 78.8123 106.12 78.8123 104.632V104.28H81.0043V104.744C81.0043 105.208 81.6123 105.528 82.4763 105.528C83.2923 105.528 83.9003 105.224 83.9003 104.776C83.9003 104.424 83.5963 104.168 83.1483 104.024L80.6843 103.192C79.5483 102.808 78.9083 101.944 78.9083 100.936C78.9083 99.4 80.3643 98.36 82.3802 98.36ZM87.5683 107V98.52H89.7763V107H87.5683ZM87.5683 97.416V95.464H89.7763V97.416H87.5683ZM98.7519 104.504C98.7519 106.072 97.2319 107.16 95.1039 107.16C92.9919 107.16 91.4719 106.072 91.4719 104.504V101.016C91.4719 99.448 92.9919 98.36 95.1039 98.36C97.2319 98.36 98.7519 99.448 98.7519 101.016V104.504ZM96.5439 104.568V100.952C96.5439 100.376 95.9359 99.992 95.1039 99.992C94.2719 99.992 93.6639 100.376 93.6639 100.952V104.568C93.6639 105.144 94.2719 105.528 95.1039 105.528C95.9359 105.528 96.5439 105.144 96.5439 104.568ZM102.667 100.68V107H100.459V98.52H102.667V99.08C103.243 98.664 103.963 98.36 104.971 98.36C106.571 98.36 107.707 99.192 107.707 100.696V107H105.499V100.696C105.499 100.264 104.923 99.992 104.091 99.992C103.259 99.992 102.667 100.264 102.667 100.68Z" fill="#FFCC00"/>
<path d="M89.5659 55.082C87.8745 55.0894 86.2373 55.6792 84.9299 56.7523L78.3196 50.1422C79.4746 48.7624 80.1795 47.0621 80.3395 45.2699H86.6732C86.8716 46.3284 87.4581 47.2747 88.3177 47.9234C89.1774 48.5721 90.2483 48.8765 91.3206 48.7769C92.393 48.6772 93.3895 48.1808 94.1149 47.3849C94.8404 46.5889 95.2425 45.5508 95.2425 44.4739C95.2425 43.3969 94.8404 42.3588 94.1149 41.5628C93.3895 40.7669 92.393 40.2705 91.3206 40.1709C90.2483 40.0713 89.1774 40.3756 88.3177 41.0243C87.4581 41.673 86.8716 42.6193 86.6732 43.6778H80.3395C80.1795 41.8856 79.4745 40.1853 78.3195 38.8055L84.2224 32.9014C85.6082 34.052 87.3507 34.6854 89.1519 34.6932C90.7038 34.6931 92.2209 34.2328 93.5112 33.3706C94.8016 32.5083 95.8072 31.2828 96.4011 29.849C96.9949 28.4152 97.1502 26.8375 96.8474 25.3154C96.5445 23.7933 95.7971 22.3952 94.6997 21.2979C93.6022 20.2006 92.204 19.4534 90.6819 19.1507C89.1598 18.848 87.5821 19.0035 86.1483 19.5974C84.7145 20.1914 83.4891 21.1972 82.6269 22.4876C81.7648 23.778 81.3046 25.2951 81.3047 26.847C81.3126 28.648 81.9461 30.3902 83.0966 31.7758L77.1935 37.6795C75.8137 36.5246 74.1135 35.8198 72.3213 35.6598V29.3253C73.3796 29.1269 74.3257 28.5405 74.9743 27.681C75.6229 26.8216 75.9271 25.7509 75.8275 24.6788C75.7279 23.6067 75.2316 22.6104 74.4358 21.8851C73.64 21.1598 72.602 20.7578 71.5253 20.7578C70.4485 20.7578 69.4106 21.1598 68.6147 21.8851C67.8189 22.6104 67.3226 23.6067 67.223 24.6788C67.1234 25.7509 67.4276 26.8216 68.0762 27.681C68.7248 28.5405 69.6709 29.1269 70.7292 29.3253V35.6598C68.9315 35.8206 67.2265 36.5296 65.8448 37.6909L62.1441 34.0047C63.3105 32.755 63.9555 31.107 63.9476 29.3976C63.9396 27.6882 63.2792 26.0463 62.1012 24.8075C60.9233 23.5687 59.3168 22.8264 57.6099 22.7324C55.903 22.6383 54.2246 23.1996 52.9177 24.3015C51.6108 25.4034 50.7739 26.9627 50.5782 28.6609C50.3824 30.3591 50.8426 32.0679 51.8645 33.4383C52.8865 34.8086 54.3932 35.737 56.0767 36.0337C57.7602 36.3304 59.4935 35.9731 60.9224 35.0348L64.7202 38.8176C63.5713 40.1954 62.8704 41.891 62.711 43.6778H56.3773C56.1789 42.6193 55.5924 41.673 54.7328 41.0243C53.8731 40.3756 52.8022 40.0713 51.7299 40.1709C50.6575 40.2705 49.661 40.7669 48.9356 41.5628C48.2101 42.3588 47.808 43.3969 47.808 44.4739C47.808 45.5508 48.2101 46.5889 48.9356 47.3849C49.661 48.1808 50.6575 48.6772 51.7299 48.7769C52.8022 48.8765 53.8731 48.5721 54.7328 47.9234C55.5924 47.2747 56.1789 46.3284 56.3773 45.2699H62.711C62.8711 47.0623 63.5762 48.7627 64.7315 50.1425L62.6535 52.22C60.6686 50.5263 58.1051 49.6666 55.5004 49.8211C52.8956 49.9757 50.4518 51.1324 48.6811 53.049C46.9104 54.9655 45.9503 57.493 46.002 60.1018C46.0537 62.7105 47.1132 65.198 48.9584 67.0429C50.8036 68.8878 53.2914 69.9468 55.9002 69.9981C58.509 70.0493 61.0364 69.0887 62.9527 67.3177C64.8689 65.5467 66.0253 63.1028 66.1794 60.498C66.3334 57.8933 65.4733 55.33 63.7792 53.3455L65.8571 51.2681C67.2369 52.423 68.937 53.1278 70.7292 53.288V57.8594C69.6709 58.0578 68.7248 58.6442 68.0762 59.5037C67.4276 60.3631 67.1234 61.4338 67.223 62.5059C67.3226 63.578 67.8189 64.5743 68.6147 65.2996C69.4106 66.0249 70.4485 66.4269 71.5253 66.4269C72.602 66.4269 73.64 66.0249 74.4358 65.2996C75.2316 64.5743 75.7279 63.578 75.8275 62.5059C75.9271 61.4338 75.6229 60.3631 74.9743 59.5037C74.3257 58.6442 73.3796 58.0578 72.3213 57.8594V53.288C74.1136 53.1279 75.8139 52.423 77.1937 51.268L83.8039 57.8781C82.7308 59.1859 82.1409 60.8234 82.1336 62.5151C82.1336 63.9852 82.5696 65.4224 83.3864 66.6448C84.2032 67.8672 85.3642 68.8199 86.7225 69.3824C88.0808 69.945 89.5755 70.0921 91.0174 69.8052C92.4593 69.5183 93.7838 68.8103 94.8233 67.7706C95.8628 66.731 96.5706 65.4064 96.8573 63.9645C97.144 62.5225 96.9966 61.0279 96.4338 59.6697C95.8711 58.3116 94.9181 57.1508 93.6956 56.3341C92.4731 55.5175 91.0358 55.0818 89.5656 55.082H89.5659ZM66.9512 42.0777C66.7188 43.6667 66.7188 45.2811 66.9512 46.8701C65.2823 46.2475 64.2628 45.3371 64.2628 44.4739C64.2628 43.6107 65.2823 42.7002 66.9512 42.0777ZM71.5253 37.2116C72.3886 37.2116 73.2994 38.2316 73.9222 39.9008C72.3327 39.6682 70.7178 39.6682 69.1283 39.9008C69.7511 38.2316 70.6619 37.2116 71.5253 37.2116ZM77.9678 41.1928C77.2586 40.7997 76.5051 40.4924 75.7233 40.2773C75.5083 39.4954 75.2009 38.7418 74.8078 38.0325C76.1671 38.7277 77.2728 39.8334 77.9678 41.1928ZM76.0993 46.8701C76.3318 45.2811 76.3318 43.6667 76.0993 42.0777C77.7682 42.7002 78.7877 43.6107 78.7877 44.4739C78.7877 45.3371 77.7682 46.2475 76.0993 46.8701ZM71.5253 41.3185C72.4925 41.3156 73.4577 41.4075 74.4071 41.5929C74.773 43.4961 74.773 45.4516 74.4071 47.3548C72.5033 47.7208 70.5472 47.7208 68.6434 47.3548C68.2775 45.4516 68.2775 43.4961 68.6434 41.5929C69.5928 41.4075 70.558 41.3156 71.5253 41.3185ZM67.3272 48.6705C67.5422 49.4525 67.8495 50.2061 68.2427 50.9153C66.8836 50.2201 65.778 49.1143 65.0831 47.7551C65.7922 48.1481 66.5455 48.4554 67.3272 48.6705ZM69.1283 49.0469C70.7178 49.2795 72.3327 49.2795 73.9222 49.0469C73.2994 50.7161 72.3886 51.7362 71.5253 51.7362C70.6619 51.7362 69.7511 50.7161 69.1283 49.0469ZM75.7233 48.6705C76.5051 48.4554 77.2586 48.1481 77.9678 47.7551C77.2729 49.1144 76.1673 50.2202 74.8081 50.9154C75.2011 50.2061 75.5084 49.4525 75.7233 48.6705ZM90.9151 41.7444C91.4549 41.7446 91.9826 41.9048 92.4314 42.2048C92.8801 42.5048 93.2299 42.9311 93.4363 43.4298C93.6428 43.9286 93.6968 44.4774 93.5914 45.0068C93.486 45.5362 93.226 46.0225 92.8442 46.4041C92.4625 46.7858 91.9761 47.0456 91.4467 47.1509C90.9172 47.2562 90.3685 47.2021 89.8697 46.9955C89.371 46.7889 88.9448 46.439 88.6449 45.9902C88.345 45.5413 88.185 45.0137 88.185 44.4739C88.1856 43.75 88.4734 43.0561 88.9853 42.5443C89.4972 42.0326 90.1913 41.7449 90.9151 41.7444ZM85.9199 32.1744V31.8834C85.9175 31.4574 85.9994 31.0351 86.1608 30.6409C86.3221 30.2466 86.5599 29.8882 86.8603 29.5861C87.1607 29.284 87.5178 29.0443 87.9111 28.8808C88.3045 28.7172 88.7263 28.633 89.1523 28.633C89.5783 28.633 90.0001 28.7172 90.3935 28.8808C90.7868 29.0443 91.144 29.284 91.4444 29.5861C91.7448 29.8882 91.9825 30.2466 92.1439 30.6409C92.3052 31.0351 92.3871 31.4574 92.3848 31.8834V32.1744C91.4154 32.7803 90.2954 33.1015 89.1523 33.1015C88.0092 33.1015 86.8892 32.7803 85.9199 32.1744ZM87.6827 25.5878C87.6827 25.297 87.769 25.0127 87.9306 24.7709C88.0921 24.5292 88.3218 24.3407 88.5905 24.2295C88.8591 24.1182 89.1548 24.0892 89.44 24.146C89.7252 24.2028 89.9871 24.3428 90.1927 24.5485C90.3982 24.7542 90.5382 25.0162 90.5948 25.3014C90.6515 25.5867 90.6222 25.8823 90.5108 26.1509C90.3995 26.4195 90.2109 26.649 89.969 26.8105C89.7272 26.9719 89.4429 27.058 89.1521 27.0578C88.7624 27.0573 88.3888 26.9023 88.1134 26.6267C87.8379 26.3511 87.683 25.9774 87.6827 25.5878ZM89.1521 20.5926C90.8104 20.5945 92.4003 21.2541 93.5729 22.4267C94.7455 23.5993 95.4051 25.1891 95.407 26.8474C95.4009 28.339 94.8569 29.7784 93.8751 30.9013C93.7274 30.2107 93.4297 29.5609 93.0032 28.9979C92.5767 28.435 92.0317 27.9726 91.4068 27.6434C91.8092 27.2057 92.0754 26.6602 92.1729 26.0737C92.2704 25.4872 92.195 24.8849 91.956 24.3405C91.7169 23.7961 91.3245 23.3331 90.8267 23.008C90.3288 22.6829 89.7471 22.5097 89.1525 22.5097C88.5579 22.5097 87.9762 22.6829 87.4783 23.008C86.9805 23.3331 86.5881 23.7961 86.349 24.3405C86.11 24.8849 86.0346 25.4872 86.1321 26.0737C86.2297 26.6602 86.4959 27.2057 86.8982 27.6434C86.2731 27.9725 85.728 28.4348 85.3013 28.9978C84.8746 29.5608 84.5768 30.2106 84.429 30.9013C83.4471 29.7784 82.9031 28.339 82.897 26.8473C82.899 25.189 83.5586 23.5992 84.7312 22.4266C85.9039 21.254 87.4937 20.5945 89.1521 20.5926ZM68.7966 25.0844C68.7967 24.5447 68.9569 24.0172 69.2568 23.5686C69.5567 23.12 69.9829 22.7703 70.4815 22.5639C70.9801 22.3575 71.5288 22.3036 72.058 22.4089C72.5873 22.5143 73.0734 22.7742 73.455 23.1559C73.8365 23.5375 74.0963 24.0237 74.2016 24.553C74.3068 25.0823 74.2527 25.6309 74.0462 26.1294C73.8396 26.628 73.4899 27.0541 73.0412 27.3539C72.5924 27.6537 72.0649 27.8137 71.5253 27.8137C70.8017 27.8128 70.108 27.525 69.5965 27.0133C69.0849 26.5016 68.7972 25.8079 68.7966 25.0844ZM68.2424 38.0324C67.8492 38.7417 67.5419 39.4953 67.327 40.2772C66.5451 40.4923 65.7917 40.7996 65.0825 41.1927C65.7775 39.8334 66.8832 38.7276 68.2424 38.0324ZM52.0981 29.3903C52.0981 28.7136 52.2313 28.0436 52.4903 27.4185C52.7492 26.7934 53.1288 26.2253 53.6072 25.7469C54.0857 25.2684 54.6537 24.8889 55.2788 24.63C55.904 24.371 56.574 24.2378 57.2507 24.2378C57.9273 24.2378 58.5973 24.371 59.2225 24.63C59.8476 24.8889 60.4156 25.2684 60.8941 25.7469C61.3725 26.2253 61.7521 26.7934 62.011 27.4185C62.27 28.0436 62.4032 28.7136 62.4032 29.3903C62.3984 30.5412 62.0046 31.6567 61.2858 32.5556C60.9978 31.4889 60.2998 30.5794 59.3439 30.0252C59.739 29.5474 59.9565 28.9475 59.9591 28.3275C59.9591 27.6092 59.6738 26.9203 59.1658 26.4124C58.6579 25.9045 57.969 25.6191 57.2507 25.6191C56.5323 25.6191 55.8434 25.9045 55.3355 26.4124C54.8275 26.9203 54.5422 27.6092 54.5422 28.3275C54.5448 28.9474 54.7622 29.5473 55.1572 30.025C54.2013 30.5789 53.5031 31.488 53.2145 32.5544C52.4963 31.6557 52.1029 30.5407 52.0981 29.3903ZM56.1343 28.3275C56.1343 28.1067 56.1998 27.8909 56.3224 27.7073C56.4451 27.5237 56.6194 27.3807 56.8234 27.2962C57.0274 27.2117 57.2519 27.1896 57.4684 27.2326C57.685 27.2757 57.8839 27.382 58.04 27.5382C58.1962 27.6943 58.3025 27.8932 58.3456 28.1097C58.3886 28.3263 58.3665 28.5508 58.282 28.7547C58.1975 28.9587 58.0545 29.1331 57.8709 29.2557C57.6873 29.3784 57.4714 29.4439 57.2507 29.4439C56.9546 29.4436 56.6708 29.326 56.4615 29.1167C56.2522 28.9073 56.1345 28.6235 56.1343 28.3275ZM54.6463 33.8114V33.6394C54.6463 32.9489 54.9206 32.2867 55.4089 31.7985C55.8972 31.3103 56.5594 31.036 57.2499 31.036C57.9403 31.036 58.6026 31.3103 59.0908 31.7985C59.5791 32.2867 59.8534 32.9489 59.8534 33.6394V33.8122C59.0692 34.2906 58.1683 34.5437 57.2497 34.5435C56.3311 34.5434 55.4304 34.2901 54.6463 33.8114ZM52.1354 47.2033C51.5956 47.2032 51.0679 47.043 50.6192 46.743C50.1704 46.443 49.8206 46.0166 49.6142 45.5179C49.4077 45.0191 49.3537 44.4704 49.4591 43.941C49.5645 43.4115 49.8245 42.9253 50.2063 42.5436C50.588 42.162 51.0744 41.9021 51.6038 41.7968C52.1333 41.6916 52.6821 41.7457 53.1808 41.9523C53.6795 42.1589 54.1057 42.5087 54.4056 42.9575C54.7055 43.4064 54.8656 43.9341 54.8656 44.4739C54.8649 45.1977 54.5771 45.8917 54.0652 46.4034C53.5533 46.9152 52.8592 47.2029 52.1354 47.2033ZM51.6191 67.0317V66.5012C51.6247 65.31 52.1018 64.1696 52.9461 63.3293C53.7903 62.4891 54.933 62.0173 56.1242 62.0173C57.3153 62.0173 58.458 62.4891 59.3023 63.3293C60.1465 64.1696 60.6236 65.31 60.6292 66.5012V67.0317C59.2856 67.8959 57.7217 68.3554 56.1242 68.3554C54.5266 68.3554 52.9628 67.8959 51.6191 67.0317ZM53.939 58.2189C53.939 57.7867 54.0671 57.3642 54.3073 57.0048C54.5474 56.6454 54.8888 56.3653 55.2881 56.2C55.6875 56.0346 56.1269 55.9914 56.5508 56.0757C56.9748 56.1601 57.3642 56.3683 57.6697 56.674C57.9753 56.9797 58.1834 57.3692 58.2676 57.7931C58.3518 58.2171 58.3085 58.6565 58.1429 59.0557C57.9774 59.455 57.6972 59.7963 57.3377 60.0363C56.9783 60.2763 56.5557 60.4043 56.1234 60.4042C55.5441 60.4034 54.9888 60.1729 54.5793 59.7632C54.1697 59.3535 53.9395 58.7981 53.939 58.2188V58.2189ZM62.153 65.8259C62.0384 64.7884 61.6585 63.7979 61.0501 62.9498C60.4416 62.1017 59.625 61.4246 58.6789 60.9836C59.2393 60.4691 59.6313 59.7973 59.8035 59.0563C59.9757 58.3153 59.9202 57.5395 59.6441 56.8306C59.368 56.1217 58.8843 55.5126 58.2563 55.0833C57.6282 54.6539 56.8852 54.4241 56.1244 54.4241C55.3636 54.4241 54.6205 54.6539 53.9925 55.0833C53.3645 55.5126 52.8807 56.1217 52.6047 56.8306C52.3286 57.5395 52.273 58.3153 52.4452 59.0563C52.6175 59.7973 53.0095 60.4691 53.5699 60.9836C52.6238 61.4246 51.8072 62.1018 51.1987 62.95C50.5902 63.7981 50.2104 64.7886 50.0957 65.8261C48.9187 64.6365 48.12 63.1253 47.8001 61.4827C47.4802 59.8401 47.6535 58.1396 48.298 56.5952C48.9426 55.0509 50.0296 53.7317 51.4223 52.8039C52.815 51.876 54.451 51.3809 56.1245 51.3809C57.798 51.3809 59.4341 51.876 60.8268 52.8039C62.2195 53.7317 63.3065 55.0509 63.9511 56.5952C64.5956 58.1396 64.7688 59.8401 64.4489 61.4827C64.1291 63.1253 63.3303 64.6365 62.1534 65.8261L62.153 65.8259ZM74.2539 62.1004C74.2538 62.6401 74.0936 63.1675 73.7936 63.6161C73.4937 64.0648 73.0675 64.4143 72.5689 64.6207C72.0702 64.8271 71.5216 64.881 70.9924 64.7756C70.4631 64.6703 69.977 64.4103 69.5955 64.0287C69.2139 63.647 68.9542 63.1608 68.8489 62.6315C68.7437 62.1023 68.7978 61.5537 69.0044 61.0551C69.2109 60.5566 69.5607 60.1305 70.0094 59.8307C70.4581 59.5309 70.9856 59.3709 71.5253 59.3709C72.2488 59.3717 72.9425 59.6596 73.4541 60.1713C73.9657 60.683 74.2533 61.3768 74.2539 62.1003V62.1004ZM86.5695 67.5014V67.2552C86.574 66.4634 86.8918 65.7056 87.4533 65.1473C88.0148 64.589 88.7745 64.2756 89.5664 64.2756C90.3582 64.2756 91.1179 64.589 91.6794 65.1473C92.241 65.7056 92.5587 66.4634 92.5633 67.2552V67.5012C91.6633 68.0594 90.6254 68.3551 89.5664 68.3551C88.5074 68.3551 87.4694 68.0594 86.5695 67.5012V67.5014ZM88.2284 61.3293C88.2284 61.0648 88.3068 60.8063 88.4537 60.5864C88.6006 60.3665 88.8094 60.195 89.0537 60.0938C89.298 59.9925 89.5669 59.966 89.8263 60.0176C90.0856 60.0691 90.3239 60.1964 90.511 60.3834C90.698 60.5704 90.8254 60.8086 90.877 61.068C90.9287 61.3273 90.9023 61.5962 90.8011 61.8405C90.7 62.0849 90.5286 62.2937 90.3087 62.4407C90.0889 62.5877 89.8304 62.6662 89.5659 62.6662C89.2114 62.6658 88.8715 62.5248 88.6208 62.2742C88.3701 62.0235 88.229 61.6837 88.2284 61.3292V61.3293ZM94.0317 66.2342C93.8849 65.6046 93.6066 65.0133 93.215 64.4989C92.8235 63.9845 92.3275 63.5588 91.7597 63.2497C92.1335 62.8272 92.3773 62.3057 92.4619 61.748C92.5465 61.1903 92.4682 60.62 92.2365 60.1056C92.0048 59.5913 91.6295 59.1548 91.1557 58.8486C90.6819 58.5424 90.1297 58.3795 89.5656 58.3795C89.0015 58.3795 88.4494 58.5424 87.9756 58.8486C87.5018 59.1548 87.1265 59.5913 86.8947 60.1056C86.663 60.62 86.5848 61.1903 86.6693 61.748C86.7539 62.3057 86.9977 62.8272 87.3715 63.2497C86.8039 63.5589 86.3082 63.9846 85.9169 64.4989C85.5255 65.0132 85.2474 65.6045 85.1007 66.2339C84.2184 65.1948 83.7313 63.8775 83.7253 62.5144C83.7158 61.7413 83.8598 60.974 84.149 60.257C84.4382 59.54 84.8669 58.8876 85.4102 58.3375C85.9535 57.7875 86.6006 57.3507 87.314 57.0527C88.0274 56.7546 88.7928 56.6011 89.566 56.6011C90.3391 56.6011 91.1046 56.7546 91.8179 57.0527C92.5313 57.3507 93.1784 57.7875 93.7217 58.3375C94.265 58.8876 94.6937 59.54 94.9829 60.257C95.2722 60.974 95.4162 61.7413 95.4066 62.5144C95.4009 63.8776 94.914 65.1949 94.0317 66.2341V66.2342Z" fill="#FFCC00"/>
</svg>
