<svg width="143" height="142" viewBox="0 0 143 142" fill="none" xmlns="http://www.w3.org/2000/svg">
<circle cx="71.5008" cy="71.5" r="63.2449" fill="#180033" stroke="#FFCC00" stroke-width="3"/>
<path d="M121.351 121.857C131.211 111.956 137.925 99.3414 140.645 85.6082C143.366 71.875 141.969 57.6402 136.633 44.7038C131.298 31.7675 122.261 20.7106 110.668 12.9314C99.074 5.15214 85.4436 1 71.5 1C57.5564 1 43.926 5.15214 32.3323 12.9314C20.7387 20.7106 11.7025 31.7675 6.36652 44.7038C1.03055 57.6402 -0.365588 71.875 2.35467 85.6082C5.07492 99.3413 11.7894 111.956 21.649 121.857" stroke="#FFCC00" stroke-width="2" stroke-linecap="round"/>
<path d="M35.9456 89H33.6416V77.8H35.6576L39.9136 84.664V77.8H42.2176V89H40.1856L35.9456 82.152V89ZM44.0578 86.504V83.016C44.0578 81.448 45.5778 80.36 47.6898 80.36C49.8178 80.36 51.3378 81.448 51.3378 83.016V85.496H46.2498V86.568C46.2498 87.144 46.8578 87.528 47.6898 87.528C48.5378 87.528 49.1298 87.144 49.1298 86.568V86.36H51.3378V86.504C51.3378 88.072 49.8178 89.16 47.6898 89.16C45.5778 89.16 44.0578 88.072 44.0578 86.504ZM47.6898 81.992C46.8578 81.992 46.2498 82.376 46.2498 82.952V83.864H49.1298V82.952C49.1298 82.376 48.5378 81.992 47.6898 81.992ZM58.0801 87.368V89H57.2321C55.2481 89 53.8401 87.96 53.8401 86.472V82.152H52.0161V80.52H53.8401V78.76H56.0481V80.52H58.0801V82.152H56.0481V86.472C56.0481 87.016 56.5441 87.368 57.2321 87.368H58.0801ZM66.7783 89L65.0343 83.912L63.3223 89H61.5623L58.6343 80.52H60.8903L62.5223 85.816L64.1863 80.52H65.9143L67.5623 85.816L69.2103 80.52H71.4503L68.5543 89H66.7783ZM79.4159 86.504C79.4159 88.072 77.8959 89.16 75.7679 89.16C73.6559 89.16 72.1359 88.072 72.1359 86.504V83.016C72.1359 81.448 73.6559 80.36 75.7679 80.36C77.8959 80.36 79.4159 81.448 79.4159 83.016V86.504ZM77.2079 86.568V82.952C77.2079 82.376 76.5999 81.992 75.7679 81.992C74.9359 81.992 74.3279 82.376 74.3279 82.952V86.568C74.3279 87.144 74.9359 87.528 75.7679 87.528C76.5999 87.528 77.2079 87.144 77.2079 86.568ZM83.3309 83.24V89H81.1229V80.52H83.3309V81.432C84.0189 80.84 84.8989 80.36 86.0829 80.36V82.168C84.4829 82.168 83.3309 82.632 83.3309 83.24ZM87.3729 89V77.8H89.5809V84.04L91.9489 80.52H94.3649L91.5649 84.632L94.7169 89H92.3009L89.5809 85.192V89H87.3729ZM105.799 80.984V80.408C105.799 79.784 105.095 79.352 104.135 79.352C103.255 79.352 102.535 79.736 102.535 80.472C102.535 80.936 102.903 81.32 103.319 81.704L107.031 85.08C107.383 84.6 107.767 84.04 108.215 83.368L109.975 84.328C109.463 85.16 108.999 85.864 108.551 86.456L110.103 87.848L108.423 89.16L107.127 88.008C106.167 88.808 105.143 89.16 103.751 89.16C101.063 89.16 99.3513 87.848 99.3513 86.152V85.688C99.3513 84.68 100.087 83.72 101.319 82.76C100.631 82.056 100.231 81.288 100.231 80.472C100.231 78.76 101.879 77.64 104.199 77.64C106.519 77.64 108.183 78.776 108.183 80.408V80.984H105.799ZM103.783 87.448C104.423 87.448 104.983 87.272 105.655 86.68L102.727 84.04C102.007 84.6 101.655 85.128 101.655 85.688V86.152C101.655 86.888 102.583 87.448 103.783 87.448ZM42.711 106.192V108H35.415V96.8H42.711V98.608H37.799V101.408H42.167V103.216H37.799V106.192H42.711ZM49.084 108L47.468 105.232L45.868 108H43.564L46.22 103.632L43.756 99.52H46.044L47.468 102.048L48.892 99.52H51.196L48.716 103.632L51.372 108H49.084ZM52.3495 111.2V99.52H54.5575V100.096C55.1175 99.664 55.8375 99.36 56.8135 99.36C58.4775 99.36 59.5975 100.352 59.5975 101.856V105.664C59.5975 107.168 58.4775 108.16 56.8135 108.16C55.8535 108.16 55.1175 107.84 54.5575 107.44V111.2H52.3495ZM55.9335 106.528C56.8455 106.528 57.3895 106.08 57.3895 105.664V101.856C57.3895 101.44 56.8455 100.992 55.9335 100.992C55.2135 100.992 54.5895 101.248 54.5575 101.648V105.84C54.5575 106.256 55.1975 106.528 55.9335 106.528ZM63.2401 102.24H61.0481V102.016C61.0481 100.448 62.5521 99.36 64.6481 99.36C66.7441 99.36 68.2641 100.448 68.2641 102.016V108H66.0561V107.44C65.4801 107.856 64.7601 108.16 63.7521 108.16C62.1681 108.16 61.0161 107.328 61.0161 105.824V105.44C61.0161 103.856 62.5521 102.832 64.6481 102.768L66.0561 102.72V101.952C66.0561 101.376 65.4481 100.992 64.6481 100.992C63.8321 100.992 63.2401 101.376 63.2401 101.952V102.24ZM64.6641 106.528C65.4161 106.528 66.0241 106.272 66.0561 105.872V104.352L64.6801 104.4C63.8001 104.432 63.2081 104.816 63.2081 105.376V105.824C63.2081 106.256 63.7841 106.528 64.6641 106.528ZM72.1981 101.68V108H69.9901V99.52H72.1981V100.08C72.7741 99.664 73.4941 99.36 74.5021 99.36C76.1021 99.36 77.2381 100.192 77.2381 101.696V108H75.0301V101.696C75.0301 101.264 74.4541 100.992 73.6221 100.992C72.7901 100.992 72.1981 101.264 72.1981 101.68ZM82.3802 99.36C84.4283 99.36 85.8683 100.4 85.8683 101.888V102.24H83.6763V101.776C83.6763 101.312 83.1163 100.992 82.3323 100.992C81.5963 100.992 81.0203 101.28 81.0203 101.76C81.0203 102.128 81.3243 102.368 81.7083 102.496L84.1883 103.312C85.3243 103.712 86.0283 104.592 86.0283 105.632C86.0283 107.12 84.5243 108.16 82.4283 108.16C80.3163 108.16 78.8123 107.12 78.8123 105.632V105.28H81.0043V105.744C81.0043 106.208 81.6123 106.528 82.4763 106.528C83.2923 106.528 83.9003 106.224 83.9003 105.776C83.9003 105.424 83.5963 105.168 83.1483 105.024L80.6843 104.192C79.5483 103.808 78.9083 102.944 78.9083 101.936C78.9083 100.4 80.3643 99.36 82.3802 99.36ZM87.5683 108V99.52H89.7763V108H87.5683ZM87.5683 98.416V96.464H89.7763V98.416H87.5683ZM98.7519 105.504C98.7519 107.072 97.2319 108.16 95.1039 108.16C92.9919 108.16 91.4719 107.072 91.4719 105.504V102.016C91.4719 100.448 92.9919 99.36 95.1039 99.36C97.2319 99.36 98.7519 100.448 98.7519 102.016V105.504ZM96.5439 105.568V101.952C96.5439 101.376 95.9359 100.992 95.1039 100.992C94.2719 100.992 93.6639 101.376 93.6639 101.952V105.568C93.6639 106.144 94.2719 106.528 95.1039 106.528C95.9359 106.528 96.5439 106.144 96.5439 105.568ZM102.667 101.68V108H100.459V99.52H102.667V100.08C103.243 99.664 103.963 99.36 104.971 99.36C106.571 99.36 107.707 100.192 107.707 101.696V108H105.499V101.696C105.499 101.264 104.923 100.992 104.091 100.992C103.259 100.992 102.667 101.264 102.667 101.68Z" fill="white"/>
<path d="M89.5659 56.082C87.8745 56.0894 86.2373 56.6792 84.9299 57.7523L78.3196 51.1422C79.4746 49.7624 80.1795 48.0621 80.3395 46.2699H86.6732C86.8716 47.3284 87.4581 48.2747 88.3177 48.9234C89.1774 49.5721 90.2483 49.8765 91.3206 49.7769C92.393 49.6772 93.3895 49.1808 94.1149 48.3849C94.8404 47.5889 95.2425 46.5508 95.2425 45.4739C95.2425 44.3969 94.8404 43.3588 94.1149 42.5628C93.3895 41.7669 92.393 41.2705 91.3206 41.1709C90.2483 41.0713 89.1774 41.3756 88.3177 42.0243C87.4581 42.673 86.8716 43.6193 86.6732 44.6778H80.3395C80.1795 42.8856 79.4745 41.1853 78.3195 39.8055L84.2224 33.9014C85.6082 35.052 87.3507 35.6854 89.1519 35.6932C90.7038 35.6931 92.2209 35.2328 93.5112 34.3706C94.8016 33.5083 95.8072 32.2828 96.4011 30.849C96.9949 29.4152 97.1502 27.8375 96.8474 26.3154C96.5445 24.7933 95.7971 23.3952 94.6997 22.2979C93.6022 21.2006 92.204 20.4534 90.6819 20.1507C89.1598 19.848 87.5821 20.0035 86.1483 20.5974C84.7145 21.1914 83.4891 22.1972 82.6269 23.4876C81.7648 24.778 81.3046 26.2951 81.3047 27.847C81.3126 29.648 81.9461 31.3902 83.0966 32.7758L77.1935 38.6795C75.8137 37.5246 74.1135 36.8198 72.3213 36.6598V30.3253C73.3796 30.1269 74.3257 29.5405 74.9743 28.681C75.6229 27.8216 75.9271 26.7509 75.8275 25.6788C75.7279 24.6067 75.2316 23.6104 74.4358 22.8851C73.64 22.1598 72.602 21.7578 71.5253 21.7578C70.4485 21.7578 69.4106 22.1598 68.6147 22.8851C67.8189 23.6104 67.3226 24.6067 67.223 25.6788C67.1234 26.7509 67.4276 27.8216 68.0762 28.681C68.7248 29.5405 69.6709 30.1269 70.7292 30.3253V36.6598C68.9315 36.8206 67.2265 37.5296 65.8448 38.6909L62.1441 35.0047C63.3105 33.755 63.9555 32.107 63.9476 30.3976C63.9396 28.6882 63.2792 27.0463 62.1012 25.8075C60.9233 24.5687 59.3168 23.8264 57.6099 23.7324C55.903 23.6383 54.2246 24.1996 52.9177 25.3015C51.6108 26.4034 50.7739 27.9627 50.5782 29.6609C50.3824 31.3591 50.8426 33.0679 51.8645 34.4383C52.8865 35.8086 54.3932 36.737 56.0767 37.0337C57.7602 37.3304 59.4935 36.9731 60.9224 36.0348L64.7202 39.8176C63.5713 41.1954 62.8704 42.891 62.711 44.6778H56.3773C56.1789 43.6193 55.5924 42.673 54.7328 42.0243C53.8731 41.3756 52.8022 41.0713 51.7299 41.1709C50.6575 41.2705 49.661 41.7669 48.9356 42.5628C48.2101 43.3588 47.808 44.3969 47.808 45.4739C47.808 46.5508 48.2101 47.5889 48.9356 48.3849C49.661 49.1808 50.6575 49.6772 51.7299 49.7769C52.8022 49.8765 53.8731 49.5721 54.7328 48.9234C55.5924 48.2747 56.1789 47.3284 56.3773 46.2699H62.711C62.8711 48.0623 63.5762 49.7627 64.7315 51.1425L62.6535 53.22C60.6686 51.5263 58.1051 50.6666 55.5004 50.8211C52.8956 50.9757 50.4518 52.1324 48.6811 54.049C46.9104 55.9655 45.9503 58.493 46.002 61.1018C46.0537 63.7105 47.1132 66.198 48.9584 68.0429C50.8036 69.8878 53.2914 70.9468 55.9002 70.9981C58.509 71.0493 61.0364 70.0887 62.9527 68.3177C64.8689 66.5467 66.0253 64.1028 66.1794 61.498C66.3334 58.8933 65.4733 56.33 63.7792 54.3455L65.8571 52.2681C67.2369 53.423 68.937 54.1278 70.7292 54.288V58.8594C69.6709 59.0578 68.7248 59.6442 68.0762 60.5037C67.4276 61.3631 67.1234 62.4338 67.223 63.5059C67.3226 64.578 67.8189 65.5743 68.6147 66.2996C69.4106 67.0249 70.4485 67.4269 71.5253 67.4269C72.602 67.4269 73.64 67.0249 74.4358 66.2996C75.2316 65.5743 75.7279 64.578 75.8275 63.5059C75.9271 62.4338 75.6229 61.3631 74.9743 60.5037C74.3257 59.6442 73.3796 59.0578 72.3213 58.8594V54.288C74.1136 54.1279 75.8139 53.423 77.1937 52.268L83.8039 58.8781C82.7308 60.1859 82.1409 61.8234 82.1336 63.5151C82.1336 64.9852 82.5696 66.4224 83.3864 67.6448C84.2032 68.8672 85.3642 69.8199 86.7225 70.3824C88.0808 70.945 89.5755 71.0921 91.0174 70.8052C92.4593 70.5183 93.7838 69.8103 94.8233 68.7706C95.8628 67.731 96.5706 66.4064 96.8573 64.9645C97.144 63.5225 96.9966 62.0279 96.4338 60.6697C95.8711 59.3116 94.9181 58.1508 93.6956 57.3341C92.4731 56.5175 91.0358 56.0818 89.5656 56.082H89.5659ZM66.9512 43.0777C66.7188 44.6667 66.7188 46.2811 66.9512 47.8701C65.2823 47.2475 64.2628 46.3371 64.2628 45.4739C64.2628 44.6107 65.2823 43.7002 66.9512 43.0777ZM71.5253 38.2116C72.3886 38.2116 73.2994 39.2316 73.9222 40.9008C72.3327 40.6682 70.7178 40.6682 69.1283 40.9008C69.7511 39.2316 70.6619 38.2116 71.5253 38.2116ZM77.9678 42.1928C77.2586 41.7997 76.5051 41.4924 75.7233 41.2773C75.5083 40.4954 75.2009 39.7418 74.8078 39.0325C76.1671 39.7277 77.2728 40.8334 77.9678 42.1928ZM76.0993 47.8701C76.3318 46.2811 76.3318 44.6667 76.0993 43.0777C77.7682 43.7002 78.7877 44.6107 78.7877 45.4739C78.7877 46.3371 77.7682 47.2475 76.0993 47.8701ZM71.5253 42.3185C72.4925 42.3156 73.4577 42.4075 74.4071 42.5929C74.773 44.4961 74.773 46.4516 74.4071 48.3548C72.5033 48.7208 70.5472 48.7208 68.6434 48.3548C68.2775 46.4516 68.2775 44.4961 68.6434 42.5929C69.5928 42.4075 70.558 42.3156 71.5253 42.3185ZM67.3272 49.6705C67.5422 50.4525 67.8495 51.2061 68.2427 51.9153C66.8836 51.2201 65.778 50.1143 65.0831 48.7551C65.7922 49.1481 66.5455 49.4554 67.3272 49.6705ZM69.1283 50.0469C70.7178 50.2795 72.3327 50.2795 73.9222 50.0469C73.2994 51.7161 72.3886 52.7362 71.5253 52.7362C70.6619 52.7362 69.7511 51.7161 69.1283 50.0469ZM75.7233 49.6705C76.5051 49.4554 77.2586 49.1481 77.9678 48.7551C77.2729 50.1144 76.1673 51.2202 74.8081 51.9154C75.2011 51.2061 75.5084 50.4525 75.7233 49.6705ZM90.9151 42.7444C91.4549 42.7446 91.9826 42.9048 92.4314 43.2048C92.8801 43.5048 93.2299 43.9311 93.4363 44.4298C93.6428 44.9286 93.6968 45.4774 93.5914 46.0068C93.486 46.5362 93.226 47.0225 92.8442 47.4041C92.4625 47.7858 91.9761 48.0456 91.4467 48.1509C90.9172 48.2562 90.3685 48.2021 89.8697 47.9955C89.371 47.7889 88.9448 47.439 88.6449 46.9902C88.345 46.5413 88.185 46.0137 88.185 45.4739C88.1856 44.75 88.4734 44.0561 88.9853 43.5443C89.4972 43.0326 90.1913 42.7449 90.9151 42.7444ZM85.9199 33.1744V32.8834C85.9175 32.4574 85.9994 32.0351 86.1608 31.6409C86.3221 31.2466 86.5599 30.8882 86.8603 30.5861C87.1607 30.284 87.5178 30.0443 87.9111 29.8808C88.3045 29.7172 88.7263 29.633 89.1523 29.633C89.5783 29.633 90.0001 29.7172 90.3935 29.8808C90.7868 30.0443 91.144 30.284 91.4444 30.5861C91.7448 30.8882 91.9825 31.2466 92.1439 31.6409C92.3052 32.0351 92.3871 32.4574 92.3848 32.8834V33.1744C91.4154 33.7803 90.2954 34.1015 89.1523 34.1015C88.0092 34.1015 86.8892 33.7803 85.9199 33.1744ZM87.6827 26.5878C87.6827 26.297 87.769 26.0127 87.9306 25.7709C88.0921 25.5292 88.3218 25.3407 88.5905 25.2295C88.8591 25.1182 89.1548 25.0892 89.44 25.146C89.7252 25.2028 89.9871 25.3428 90.1927 25.5485C90.3982 25.7542 90.5382 26.0162 90.5948 26.3014C90.6515 26.5867 90.6222 26.8823 90.5108 27.1509C90.3995 27.4195 90.2109 27.649 89.969 27.8105C89.7272 27.9719 89.4429 28.058 89.1521 28.0578C88.7624 28.0573 88.3888 27.9023 88.1134 27.6267C87.8379 27.3511 87.683 26.9774 87.6827 26.5878ZM89.1521 21.5926C90.8104 21.5945 92.4003 22.2541 93.5729 23.4267C94.7455 24.5993 95.4051 26.1891 95.407 27.8474C95.4009 29.339 94.8569 30.7784 93.8751 31.9013C93.7274 31.2107 93.4297 30.5609 93.0032 29.9979C92.5767 29.435 92.0317 28.9726 91.4068 28.6434C91.8092 28.2057 92.0754 27.6602 92.1729 27.0737C92.2704 26.4872 92.195 25.8849 91.956 25.3405C91.7169 24.7961 91.3245 24.3331 90.8267 24.008C90.3288 23.6829 89.7471 23.5097 89.1525 23.5097C88.5579 23.5097 87.9762 23.6829 87.4783 24.008C86.9805 24.3331 86.5881 24.7961 86.349 25.3405C86.11 25.8849 86.0346 26.4872 86.1321 27.0737C86.2297 27.6602 86.4959 28.2057 86.8982 28.6434C86.2731 28.9725 85.728 29.4348 85.3013 29.9978C84.8746 30.5608 84.5768 31.2106 84.429 31.9013C83.4471 30.7784 82.9031 29.339 82.897 27.8473C82.899 26.189 83.5586 24.5992 84.7312 23.4266C85.9039 22.254 87.4937 21.5945 89.1521 21.5926ZM68.7966 26.0844C68.7967 25.5447 68.9569 25.0172 69.2568 24.5686C69.5567 24.12 69.9829 23.7703 70.4815 23.5639C70.9801 23.3575 71.5288 23.3036 72.058 23.4089C72.5873 23.5143 73.0734 23.7742 73.455 24.1559C73.8365 24.5375 74.0963 25.0237 74.2016 25.553C74.3068 26.0823 74.2527 26.6309 74.0462 27.1294C73.8396 27.628 73.4899 28.0541 73.0412 28.3539C72.5924 28.6537 72.0649 28.8137 71.5253 28.8137C70.8017 28.8128 70.108 28.525 69.5965 28.0133C69.0849 27.5016 68.7972 26.8079 68.7966 26.0844ZM68.2424 39.0324C67.8492 39.7417 67.5419 40.4953 67.327 41.2772C66.5451 41.4923 65.7917 41.7996 65.0825 42.1927C65.7775 40.8334 66.8832 39.7276 68.2424 39.0324ZM52.0981 30.3903C52.0981 29.7136 52.2313 29.0436 52.4903 28.4185C52.7492 27.7934 53.1288 27.2253 53.6072 26.7469C54.0857 26.2684 54.6537 25.8889 55.2788 25.63C55.904 25.371 56.574 25.2378 57.2507 25.2378C57.9273 25.2378 58.5973 25.371 59.2225 25.63C59.8476 25.8889 60.4156 26.2684 60.8941 26.7469C61.3725 27.2253 61.7521 27.7934 62.011 28.4185C62.27 29.0436 62.4032 29.7136 62.4032 30.3903C62.3984 31.5412 62.0046 32.6567 61.2858 33.5556C60.9978 32.4889 60.2998 31.5794 59.3439 31.0252C59.739 30.5474 59.9565 29.9475 59.9591 29.3275C59.9591 28.6092 59.6738 27.9203 59.1658 27.4124C58.6579 26.9045 57.969 26.6191 57.2507 26.6191C56.5323 26.6191 55.8434 26.9045 55.3355 27.4124C54.8275 27.9203 54.5422 28.6092 54.5422 29.3275C54.5448 29.9474 54.7622 30.5473 55.1572 31.025C54.2013 31.5789 53.5031 32.488 53.2145 33.5544C52.4963 32.6557 52.1029 31.5407 52.0981 30.3903ZM56.1343 29.3275C56.1343 29.1067 56.1998 28.8909 56.3224 28.7073C56.4451 28.5237 56.6194 28.3807 56.8234 28.2962C57.0274 28.2117 57.2519 28.1896 57.4684 28.2326C57.685 28.2757 57.8839 28.382 58.04 28.5382C58.1962 28.6943 58.3025 28.8932 58.3456 29.1097C58.3886 29.3263 58.3665 29.5508 58.282 29.7547C58.1975 29.9587 58.0545 30.1331 57.8709 30.2557C57.6873 30.3784 57.4714 30.4439 57.2507 30.4439C56.9546 30.4436 56.6708 30.326 56.4615 30.1167C56.2522 29.9073 56.1345 29.6235 56.1343 29.3275ZM54.6463 34.8114V34.6394C54.6463 33.9489 54.9206 33.2867 55.4089 32.7985C55.8972 32.3103 56.5594 32.036 57.2499 32.036C57.9403 32.036 58.6026 32.3103 59.0908 32.7985C59.5791 33.2867 59.8534 33.9489 59.8534 34.6394V34.8122C59.0692 35.2906 58.1683 35.5437 57.2497 35.5435C56.3311 35.5434 55.4304 35.2901 54.6463 34.8114ZM52.1354 48.2033C51.5956 48.2032 51.0679 48.043 50.6192 47.743C50.1704 47.443 49.8206 47.0166 49.6142 46.5179C49.4077 46.0191 49.3537 45.4704 49.4591 44.941C49.5645 44.4115 49.8245 43.9253 50.2063 43.5436C50.588 43.162 51.0744 42.9021 51.6038 42.7968C52.1333 42.6916 52.6821 42.7457 53.1808 42.9523C53.6795 43.1589 54.1057 43.5087 54.4056 43.9575C54.7055 44.4064 54.8656 44.9341 54.8656 45.4739C54.8649 46.1977 54.5771 46.8917 54.0652 47.4034C53.5533 47.9152 52.8592 48.2029 52.1354 48.2033ZM51.6191 68.0317V67.5012C51.6247 66.31 52.1018 65.1696 52.9461 64.3293C53.7903 63.4891 54.933 63.0173 56.1242 63.0173C57.3153 63.0173 58.458 63.4891 59.3023 64.3293C60.1465 65.1696 60.6236 66.31 60.6292 67.5012V68.0317C59.2856 68.8959 57.7217 69.3554 56.1242 69.3554C54.5266 69.3554 52.9628 68.8959 51.6191 68.0317ZM53.939 59.2189C53.939 58.7867 54.0671 58.3642 54.3073 58.0048C54.5474 57.6454 54.8888 57.3653 55.2881 57.2C55.6875 57.0346 56.1269 56.9914 56.5508 57.0757C56.9748 57.1601 57.3642 57.3683 57.6697 57.674C57.9753 57.9797 58.1834 58.3692 58.2676 58.7931C58.3518 59.2171 58.3085 59.6565 58.1429 60.0557C57.9774 60.455 57.6972 60.7963 57.3377 61.0363C56.9783 61.2763 56.5557 61.4043 56.1234 61.4042C55.5441 61.4034 54.9888 61.1729 54.5793 60.7632C54.1697 60.3535 53.9395 59.7981 53.939 59.2188V59.2189ZM62.153 66.8259C62.0384 65.7884 61.6585 64.7979 61.0501 63.9498C60.4416 63.1017 59.625 62.4246 58.6789 61.9836C59.2393 61.4691 59.6313 60.7973 59.8035 60.0563C59.9757 59.3153 59.9202 58.5395 59.6441 57.8306C59.368 57.1217 58.8843 56.5126 58.2563 56.0833C57.6282 55.6539 56.8852 55.4241 56.1244 55.4241C55.3636 55.4241 54.6205 55.6539 53.9925 56.0833C53.3645 56.5126 52.8807 57.1217 52.6047 57.8306C52.3286 58.5395 52.273 59.3153 52.4452 60.0563C52.6175 60.7973 53.0095 61.4691 53.5699 61.9836C52.6238 62.4246 51.8072 63.1018 51.1987 63.95C50.5902 64.7981 50.2104 65.7886 50.0957 66.8261C48.9187 65.6365 48.12 64.1253 47.8001 62.4827C47.4802 60.8401 47.6535 59.1396 48.298 57.5952C48.9426 56.0509 50.0296 54.7317 51.4223 53.8039C52.815 52.876 54.451 52.3809 56.1245 52.3809C57.798 52.3809 59.4341 52.876 60.8268 53.8039C62.2195 54.7317 63.3065 56.0509 63.9511 57.5952C64.5956 59.1396 64.7688 60.8401 64.4489 62.4827C64.1291 64.1253 63.3303 65.6365 62.1534 66.8261L62.153 66.8259ZM74.2539 63.1004C74.2538 63.6401 74.0936 64.1675 73.7936 64.6161C73.4937 65.0648 73.0675 65.4143 72.5689 65.6207C72.0702 65.8271 71.5216 65.881 70.9924 65.7756C70.4631 65.6703 69.977 65.4103 69.5955 65.0287C69.2139 64.647 68.9542 64.1608 68.8489 63.6315C68.7437 63.1023 68.7978 62.5537 69.0044 62.0551C69.2109 61.5566 69.5607 61.1305 70.0094 60.8307C70.4581 60.5309 70.9856 60.3709 71.5253 60.3709C72.2488 60.3717 72.9425 60.6596 73.4541 61.1713C73.9657 61.683 74.2533 62.3768 74.2539 63.1003V63.1004ZM86.5695 68.5014V68.2552C86.574 67.4634 86.8918 66.7056 87.4533 66.1473C88.0148 65.589 88.7745 65.2756 89.5664 65.2756C90.3582 65.2756 91.1179 65.589 91.6794 66.1473C92.241 66.7056 92.5587 67.4634 92.5633 68.2552V68.5012C91.6633 69.0594 90.6254 69.3551 89.5664 69.3551C88.5074 69.3551 87.4694 69.0594 86.5695 68.5012V68.5014ZM88.2284 62.3293C88.2284 62.0648 88.3068 61.8063 88.4537 61.5864C88.6006 61.3665 88.8094 61.195 89.0537 61.0938C89.298 60.9925 89.5669 60.966 89.8263 61.0176C90.0856 61.0691 90.3239 61.1964 90.511 61.3834C90.698 61.5704 90.8254 61.8086 90.877 62.068C90.9287 62.3273 90.9023 62.5962 90.8011 62.8405C90.7 63.0849 90.5286 63.2937 90.3087 63.4407C90.0889 63.5877 89.8304 63.6662 89.5659 63.6662C89.2114 63.6658 88.8715 63.5248 88.6208 63.2742C88.3701 63.0235 88.229 62.6837 88.2284 62.3292V62.3293ZM94.0317 67.2342C93.8849 66.6046 93.6066 66.0133 93.215 65.4989C92.8235 64.9845 92.3275 64.5588 91.7597 64.2497C92.1335 63.8272 92.3773 63.3057 92.4619 62.748C92.5465 62.1903 92.4682 61.62 92.2365 61.1056C92.0048 60.5913 91.6295 60.1548 91.1557 59.8486C90.6819 59.5424 90.1297 59.3795 89.5656 59.3795C89.0015 59.3795 88.4494 59.5424 87.9756 59.8486C87.5018 60.1548 87.1265 60.5913 86.8947 61.1056C86.663 61.62 86.5848 62.1903 86.6693 62.748C86.7539 63.3057 86.9977 63.8272 87.3715 64.2497C86.8039 64.5589 86.3082 64.9846 85.9169 65.4989C85.5255 66.0132 85.2474 66.6045 85.1007 67.2339C84.2184 66.1948 83.7313 64.8775 83.7253 63.5144C83.7158 62.7413 83.8598 61.974 84.149 61.257C84.4382 60.54 84.8669 59.8876 85.4102 59.3375C85.9535 58.7875 86.6006 58.3507 87.314 58.0527C88.0274 57.7546 88.7928 57.6011 89.566 57.6011C90.3391 57.6011 91.1046 57.7546 91.8179 58.0527C92.5313 58.3507 93.1784 58.7875 93.7217 59.3375C94.265 59.8876 94.6937 60.54 94.9829 61.257C95.2722 61.974 95.4162 62.7413 95.4066 63.5144C95.4009 64.8776 94.914 66.1949 94.0317 67.2341V67.2342Z" fill="white"/>
</svg>
