<svg width="104" height="104" viewBox="0 0 104 104" fill="none" xmlns="http://www.w3.org/2000/svg">
<path d="M52 0C52.5523 0 53 0.447715 53 1V103C53 103.552 52.5523 104 52 104V0Z" fill="#7C23DD"/>
<circle cx="52" cy="52" r="51" fill="#180033" stroke="#0F63C3" stroke-width="2"/>
<path d="M20.217 57H17.753L21.737 45.8H24.185L28.201 57H25.737L25.161 55.208H20.793L20.217 57ZM22.969 48.44L21.369 53.4H24.569L22.969 48.44ZM33.9658 51.4V50.952C33.9658 50.376 33.3738 49.992 32.5258 49.992C31.6938 49.992 31.0858 50.376 31.0858 50.952V54.568C31.0858 55.144 31.6938 55.528 32.5258 55.528C33.3738 55.528 33.9658 55.144 33.9658 54.568V54.12H36.1737V54.504C36.1737 56.072 34.6538 57.16 32.5258 57.16C30.4138 57.16 28.8938 56.072 28.8938 54.504V51.016C28.8938 49.448 30.4138 48.36 32.5258 48.36C34.6538 48.36 36.1737 49.448 36.1737 51.016V51.4H33.9658ZM39.7401 51.24H37.5481V51.016C37.5481 49.448 39.0521 48.36 41.1481 48.36C43.2441 48.36 44.7641 49.448 44.7641 51.016V57H42.5561V56.44C41.9801 56.856 41.2601 57.16 40.2521 57.16C38.6681 57.16 37.5161 56.328 37.5161 54.824V54.44C37.5161 52.856 39.0521 51.832 41.1481 51.768L42.5561 51.72V50.952C42.5561 50.376 41.9481 49.992 41.1481 49.992C40.3321 49.992 39.7401 50.376 39.7401 50.952V51.24ZM41.1641 55.528C41.9161 55.528 42.5241 55.272 42.5561 54.872V53.352L41.1801 53.4C40.3001 53.432 39.7081 53.816 39.7081 54.376V54.824C39.7081 55.256 40.2841 55.528 41.1641 55.528ZM53.6261 57H51.4181V56.44C50.8421 56.856 50.1381 57.16 49.1621 57.16C47.4981 57.16 46.3781 56.168 46.3781 54.664V50.856C46.3781 49.352 47.4981 48.36 49.1621 48.36C50.1061 48.36 50.8581 48.68 51.4181 49.096V45.8H53.6261V57ZM50.0101 55.528C50.7781 55.528 51.3861 55.192 51.4181 54.872V50.68C51.4181 50.344 50.8101 49.992 50.0101 49.992C49.1461 49.992 48.5701 50.44 48.5701 50.856V54.664C48.5701 55.08 49.1461 55.528 50.0101 55.528ZM55.3313 54.504V51.016C55.3313 49.448 56.8513 48.36 58.9633 48.36C61.0913 48.36 62.6112 49.448 62.6112 51.016V53.496H57.5233V54.568C57.5233 55.144 58.1313 55.528 58.9633 55.528C59.8113 55.528 60.4033 55.144 60.4033 54.568V54.36H62.6112V54.504C62.6112 56.072 61.0913 57.16 58.9633 57.16C56.8513 57.16 55.3313 56.072 55.3313 54.504ZM58.9633 49.992C58.1313 49.992 57.5233 50.376 57.5233 50.952V51.864H60.4033V50.952C60.4033 50.376 59.8113 49.992 58.9633 49.992ZM69.1533 57V50.696C69.1533 50.264 68.5933 49.992 67.7933 49.992C66.9773 49.992 66.4013 50.264 66.4013 50.68V57H64.1933V48.52H66.4013V49.08C66.9613 48.664 67.6813 48.36 68.6733 48.36C69.6973 48.36 70.5293 48.712 70.9773 49.384C71.5693 48.824 72.4013 48.36 73.6333 48.36C75.2173 48.36 76.3373 49.192 76.3373 50.696V57H74.1293V50.696C74.1293 50.264 73.5693 49.992 72.7693 49.992C71.9533 49.992 71.3612 50.264 71.3612 50.68V57H69.1533ZM85.2876 48.52L81.0636 60.2H79.0476L80.1196 57.128L77.0796 48.52H79.2396L81.1756 54.12L83.1276 48.52H85.2876Z" fill="white"/>
</svg>
