<svg width="104" height="104" viewBox="0 0 104 104" fill="none" xmlns="http://www.w3.org/2000/svg">
<path d="M52 0C52.5523 0 53 0.447715 53 1V103C53 103.552 52.5523 104 52 104V0Z" fill="#7C23DD"/>
<circle cx="52" cy="52" r="51" fill="#180033" stroke="#FFCC00" stroke-width="2"/>
<path d="M9.21188 52.696H7.59588V57H5.21188V45.8H9.21188C11.6919 45.8 13.4999 47.096 13.4999 48.936V49.56C13.4999 51.4 11.6919 52.696 9.21188 52.696ZM9.19588 47.608H7.59588V50.904H9.19588C10.2839 50.904 11.1159 50.376 11.1159 49.624V48.872C11.1159 48.12 10.2839 47.608 9.19588 47.608ZM16.7401 51.24H14.5481V51.016C14.5481 49.448 16.0521 48.36 18.1481 48.36C20.2441 48.36 21.7641 49.448 21.7641 51.016V57H19.5561V56.44C18.9801 56.856 18.2601 57.16 17.2521 57.16C15.6681 57.16 14.5161 56.328 14.5161 54.824V54.44C14.5161 52.856 16.0521 51.832 18.1481 51.768L19.5561 51.72V50.952C19.5561 50.376 18.9481 49.992 18.1481 49.992C17.3321 49.992 16.7401 50.376 16.7401 50.952V51.24ZM18.1641 55.528C18.9161 55.528 19.5241 55.272 19.5561 54.872V53.352L18.1801 53.4C17.3001 53.432 16.7081 53.816 16.7081 54.376V54.824C16.7081 55.256 17.2841 55.528 18.1641 55.528ZM25.6981 51.24V57H23.4901V48.52H25.6981V49.432C26.3861 48.84 27.2661 48.36 28.4501 48.36V50.168C26.8501 50.168 25.6981 50.632 25.6981 51.24ZM35.2441 55.368V57H34.3961C32.4121 57 31.0041 55.96 31.0041 54.472V50.152H29.1801V48.52H31.0041V46.76H33.2121V48.52H35.2441V50.152H33.2121V54.472C33.2121 55.016 33.7081 55.368 34.3961 55.368H35.2441ZM38.8544 50.68V57H36.6464V48.52H38.8544V49.08C39.4304 48.664 40.1504 48.36 41.1584 48.36C42.7584 48.36 43.8944 49.192 43.8944 50.696V57H41.6864V50.696C41.6864 50.264 41.1104 49.992 40.2784 49.992C39.4464 49.992 38.8544 50.264 38.8544 50.68ZM45.6125 54.504V51.016C45.6125 49.448 47.1325 48.36 49.2445 48.36C51.3725 48.36 52.8925 49.448 52.8925 51.016V53.496H47.8045V54.568C47.8045 55.144 48.4125 55.528 49.2445 55.528C50.0925 55.528 50.6845 55.144 50.6845 54.568V54.36H52.8925V54.504C52.8925 56.072 51.3725 57.16 49.2445 57.16C47.1325 57.16 45.6125 56.072 45.6125 54.504ZM49.2445 49.992C48.4125 49.992 47.8045 50.376 47.8045 50.952V51.864H50.6845V50.952C50.6845 50.376 50.0925 49.992 49.2445 49.992ZM56.6825 51.24V57H54.4745V48.52H56.6825V49.432C57.3705 48.84 58.2505 48.36 59.4345 48.36V50.168C57.8345 50.168 56.6825 50.632 56.6825 51.24ZM64.0052 48.36C66.0533 48.36 67.4933 49.4 67.4933 50.888V51.24H65.3013V50.776C65.3013 50.312 64.7413 49.992 63.9573 49.992C63.2213 49.992 62.6453 50.28 62.6453 50.76C62.6453 51.128 62.9493 51.368 63.3333 51.496L65.8133 52.312C66.9493 52.712 67.6533 53.592 67.6533 54.632C67.6533 56.12 66.1493 57.16 64.0533 57.16C61.9413 57.16 60.4373 56.12 60.4373 54.632V54.28H62.6293V54.744C62.6293 55.208 63.2373 55.528 64.1013 55.528C64.9173 55.528 65.5253 55.224 65.5253 54.776C65.5253 54.424 65.2213 54.168 64.7733 54.024L62.3093 53.192C61.1733 52.808 60.5333 51.944 60.5333 50.936C60.5333 49.4 61.9893 48.36 64.0052 48.36ZM69.1933 57V45.8H71.4013V49.08C71.9773 48.664 72.6973 48.36 73.7053 48.36C75.3053 48.36 76.4413 49.192 76.4413 50.696V57H74.2333V50.696C74.2333 50.264 73.6573 49.992 72.8253 49.992C72.0093 49.992 71.4333 50.248 71.4013 50.648V57H69.1933ZM78.2714 57V48.52H80.4794V57H78.2714ZM78.2714 47.416V45.464H80.4794V47.416H78.2714ZM82.287 60.2V48.52H84.495V49.096C85.055 48.664 85.775 48.36 86.751 48.36C88.415 48.36 89.535 49.352 89.535 50.856V54.664C89.535 56.168 88.415 57.16 86.751 57.16C85.791 57.16 85.055 56.84 84.495 56.44V60.2H82.287ZM85.871 55.528C86.783 55.528 87.327 55.08 87.327 54.664V50.856C87.327 50.44 86.783 49.992 85.871 49.992C85.151 49.992 84.527 50.248 84.495 50.648V54.84C84.495 55.256 85.135 55.528 85.871 55.528ZM94.5521 48.36C96.6001 48.36 98.0401 49.4 98.0401 50.888V51.24H95.8481V50.776C95.8481 50.312 95.2881 49.992 94.5041 49.992C93.7681 49.992 93.1921 50.28 93.1921 50.76C93.1921 51.128 93.4961 51.368 93.8801 51.496L96.3601 52.312C97.4961 52.712 98.2001 53.592 98.2001 54.632C98.2001 56.12 96.6961 57.16 94.6001 57.16C92.4881 57.16 90.9841 56.12 90.9841 54.632V54.28H93.1761V54.744C93.1761 55.208 93.7841 55.528 94.6481 55.528C95.4641 55.528 96.0721 55.224 96.0721 54.776C96.0721 54.424 95.7681 54.168 95.3201 54.024L92.8561 53.192C91.7201 52.808 91.0801 51.944 91.0801 50.936C91.0801 49.4 92.5361 48.36 94.5521 48.36Z" fill="white"/>
</svg>
