<svg width="104" height="104" viewBox="0 0 104 104" fill="none" xmlns="http://www.w3.org/2000/svg">
<path d="M52 0C52.5523 0 53 0.447715 53 1V103C53 103.552 52.5523 104 52 104V0Z" fill="#7C23DD"/>
<circle cx="52" cy="52" r="51" fill="#180033" stroke="#7C23DD" stroke-width="2"/>
<path d="M18.4358 57H15.9718L19.9557 45.8H22.4038L26.4198 57H23.9558L23.3798 55.208H19.0118L18.4358 57ZM21.1878 48.44L19.5878 53.4H22.7878L21.1878 48.44ZM27.5869 57V45.8H29.9709V57H27.5869ZM37.4983 57H35.0343L39.0182 45.8H41.4663L45.4823 57H43.0183L42.4423 55.208H38.0743L37.4983 57ZM40.2503 48.44L38.6503 53.4H41.8503L40.2503 48.44ZM49.759 58.728C50.655 58.728 51.215 58.312 51.215 57.736V56.44C50.639 56.856 49.935 57.16 48.959 57.16C47.295 57.16 46.175 56.168 46.175 54.664V50.856C46.175 49.352 47.295 48.36 48.959 48.36C49.903 48.36 50.655 48.68 51.215 49.096V48.52H53.423V57.672C53.423 59.24 51.919 60.36 49.775 60.36C47.839 60.36 46.175 59.416 46.175 57.992V57.88H48.367V57.992C48.367 58.408 48.991 58.728 49.759 58.728ZM49.839 55.528C50.575 55.528 51.215 55.256 51.215 54.84V50.648C51.183 50.248 50.559 49.992 49.839 49.992C48.911 49.992 48.367 50.44 48.367 50.856V54.664C48.367 55.08 48.911 55.528 49.839 55.528ZM55.1281 54.504V51.016C55.1281 49.448 56.6481 48.36 58.7601 48.36C60.8881 48.36 62.4081 49.448 62.4081 51.016V53.496H57.3201V54.568C57.3201 55.144 57.9281 55.528 58.7601 55.528C59.6081 55.528 60.2001 55.144 60.2001 54.568V54.36H62.4081V54.504C62.4081 56.072 60.8881 57.16 58.7601 57.16C56.6481 57.16 55.1281 56.072 55.1281 54.504ZM58.7601 49.992C57.9281 49.992 57.3201 50.376 57.3201 50.952V51.864H60.2001V50.952C60.2001 50.376 59.6081 49.992 58.7601 49.992ZM66.1981 50.68V57H63.9901V48.52H66.1981V49.08C66.7741 48.664 67.4941 48.36 68.5021 48.36C70.1021 48.36 71.2381 49.192 71.2381 50.696V57H69.0301V50.696C69.0301 50.264 68.4541 49.992 67.6221 49.992C66.7901 49.992 66.1981 50.264 66.1981 50.68ZM78.1973 55.368V57H77.3493C75.3653 57 73.9573 55.96 73.9573 54.472V50.152H72.1333V48.52H73.9573V46.76H76.1653V48.52H78.1973V50.152H76.1653V54.472C76.1653 55.016 76.6613 55.368 77.3493 55.368H78.1973ZM82.8802 48.36C84.9283 48.36 86.3683 49.4 86.3683 50.888V51.24H84.1763V50.776C84.1763 50.312 83.6163 49.992 82.8323 49.992C82.0963 49.992 81.5203 50.28 81.5203 50.76C81.5203 51.128 81.8243 51.368 82.2083 51.496L84.6883 52.312C85.8243 52.712 86.5283 53.592 86.5283 54.632C86.5283 56.12 85.0243 57.16 82.9283 57.16C80.8163 57.16 79.3123 56.12 79.3123 54.632V54.28H81.5043V54.744C81.5043 55.208 82.1123 55.528 82.9763 55.528C83.7923 55.528 84.4003 55.224 84.4003 54.776C84.4003 54.424 84.0963 54.168 83.6483 54.024L81.1843 53.192C80.0483 52.808 79.4083 51.944 79.4083 50.936C79.4083 49.4 80.8643 48.36 82.8802 48.36Z" fill="white"/>
</svg>
