<svg width="104" height="104" viewBox="0 0 104 104" fill="none" xmlns="http://www.w3.org/2000/svg">
<circle cx="52" cy="52" r="42" fill="#180033" stroke="#7C23DD" stroke-width="2"/>
<path d="M22.5688 55H20.4128L23.8988 45.2H26.0408L29.5548 55H27.3988L26.8948 53.432H23.0728L22.5688 55ZM24.9768 47.51L23.5768 51.85H26.3768L24.9768 47.51ZM30.576 55V45.2H32.662V55H30.576ZM39.2485 55H37.0925L40.5785 45.2H42.7205L46.2345 55H44.0785L43.5745 53.432H39.7525L39.2485 55ZM41.6565 47.51L40.2565 51.85H43.0565L41.6565 47.51ZM49.9766 56.512C50.7606 56.512 51.2506 56.148 51.2506 55.644V54.51C50.7466 54.874 50.1306 55.14 49.2766 55.14C47.8206 55.14 46.8406 54.272 46.8406 52.956V49.624C46.8406 48.308 47.8206 47.44 49.2766 47.44C50.1026 47.44 50.7606 47.72 51.2506 48.084V47.58H53.1826V55.588C53.1826 56.96 51.8666 57.94 49.9906 57.94C48.2966 57.94 46.8406 57.114 46.8406 55.868V55.77H48.7586V55.868C48.7586 56.232 49.3046 56.512 49.9766 56.512ZM50.0466 53.712C50.6906 53.712 51.2506 53.474 51.2506 53.11V49.442C51.2226 49.092 50.6766 48.868 50.0466 48.868C49.2346 48.868 48.7586 49.26 48.7586 49.624V52.956C48.7586 53.32 49.2346 53.712 50.0466 53.712ZM54.6746 52.816V49.764C54.6746 48.392 56.0046 47.44 57.8526 47.44C59.7146 47.44 61.0446 48.392 61.0446 49.764V51.934H56.5926V52.872C56.5926 53.376 57.1246 53.712 57.8526 53.712C58.5946 53.712 59.1126 53.376 59.1126 52.872V52.69H61.0446V52.816C61.0446 54.188 59.7146 55.14 57.8526 55.14C56.0046 55.14 54.6746 54.188 54.6746 52.816ZM57.8526 48.868C57.1246 48.868 56.5926 49.204 56.5926 49.708V50.506H59.1126V49.708C59.1126 49.204 58.5946 48.868 57.8526 48.868ZM64.3609 49.47V55H62.4289V47.58H64.3609V48.07C64.8649 47.706 65.4949 47.44 66.3769 47.44C67.7769 47.44 68.7709 48.168 68.7709 49.484V55H66.8389V49.484C66.8389 49.106 66.3349 48.868 65.6069 48.868C64.8789 48.868 64.3609 49.106 64.3609 49.47ZM74.8601 53.572V55H74.1181C72.3821 55 71.1501 54.09 71.1501 52.788V49.008H69.5541V47.58H71.1501V46.04H73.0821V47.58H74.8601V49.008H73.0821V52.788C73.0821 53.264 73.5161 53.572 74.1181 53.572H74.8601ZM78.9577 47.44C80.7497 47.44 82.0097 48.35 82.0097 49.652V49.96H80.0917V49.554C80.0917 49.148 79.6017 48.868 78.9157 48.868C78.2717 48.868 77.7677 49.12 77.7677 49.54C77.7677 49.862 78.0337 50.072 78.3697 50.184L80.5397 50.898C81.5337 51.248 82.1497 52.018 82.1497 52.928C82.1497 54.23 80.8337 55.14 78.9997 55.14C77.1517 55.14 75.8357 54.23 75.8357 52.928V52.62H77.7537V53.026C77.7537 53.432 78.2857 53.712 79.0417 53.712C79.7557 53.712 80.2877 53.446 80.2877 53.054C80.2877 52.746 80.0217 52.522 79.6297 52.396L77.4737 51.668C76.4797 51.332 75.9197 50.576 75.9197 49.694C75.9197 48.35 77.1937 47.44 78.9577 47.44Z" fill="white"/>
</svg>
