<svg width="104" height="104" viewBox="0 0 104 104" fill="none" xmlns="http://www.w3.org/2000/svg">
<path d="M52 0C52.5523 0 53 0.447715 53 1V103C53 103.552 52.5523 104 52 104V0Z" fill="#7C23DD"/>
<circle cx="52" cy="52" r="51" fill="#180033" stroke="#FFCC00" stroke-width="2"/>
<path d="M16.3161 50.408V52.216H12.5881V57H10.2041V45.8H17.0201V47.608H12.5881V50.408H16.3161ZM20.6591 51.24V57H18.4511V48.52H20.6591V49.432C21.3471 48.84 22.2271 48.36 23.4111 48.36V50.168C21.8111 50.168 20.6591 50.632 20.6591 51.24ZM26.5448 51.24H24.3528V51.016C24.3528 49.448 25.8568 48.36 27.9528 48.36C30.0488 48.36 31.5688 49.448 31.5688 51.016V57H29.3608V56.44C28.7848 56.856 28.0648 57.16 27.0568 57.16C25.4728 57.16 24.3208 56.328 24.3208 54.824V54.44C24.3208 52.856 25.8568 51.832 27.9528 51.768L29.3608 51.72V50.952C29.3608 50.376 28.7528 49.992 27.9528 49.992C27.1368 49.992 26.5448 50.376 26.5448 50.952V51.24ZM27.9688 55.528C28.7208 55.528 29.3288 55.272 29.3608 54.872V53.352L27.9848 53.4C27.1048 53.432 26.5128 53.816 26.5128 54.376V54.824C26.5128 55.256 27.0888 55.528 27.9688 55.528ZM35.5028 50.68V57H33.2948V48.52H35.5028V49.08C36.0788 48.664 36.7988 48.36 37.8068 48.36C39.4068 48.36 40.5428 49.192 40.5428 50.696V57H38.3348V50.696C38.3348 50.264 37.7588 49.992 36.9268 49.992C36.0948 49.992 35.5028 50.264 35.5028 50.68ZM47.3329 51.4V50.952C47.3329 50.376 46.7409 49.992 45.8929 49.992C45.0609 49.992 44.4529 50.376 44.4529 50.952V54.568C44.4529 55.144 45.0609 55.528 45.8929 55.528C46.7409 55.528 47.3329 55.144 47.3329 54.568V54.12H49.5409V54.504C49.5409 56.072 48.0209 57.16 45.8929 57.16C43.7809 57.16 42.2609 56.072 42.2609 54.504V51.016C42.2609 49.448 43.7809 48.36 45.8929 48.36C48.0209 48.36 49.5409 49.448 49.5409 51.016V51.4H47.3329ZM51.1073 57V45.8H53.3153V49.08C53.8913 48.664 54.6113 48.36 55.6193 48.36C57.2193 48.36 58.3553 49.192 58.3553 50.696V57H56.1473V50.696C56.1473 50.264 55.5713 49.992 54.7393 49.992C53.9233 49.992 53.3473 50.248 53.3153 50.648V57H51.1073ZM60.1854 57V48.52H62.3934V57H60.1854ZM60.1854 47.416V45.464H62.3934V47.416H60.1854ZM67.5131 48.36C69.5611 48.36 71.0011 49.4 71.0011 50.888V51.24H68.8091V50.776C68.8091 50.312 68.2491 49.992 67.4651 49.992C66.7291 49.992 66.1531 50.28 66.1531 50.76C66.1531 51.128 66.4571 51.368 66.8411 51.496L69.3211 52.312C70.4571 52.712 71.1611 53.592 71.1611 54.632C71.1611 56.12 69.6571 57.16 67.5611 57.16C65.4491 57.16 63.9451 56.12 63.9451 54.632V54.28H66.1371V54.744C66.1371 55.208 66.7451 55.528 67.6091 55.528C68.4251 55.528 69.0331 55.224 69.0331 54.776C69.0331 54.424 68.7291 54.168 68.2811 54.024L65.8171 53.192C64.6811 52.808 64.0411 51.944 64.0411 50.936C64.0411 49.4 65.4971 48.36 67.5131 48.36ZM72.7011 57V48.52H74.9091V57H72.7011ZM72.7011 47.416V45.464H74.9091V47.416H72.7011ZM78.9247 50.68V57H76.7167V48.52H78.9247V49.08C79.5007 48.664 80.2207 48.36 81.2287 48.36C82.8287 48.36 83.9647 49.192 83.9647 50.696V57H81.7567V50.696C81.7567 50.264 81.1807 49.992 80.3487 49.992C79.5167 49.992 78.9247 50.264 78.9247 50.68ZM89.2668 58.728C90.1628 58.728 90.7228 58.312 90.7228 57.736V56.44C90.1468 56.856 89.4428 57.16 88.4668 57.16C86.8028 57.16 85.6828 56.168 85.6828 54.664V50.856C85.6828 49.352 86.8028 48.36 88.4668 48.36C89.4108 48.36 90.1628 48.68 90.7228 49.096V48.52H92.9308V57.672C92.9308 59.24 91.4268 60.36 89.2828 60.36C87.3468 60.36 85.6828 59.416 85.6828 57.992V57.88H87.8748V57.992C87.8748 58.408 88.4988 58.728 89.2668 58.728ZM89.3468 55.528C90.0828 55.528 90.7228 55.256 90.7228 54.84V50.648C90.6908 50.248 90.0668 49.992 89.3468 49.992C88.4188 49.992 87.8748 50.44 87.8748 50.856V54.664C87.8748 55.08 88.4188 55.528 89.3468 55.528Z" fill="white"/>
</svg>
