<svg width="104" height="104" viewBox="0 0 104 104" fill="none" xmlns="http://www.w3.org/2000/svg">
<path d="M52 0C52.5523 0 53 0.447715 53 1V103C53 103.552 52.5523 104 52 104V0Z" fill="#7C23DD"/>
<circle cx="52" cy="52" r="51" fill="#180033" stroke="#1FE4C6" stroke-width="2"/>
<path d="M30.3206 50H28.0166V38.8H30.0326L34.2886 45.664V38.8H36.5926V50H34.5606L30.3206 43.152V50ZM38.5448 50V41.52H40.7528V50H38.5448ZM38.5448 40.416V38.464H40.7528V40.416H38.5448ZM49.9204 41.52L45.6964 53.2H43.6804L44.7524 50.128L41.7124 41.52H43.8724L45.8084 47.12L47.7604 41.52H49.9204ZM58.2798 41.52L54.0558 53.2H52.0398L53.1118 50.128L50.0718 41.52H52.2318L54.1678 47.12L56.1198 41.52H58.2798ZM61.1073 44.24H58.9153V44.016C58.9153 42.448 60.4193 41.36 62.5153 41.36C64.6113 41.36 66.1313 42.448 66.1313 44.016V50H63.9233V49.44C63.3473 49.856 62.6273 50.16 61.6193 50.16C60.0353 50.16 58.8833 49.328 58.8833 47.824V47.44C58.8833 45.856 60.4193 44.832 62.5153 44.768L63.9233 44.72V43.952C63.9233 43.376 63.3153 42.992 62.5153 42.992C61.6993 42.992 61.1073 43.376 61.1073 43.952V44.24ZM62.5313 48.528C63.2833 48.528 63.8913 48.272 63.9233 47.872V46.352L62.5473 46.4C61.6673 46.432 61.0753 46.816 61.0753 47.376V47.824C61.0753 48.256 61.6513 48.528 62.5313 48.528ZM67.8573 50V38.8H70.0653V42.08C70.6413 41.664 71.3613 41.36 72.3693 41.36C73.9693 41.36 75.1053 42.192 75.1053 43.696V50H72.8973V43.696C72.8973 43.264 72.3213 42.992 71.4893 42.992C70.6733 42.992 70.0973 43.248 70.0653 43.648V50H67.8573ZM36.0649 65.464H38.4329V66.024C38.4329 67.864 36.6569 69.16 34.1609 69.16C31.6649 69.16 29.8729 67.864 29.8729 66.024V60.776C29.8729 58.936 31.6649 57.64 34.1609 57.64C36.6569 57.64 38.4329 58.936 38.4329 60.776V61.336H36.0649V60.712C36.0649 59.96 35.2329 59.448 34.1609 59.448C33.0409 59.448 32.2569 59.96 32.2569 60.712V66.104C32.2569 66.872 33.0409 67.352 34.1609 67.352C35.2329 67.352 36.0649 66.856 36.0649 66.088V65.464ZM40.0448 69V57.8H42.2528V61.08C42.8288 60.664 43.5488 60.36 44.5568 60.36C46.1568 60.36 47.2928 61.192 47.2928 62.696V69H45.0848V62.696C45.0848 62.264 44.5088 61.992 43.6768 61.992C42.8608 61.992 42.2848 62.248 42.2528 62.648V69H40.0448ZM49.0109 66.504V63.016C49.0109 61.448 50.5309 60.36 52.6429 60.36C54.7709 60.36 56.2909 61.448 56.2909 63.016V65.496H51.2029V66.568C51.2029 67.144 51.8109 67.528 52.6429 67.528C53.4909 67.528 54.0829 67.144 54.0829 66.568V66.36H56.2909V66.504C56.2909 68.072 54.7709 69.16 52.6429 69.16C50.5309 69.16 49.0109 68.072 49.0109 66.504ZM52.6429 61.992C51.8109 61.992 51.2029 62.376 51.2029 62.952V63.864H54.0829V62.952C54.0829 62.376 53.4909 61.992 52.6429 61.992ZM62.8329 63.4V62.952C62.8329 62.376 62.2409 61.992 61.3929 61.992C60.5609 61.992 59.9529 62.376 59.9529 62.952V66.568C59.9529 67.144 60.5609 67.528 61.3929 67.528C62.2409 67.528 62.8329 67.144 62.8329 66.568V66.12H65.0409V66.504C65.0409 68.072 63.5209 69.16 61.3929 69.16C59.2809 69.16 57.7609 68.072 57.7609 66.504V63.016C57.7609 61.448 59.2809 60.36 61.3929 60.36C63.5209 60.36 65.0409 61.448 65.0409 63.016V63.4H62.8329ZM66.6073 69V57.8H68.8153V64.04L71.1833 60.52H73.5993L70.7993 64.632L73.9513 69H71.5353L68.8153 65.192V69H66.6073Z" fill="white"/>
</svg>
