<svg width="104" height="104" viewBox="0 0 104 104" fill="none" xmlns="http://www.w3.org/2000/svg">
<path d="M52 0C52.5523 0 53 0.447715 53 1V103C53 103.552 52.5523 104 52 104V0Z" fill="#7C23DD"/>
<circle cx="52" cy="52" r="51" fill="#180033" stroke="#7C23DD" stroke-width="2"/>
<path d="M15.7873 57H13.3233L17.3073 45.8H19.7553L23.7713 57H21.3073L20.7313 55.208H16.3633L15.7873 57ZM18.5393 48.44L16.9393 53.4H20.1393L18.5393 48.44ZM27.3224 52.696V57H24.9384V45.8H28.9864C31.4824 45.8 33.2744 47.096 33.2744 48.936V49.56C33.2744 50.792 32.4744 51.768 31.2104 52.296L33.8184 57H31.4184L29.1784 52.696H27.3224ZM28.9704 47.608H27.3224V50.904H28.9704C30.0584 50.904 30.8904 50.392 30.8904 49.624V48.872C30.8904 48.12 30.0584 47.608 28.9704 47.608ZM39.0478 57V45.8H42.9518C45.5598 45.8 47.2398 46.984 47.2398 48.6V49.016C47.2398 49.96 46.6638 50.76 45.6718 51.256C46.8878 51.736 47.5918 52.616 47.5918 53.688V54.152C47.5918 55.8 45.9118 57 43.3038 57H39.0478ZM43.2718 52.232H41.4318V55.192H43.2718C44.5038 55.192 45.2238 54.744 45.2238 54.136V53.592C45.2238 52.808 44.5038 52.232 43.2718 52.232ZM42.9038 47.608H41.4318V50.424H42.9038C44.1518 50.424 44.8558 49.864 44.8558 49.096V48.664C44.8558 48.056 44.1518 47.608 42.9038 47.608ZM56.3553 48.52V57H54.1473V56.44C53.5713 56.856 52.8353 57.16 51.8433 57.16C50.2593 57.16 49.1073 56.328 49.1073 54.824V48.52H51.3153V54.824C51.3153 55.256 51.8913 55.528 52.7233 55.528C53.5233 55.528 54.1153 55.272 54.1473 54.872V48.52H56.3553ZM58.1854 57V48.52H60.3934V57H58.1854ZM58.1854 47.416V45.464H60.3934V47.416H58.1854ZM65.7211 55.368V57H65.3531C63.3531 57 62.2011 56.024 62.2011 54.648V45.8H64.4091V54.648C64.4091 55.08 64.6491 55.368 65.3531 55.368H65.7211ZM73.8996 57H71.6916V56.44C71.1156 56.856 70.4116 57.16 69.4356 57.16C67.7716 57.16 66.6516 56.168 66.6516 54.664V50.856C66.6516 49.352 67.7716 48.36 69.4356 48.36C70.3796 48.36 71.1316 48.68 71.6916 49.096V45.8H73.8996V57ZM70.2836 55.528C71.0516 55.528 71.6596 55.192 71.6916 54.872V50.68C71.6916 50.344 71.0836 49.992 70.2836 49.992C69.4196 49.992 68.8436 50.44 68.8436 50.856V54.664C68.8436 55.08 69.4196 55.528 70.2836 55.528ZM75.6047 54.504V51.016C75.6047 49.448 77.1247 48.36 79.2367 48.36C81.3647 48.36 82.8847 49.448 82.8847 51.016V53.496H77.7967V54.568C77.7967 55.144 78.4047 55.528 79.2367 55.528C80.0847 55.528 80.6767 55.144 80.6767 54.568V54.36H82.8847V54.504C82.8847 56.072 81.3647 57.16 79.2367 57.16C77.1247 57.16 75.6047 56.072 75.6047 54.504ZM79.2367 49.992C78.4047 49.992 77.7967 50.376 77.7967 50.952V51.864H80.6767V50.952C80.6767 50.376 80.0847 49.992 79.2367 49.992ZM86.6747 51.24V57H84.4667V48.52H86.6747V49.432C87.3627 48.84 88.2427 48.36 89.4267 48.36V50.168C87.8267 50.168 86.6747 50.632 86.6747 51.24Z" fill="white"/>
</svg>
