<svg width="104" height="104" viewBox="0 0 104 104" fill="none" xmlns="http://www.w3.org/2000/svg">
<path d="M52 0C52.5523 0 53 0.447715 53 1V103C53 103.552 52.5523 104 52 104V0Z" fill="#7C23DD"/>
<circle cx="52" cy="52" r="51" fill="#180033" stroke="#0F63C3" stroke-width="2"/>
<path d="M34.3994 50V38.8H38.3034C40.9114 38.8 42.5914 39.984 42.5914 41.6V42.016C42.5914 42.96 42.0154 43.76 41.0234 44.256C42.2394 44.736 42.9434 45.616 42.9434 46.688V47.152C42.9434 48.8 41.2634 50 38.6554 50H34.3994ZM38.6234 45.232H36.7834V48.192H38.6234C39.8554 48.192 40.5754 47.744 40.5754 47.136V46.592C40.5754 45.808 39.8554 45.232 38.6234 45.232ZM38.2554 40.608H36.7834V43.424H38.2554C39.5034 43.424 40.2074 42.864 40.2074 42.096V41.664C40.2074 41.056 39.5034 40.608 38.2554 40.608ZM51.6269 47.504C51.6269 49.072 50.1069 50.16 47.9789 50.16C45.8669 50.16 44.3469 49.072 44.3469 47.504V44.016C44.3469 42.448 45.8669 41.36 47.9789 41.36C50.1069 41.36 51.6269 42.448 51.6269 44.016V47.504ZM49.4189 47.568V43.952C49.4189 43.376 48.8109 42.992 47.9789 42.992C47.1469 42.992 46.5389 43.376 46.5389 43.952V47.568C46.5389 48.144 47.1469 48.528 47.9789 48.528C48.8109 48.528 49.4189 48.144 49.4189 47.568ZM60.5019 47.504C60.5019 49.072 58.9819 50.16 56.8539 50.16C54.7419 50.16 53.2219 49.072 53.2219 47.504V44.016C53.2219 42.448 54.7419 41.36 56.8539 41.36C58.9819 41.36 60.5019 42.448 60.5019 44.016V47.504ZM58.2939 47.568V43.952C58.2939 43.376 57.6859 42.992 56.8539 42.992C56.0219 42.992 55.4139 43.376 55.4139 43.952V47.568C55.4139 48.144 56.0219 48.528 56.8539 48.528C57.6859 48.528 58.2939 48.144 58.2939 47.568ZM62.2089 50V38.8H64.4169V45.04L66.7849 41.52H69.2009L66.4009 45.632L69.5529 50H67.1369L64.4169 46.192V50H62.2089ZM16.5109 61.064V60.536C16.5109 59.896 15.7749 59.448 14.7029 59.448C13.7589 59.448 13.0389 59.784 13.0389 60.552C13.0389 60.984 13.2789 61.416 13.8229 61.688L17.3589 63.464C18.4469 64.008 19.0229 65.096 19.0229 66.136C19.0229 68.056 17.2309 69.16 14.8149 69.16C12.2869 69.16 10.5269 67.928 10.5269 66.184V65.64H12.9109V66.184C12.9109 66.856 13.6469 67.352 14.8629 67.352C15.8869 67.352 16.6549 67.016 16.6549 66.216C16.6549 65.768 16.4309 65.32 15.9189 65.064L12.3509 63.272C11.2789 62.712 10.6549 61.736 10.6549 60.664C10.6549 58.68 12.3829 57.64 14.7189 57.64C17.1989 57.64 18.8949 58.84 18.8949 60.536V61.064H16.5109ZM27.8319 60.52V69H25.6239V68.44C25.0479 68.856 24.3119 69.16 23.3199 69.16C21.7359 69.16 20.5839 68.328 20.5839 66.824V60.52H22.7919V66.824C22.7919 67.256 23.3679 67.528 24.1999 67.528C24.9999 67.528 25.5919 67.272 25.6239 66.872V60.52H27.8319ZM34.622 69V62.696C34.622 62.264 34.062 61.992 33.262 61.992C32.446 61.992 31.87 62.264 31.87 62.68V69H29.662V60.52H31.87V61.08C32.43 60.664 33.15 60.36 34.142 60.36C35.166 60.36 35.998 60.712 36.446 61.384C37.038 60.824 37.87 60.36 39.102 60.36C40.686 60.36 41.806 61.192 41.806 62.696V69H39.598V62.696C39.598 62.264 39.038 61.992 38.238 61.992C37.422 61.992 36.83 62.264 36.83 62.68V69H34.622ZM48.5908 69V62.696C48.5908 62.264 48.0308 61.992 47.2308 61.992C46.4148 61.992 45.8388 62.264 45.8388 62.68V69H43.6308V60.52H45.8388V61.08C46.3988 60.664 47.1188 60.36 48.1108 60.36C49.1348 60.36 49.9668 60.712 50.4148 61.384C51.0068 60.824 51.8388 60.36 53.0708 60.36C54.6548 60.36 55.7748 61.192 55.7748 62.696V69H53.5668V62.696C53.5668 62.264 53.0068 61.992 52.2068 61.992C51.3908 61.992 50.7987 62.264 50.7987 62.68V69H48.5908ZM59.5995 63.24H57.4075V63.016C57.4075 61.448 58.9115 60.36 61.0075 60.36C63.1035 60.36 64.6235 61.448 64.6235 63.016V69H62.4155V68.44C61.8395 68.856 61.1195 69.16 60.1115 69.16C58.5275 69.16 57.3755 68.328 57.3755 66.824V66.44C57.3755 64.856 58.9115 63.832 61.0075 63.768L62.4155 63.72V62.952C62.4155 62.376 61.8075 61.992 61.0075 61.992C60.1915 61.992 59.5995 62.376 59.5995 62.952V63.24ZM61.0235 67.528C61.7755 67.528 62.3835 67.272 62.4155 66.872V65.352L61.0395 65.4C60.1595 65.432 59.5675 65.816 59.5675 66.376V66.824C59.5675 67.256 60.1435 67.528 61.0235 67.528ZM68.5575 63.24V69H66.3495V60.52H68.5575V61.432C69.2455 60.84 70.1255 60.36 71.3095 60.36V62.168C69.7095 62.168 68.5575 62.632 68.5575 63.24ZM72.5995 69V60.52H74.8075V69H72.5995ZM72.5995 59.416V57.464H74.8075V59.416H72.5995ZM76.5031 66.504V63.016C76.5031 61.448 78.0231 60.36 80.1351 60.36C82.2631 60.36 83.7831 61.448 83.7831 63.016V65.496H78.6951V66.568C78.6951 67.144 79.3031 67.528 80.1351 67.528C80.9831 67.528 81.5751 67.144 81.5751 66.568V66.36H83.7831V66.504C83.7831 68.072 82.2631 69.16 80.1351 69.16C78.0231 69.16 76.5031 68.072 76.5031 66.504ZM80.1351 61.992C79.3031 61.992 78.6951 62.376 78.6951 62.952V63.864H81.5751V62.952C81.5751 62.376 80.9831 61.992 80.1351 61.992ZM88.6771 60.36C90.7251 60.36 92.1651 61.4 92.1651 62.888V63.24H89.9731V62.776C89.9731 62.312 89.4131 61.992 88.6291 61.992C87.8931 61.992 87.3171 62.28 87.3171 62.76C87.3171 63.128 87.6211 63.368 88.0051 63.496L90.4851 64.312C91.6211 64.712 92.3251 65.592 92.3251 66.632C92.3251 68.12 90.8211 69.16 88.7251 69.16C86.6131 69.16 85.1091 68.12 85.1091 66.632V66.28H87.3011V66.744C87.3011 67.208 87.9091 67.528 88.7731 67.528C89.5891 67.528 90.1971 67.224 90.1971 66.776C90.1971 66.424 89.8931 66.168 89.4451 66.024L86.9811 65.192C85.8451 64.808 85.2051 63.944 85.2051 62.936C85.2051 61.4 86.6611 60.36 88.6771 60.36Z" fill="white"/>
</svg>
