<svg width="104" height="104" viewBox="0 0 104 104" fill="none" xmlns="http://www.w3.org/2000/svg">
<path d="M52 0C52.5523 0 53 0.447715 53 1V103C53 103.552 52.5523 104 52 104V0Z" fill="#7C23DD"/>
<circle cx="52" cy="52" r="51" fill="#180033" stroke="#FFCC00" stroke-width="2"/>
<path d="M16.3931 53.464H18.7611V54.024C18.7611 55.864 16.9851 57.16 14.4891 57.16C11.9931 57.16 10.2011 55.864 10.2011 54.024V48.776C10.2011 46.936 11.9931 45.64 14.4891 45.64C16.9851 45.64 18.7611 46.936 18.7611 48.776V49.336H16.3931V48.712C16.3931 47.96 15.5611 47.448 14.4891 47.448C13.3691 47.448 12.5851 47.96 12.5851 48.712V54.104C12.5851 54.872 13.3691 55.352 14.4891 55.352C15.5611 55.352 16.3931 54.856 16.3931 54.088V53.464ZM27.5409 54.504C27.5409 56.072 26.0209 57.16 23.8929 57.16C21.7809 57.16 20.2609 56.072 20.2609 54.504V51.016C20.2609 49.448 21.7809 48.36 23.8929 48.36C26.0209 48.36 27.5409 49.448 27.5409 51.016V54.504ZM25.3329 54.568V50.952C25.3329 50.376 24.7249 49.992 23.8929 49.992C23.0609 49.992 22.4529 50.376 22.4529 50.952V54.568C22.4529 55.144 23.0609 55.528 23.8929 55.528C24.7249 55.528 25.3329 55.144 25.3329 54.568ZM34.2079 57V50.696C34.2079 50.264 33.6479 49.992 32.8479 49.992C32.0319 49.992 31.4559 50.264 31.4559 50.68V57H29.2479V48.52H31.4559V49.08C32.0159 48.664 32.7359 48.36 33.7279 48.36C34.7519 48.36 35.5839 48.712 36.0319 49.384C36.6239 48.824 37.4559 48.36 38.6879 48.36C40.2719 48.36 41.3919 49.192 41.3919 50.696V57H39.1839V50.696C39.1839 50.264 38.6239 49.992 37.8239 49.992C37.0079 49.992 36.4159 50.264 36.4159 50.68V57H34.2079ZM48.1767 57V50.696C48.1767 50.264 47.6167 49.992 46.8167 49.992C46.0007 49.992 45.4247 50.264 45.4247 50.68V57H43.2167V48.52H45.4247V49.08C45.9847 48.664 46.7047 48.36 47.6967 48.36C48.7207 48.36 49.5527 48.712 50.0007 49.384C50.5927 48.824 51.4247 48.36 52.6567 48.36C54.2407 48.36 55.3607 49.192 55.3607 50.696V57H53.1527V50.696C53.1527 50.264 52.5927 49.992 51.7927 49.992C50.9767 49.992 50.3847 50.264 50.3847 50.68V57H48.1767ZM64.4334 48.52V57H62.2254V56.44C61.6494 56.856 60.9134 57.16 59.9214 57.16C58.3374 57.16 57.1854 56.328 57.1854 54.824V48.52H59.3934V54.824C59.3934 55.256 59.9694 55.528 60.8014 55.528C61.6014 55.528 62.1934 55.272 62.2254 54.872V48.52H64.4334ZM68.4716 50.68V57H66.2636V48.52H68.4716V49.08C69.0476 48.664 69.7676 48.36 70.7756 48.36C72.3756 48.36 73.5116 49.192 73.5116 50.696V57H71.3036V50.696C71.3036 50.264 70.7276 49.992 69.8956 49.992C69.0636 49.992 68.4716 50.264 68.4716 50.68ZM75.3417 57V48.52H77.5497V57H75.3417ZM75.3417 47.416V45.464H77.5497V47.416H75.3417ZM84.8613 55.368V57H84.0133C82.0293 57 80.6213 55.96 80.6213 54.472V50.152H78.7973V48.52H80.6213V46.76H82.8293V48.52H84.8613V50.152H82.8293V54.472C82.8293 55.016 83.3253 55.368 84.0133 55.368H84.8613ZM93.6236 48.52L89.3996 60.2H87.3836L88.4556 57.128L85.4156 48.52H87.5756L89.5116 54.12L91.4636 48.52H93.6236Z" fill="white"/>
</svg>
