<svg width="104" height="104" viewBox="0 0 104 104" fill="none" xmlns="http://www.w3.org/2000/svg">
<path d="M52 0C52.5523 0 53 0.447715 53 1V103C53 103.552 52.5523 104 52 104V0Z" fill="#7C23DD"/>
<circle cx="52" cy="52" r="51" fill="#180033" stroke="#1FE4C6" stroke-width="2"/>
<path d="M17.2282 60.728L15.4522 58.92C14.9242 59.064 14.3322 59.16 13.6922 59.16C11.1962 59.16 9.40419 57.864 9.40419 56.024V50.776C9.40419 48.936 11.1962 47.64 13.6922 47.64C16.1882 47.64 17.9642 48.936 17.9642 50.776V56.024C17.9642 56.776 17.6762 57.416 17.1642 57.944L18.7962 59.624L17.2282 60.728ZM15.5962 56.088V50.712C15.5962 49.96 14.7642 49.448 13.6922 49.448C12.5722 49.448 11.7882 49.96 11.7882 50.712V56.104C11.7882 56.904 12.5722 57.352 13.6922 57.352C14.7642 57.352 15.5962 56.856 15.5962 56.088ZM19.7948 59V50.52H22.0028V59H19.7948ZM19.7948 49.416V47.464H22.0028V49.416H19.7948ZM23.8104 59V47.8H26.0184V51.08C26.5944 50.664 27.3144 50.36 28.3224 50.36C29.9224 50.36 31.0584 51.192 31.0584 52.696V56.824C31.0584 58.328 29.9224 59.16 28.3224 59.16C27.3464 59.16 26.5784 58.856 26.0184 58.44V59H23.8104ZM27.4424 57.528C28.2744 57.528 28.8504 57.256 28.8504 56.824V52.696C28.8504 52.264 28.2744 51.992 27.4424 51.992C26.6264 51.992 26.0504 52.248 26.0184 52.648V56.84C26.0184 57.256 26.6104 57.528 27.4424 57.528ZM36.2836 57.368V59H35.9156C33.9156 59 32.7636 58.024 32.7636 56.648V47.8H34.9716V56.648C34.9716 57.08 35.2116 57.368 35.9156 57.368H36.2836ZM39.3573 53.24H37.1653V53.016C37.1653 51.448 38.6693 50.36 40.7653 50.36C42.8613 50.36 44.3813 51.448 44.3813 53.016V59H42.1733V58.44C41.5973 58.856 40.8773 59.16 39.8693 59.16C38.2853 59.16 37.1333 58.328 37.1333 56.824V56.44C37.1333 54.856 38.6693 53.832 40.7653 53.768L42.1733 53.72V52.952C42.1733 52.376 41.5653 51.992 40.7653 51.992C39.9493 51.992 39.3573 52.376 39.3573 52.952V53.24ZM40.7813 57.528C41.5333 57.528 42.1413 57.272 42.1733 56.872V55.352L40.7973 55.4C39.9173 55.432 39.3253 55.816 39.3253 56.376V56.824C39.3253 57.256 39.9013 57.528 40.7813 57.528ZM56.2379 52.408V54.216H52.5099V59H50.1259V47.8H56.9419V49.608H52.5099V52.408H56.2379ZM58.3729 59V50.52H60.5809V59H58.3729ZM58.3729 49.416V47.464H60.5809V49.416H58.3729ZM64.5966 52.68V59H62.3886V50.52H64.5966V51.08C65.1726 50.664 65.8926 50.36 66.9006 50.36C68.5006 50.36 69.6366 51.192 69.6366 52.696V59H67.4286V52.696C67.4286 52.264 66.8526 51.992 66.0206 51.992C65.1886 51.992 64.5966 52.264 64.5966 52.68ZM78.6027 59H76.3947V58.44C75.8187 58.856 75.1147 59.16 74.1387 59.16C72.4747 59.16 71.3547 58.168 71.3547 56.664V52.856C71.3547 51.352 72.4747 50.36 74.1387 50.36C75.0827 50.36 75.8347 50.68 76.3947 51.096V47.8H78.6027V59ZM74.9867 57.528C75.7547 57.528 76.3627 57.192 76.3947 56.872V52.68C76.3947 52.344 75.7867 51.992 74.9867 51.992C74.1227 51.992 73.5467 52.44 73.5467 52.856V56.664C73.5467 57.08 74.1227 57.528 74.9867 57.528ZM80.3078 56.504V53.016C80.3078 51.448 81.8278 50.36 83.9398 50.36C86.0678 50.36 87.5878 51.448 87.5878 53.016V55.496H82.4998V56.568C82.4998 57.144 83.1078 57.528 83.9398 57.528C84.7878 57.528 85.3798 57.144 85.3798 56.568V56.36H87.5878V56.504C87.5878 58.072 86.0678 59.16 83.9398 59.16C81.8278 59.16 80.3078 58.072 80.3078 56.504ZM83.9398 51.992C83.1078 51.992 82.4998 52.376 82.4998 52.952V53.864H85.3798V52.952C85.3798 52.376 84.7878 51.992 83.9398 51.992ZM91.3778 53.24V59H89.1698V50.52H91.3778V51.432C92.0658 50.84 92.9458 50.36 94.1298 50.36V52.168C92.5298 52.168 91.3778 52.632 91.3778 53.24Z" fill="white"/>
</svg>
