<svg width="104" height="104" viewBox="0 0 104 104" fill="none" xmlns="http://www.w3.org/2000/svg">
<path d="M52 0C52.5523 0 53 0.447715 53 1V103C53 103.552 52.5523 104 52 104V0Z" fill="#7C23DD"/>
<circle cx="52" cy="52" r="51" fill="#180033" stroke="#7C23DD" stroke-width="2"/>
<path d="M19.2353 50V38.8H23.1393C25.7473 38.8 27.4273 39.984 27.4273 41.6V42.016C27.4273 42.96 26.8513 43.76 25.8593 44.256C27.0753 44.736 27.7793 45.616 27.7793 46.688V47.152C27.7793 48.8 26.0993 50 23.4913 50H19.2353ZM23.4593 45.232H21.6193V48.192H23.4593C24.6913 48.192 25.4113 47.744 25.4113 47.136V46.592C25.4113 45.808 24.6913 45.232 23.4593 45.232ZM23.0913 40.608H21.6193V43.424H23.0913C24.3393 43.424 25.0433 42.864 25.0433 42.096V41.664C25.0433 41.056 24.3393 40.608 23.0913 40.608ZM36.5428 41.52V50H34.3348V49.44C33.7588 49.856 33.0228 50.16 32.0308 50.16C30.4468 50.16 29.2948 49.328 29.2948 47.824V41.52H31.5028V47.824C31.5028 48.256 32.0788 48.528 32.9108 48.528C33.7108 48.528 34.3028 48.272 34.3348 47.872V41.52H36.5428ZM41.6849 41.36C43.7329 41.36 45.1729 42.4 45.1729 43.888V44.24H42.9809V43.776C42.9809 43.312 42.4209 42.992 41.6369 42.992C40.9009 42.992 40.3249 43.28 40.3249 43.76C40.3249 44.128 40.6289 44.368 41.0129 44.496L43.4929 45.312C44.6289 45.712 45.3329 46.592 45.3329 47.632C45.3329 49.12 43.8289 50.16 41.7329 50.16C39.6209 50.16 38.1169 49.12 38.1169 47.632V47.28H40.3089V47.744C40.3089 48.208 40.9169 48.528 41.7809 48.528C42.5969 48.528 43.2049 48.224 43.2049 47.776C43.2049 47.424 42.9009 47.168 42.4529 47.024L39.9889 46.192C38.8529 45.808 38.2129 44.944 38.2129 43.936C38.2129 42.4 39.6689 41.36 41.6849 41.36ZM46.8729 50V41.52H49.0809V50H46.8729ZM46.8729 40.416V38.464H49.0809V40.416H46.8729ZM53.0966 43.68V50H50.8886V41.52H53.0966V42.08C53.6726 41.664 54.3926 41.36 55.4006 41.36C57.0006 41.36 58.1366 42.192 58.1366 43.696V50H55.9286V43.696C55.9286 43.264 55.3526 42.992 54.5206 42.992C53.6886 42.992 53.0966 43.264 53.0966 43.68ZM59.8547 47.504V44.016C59.8547 42.448 61.3747 41.36 63.4867 41.36C65.6147 41.36 67.1347 42.448 67.1347 44.016V46.496H62.0467V47.568C62.0467 48.144 62.6547 48.528 63.4867 48.528C64.3347 48.528 64.9267 48.144 64.9267 47.568V47.36H67.1347V47.504C67.1347 49.072 65.6147 50.16 63.4867 50.16C61.3747 50.16 59.8547 49.072 59.8547 47.504ZM63.4867 42.992C62.6547 42.992 62.0467 43.376 62.0467 43.952V44.864H64.9267V43.952C64.9267 43.376 64.3347 42.992 63.4867 42.992ZM72.0287 41.36C74.0767 41.36 75.5167 42.4 75.5167 43.888V44.24H73.3247V43.776C73.3247 43.312 72.7647 42.992 71.9807 42.992C71.2447 42.992 70.6687 43.28 70.6687 43.76C70.6687 44.128 70.9727 44.368 71.3567 44.496L73.8367 45.312C74.9727 45.712 75.6767 46.592 75.6767 47.632C75.6767 49.12 74.1727 50.16 72.0767 50.16C69.9647 50.16 68.4607 49.12 68.4607 47.632V47.28H70.6527V47.744C70.6527 48.208 71.2607 48.528 72.1247 48.528C72.9407 48.528 73.5487 48.224 73.5487 47.776C73.5487 47.424 73.2447 47.168 72.7967 47.024L70.3327 46.192C69.1967 45.808 68.5567 44.944 68.5567 43.936C68.5567 42.4 70.0127 41.36 72.0287 41.36ZM80.5287 41.36C82.5767 41.36 84.0167 42.4 84.0167 43.888V44.24H81.8247V43.776C81.8247 43.312 81.2647 42.992 80.4807 42.992C79.7447 42.992 79.1687 43.28 79.1687 43.76C79.1687 44.128 79.4727 44.368 79.8567 44.496L82.3367 45.312C83.4727 45.712 84.1767 46.592 84.1767 47.632C84.1767 49.12 82.6727 50.16 80.5767 50.16C78.4647 50.16 76.9607 49.12 76.9607 47.632V47.28H79.1527V47.744C79.1527 48.208 79.7607 48.528 80.6247 48.528C81.4407 48.528 82.0487 48.224 82.0487 47.776C82.0487 47.424 81.7447 47.168 81.2967 47.024L78.8327 46.192C77.6967 45.808 77.0567 44.944 77.0567 43.936C77.0567 42.4 78.5127 41.36 80.5287 41.36ZM41.1043 57.8V59.608H38.0163V69H35.6483V59.608H32.5763V57.8H41.1043ZM47.9472 66.504C47.9472 68.072 46.4272 69.16 44.2992 69.16C42.1872 69.16 40.6672 68.072 40.6672 66.504V63.016C40.6672 61.448 42.1872 60.36 44.2992 60.36C46.4272 60.36 47.9472 61.448 47.9472 63.016V66.504ZM45.7392 66.568V62.952C45.7392 62.376 45.1312 61.992 44.2992 61.992C43.4672 61.992 42.8592 62.376 42.8592 62.952V66.568C42.8592 67.144 43.4672 67.528 44.2992 67.528C45.1312 67.528 45.7392 67.144 45.7392 66.568ZM56.8222 66.504C56.8222 68.072 55.3022 69.16 53.1742 69.16C51.0622 69.16 49.5422 68.072 49.5422 66.504V63.016C49.5422 61.448 51.0622 60.36 53.1742 60.36C55.3022 60.36 56.8222 61.448 56.8222 63.016V66.504ZM54.6142 66.568V62.952C54.6142 62.376 54.0062 61.992 53.1742 61.992C52.3422 61.992 51.7342 62.376 51.7342 62.952V66.568C51.7342 67.144 52.3422 67.528 53.1742 67.528C54.0062 67.528 54.6142 67.144 54.6142 66.568ZM62.0492 67.368V69H61.6812C59.6812 69 58.5292 68.024 58.5292 66.648V57.8H60.7372V66.648C60.7372 67.08 60.9772 67.368 61.6812 67.368H62.0492ZM66.4037 60.36C68.4517 60.36 69.8917 61.4 69.8917 62.888V63.24H67.6997V62.776C67.6997 62.312 67.1397 61.992 66.3557 61.992C65.6197 61.992 65.0437 62.28 65.0437 62.76C65.0437 63.128 65.3477 63.368 65.7317 63.496L68.2117 64.312C69.3477 64.712 70.0517 65.592 70.0517 66.632C70.0517 68.12 68.5477 69.16 66.4517 69.16C64.3397 69.16 62.8357 68.12 62.8357 66.632V66.28H65.0277V66.744C65.0277 67.208 65.6357 67.528 66.4997 67.528C67.3157 67.528 67.9237 67.224 67.9237 66.776C67.9237 66.424 67.6197 66.168 67.1717 66.024L64.7077 65.192C63.5717 64.808 62.9317 63.944 62.9317 62.936C62.9317 61.4 64.3877 60.36 66.4037 60.36Z" fill="white"/>
</svg>
