<svg width="104" height="104" viewBox="0 0 104 104" fill="none" xmlns="http://www.w3.org/2000/svg">
<path d="M52 0C52.5523 0 53 0.447715 53 1V103C53 103.552 52.5523 104 52 104V0Z" fill="#7C23DD"/>
<circle cx="52" cy="52" r="51" fill="#180033" stroke="#0F63C3" stroke-width="2"/>
<path d="M19.2353 50V38.8H23.1393C25.7473 38.8 27.4273 39.984 27.4273 41.6V42.016C27.4273 42.96 26.8513 43.76 25.8593 44.256C27.0753 44.736 27.7793 45.616 27.7793 46.688V47.152C27.7793 48.8 26.0993 50 23.4913 50H19.2353ZM23.4593 45.232H21.6193V48.192H23.4593C24.6913 48.192 25.4113 47.744 25.4113 47.136V46.592C25.4113 45.808 24.6913 45.232 23.4593 45.232ZM23.0913 40.608H21.6193V43.424H23.0913C24.3393 43.424 25.0433 42.864 25.0433 42.096V41.664C25.0433 41.056 24.3393 40.608 23.0913 40.608ZM36.5428 41.52V50H34.3348V49.44C33.7588 49.856 33.0228 50.16 32.0308 50.16C30.4468 50.16 29.2948 49.328 29.2948 47.824V41.52H31.5028V47.824C31.5028 48.256 32.0788 48.528 32.9108 48.528C33.7108 48.528 34.3028 48.272 34.3348 47.872V41.52H36.5428ZM41.6849 41.36C43.7329 41.36 45.1729 42.4 45.1729 43.888V44.24H42.9809V43.776C42.9809 43.312 42.4209 42.992 41.6369 42.992C40.9009 42.992 40.3249 43.28 40.3249 43.76C40.3249 44.128 40.6289 44.368 41.0129 44.496L43.4929 45.312C44.6289 45.712 45.3329 46.592 45.3329 47.632C45.3329 49.12 43.8289 50.16 41.7329 50.16C39.6209 50.16 38.1169 49.12 38.1169 47.632V47.28H40.3089V47.744C40.3089 48.208 40.9169 48.528 41.7809 48.528C42.5969 48.528 43.2049 48.224 43.2049 47.776C43.2049 47.424 42.9009 47.168 42.4529 47.024L39.9889 46.192C38.8529 45.808 38.2129 44.944 38.2129 43.936C38.2129 42.4 39.6689 41.36 41.6849 41.36ZM46.8729 50V41.52H49.0809V50H46.8729ZM46.8729 40.416V38.464H49.0809V40.416H46.8729ZM53.0966 43.68V50H50.8886V41.52H53.0966V42.08C53.6726 41.664 54.3926 41.36 55.4006 41.36C57.0006 41.36 58.1366 42.192 58.1366 43.696V50H55.9286V43.696C55.9286 43.264 55.3526 42.992 54.5206 42.992C53.6886 42.992 53.0966 43.264 53.0966 43.68ZM59.8547 47.504V44.016C59.8547 42.448 61.3747 41.36 63.4867 41.36C65.6147 41.36 67.1347 42.448 67.1347 44.016V46.496H62.0467V47.568C62.0467 48.144 62.6547 48.528 63.4867 48.528C64.3347 48.528 64.9267 48.144 64.9267 47.568V47.36H67.1347V47.504C67.1347 49.072 65.6147 50.16 63.4867 50.16C61.3747 50.16 59.8547 49.072 59.8547 47.504ZM63.4867 42.992C62.6547 42.992 62.0467 43.376 62.0467 43.952V44.864H64.9267V43.952C64.9267 43.376 64.3347 42.992 63.4867 42.992ZM72.0287 41.36C74.0767 41.36 75.5167 42.4 75.5167 43.888V44.24H73.3247V43.776C73.3247 43.312 72.7647 42.992 71.9807 42.992C71.2447 42.992 70.6687 43.28 70.6687 43.76C70.6687 44.128 70.9727 44.368 71.3567 44.496L73.8367 45.312C74.9727 45.712 75.6767 46.592 75.6767 47.632C75.6767 49.12 74.1727 50.16 72.0767 50.16C69.9647 50.16 68.4607 49.12 68.4607 47.632V47.28H70.6527V47.744C70.6527 48.208 71.2607 48.528 72.1247 48.528C72.9407 48.528 73.5487 48.224 73.5487 47.776C73.5487 47.424 73.2447 47.168 72.7967 47.024L70.3327 46.192C69.1967 45.808 68.5567 44.944 68.5567 43.936C68.5567 42.4 70.0127 41.36 72.0287 41.36ZM80.5287 41.36C82.5767 41.36 84.0167 42.4 84.0167 43.888V44.24H81.8247V43.776C81.8247 43.312 81.2647 42.992 80.4807 42.992C79.7447 42.992 79.1687 43.28 79.1687 43.76C79.1687 44.128 79.4727 44.368 79.8567 44.496L82.3367 45.312C83.4727 45.712 84.1767 46.592 84.1767 47.632C84.1767 49.12 82.6727 50.16 80.5767 50.16C78.4647 50.16 76.9607 49.12 76.9607 47.632V47.28H79.1527V47.744C79.1527 48.208 79.7607 48.528 80.6247 48.528C81.4407 48.528 82.0487 48.224 82.0487 47.776C82.0487 47.424 81.7447 47.168 81.2967 47.024L78.8327 46.192C77.6967 45.808 77.0567 44.944 77.0567 43.936C77.0567 42.4 78.5127 41.36 80.5287 41.36ZM22.9931 69V57.8H25.3771V69H22.9931ZM29.5419 62.68V69H27.3339V60.52H29.5419V61.08C30.1179 60.664 30.8379 60.36 31.8459 60.36C33.4459 60.36 34.5819 61.192 34.5819 62.696V69H32.3739V62.696C32.3739 62.264 31.7979 61.992 30.9659 61.992C30.1339 61.992 29.5419 62.264 29.5419 62.68ZM39.724 60.36C41.772 60.36 43.212 61.4 43.212 62.888V63.24H41.02V62.776C41.02 62.312 40.46 61.992 39.676 61.992C38.94 61.992 38.364 62.28 38.364 62.76C38.364 63.128 38.668 63.368 39.052 63.496L41.532 64.312C42.668 64.712 43.372 65.592 43.372 66.632C43.372 68.12 41.868 69.16 39.772 69.16C37.66 69.16 36.156 68.12 36.156 66.632V66.28H38.348V66.744C38.348 67.208 38.956 67.528 39.82 67.528C40.636 67.528 41.244 67.224 41.244 66.776C41.244 66.424 40.94 66.168 40.492 66.024L38.028 65.192C36.892 64.808 36.252 63.944 36.252 62.936C36.252 61.4 37.708 60.36 39.724 60.36ZM44.912 69V60.52H47.12V69H44.912ZM44.912 59.416V57.464H47.12V59.416H44.912ZM52.3996 70.728C53.2956 70.728 53.8556 70.312 53.8556 69.736V68.44C53.2796 68.856 52.5756 69.16 51.5996 69.16C49.9356 69.16 48.8156 68.168 48.8156 66.664V62.856C48.8156 61.352 49.9356 60.36 51.5996 60.36C52.5436 60.36 53.2956 60.68 53.8556 61.096V60.52H56.0636V69.672C56.0636 71.24 54.5596 72.36 52.4156 72.36C50.4796 72.36 48.8156 71.416 48.8156 69.992V69.88H51.0076V69.992C51.0076 70.408 51.6316 70.728 52.3996 70.728ZM52.4796 67.528C53.2156 67.528 53.8556 67.256 53.8556 66.84V62.648C53.8236 62.248 53.1996 61.992 52.4796 61.992C51.5516 61.992 51.0076 62.44 51.0076 62.856V66.664C51.0076 67.08 51.5516 67.528 52.4796 67.528ZM57.8808 69V57.8H60.0888V61.08C60.6648 60.664 61.3848 60.36 62.3928 60.36C63.9928 60.36 65.1288 61.192 65.1288 62.696V69H62.9208V62.696C62.9208 62.264 62.3448 61.992 61.5128 61.992C60.6968 61.992 60.1208 62.248 60.0888 62.648V69H57.8808ZM72.0879 67.368V69H71.2399C69.2559 69 67.8479 67.96 67.8479 66.472V62.152H66.0239V60.52H67.8479V58.76H70.0559V60.52H72.0879V62.152H70.0559V66.472C70.0559 67.016 70.5519 67.368 71.2399 67.368H72.0879ZM76.7709 60.36C78.8189 60.36 80.2589 61.4 80.2589 62.888V63.24H78.0669V62.776C78.0669 62.312 77.5069 61.992 76.7229 61.992C75.9869 61.992 75.4109 62.28 75.4109 62.76C75.4109 63.128 75.7149 63.368 76.0989 63.496L78.5789 64.312C79.7149 64.712 80.4189 65.592 80.4189 66.632C80.4189 68.12 78.9149 69.16 76.8189 69.16C74.7069 69.16 73.2029 68.12 73.2029 66.632V66.28H75.3949V66.744C75.3949 67.208 76.0029 67.528 76.8669 67.528C77.6829 67.528 78.2909 67.224 78.2909 66.776C78.2909 66.424 77.9869 66.168 77.5389 66.024L75.0749 65.192C73.9389 64.808 73.2989 63.944 73.2989 62.936C73.2989 61.4 74.7549 60.36 76.7709 60.36Z" fill="white"/>
</svg>
