<svg width="24" height="24" viewBox="0 0 24 24" fill="none" xmlns="http://www.w3.org/2000/svg">
<path d="M22.4954 0H14.4971C14.1789 0.00125392 13.8694 0.103635 13.6133 0.292345C13.3572 0.481055 13.1678 0.746316 13.0723 1.04979C11.3713 0.88223 9.65452 1.1135 8.05841 1.72523C6.4623 2.33696 5.03076 3.31231 3.8774 4.57387C2.72404 5.83544 1.88062 7.34848 1.41408 8.9929C0.947547 10.6373 0.87074 12.3679 1.18976 14.0471C0.8562 14.1176 0.556592 14.2996 0.340318 14.5631C0.124043 14.8266 0.00400892 15.156 0 15.4968L0 22.4954C0 22.8932 0.158003 23.2746 0.43925 23.5559C0.720498 23.8371 1.10195 23.9951 1.49969 23.9951H9.49807C9.81619 23.9939 10.1257 23.8915 10.3818 23.7028C10.6379 23.5141 10.8273 23.2488 10.9228 22.9453C12.6239 23.1129 14.3406 22.8816 15.9367 22.2699C17.5328 21.6582 18.9644 20.6828 20.1177 19.4212C21.2711 18.1597 22.1145 16.6466 22.581 15.0022C23.0476 13.3578 23.1244 11.6273 22.8054 9.94798C23.1389 9.87754 23.4385 9.69557 23.6548 9.43204C23.8711 9.16851 23.9911 8.83916 23.9951 8.49827V1.49969C23.9951 1.10195 23.8371 0.720498 23.5559 0.43925C23.2746 0.158003 22.8932 0 22.4954 0ZM21.7906 9.99797C21.8964 10.492 21.9649 10.9933 21.9955 11.4977H16.9965C16.9868 10.9963 16.9518 10.4958 16.8916 9.99797H21.7906ZM9.49807 13.9972H8.12835C8.06836 13.4973 8.03337 12.9974 8.01837 12.4975H15.9967C15.942 14.3783 15.5737 16.2368 14.907 17.9963C13.6586 17.5357 12.3168 17.3864 10.9978 17.5614V15.4968C10.9978 15.0991 10.8398 14.7176 10.5585 14.4364C10.2773 14.1552 9.89581 13.9972 9.49807 13.9972ZM2.20455 13.9972C2.09875 13.5031 2.03024 13.0018 1.99959 12.4975H6.99858C7.00832 12.9988 7.04336 13.4993 7.10355 13.9972H2.20455ZM15.8668 9.99797C15.9268 10.4979 15.9618 10.9978 15.9767 11.4977H7.99837C8.0531 9.61683 8.42142 7.75832 9.08815 5.99878C10.3286 6.46292 11.6632 6.61902 12.9774 6.45369V8.49827C12.9774 8.89601 13.1354 9.27747 13.4166 9.55872C13.6979 9.83996 14.0793 9.99797 14.4771 9.99797H15.8668ZM12.9174 2.03958C13.0323 2.06958 12.9974 1.65466 12.9974 5.4239C11.8183 5.59113 10.6161 5.46404 9.49807 5.05397C9.97717 3.99697 10.5635 2.99191 11.2477 2.05458C11.803 2.00511 12.3613 2.0001 12.9174 2.03958ZM8.56326 4.65405C7.93476 4.32914 7.35435 3.91865 6.83861 3.4343C7.78116 2.86516 8.81161 2.45635 9.88799 2.22455C9.38249 2.99786 8.93951 3.81027 8.56326 4.65405ZM5.99878 3.99919C6.63713 4.63642 7.37286 5.16796 8.17834 5.57387C7.4507 7.4669 7.05171 9.4703 6.99858 11.4977H1.99959C2.07446 10.0308 2.47162 8.59837 3.16283 7.30237C3.85403 6.00636 4.8223 4.87856 5.99878 3.99919ZM9.99797 22.4954C9.99797 22.628 9.9453 22.7552 9.85155 22.8489C9.7578 22.9427 9.63065 22.9953 9.49807 22.9953H1.49969C1.36711 22.9953 1.23996 22.9427 1.14621 22.8489C1.05246 22.7552 0.999797 22.628 0.999797 22.4954V15.4968C0.999797 15.3643 1.05246 15.2371 1.14621 15.1434C1.23996 15.0496 1.36711 14.9969 1.49969 14.9969H9.49807C9.63065 14.9969 9.7578 15.0496 9.85155 15.1434C9.9453 15.2371 9.99797 15.3643 9.99797 15.4968V22.4954ZM11.0777 21.9555C10.9628 21.9255 10.9978 22.3405 10.9978 18.5712C12.1768 18.404 13.379 18.5311 14.4971 18.9411C14.0182 19.9983 13.4319 21.0034 12.7474 21.9405C12.1923 21.9925 11.6337 21.9975 11.0777 21.9555ZM15.4319 19.3411C16.0604 19.666 16.6408 20.0765 17.1565 20.5608C16.2157 21.1288 15.1868 21.536 14.1121 21.7656C14.6131 20.9922 15.0543 20.1816 15.4319 19.3411ZM17.9963 19.9959C17.3566 19.3603 16.6212 18.8289 15.8168 18.4213C16.5444 16.5282 16.9434 14.5248 16.9965 12.4975H21.9955C21.9207 13.9644 21.5235 15.3967 20.8323 16.6928C20.1411 17.9888 19.1728 19.1166 17.9963 19.9959ZM22.9953 8.49827C22.9953 8.63085 22.9427 8.758 22.8489 8.85175C22.7552 8.9455 22.628 8.99817 22.4954 8.99817H14.4971C14.3645 8.99817 14.2373 8.9455 14.1436 8.85175C14.0498 8.758 13.9972 8.63085 13.9972 8.49827V1.49969C13.9972 1.36711 14.0498 1.23996 14.1436 1.14621C14.2373 1.05246 14.3645 0.999797 14.4971 0.999797H22.4954C22.628 0.999797 22.7552 1.05246 22.8489 1.14621C22.9427 1.23996 22.9953 1.36711 22.9953 1.49969V8.49827Z" fill="white"/>
<path d="M18.9609 2.31452C18.9241 2.22128 18.8601 2.14127 18.7771 2.08489C18.6942 2.02851 18.5963 1.99837 18.496 1.99837C18.3958 1.99837 18.2978 2.02851 18.2149 2.08489C18.132 2.14127 18.068 2.22128 18.0311 2.31452L16.0315 7.31351C15.9825 7.43681 15.9844 7.57454 16.0369 7.69642C16.0894 7.81829 16.1882 7.91432 16.3115 7.96337C16.4348 8.01243 16.5725 8.01049 16.6944 7.95799C16.8163 7.9055 16.9123 7.80673 16.9613 7.68343L17.4612 6.48867C17.5962 6.48867 17.0463 6.48867 19.5158 6.48867C19.6008 6.48867 19.5158 6.29371 20.0507 7.67343C20.0998 7.79673 20.1958 7.8955 20.3177 7.948C20.4395 8.0005 20.5773 8.00243 20.7006 7.95338C20.8239 7.90432 20.9227 7.80829 20.9752 7.68642C21.0277 7.56455 21.0296 7.42681 20.9805 7.30351L18.9609 2.31452ZM17.8362 5.49888L18.496 3.84421L19.1559 5.49888H17.8362Z" fill="white"/>
<path d="M7.49908 16.9965H5.99939V16.4966C5.99939 16.3641 5.94672 16.2369 5.85297 16.1432C5.75922 16.0494 5.63207 15.9967 5.49949 15.9967C5.36691 15.9967 5.23976 16.0494 5.14601 16.1432C5.05226 16.2369 4.99959 16.3641 4.99959 16.4966V16.9965H3.4999C3.36732 16.9965 3.24017 17.0492 3.14642 17.143C3.05267 17.2367 3 17.3639 3 17.4964C3 17.629 3.05267 17.7562 3.14642 17.8499C3.24017 17.9437 3.36732 17.9963 3.4999 17.9963H6.4443C6.29593 18.6494 5.96879 19.2483 5.49949 19.726C5.34812 19.5693 5.20781 19.4022 5.07958 19.2261C5.0011 19.1249 4.88677 19.0576 4.76016 19.0382C4.63355 19.0188 4.50433 19.0488 4.39916 19.1219C4.29399 19.195 4.22089 19.3057 4.19495 19.4311C4.16901 19.5565 4.1922 19.6871 4.25974 19.796C4.41156 20.0141 4.57861 20.2213 4.75964 20.4159C4.44525 20.6602 4.1108 20.8776 3.75985 21.0657C3.65169 21.1308 3.57216 21.2344 3.53722 21.3557C3.50228 21.477 3.51451 21.607 3.57147 21.7196C3.62842 21.8323 3.72588 21.9192 3.84427 21.9629C3.96267 22.0067 4.09323 22.0041 4.20975 21.9555C4.66783 21.7136 5.09999 21.4255 5.49949 21.0957C5.8945 21.42 6.32164 21.7031 6.77423 21.9405C6.89076 21.9891 7.02132 21.9917 7.13971 21.9479C7.25811 21.9042 7.35557 21.8173 7.41252 21.7046C7.46947 21.592 7.48171 21.462 7.44677 21.3407C7.41182 21.2194 7.33229 21.1158 7.22414 21.0507C6.87337 20.8642 6.53892 20.6485 6.22434 20.4059C6.87539 19.7492 7.30828 18.9078 7.46409 17.9963C7.59667 18.001 7.72567 17.9528 7.8227 17.8623C7.91973 17.7718 7.97685 17.6465 7.98149 17.5139C7.98613 17.3814 7.93791 17.2524 7.84744 17.1553C7.75697 17.0583 7.63167 17.0012 7.49908 16.9965Z" fill="white"/>
</svg>
