<svg width="57" height="57" viewBox="0 0 57 57" fill="none" xmlns="http://www.w3.org/2000/svg">
<g clip-path="url(#clip0_260_200)">
<path d="M56.6437 27.7875L51.1139 23.6399C50.3906 20.2875 48.9353 17.1364 46.8522 14.4121L48.8526 9.30169C48.9173 9.13984 48.9332 8.96253 48.8982 8.79175C48.8631 8.62097 48.7788 8.46423 48.6555 8.34095C48.5322 8.21768 48.3755 8.1333 48.2047 8.09826C48.0339 8.06323 47.8566 8.07909 47.6947 8.14388L42.5843 10.1442C39.8607 8.06287 36.7109 6.60887 33.3601 5.88614L29.2125 0.35625C29.1295 0.245638 29.022 0.15586 28.8983 0.0940258C28.7746 0.0321917 28.6383 0 28.5 0C28.3617 0 28.2254 0.0321917 28.1017 0.0940258C27.978 0.15586 27.8705 0.245638 27.7875 0.35625L23.663 5.85586C20.9092 6.44521 18.2869 7.53465 15.9262 9.07012L9.10308 8.09578C8.96626 8.0763 8.82678 8.08892 8.69569 8.13265C8.56459 8.17638 8.44547 8.25002 8.34774 8.34774C8.25002 8.44547 8.17638 8.56459 8.13265 8.69569C8.08892 8.82678 8.0763 8.96626 8.09578 9.10308L9.07012 15.9262C7.53465 18.2869 6.44521 20.9092 5.85586 23.663L0.35625 27.7875C0.245638 27.8705 0.15586 27.978 0.0940258 28.1017C0.0321917 28.2254 0 28.3617 0 28.5C0 28.6383 0.0321917 28.7746 0.0940258 28.8983C0.15586 29.022 0.245638 29.1295 0.35625 29.2125L5.85586 33.337C6.44521 36.0908 7.53465 38.7131 9.07012 41.0738L8.09578 47.8969C8.0763 48.0337 8.08892 48.1732 8.13265 48.3043C8.17638 48.4354 8.25002 48.5545 8.34774 48.6523C8.44547 48.75 8.56459 48.8236 8.69569 48.8673C8.82678 48.9111 8.96626 48.9237 9.10308 48.9042L15.9262 47.9299C18.2869 49.4653 20.9092 50.5548 23.663 51.1441L27.7875 56.6437C27.8705 56.7544 27.978 56.8441 28.1017 56.906C28.2254 56.9678 28.3617 57 28.5 57C28.6383 57 28.7746 56.9678 28.8983 56.906C29.022 56.8441 29.1295 56.7544 29.2125 56.6437L33.337 51.1441C36.0908 50.5548 38.7131 49.4653 41.0738 47.9299L47.8969 48.9042C48.0337 48.9237 48.1732 48.9111 48.3043 48.8673C48.4354 48.8236 48.5545 48.75 48.6523 48.6523C48.75 48.5545 48.8236 48.4354 48.8673 48.3043C48.9111 48.1732 48.9237 48.0337 48.9042 47.8969L47.9299 41.0738C49.4653 38.7131 50.5548 36.0908 51.1441 33.337L56.6437 29.2125C56.7544 29.1295 56.8441 29.022 56.906 28.8983C56.9678 28.7746 57 28.6383 57 28.5C57 28.3617 56.9678 28.2254 56.906 28.1017C56.8441 27.978 56.7544 27.8705 56.6437 27.7875ZM5.45953 30.8156L2.3753 28.5L5.45953 26.1844C5.38383 26.9476 5.34375 27.7189 5.34375 28.5C5.34375 29.2811 5.38383 30.0524 5.45953 30.8156ZM46.4514 10.5486L42.3457 21.041L40.6633 16.8328C40.6185 16.7206 40.5513 16.6187 40.4659 16.5332C40.3804 16.4478 40.2785 16.3806 40.1663 16.3358L35.959 14.6535L46.4514 10.5486ZM44.5312 29.3906H46.2671C46.043 33.794 44.193 37.9576 41.0753 41.0753C37.9576 44.193 33.794 46.043 29.3906 46.2671V44.5312C29.3906 44.295 29.2968 44.0685 29.1298 43.9015C28.9627 43.7345 28.7362 43.6406 28.5 43.6406C28.2638 43.6406 28.0373 43.7345 27.8702 43.9015C27.7032 44.0685 27.6094 44.295 27.6094 44.5312V46.2671C23.206 46.043 19.0424 44.193 15.9247 41.0753C12.807 37.9576 10.957 33.794 10.7329 29.3906H12.4688C12.705 29.3906 12.9315 29.2968 13.0985 29.1298C13.2655 28.9627 13.3594 28.7362 13.3594 28.5C13.3594 28.2638 13.2655 28.0373 13.0985 27.8702C12.9315 27.7032 12.705 27.6094 12.4688 27.6094H10.7329C10.957 23.206 12.807 19.0424 15.9247 15.9247C19.0424 12.807 23.206 10.957 27.6094 10.7329V12.4688C27.6094 12.705 27.7032 12.9315 27.8702 13.0985C28.0373 13.2655 28.2638 13.3594 28.5 13.3594C28.7362 13.3594 28.9627 13.2655 29.1298 13.0985C29.2968 12.9315 29.3906 12.705 29.3906 12.4688V10.7196C31.832 10.8445 34.2211 11.4731 36.4079 12.5658L33.2132 13.8127C33.0471 13.8779 32.9044 13.9914 32.8036 14.1387C32.7028 14.2859 32.6486 14.46 32.6479 14.6384C32.6472 14.8168 32.7002 14.9914 32.7999 15.1393C32.8995 15.2873 33.0414 15.4019 33.207 15.4684L39.1501 17.8463L41.5281 23.7895C41.5945 23.9551 41.7091 24.0969 41.8571 24.1966C42.0051 24.2963 42.1796 24.3492 42.358 24.3485C42.5364 24.3478 42.7105 24.2936 42.8578 24.1928C43.005 24.092 43.1186 23.9493 43.1837 23.7833L44.4306 20.5904C45.5251 22.7773 46.1549 25.1671 46.2804 27.6094H44.5312C44.295 27.6094 44.0685 27.7032 43.9015 27.8702C43.7345 28.0373 43.6406 28.2638 43.6406 28.5C43.6406 28.7362 43.7345 28.9627 43.9015 29.1298C44.0685 29.2968 44.295 29.3906 44.5312 29.3906ZM28.5 2.3753L30.8263 5.47645C30.0537 5.39249 29.2772 5.3482 28.5 5.34375C27.7189 5.34375 26.9476 5.38383 26.1844 5.45953L28.5 2.3753ZM13.8599 10.5744C12.6584 11.5577 11.5577 12.6584 10.5744 13.8599L10.0267 10.0302L13.8599 10.5744ZM10.0302 46.9733L10.578 43.1437C11.5613 44.3452 12.6619 45.4458 13.8635 46.4292L10.0302 46.9733ZM28.5 54.6247L26.1844 51.5405C26.9459 51.6162 27.7171 51.6562 28.5 51.6562C29.2829 51.6562 30.0524 51.6162 30.8156 51.5405L28.5 54.6247ZM43.1401 46.4256C44.3416 45.4423 45.4423 44.3416 46.4256 43.1401L46.9733 46.9698L43.1401 46.4256ZM28.5 49.875C22.831 49.875 17.3942 47.623 13.3856 43.6144C9.377 39.6058 7.125 34.169 7.125 28.5C7.125 22.831 9.377 17.3942 13.3856 13.3856C17.3942 9.377 22.831 7.125 28.5 7.125C32.8284 7.11827 37.0539 8.44487 40.6018 10.9244L38.5641 11.7206C34.4484 9.244 29.5688 8.35871 24.8454 9.23166C20.122 10.1046 15.8811 12.6755 12.9225 16.4596C9.96388 20.2436 8.4919 24.9794 8.78412 29.7739C9.07634 34.5684 11.1126 39.0903 14.5089 42.4871C17.9051 45.8838 22.4268 47.9206 27.2213 48.2135C32.0157 48.5063 36.7517 47.035 40.5361 44.0769C44.3206 41.1187 46.892 36.8783 47.7656 32.155C48.6392 27.4317 47.7546 22.552 45.2785 18.4359L46.08 16.3991C48.5576 19.9474 49.8826 24.1724 49.875 28.5C49.8684 34.167 47.6143 39.6 43.6071 43.6071C39.6 47.6143 34.167 49.8684 28.5 49.875ZM51.5405 30.8156C51.6162 30.0541 51.6562 29.2829 51.6562 28.5C51.6518 27.7228 51.6075 26.9464 51.5235 26.1737L54.6247 28.5L51.5405 30.8156Z" fill="#FFCC00"/>
<path d="M39.4039 23.183L28.7164 20.5111C28.5743 20.4755 28.4257 20.4755 28.2836 20.5111L17.5961 23.183C17.4035 23.2312 17.2325 23.3424 17.1104 23.499C16.9882 23.6555 16.9219 23.8483 16.9219 24.0469V38.2969C16.9219 38.4954 16.9882 38.6883 17.1104 38.8448C17.2325 39.0013 17.4035 39.1125 17.5961 39.1608L28.2836 41.8327C28.4257 41.8683 28.5743 41.8683 28.7164 41.8327L39.4039 39.1608C39.5965 39.1125 39.7675 39.0013 39.8896 38.8448C40.0118 38.6883 40.0781 38.4954 40.0781 38.2969V24.0469C40.0781 23.8483 40.0118 23.6555 39.8896 23.499C39.7675 23.3424 39.5965 23.2312 39.4039 23.183ZM27.6094 39.8279L18.7031 37.6013V32.1266L27.6094 29.9001V39.8279ZM27.6094 28.0645L18.7031 30.2911V28.435L27.6094 26.2084V28.0645ZM27.6094 24.372L18.7031 26.5985V24.7425L27.6094 22.5159V24.372ZM38.2969 37.6013L29.3906 39.8279V29.901L38.2969 32.1275V37.6013ZM38.2969 30.2911L29.3906 28.0645V26.2084L38.2969 28.435V30.2911ZM38.2969 26.5985L29.3906 24.372V22.5159L38.2969 24.7425V26.5985Z" fill="#FFCC00"/>
</g>
<defs>
<clipPath id="clip0_260_200">
<rect width="57" height="57" fill="white"/>
</clipPath>
</defs>
</svg>
